<?xml version="1.0" encoding="utf-8"?>
<!-- Svg Vector Icons : http://www.onlinewebfonts.com/icon -->
<!DOCTYPE svg PUBLIC "-//W3C//DTD SVG 1.1//EN" "http://www.w3.org/Graphics/SVG/1.1/DTD/svg11.dtd">
<svg version="1.1" xmlns="http://www.w3.org/2000/svg" xmlns:xlink="http://www.w3.org/1999/xlink" x="0px" y="0px" viewBox="0 0 1000 1000" enable-background="new 0 0 1000 1000" xml:space="preserve">
<metadata> Svg Vector Icons : http://www.onlinewebfonts.com/icon </metadata>
<g><path d="M858.6,479.4c-24.9,0-48.1,6.9-67.8,19c-7.4,4.5-16.7,4.7-24.3,0.4c-7.6-4.3-12.3-12.3-12.3-21V321.3c0-24.1-20.2-43.5-44.3-43.5H518c-8.5,0-16.4-4.5-20.7-11.8c-4.3-7.3-4.5-16.4-0.3-23.9c10.5-18.9,16.4-40.7,16.4-63.7c0-72.6-58.8-131.5-131.4-131.5c-72.6,0-131.4,58.9-131.4,131.5c0,23.1,5.9,44.8,16.4,63.7c4.1,7.5,4,16.5-0.3,23.9c-4.3,7.3-12.2,11.8-20.7,11.8H54.1C30,277.8,10,297.2,10,321.3V474c0,8.5,4.5,16.3,11.7,20.7c7.3,4.3,16.3,4.5,23.8,0.5c18.6-10,39.8-15.7,62.4-15.7c72.6,0,131.4,58.8,131.4,131.4c0,72.6-58.8,131.4-131.4,131.4c-22.6,0-43.8-5.7-62.4-15.7c-7.5-4-16.5-3.8-23.8,0.5c-7.3,4.3-11.7,12.2-11.7,20.7v161.8c0,24.1,20,43.6,44.1,43.6h655.7c24.1,0,44.3-19.5,44.3-43.6V743.8c0-8.7,4.7-16.7,12.3-21c7.6-4.3,16.9-4.1,24.3,0.4c19.7,12,42.9,19,67.8,19c72.6,0,131.4-58.8,131.4-131.4C990,538.3,931.2,479.4,858.6,479.4z"/></g>
</svg>