<?xml version="1.0" encoding="UTF-8" standalone="no"?>
<svg
   xmlns:dc="http://purl.org/dc/elements/1.1/"
   xmlns:cc="http://creativecommons.org/ns#"
   xmlns:rdf="http://www.w3.org/1999/02/22-rdf-syntax-ns#"
   xmlns:svg="http://www.w3.org/2000/svg"
   xmlns="http://www.w3.org/2000/svg"
   xmlns:sodipodi="http://sodipodi.sourceforge.net/DTD/sodipodi-0.dtd"
   xmlns:inkscape="http://www.inkscape.org/namespaces/inkscape"
   version="1.1"
   id="svg6514"
   viewBox="0 0 180.70864 201.96846"
   height="5.6999998cm"
   width="5.0999999cm"
   inkscape:version="0.91 r13725"
   sodipodi:docname="1999.svg">
  <sodipodi:namedview
     pagecolor="#ffffff"
     bordercolor="#666666"
     borderopacity="1"
     objecttolerance="10"
     gridtolerance="10"
     guidetolerance="10"
     inkscape:pageopacity="0"
     inkscape:pageshadow="2"
     inkscape:window-width="1052"
     inkscape:window-height="1057"
     id="namedview33602"
     showgrid="false"
     inkscape:zoom="1.9467377"
     inkscape:cx="80.075275"
     inkscape:cy="100.43767"
     inkscape:window-x="0"
     inkscape:window-y="19"
     inkscape:window-maximized="0"
     inkscape:current-layer="layer1" />
  <defs
     id="defs6516" />
  <metadata
     id="metadata6519">
    <rdf:RDF>
      <cc:Work
         rdf:about="">
        <dc:format>image/svg+xml</dc:format>
        <dc:type
           rdf:resource="http://purl.org/dc/dcmitype/StillImage" />
        <dc:title></dc:title>
      </cc:Work>
    </rdf:RDF>
  </metadata>
  <g
     transform="translate(0,-850.39462)"
     id="layer1">
    <circle
       style="fill:#3465a4;fill-opacity:1"
       id="circle55963-3"
       r="5"
       cy="995.31299"
       cx="61.581722"
       class="st1" />
    <text
       id="text6829"
       y="1051.8822"
       x="63.659252"
       style="font-style:normal;font-variant:normal;font-weight:normal;font-stretch:normal;font-size:40px;line-height:125%;font-family:'Museo Slab';-inkscape-font-specification:'Museo Slab, Normal';text-align:center;letter-spacing:0px;word-spacing:0px;writing-mode:lr-tb;text-anchor:middle;fill:#3464a4;fill-opacity:0.7372549;stroke:none;stroke-width:1px;stroke-linecap:butt;stroke-linejoin:miter;stroke-opacity:1"
       xml:space="preserve"><tspan
         y="1051.8822"
         x="63.659252"
         id="tspan6831">1999</tspan></text>
    <circle
       style="fill:#3365a4;fill-opacity:0.7372549;stroke:#ffffff;stroke-width:1.80900002;stroke-miterlimit:10;stroke-dasharray:none"
       id="circle55999-6"
       r="44.799999"
       cy="939.383"
       cx="64.250175"
       class="st6" />
    <path
       style="fill:#c8c6c6;fill-opacity:1"
       d="m 75.752378,931.62813 c 0.93287,-2.02208 -0.5446,-9.48696 -1.71068,-11.19764 1.08856,-0.38891 3.34385,-2.79925 -6.8434,-8.08765 -10.187249,-5.28776 -22.551619,-3.11064 -29.627586,6.37696 -7.076614,9.48695 3.810285,22.55162 5.482211,26.3619 1.671926,3.81029 1.594402,5.56297 1.594402,5.56297 l -3.017606,13.36442 24.207389,0 c 0.23387,-0.64603 0.77136,-4.92016 1.12797,-7.05981 1.63317,0.23321 4.48216,0.39084 7.51462,0.54589 3.03247,0.15569 1.97233,-3.57577 2.59446,-5.72447 -5.14175,-0.21965 -6.91252,-1.50138 -8.47979,-4.00862 1.63316,1.56275 7.18709,0.71451 7.88674,0.63634 0.69965,-0.0775 0.59305,-1.14283 -0.0291,-2.23333 -0.62213,-1.09049 1.9439,-3.1074 3.57707,-3.96274 1.63316,-0.85535 -4.89885,-8.08572 -4.27672,-10.57422 z"
       id="path6" />
    <path
       style="fill:#f1f1f1;fill-opacity:1"
       d="m 88.433308,928.64088 -2.54924,2.54924 c 4.07193,4.07192 6.31495,9.48566 6.31495,15.24308 0,5.75742 -2.24302,11.17115 -6.31495,15.24179 l 2.54924,2.55052 c 4.75284,-4.75219 7.37056,-11.07295 7.37056,-17.79231 0,-6.72195 -2.61707,-13.04077 -7.37056,-17.79232 z"
       id="path8" />
    <path
       style="fill:#f1f1f1;fill-opacity:1"
       d="m 84.217318,932.54743 -2.442,2.44328 c 6.30978,6.30978 6.30978,16.5752 0,22.88562 l 2.44329,2.44264 c 3.70886,-3.70951 5.75096,-8.63936 5.75096,-13.88577 0,-5.24641 -2.04404,-10.17756 -5.75225,-13.88577 z"
       id="path10" />
    <text
       id="text8385"
       y="864.28247"
       x="2.8675048"
       style="font-style:normal;font-variant:normal;font-weight:normal;font-stretch:normal;font-size:17.31798744px;line-height:125%;font-family:'Museo Slab';-inkscape-font-specification:'Museo Slab, Normal';text-align:center;letter-spacing:0px;word-spacing:0px;writing-mode:lr-tb;text-anchor:middle;fill:#8e8e8e;fill-opacity:1;stroke:none;stroke-width:1px;stroke-linecap:butt;stroke-linejoin:miter;stroke-opacity:1"
       xml:space="preserve"
       sodipodi:linespacing="125%"><tspan
         style="text-align:start;text-anchor:start"
         y="864.28247"
         x="2.8675048"
         id="tspan8387">Coniato da</tspan></text>
    <text
       y="883.28864"
       x="-1.7556136"
       style="font-style:normal;font-variant:normal;font-weight:normal;font-stretch:normal;font-size:17.31798744px;line-height:125%;font-family:'Museo Slab';-inkscape-font-specification:'Museo Slab, Normal';text-align:center;letter-spacing:0px;word-spacing:0px;writing-mode:lr-tb;text-anchor:middle;fill:#8e8e8e;fill-opacity:1;stroke:none;stroke-width:1px;stroke-linecap:butt;stroke-linejoin:miter;stroke-opacity:1"
       xml:space="preserve"
       sodipodi:linespacing="125%"
       id="text34168"><tspan
         style="text-align:start;text-anchor:start"
         y="883.28864"
         x="-1.7556136"
         id="tspan34170"> Kevin Ashton </tspan></text>
  </g>
</svg>
