<?xml version="1.0" encoding="UTF-8" standalone="no"?>
<svg
   xmlns:dc="http://purl.org/dc/elements/1.1/"
   xmlns:cc="http://creativecommons.org/ns#"
   xmlns:rdf="http://www.w3.org/1999/02/22-rdf-syntax-ns#"
   xmlns:svg="http://www.w3.org/2000/svg"
   xmlns="http://www.w3.org/2000/svg"
   width="10.1cm"
   height="8.6999998cm"
   viewBox="0 0 357.874 308.26767"
   id="svg7769"
   version="1.1">
  <defs
     id="defs7771" />
  <metadata
     id="metadata7774">
    <rdf:RDF>
      <cc:Work
         rdf:about="">
        <dc:format>image/svg+xml</dc:format>
        <dc:type
           rdf:resource="http://purl.org/dc/dcmitype/StillImage" />
        <dc:title></dc:title>
      </cc:Work>
    </rdf:RDF>
  </metadata>
  <g
     id="layer1"
     transform="translate(0,-744.0949)">
    <circle
       class="st1"
       cx="293.61179"
       cy="988.34015"
       r="5"
       id="circle55963"
       style="fill:#3465a4;fill-opacity:1" />
    <line
       class="st8"
       x1="293.11179"
       y1="976.44012"
       x2="293.11179"
       y2="897.34015"
       id="line55995"
       style="fill:none;stroke:#3465a4;stroke-width:2;stroke-miterlimit:10;stroke-dasharray:5.108, 5.108;stroke-opacity:0.7372549" />
    <line
       class="st3"
       x1="293.11179"
       y1="894.74011"
       x2="293.11179"
       y2="892.0401"
       id="line55997"
       style="fill:none;stroke:#3465a4;stroke-width:2;stroke-miterlimit:10;stroke-opacity:0.7372549" />
    <circle
       class="st6"
       cx="294.51181"
       cy="849.5401"
       r="44.799999"
       id="circle55999"
       style="fill:#3365a4;fill-opacity:0.7372549;stroke:#ffffff;stroke-width:1.80900002;stroke-miterlimit:10;stroke-dasharray:none" />
    <path
       style="fill:#c8c6c6;stroke:#c8c6c6;stroke-width:0.31979999;stroke-linecap:round;stroke-linejoin:round;stroke-miterlimit:10"
       id="path56003"
       d="m 325.6118,868.34008 -8,-16.2 c 0,0 0,0 0,-0.1 0.1,-0.4 0.2,-0.8 0.2,-1.2 l 0,-25.4 c 0,-2.1 -1.7,-4 -3.7,-4 l -39,0 c -2.1,0 -3.7,1.9 -3.7,4 l 0,25.4 c 0,0.4 0.1,0.8 0.2,1.2 0,0 0,0 0,0.1 l -8,16.2 c -0.5,1 -0.5,2.2 0,3.1 0.5,0.8 1.5,1.5 2.6,1.5 l 56.7,0 c 1.1,0 2.1,-0.6 2.6,-1.5 0.6,-0.9 0.6,-2.1 0.1,-3.1 z"
       class="st9" />
    <path
       style="fill:#f2f2f2"
       id="path56005"
       d="m 274.0118,826.04008 c 0,-0.7 0.4,-1.3 1.1,-1.3 l 39,0 c 0.7,0 1.1,0.7 1.1,1.3 l 0,22.7 c 0,0.7 -0.4,1.4 -1.1,1.4 l -39,0 c -0.7,0 -1.1,-0.7 -1.1,-1.4 l 0,-22.7 z"
       class="st10" />
    <path
       style="opacity:0.12999998;fill:#e5e6e5;enable-background:new"
       id="path56007"
       d="m 295.5118,824.74008 18.6,0 c 0.7,0 1.1,0.7 1.1,1.3 l 0,22.7 c 0,0.7 -0.4,1.4 -1.1,1.4 l -39,0 c -0.7,0 -1.1,-0.7 -1.1,-1.4 l 0,-3.7"
       class="st11" />
    <path
       style="opacity:0.3;fill:#ffffff;enable-background:new"
       id="path56009"
       d="m 274.0118,840.44008 0,-14.4 c 0,-0.7 0.4,-1.3 1.1,-1.3 l 16.3,0"
       class="st12" />
    <path
       style="fill:#f2f2f2"
       id="path56011"
       d="m 275.2118,855.24008 2.2,0 c 0.6,0 1.1,0.3 1.1,0.9 0,0.6 -0.5,0.9 -1.1,0.9 l -2.2,0 c -0.6,0 -1.1,-0.3 -1.1,-0.9 -0.1,-0.6 0.4,-0.9 1.1,-0.9 z"
       class="st10" />
    <path
       style="fill:#f2f2f2"
       id="path56013"
       d="m 314.1118,855.24008 c 0.6,0 1.1,0.3 1.1,0.9 0,0.6 -0.5,0.9 -1.1,0.9 l -2.2,0 c -0.6,0 -1.1,-0.3 -1.1,-0.9 0,-0.6 0.5,-0.9 1.1,-0.9 l 2.2,0 z"
       class="st10" />
    <path
       style="fill:#f2f2f2"
       id="path56015"
       d="m 309.0118,856.24008 c 0,0.6 -0.5,0.9 -1.1,0.9 l -2.2,0 c -0.6,0 -1.1,-0.3 -1.1,-0.9 0,-0.6 0.5,-0.9 1.1,-0.9 l 2.2,0 c 0.6,-0.1 1.1,0.2 1.1,0.9 z"
       class="st10" />
    <path
       style="fill:#f2f2f2"
       id="path56017"
       d="m 298.4118,856.24008 c 0,-0.6 0.5,-0.9 1.1,-0.9 l 2.2,0 c 0.6,0 1.1,0.3 1.1,0.9 0,0.6 -0.5,0.9 -1.1,0.9 l -2.2,0 c -0.6,0 -1.1,-0.3 -1.1,-0.9 z"
       class="st10" />
    <path
       style="fill:#f2f2f2"
       id="path56019"
       d="m 292.2118,856.24008 c 0,-0.6 0.5,-0.9 1.1,-0.9 l 2.2,0 c 0.6,0 1.1,0.3 1.1,0.9 0,0.6 -0.5,0.9 -1.1,0.9 l -2.2,0 c -0.6,0 -1.1,-0.3 -1.1,-0.9 z"
       class="st10" />
    <path
       style="fill:#f2f2f2"
       id="path56021"
       d="m 289.5118,857.14008 -2.2,0 c -0.6,0 -1.1,-0.3 -1.1,-0.9 0,-0.6 0.5,-0.9 1.1,-0.9 l 2.2,0 c 0.6,0 1.1,0.3 1.1,0.9 0,0.6 -0.5,0.9 -1.1,0.9 z"
       class="st10" />
    <path
       style="fill:#f2f2f2"
       id="path56023"
       d="m 284.5118,856.24008 c 0,0.6 -0.5,0.9 -1.1,0.9 l -2.2,0 c -0.6,0 -1.1,-0.3 -1.1,-0.9 0,-0.6 0.5,-0.9 1.1,-0.9 l 2.2,0 c 0.6,-0.1 1.1,0.2 1.1,0.9 z"
       class="st10" />
    <path
       style="fill:#f2f2f2"
       id="path56025"
       d="m 273.2118,861.94008 c -0.6,0 -1.1,-0.3 -1.1,-0.9 0,-0.6 0.5,-0.9 1.1,-0.9 l 2.7,0 c 0.6,0 1.1,0.3 1.1,0.9 0,0.6 -0.5,0.9 -1.1,0.9 l -2.7,0 z"
       class="st10" />
    <path
       style="fill:#f2f2f2"
       id="path56027"
       d="m 282.5118,861.94008 -2.6,0 c -0.6,0 -1.1,-0.3 -1.1,-0.9 0,-0.6 0.5,-0.9 1.1,-0.9 l 2.7,0 c 0.6,0 1.1,0.3 1.1,0.9 -0.1,0.6 -0.6,0.9 -1.2,0.9 z"
       class="st10" />
    <path
       style="fill:#f2f2f2"
       id="path56029"
       d="m 303.6118,861.04008 c 0,0.6 -0.5,0.9 -1.1,0.9 l -16.1,0 c -0.6,0 -1.1,-0.3 -1.1,-0.9 0,-0.6 0.5,-0.9 1.1,-0.9 l 16.1,0 c 0.6,-0.1 1.1,0.2 1.1,0.9 z"
       class="st10" />
    <path
       style="fill:#f2f2f2"
       id="path56031"
       d="m 299.5118,861.94008 0,0 0,0 c -0.1,0 -0.1,0 0,0 l 0,0 z"
       class="st10" />
    <path
       style="fill:#f2f2f2"
       id="path56033"
       d="m 305.4118,861.04008 c 0,-0.6 0.5,-0.9 1.1,-0.9 l 2.7,0 c 0.6,0 1.1,0.3 1.1,0.9 0,0.6 -0.5,0.9 -1.1,0.9 l -2.7,0 c -0.6,0 -1.1,-0.3 -1.1,-0.9 z"
       class="st10" />
    <path
       style="fill:#f2f2f2"
       id="path56035"
       d="m 312.1118,861.04008 c 0,-0.6 0.5,-0.9 1.1,-0.9 l 2.7,0 c 0.6,0 1.1,0.3 1.1,0.9 0,0.6 -0.5,0.9 -1.1,0.9 l -2.7,0 c -0.6,0 -1.1,-0.3 -1.1,-0.9 z"
       class="st10" />
    <path
       style="fill:#f2f2f2"
       id="path56037"
       d="m 298.8118,868.14008 -8.9,0 c -1,0 -1.7,-0.8 -1.4,-1.6 l 0.6,-2 c 0.2,-0.6 0.8,-1 1.4,-1 l 7.7,0 c 0.7,0 1.3,0.4 1.5,1 l 0.5,2 c 0.3,0.8 -0.5,1.6 -1.4,1.6 z"
       class="st10" />
    <line
       class="st15"
       x1="293.01181"
       y1="1004.1401"
       x2="293.01181"
       y2="990.14014"
       id="line56055"
       style="fill:none;stroke:#3465a4;stroke-miterlimit:10;stroke-dasharray:5.07679949,5.07679949;stroke-opacity:0.7372549;stroke-width:1.99999976;stroke-dashoffset:0" />
    <path
       style="fill:none;fill-rule:evenodd;stroke:#3464a4;stroke-width:1.54200006;stroke-linecap:butt;stroke-linejoin:miter;stroke-miterlimit:4;stroke-dasharray:none;stroke-opacity:0.7372549"
       d="M 0.01858958,995.98589 293.76715,988.90126"
       id="path6799" />
    <text
       xml:space="preserve"
       style="font-style:normal;font-variant:normal;font-weight:normal;font-stretch:normal;font-size:40px;line-height:125%;font-family:'Museo Slab';-inkscape-font-specification:'Museo Slab, Normal';text-align:center;letter-spacing:0px;word-spacing:0px;writing-mode:lr-tb;text-anchor:middle;fill:#3464a4;fill-opacity:0.7372549;stroke:none;stroke-width:1px;stroke-linecap:butt;stroke-linejoin:miter;stroke-opacity:1"
       x="299.07632"
       y="1051.8822"
       id="text6811"><tspan
         id="tspan6813"
         x="299.07632"
         y="1051.8822">2008</tspan></text>
    <text
       id="text8391"
       y="777.17267"
       x="257.10718"
       style="font-style:normal;font-variant:normal;font-weight:normal;font-stretch:normal;font-size:21.81699753px;line-height:125%;font-family:'Museo Slab';-inkscape-font-specification:'Museo Slab, Normal';text-align:center;letter-spacing:0px;word-spacing:0px;writing-mode:lr-tb;text-anchor:middle;fill:#8e8e8e;fill-opacity:1;stroke:none;stroke-width:1px;stroke-linecap:butt;stroke-linejoin:miter;stroke-opacity:1"
       xml:space="preserve"><tspan
         style="font-size:15px;text-align:start;text-anchor:start;fill:#8e8e8e;fill-opacity:1"
         id="tspan8395"
         y="777.17267"
         x="257.10718">750 milioni </tspan><tspan
         id="tspan8450"
         style="font-size:15px;text-align:start;text-anchor:start;fill:#8e8e8e;fill-opacity:1"
         y="795.92267"
         x="257.10718">di laptop.</tspan><tspan
         id="tspan8399"
         style="font-size:15px;text-align:start;text-anchor:start;fill:#8e8e8e;fill-opacity:1"
         y="814.67267"
         x="257.10718" /></text>
  </g>
</svg>
