<?xml version="1.0" encoding="UTF-8" standalone="no"?>
<svg
   xmlns:dc="http://purl.org/dc/elements/1.1/"
   xmlns:cc="http://creativecommons.org/ns#"
   xmlns:rdf="http://www.w3.org/1999/02/22-rdf-syntax-ns#"
   xmlns:svg="http://www.w3.org/2000/svg"
   xmlns="http://www.w3.org/2000/svg"
   width="6.5cm"
   height="12.7cm"
   viewBox="0 0 230.31496 449.99995"
   id="svg7169"
   version="1.1">
  <defs
     id="defs7171" />
  <metadata
     id="metadata7174">
    <rdf:RDF>
      <cc:Work
         rdf:about="">
        <dc:format>image/svg+xml</dc:format>
        <dc:type
           rdf:resource="http://purl.org/dc/dcmitype/StillImage" />
        <dc:title></dc:title>
      </cc:Work>
    </rdf:RDF>
  </metadata>
  <g
     id="layer1"
     transform="translate(0,-602.36293)">
    <circle
       class="st1"
       cx="177.37183"
       cy="834.55994"
       r="5"
       id="circle55967"
       style="fill:#3465a4;fill-opacity:1" />
    <line
       class="st13"
       x1="177.77182"
       y1="1008.2599"
       x2="177.77182"
       y2="1006.9599"
       id="line56077"
       style="fill:none;stroke:#3465a4;stroke-miterlimit:10;stroke-opacity:0.7372549" />
    <line
       class="st18"
       x1="177.77182"
       y1="1004.1599"
       x2="177.77182"
       y2="841.85992"
       id="line56079"
       style="fill:none;stroke:#3465a4;stroke-miterlimit:10;stroke-dasharray:5.4572,5.4572;stroke-opacity:0.7372549;stroke-width:2;stroke-dashoffset:0" />
    <line
       class="st13"
       x1="177.77182"
       y1="840.4599"
       x2="177.77182"
       y2="839.15991"
       id="line56081"
       style="fill:none;stroke:#3465a4;stroke-miterlimit:10;stroke-opacity:0.7372549" />
    <circle
       class="st6"
       cx="96.871826"
       cy="738.75995"
       r="44.799999"
       id="circle56092"
       style="fill:#3365a4;fill-opacity:0.7372549;stroke:#ffffff;stroke-width:1.80900002;stroke-miterlimit:10;stroke-dasharray:none" />
    <path
       style="fill:#ffffff;stroke:#c8c6c6;stroke-width:2.24239993;stroke-miterlimit:10"
       id="path56096"
       d="m 102.27183,755.45989 -9.400001,0 c -4.9,0 -9,-4 -9,-9 l 0,-15.00001 c 0,-5 4.1,-9 9,-9 l 9.400001,0 c 4.9,0 9,4 9,9 l 0,15.00001 c 0,5 -4,9 -9,9 z"
       class="st21" />
    <circle
       class="st22"
       cx="97.77182"
       cy="739.05994"
       r="3.7"
       id="circle56100"
       style="fill:#c8c6c6" />
    <circle
       class="st22"
       cx="94.171814"
       cy="732.15991"
       r="2.9000001"
       id="circle56102"
       style="fill:#c8c6c6" />
    <circle
       class="st22"
       cx="101.47183"
       cy="732.15991"
       r="2.9000001"
       id="circle56104"
       style="fill:#c8c6c6" />
    <circle
       class="st22"
       cx="94.171814"
       cy="746.35992"
       r="2.9000001"
       id="circle56106"
       style="fill:#c8c6c6" />
    <circle
       class="st22"
       cx="101.47183"
       cy="746.35992"
       r="2.9000001"
       id="circle56108"
       style="fill:#c8c6c6" />
    <circle
       class="st22"
       cx="105.37183"
       cy="739.05994"
       r="2.9000001"
       id="circle56110"
       style="fill:#c8c6c6" />
    <circle
       class="st22"
       cx="89.971848"
       cy="739.05994"
       r="2.9000001"
       id="circle56112"
       style="fill:#c8c6c6" />
    <path
       class="st22"
       d="m 100.67183,720.75988 -6.100001,0 c -0.6,0 -2.2,0.1 -2.7,-0.1 -1.9,-0.7 -2.3,-2.7 -2.3,-4.9 l 0,-2.1 c 0,-0.6 -0.1,-1.4 0.1,-1.9 0.7,-1.9 2.7,-3.1 4.9,-3.1 l 6.100001,0 c 2.2,0 4.2,1.3 4.8,3.3 0.2,0.5 0.2,1.1 0.2,1.7 l 0,2.1 c 0,2.1 -0.8,4.1 -2.7,4.9 -0.5,0.2 -1.7,0.1 -2.3,0.1 z"
       id="path56116"
       style="fill:#c8c6c6" />
    <path
       class="st23"
       d="m 92.771829,720.55988 -5.9,0 c 0,0 1.4,-0.9 1.9,-2.2 0.9,-2.3 1,-5.8 1,-5.8 l 3,8 z"
       id="path56118"
       style="fill:#c8c6c6;stroke:#c8c6c6;stroke-width:0.47999999;stroke-linecap:round;stroke-linejoin:round;stroke-miterlimit:10" />
    <path
       class="st23"
       d="m 102.37183,720.55988 5.9,0 c 0,0 -1.4,-0.9 -1.9,-2.2 -0.9,-2.3 -1,-5.8 -1,-5.8 l -3,8 z"
       id="path56120"
       style="fill:#c8c6c6;stroke:#c8c6c6;stroke-width:0.47999999;stroke-linecap:round;stroke-linejoin:round;stroke-miterlimit:10" />
    <path
       style="fill:#c8c6c6"
       id="path56122"
       d="m 112.67183,736.05989 0,0 c -1,0 -1.8,-0.8 -1.8,-1.80001 l 0,-2.6 c 0,-1 0.8,-1.8 1.8,-1.8 l 0,0 c 1,0 1.8,0.8 1.8,1.8 l 0,2.6 c 0.1,0.90001 -0.8,1.80001 -1.8,1.80001 z"
       class="st22" />
    <path
       style="fill:#c8c6c6"
       id="path56124"
       d="m 112.07183,748.85989 0,0 c -1,0 -1.8,-0.8 -1.8,-1.8 l 0,-5 c 0,-1 0.8,-1.8 1.8,-1.8 l 0,0 c 1,0 1.8,0.8 1.8,1.8 l 0,5 c 0,1 -0.8,1.8 -1.8,1.8 z"
       class="st22" />
    <line
       class="st3"
       x1="177.1637"
       y1="835.27795"
       x2="177.1637"
       y2="833.60913"
       id="line55975-5"
       style="fill:none;stroke:#3465a4;stroke-width:1.57194591;stroke-miterlimit:10;stroke-opacity:0.7372549" />
    <line
       class="st4"
       x1="177.1637"
       y1="830.33325"
       x2="177.1637"
       y2="733.97296"
       id="line55977-7"
       style="fill:none;stroke:#3465a4;stroke-width:1.57194591;stroke-miterlimit:10;stroke-dasharray:4.15449598, 4.15449598;stroke-opacity:0.7372549" />
    <polyline
       class="st3"
       points="189.3,321.7 189.3,319 186.6,319     "
       id="polyline55979-1"
       style="fill:none;stroke:#3465a4;stroke-width:2;stroke-miterlimit:10;stroke-opacity:0.7372549"
       transform="matrix(0.99945535,0,0,0.61809017,-12.033201,533.4645)" />
    <line
       class="st3"
       x1="177.10275"
       y1="730.96936"
       x2="176.23752"
       y2="730.96936"
       id="line56130-8"
       style="fill:none;stroke:#3465a4;stroke-width:1.13217735;stroke-miterlimit:10;stroke-opacity:0.7372549" />
    <line
       class="st24"
       x1="174.44296"
       y1="730.96936"
       x2="139.64142"
       y2="730.96936"
       id="line56132-5"
       style="fill:none;stroke:#3465a4;stroke-width:1.13217735;stroke-miterlimit:10;stroke-dasharray:3.15271752, 3.15271752;stroke-opacity:0.7372549" />
    <line
       class="st3"
       x1="138.74414"
       y1="730.96936"
       x2="137.87891"
       y2="730.96936"
       id="line56134-1"
       style="fill:none;stroke:#3465a4;stroke-width:1.13217735;stroke-miterlimit:10;stroke-opacity:0.7372549" />
    <text
       xml:space="preserve"
       style="font-style:normal;font-variant:normal;font-weight:normal;font-stretch:normal;font-size:40px;line-height:125%;font-family:'Museo Slab';-inkscape-font-specification:'Museo Slab, Normal';text-align:center;letter-spacing:0px;word-spacing:0px;writing-mode:lr-tb;text-anchor:middle;fill:#3464a4;fill-opacity:0.7372549;stroke:none;stroke-width:1px;stroke-linecap:butt;stroke-linejoin:miter;stroke-opacity:1"
       x="175.72617"
       y="1051.8822"
       id="text6819"><tspan
         id="tspan6821"
         x="175.72617"
         y="1051.8822">2014</tspan></text>
    <text
       id="text8436"
       y="645.08575"
       x="72.842789"
       style="font-style:normal;font-variant:normal;font-weight:normal;font-stretch:normal;font-size:39.99999619px;line-height:125%;font-family:'Museo Slab';-inkscape-font-specification:'Museo Slab, Normal';text-align:center;letter-spacing:0px;word-spacing:0px;writing-mode:lr-tb;text-anchor:middle;fill:#8e8e8e;fill-opacity:0.75294118;stroke:none;stroke-width:1px;stroke-linecap:butt;stroke-linejoin:miter;stroke-opacity:1"
       xml:space="preserve"><tspan
         style="font-size:15px;text-align:start;text-anchor:start;fill:#8e8e8e;fill-opacity:0.75294118"
         y="645.08575"
         x="72.842789"
         id="tspan8438">7.5 miliardi</tspan><tspan
         style="font-size:15px;text-align:start;text-anchor:start;fill:#8e8e8e;fill-opacity:0.75294118"
         id="tspan8440"
         y="663.83575"
         x="72.842789">di werable</tspan><tspan
         style="font-size:15px;text-align:start;text-anchor:start;fill:#8e8e8e;fill-opacity:0.75294118"
         id="tspan8442"
         y="682.58575"
         x="72.842789">prodotti</tspan></text>
    <path
       style="fill:#3464a4;fill-opacity:0.7372549;fill-rule:evenodd;stroke:#3464a4;stroke-width:1.60000002;stroke-linecap:butt;stroke-linejoin:miter;stroke-miterlimit:4;stroke-dasharray:none;stroke-opacity:0.7372549"
       d="M 0.48465918,968.97855 176.95596,834.60108"
       id="path5600" />
    <path
       style="fill:#c8c6c6"
       id="path56152"
       d="m 94.471829,757.25989 6.100001,0 c 0.6,0 2.2,-0.1 2.7,0.1 1.9,0.7 2.3,2.7 2.3,4.9 l 0,2.1 c 0,0.6 0.1,1.4 -0.1,1.9 -0.7,1.9 -2.7,3.1 -4.9,3.1 l -6.100001,0 c -2.2,0 -4.2,-1.3 -4.8,-3.3 -0.2,-0.5 -0.2,-1.1 -0.2,-1.7 l 0,-2.1 c 0,-2.1 0.8,-4.1 2.7,-4.9 0.5,-0.2 1.6,-0.1 2.3,-0.1 z"
       class="st22" />
    <path
       style="fill:#c8c6c6;stroke:#c8c6c6;stroke-width:0.47999999;stroke-linecap:round;stroke-linejoin:round;stroke-miterlimit:10"
       id="path56154"
       d="m 102.27183,757.45989 5.9,0 c 0,0 -1.4,0.9 -1.9,2.2 -0.9,2.3 -1,5.8 -1,5.8 l -3,-8 z"
       class="st23" />
    <path
       style="fill:#c8c6c6;stroke:#c8c6c6;stroke-width:0.47999999;stroke-linecap:round;stroke-linejoin:round;stroke-miterlimit:10"
       id="path56156"
       d="m 92.671829,757.45989 -5.9,0 c 0,0 1.4,0.9 1.9,2.2 0.9,2.3 1,5.8 1,5.8 l 3,-8 z"
       class="st23" />
  </g>
</svg>
