<?xml version="1.0" encoding="UTF-8" standalone="no"?>
<svg
   xmlns:dc="http://purl.org/dc/elements/1.1/"
   xmlns:cc="http://creativecommons.org/ns#"
   xmlns:rdf="http://www.w3.org/1999/02/22-rdf-syntax-ns#"
   xmlns:svg="http://www.w3.org/2000/svg"
   xmlns="http://www.w3.org/2000/svg"
   width="8.1999998cm"
   height="15.7cm"
   viewBox="0 0 290.55114 556.29916"
   id="svg7342"
   version="1.1">
  <defs
     id="defs7344" />
  <metadata
     id="metadata7347">
    <rdf:RDF>
      <cc:Work
         rdf:about="">
        <dc:format>image/svg+xml</dc:format>
        <dc:type
           rdf:resource="http://purl.org/dc/dcmitype/StillImage" />
        <dc:title></dc:title>
      </cc:Work>
    </rdf:RDF>
  </metadata>
  <g
     id="layer1"
     transform="translate(0,-496.06369)">
    <circle
       class="st1"
       cx="210.30453"
       cy="594.35992"
       r="5"
       id="circle55969"
       style="fill:#3465a4;fill-opacity:1" />
    <line
       class="st3"
       x1="211.30453"
       y1="593.55994"
       x2="208.60452"
       y2="593.55994"
       id="line56130"
       style="fill:none;stroke:#3465a4;stroke-width:2;stroke-miterlimit:10;stroke-opacity:0.7372549" />
    <line
       class="st24"
       x1="203.00449"
       y1="593.55994"
       x2="94.404503"
       y2="593.55994"
       id="line56132"
       style="fill:none;stroke:#3465a4;stroke-width:2;stroke-miterlimit:10;stroke-dasharray:5.5693, 5.5693;stroke-opacity:0.7372549" />
    <line
       class="st3"
       x1="91.604515"
       y1="593.55994"
       x2="88.904503"
       y2="593.55994"
       id="line56134"
       style="fill:none;stroke:#3465a4;stroke-width:2;stroke-miterlimit:10;stroke-opacity:0.7372549" />
    <circle
       class="st6"
       cx="45.704498"
       cy="596.4599"
       r="44.799999"
       id="circle56136"
       style="fill:#3365a4;fill-opacity:0.7372549;stroke:#ffffff;stroke-width:1.80900002;stroke-miterlimit:10;stroke-dasharray:none" />
    <line
       class="st26"
       x1="212.00449"
       y1="1001.4599"
       x2="212.00449"
       y2="598.05994"
       id="line56146"
       style="fill:none;stroke:#3465a4;stroke-miterlimit:10;stroke-dasharray:5.39619936,5.39619936;stroke-opacity:0.7372549;stroke-width:1.99999976;stroke-dashoffset:0" />
    <line
       class="st13"
       x1="212.00449"
       y1="596.65991"
       x2="212.00449"
       y2="595.35992"
       id="line56148"
       style="fill:none;stroke:#3465a4;stroke-miterlimit:10;stroke-opacity:0.7372549" />
    <text
       xml:space="preserve"
       style="font-style:normal;font-variant:normal;font-weight:normal;font-stretch:normal;font-size:40px;line-height:125%;font-family:'Museo Slab';-inkscape-font-specification:'Museo Slab, Normal';text-align:center;letter-spacing:0px;word-spacing:0px;writing-mode:lr-tb;text-anchor:middle;fill:#3464a4;fill-opacity:0.7372549;stroke:none;stroke-width:1px;stroke-linecap:butt;stroke-linejoin:miter;stroke-opacity:1"
       x="211.62399"
       y="1051.8822"
       id="text6823"><tspan
         id="tspan6825"
         x="211.62399"
         y="1051.8822">2020</tspan></text>
    <text
       id="text8444"
       y="530.54199"
       x="59.961998"
       style="font-style:normal;font-variant:normal;font-weight:normal;font-stretch:normal;font-size:39.99999619px;line-height:125%;font-family:'Museo Slab';-inkscape-font-specification:'Museo Slab, Normal';text-align:center;letter-spacing:0px;word-spacing:0px;writing-mode:lr-tb;text-anchor:middle;fill:#8e8e8e;fill-opacity:0.75294118;stroke:none;stroke-width:1px;stroke-linecap:butt;stroke-linejoin:miter;stroke-opacity:1"
       xml:space="preserve"><tspan
         style="font-size:15px"
         y="530.54199"
         x="61.836998"
         id="tspan8446">~20 miliardi </tspan><tspan
         style="font-size:15px"
         id="tspan8448"
         y="549.29199"
         x="59.961998">di devices</tspan></text>
    <path
       style="fill:#3464a4;fill-opacity:0.7372549;fill-rule:evenodd;stroke:#3464a4;stroke-width:1.60000002;stroke-linecap:butt;stroke-linejoin:miter;stroke-miterlimit:4;stroke-dasharray:none;stroke-opacity:0.7372549"
       d="M 4.8184268,834.62671 210.08673,594.92499"
       id="path5604" />
    <path
       class="st10"
       d="m 57.60454,592.6599 c 0,-6.5 -5.3,-11.9 -11.9,-11.9 -6.5,0 -11.9,5.3 -11.9,11.9 0,1.6 0.3,3 0.8,4.4 0,0 0.5,1.1 1,2.2 0.4,0.9 1.4,2.3 1.8,2.8 0,0 1.4,1.6 1.8,2.5 0.4,0.9 0.5,1.2 0.5,2.3 0,1 0.2,7.7 0.2,7.7 0,0 1.1,1 2.2,1.3 1,0.3 1.9,0.6 3.2,0.6 1.3,0 2.5,-0.1 3.2,-0.4 0.7,-0.3 1.5,-0.7 2,-1 0.5,-0.4 0.8,-0.6 0.8,-0.6 0,0 0,-6.7 0.1,-7.6 0.1,-0.9 0.4,-1.4 0.8,-2 0.4,-0.6 0.8,-1.4 1.6,-2.6 0.6,-0.9 1.4,-2 2,-3 0.1,-0.3 0.3,-0.6 0.4,-0.8 0.8,-1.7 1.4,-3.7 1.4,-5.8 z"
       id="path56162"
       style="fill:#f2f2f2" />
    <rect
       x="39.804543"
       y="608.9599"
       class="st22"
       width="11.5"
       height="2"
       id="rect56164"
       style="fill:#c8c6c6" />
    <path
       class="st22"
       d="m 39.90454,613.0599 c 0,0.9 0,1.5 0,1.5 0,0 1.1,1 2.2,1.3 1,0.3 1.9,0.6 3.2,0.6 1.3,0 2.5,-0.1 3.2,-0.4 0.7,-0.3 1.5,-0.7 2,-1 0.5,-0.4 0.8,-0.6 0.8,-0.6 0,0 0,-0.6 0,-1.4 l -11.4,0 z"
       id="path56166"
       style="fill:#c8c6c6" />
    <ellipse
       class="st25"
       cx="49.704498"
       cy="590.65991"
       rx="3.0999999"
       ry="3.4000001"
       id="ellipse56168"
       style="fill:#ffffff" />
    <line
       style="fill:none;stroke:#c8c6c6;stroke-width:1.46920002;stroke-miterlimit:10"
       id="line56170"
       y2="568.65991"
       x2="45.804543"
       y1="577.05994"
       x1="45.804543"
       class="st27" />
    <line
       style="fill:none;stroke:#c8c6c6;stroke-width:1.46920002;stroke-miterlimit:10"
       id="line56172"
       y2="594.05994"
       x2="21.604553"
       y1="594.05994"
       x1="30.104546"
       class="st27" />
    <line
       style="fill:none;stroke:#c8c6c6;stroke-width:1.46920002;stroke-miterlimit:10"
       id="line56174"
       y2="594.05994"
       x2="61.304527"
       y1="594.05994"
       x1="69.804527"
       class="st27" />
    <line
       style="fill:none;stroke:#c8c6c6;stroke-width:1.46920002;stroke-miterlimit:10"
       id="line56176"
       y2="609.15991"
       x2="26.304535"
       y1="603.85992"
       x1="32.904541"
       class="st27" />
    <line
       style="fill:none;stroke:#c8c6c6;stroke-width:1.46920002;stroke-miterlimit:10"
       id="line56178"
       y2="582.9599"
       x2="58.804527"
       y1="577.65991"
       x1="65.404503"
       class="st27" />
    <line
       style="fill:none;stroke:#c8c6c6;stroke-width:1.46920002;stroke-miterlimit:10"
       id="line56180"
       y2="578.4599"
       x2="25.204529"
       y1="583.4599"
       x1="32.104546"
       class="st27" />
    <line
       style="fill:none;stroke:#c8c6c6;stroke-width:1.46920002;stroke-miterlimit:10"
       id="line56182"
       y2="603.65991"
       x2="59.304527"
       y1="608.55994"
       x1="66.204491"
       class="st27" />
  </g>
</svg>
