<svg xmlns="http://www.w3.org/2000/svg" viewBox="0 0 79.01 79.01"><defs><style>.a{fill:#464646;}</style></defs><title>Asset 221IoT Analytics</title><path class="a" d="M39.51,0A39.51,39.51,0,1,0,79,39.51,39.55,39.55,0,0,0,39.51,0Zm0,77.51a38,38,0,1,1,38-38A38,38,0,0,1,39.51,77.51Z"/><path class="a" d="M63.4,36.77a8.25,8.25,0,0,0-6.19-8q0-.31,0-.63A16.9,16.9,0,0,0,24.1,23.37a10.85,10.85,0,0,0,1,21.66h5.35V43.49H25.07a9.31,9.31,0,0,1-.35-18.61l.58,0,.14-.56a15.36,15.36,0,0,1,30.23,3.83c0,.39,0,.79,0,1.18l-.05.7.69.12a6.73,6.73,0,0,1-1.15,13.35h-2.6v8.14h1.54V45h1.05A8.28,8.28,0,0,0,63.4,36.77Z"/><rect class="a" x="43.26" y="52.64" width="0.97" height="1.16"/><rect class="a" x="43.26" y="54.96" width="0.97" height="1.16"/><rect class="a" x="43.26" y="57.28" width="0.97" height="1.16"/><rect class="a" x="43.26" y="50.33" width="0.97" height="1.16"/><polygon class="a" points="43.26 49.07 43.26 49.17 43.63 49.17 44.23 49.17 44.23 48.01 43.26 48.01 43.26 49.07"/><path class="a" d="M43.75,37.83a1.81,1.81,0,0,0-.48,3.56v5.36h1V41.4a1.81,1.81,0,0,0-.48-3.56Zm0,2.66a.85.85,0,1,1,.85-.85A.85.85,0,0,1,43.75,40.5Z"/><rect class="a" x="55.72" y="53.9" width="1.16" height="0.97"/><rect class="a" x="51.08" y="53.9" width="1.16" height="0.97"/><rect class="a" x="58.03" y="53.9" width="1.16" height="0.97"/><rect class="a" x="53.4" y="53.9" width="1.16" height="0.97"/><rect class="a" x="59.96" y="50.61" width="1.16" height="0.97"/><rect class="a" x="57.65" y="50.61" width="1.16" height="0.97"/><rect class="a" x="55.33" y="50.61" width="1.16" height="0.97"/><rect class="a" x="26.76" y="50.9" width="1.16" height="0.97"/><rect class="a" x="22.12" y="50.9" width="1.16" height="0.97"/><rect class="a" x="24.44" y="50.9" width="1.16" height="0.97"/><rect class="a" x="19.81" y="50.9" width="1.16" height="0.97"/><rect class="a" x="29.07" y="50.9" width="0.97" height="0.97"/><rect class="a" x="52.92" y="57.47" width="1.16" height="0.97"/><rect class="a" x="50.6" y="57.47" width="1.16" height="0.97"/><rect class="a" x="45.97" y="57.47" width="1.16" height="0.97"/><rect class="a" x="48.28" y="57.47" width="1.16" height="0.97"/><rect class="a" x="30.23" y="57.37" width="1.16" height="0.97"/><rect class="a" x="32.55" y="57.37" width="1.16" height="0.97"/><rect class="a" x="34.87" y="57.37" width="0.97" height="0.97"/><rect class="a" x="27.92" y="57.37" width="1.16" height="0.97"/><path class="a" d="M25.6,57.39a1.81,1.81,0,1,0-2.2,2.32,1.77,1.77,0,0,0,1,0,1.8,1.8,0,0,0,1.27-1.38h1.12v-1H25.6Zm-1.71,1.42a.85.85,0,1,1,.85-.85A.85.85,0,0,1,23.89,58.82Z"/><path class="a" d="M46.8,35.37a1.81,1.81,0,1,0-1,0v2.17l3.23,3.23V54.86h1V40.38L46.8,37.14Z"/><rect class="a" x="37.58" y="54.96" width="0.97" height="1.16"/><rect class="a" x="37.58" y="52.64" width="0.97" height="1.16"/><rect class="a" x="37.58" y="48.01" width="0.97" height="1.16"/><rect class="a" x="37.58" y="57.28" width="0.97" height="1.16"/><rect class="a" x="37.58" y="50.33" width="0.97" height="1.16"/><path class="a" d="M40.42,21.58a1.81,1.81,0,0,0-.48,3.56v10l-2.36,2.36v9.28h1V37.88l2.36-2.37V25.14a1.81,1.81,0,0,0-.48-3.56Z"/><rect class="a" x="29.8" y="54.23" width="1.16" height="0.97"/><rect class="a" x="20.53" y="54.23" width="1.16" height="0.97"/><rect class="a" x="27.48" y="54.23" width="1.16" height="0.97"/><rect class="a" x="22.85" y="54.23" width="1.16" height="0.97"/><rect class="a" x="25.16" y="54.23" width="1.16" height="0.97"/><path class="a" d="M34.15,30a1.81,1.81,0,0,0-.48,3.56v1.77l-2,2v18h1V37.69l2-2V33.54A1.81,1.81,0,0,0,34.15,30Zm0,2.66a.85.85,0,1,1,.85-.85A.85.85,0,0,1,34.15,32.64Z"/><path class="a" d="M58,56.15a1.81,1.81,0,0,0-1.79,1.62v-.3h-1v1h1v-.35a1.81,1.81,0,0,0,1.31,1.63A1.81,1.81,0,1,0,58,56.15Z"/><path class="a" d="M16.78,52.87A1.82,1.82,0,1,0,18.5,55.2h.87v-1h-.85A1.81,1.81,0,0,0,16.78,52.87Z"/><path class="a" d="M63,52.58a1.81,1.81,0,0,0-1.74,1.32h-.89v1h.9A1.81,1.81,0,1,0,63,52.58Zm0,2.66a.85.85,0,1,1,.85-.85A.85.85,0,0,1,63,55.24Z"/></svg>