<?xml version="1.0" encoding="iso-8859-1"?>
<!-- Generator: Adobe Illustrator 18.1.1, SVG Export Plug-In . SVG Version: 6.00 Build 0)  -->
<svg version="1.1" id="Capa_1" xmlns="http://www.w3.org/2000/svg" xmlns:xlink="http://www.w3.org/1999/xlink" x="0px" y="0px"
	 viewBox="0 0 290.142 290.142" style="enable-background:new 0 0 290.142 290.142;" xml:space="preserve">
<g>
	<path id="path12085" d="M61.995,0.071c-10.355,0-18.848,8.492-18.848,18.846v33.799c-0.088,0.537-0.088,1.084,0,1.621v116.889
		c0,10.354,8.494,18.846,18.848,18.846h78.076c0,0.001,0,0.001,0,0.002v50c-0.002,0.167,0.003,0.334,0.018,0.5
		c-9.774,1.998-17.521,9.748-19.516,19.523c-0.167-0.016-0.334-0.024-0.502-0.023h-115c-2.761-0.039-5.032,2.168-5.071,4.929
		c-0.039,2.761,2.168,5.032,4.929,5.071c0.047,0.001,0.094,0.001,0.141,0h115c0.168,0.003,0.336-0.003,0.504-0.018
		c2.327,11.382,12.454,20.016,24.496,20.016c12.044,0,22.173-8.637,24.498-20.021c0.167,0.016,0.334,0.024,0.502,0.023h115
		c2.761,0.039,5.032-2.168,5.071-4.929c0.039-2.761-2.168-5.032-4.929-5.071c-0.047-0.001-0.094-0.001-0.141,0h-115
		c-0.168-0.003-0.335,0.003-0.502,0.018c-1.997-9.774-9.747-17.522-19.521-19.518c0.016-0.166,0.024-0.333,0.023-0.5v-50
		c0-0.001,0-0.001,0-0.002h78.076c10.354,0,18.848-8.491,18.848-18.846V54.352c0.088-0.537,0.088-1.084,0-1.621V18.917
		c0-10.354-8.493-18.846-18.848-18.846H61.995z M61.995,10.071h166.152c4.987,0,8.848,3.859,8.848,8.846v29.617H53.147V18.917
		C53.147,13.931,57.008,10.071,61.995,10.071z M72.38,22.354c-3.823,0-6.923,3.099-6.924,6.922c0,3.824,3.099,6.923,6.922,6.924
		c0.001,0,0.001,0,0.002,0c3.823-0.001,6.922-3.1,6.922-6.924C79.301,25.454,76.202,22.355,72.38,22.354z M90.841,22.354
		c-3.823,0-6.923,3.099-6.924,6.922c0,3.824,3.099,6.923,6.922,6.924c0.001,0,0.001,0,0.002,0c3.824,0,6.923-3.099,6.924-6.922
		c0,0,0-0.001,0-0.002C97.764,25.453,94.664,22.354,90.841,22.354z M109.302,22.354c-3.823,0.001-6.921,3.099-6.922,6.922
		c0,3.823,3.099,6.923,6.922,6.924c3.824,0,6.923-3.099,6.924-6.922c0,0,0-0.001,0-0.002
		C116.225,25.453,113.125,22.354,109.302,22.354z M53.147,58.534h183.848v112.691c0,4.988-3.86,8.846-8.848,8.846H61.995
		c-4.987,0-8.848-3.858-8.848-8.846V58.534z M228.11,102.944c-1.38,0.02-2.482,1.155-2.463,2.535v63.27H186.61
		c-1.381-0.02-2.516,1.084-2.535,2.465c-0.02,1.381,1.084,2.516,2.465,2.535c0.024,0,0.047,0,0.071,0h41.537
		c1.381,0,2.5-1.119,2.5-2.5v-65.77c0.019-1.381-1.084-2.516-2.465-2.535C228.158,102.944,228.134,102.944,228.11,102.944z
		 M145.071,250.071c8.343,0,15,6.657,15,15s-6.657,15-15,15s-15-6.657-15-15S136.728,250.071,145.071,250.071z M145.071,252.573
		c-6.874,0-12.5,5.626-12.5,12.5c-0.02,1.381,1.084,2.516,2.465,2.535c1.381,0.02,2.516-1.084,2.535-2.465c0-0.024,0-0.047,0-0.071
		c0-4.172,3.328-7.5,7.5-7.5c1.381,0.02,2.516-1.084,2.535-2.465c0.02-1.381-1.084-2.516-2.465-2.535
		C145.118,252.573,145.095,252.573,145.071,252.573z"/>
</g>
<g>
</g>
<g>
</g>
<g>
</g>
<g>
</g>
<g>
</g>
<g>
</g>
<g>
</g>
<g>
</g>
<g>
</g>
<g>
</g>
<g>
</g>
<g>
</g>
<g>
</g>
<g>
</g>
<g>
</g>
</svg>
