<?xml version="1.0" encoding="UTF-8" standalone="no"?>
<svg
   xmlns:dc="http://purl.org/dc/elements/1.1/"
   xmlns:cc="http://creativecommons.org/ns#"
   xmlns:rdf="http://www.w3.org/1999/02/22-rdf-syntax-ns#"
   xmlns:svg="http://www.w3.org/2000/svg"
   xmlns="http://www.w3.org/2000/svg"
   viewBox="0 0 566.92916 471.80305"
   height="13.31533cm"
   width="16cm"
   version="1.1"
   id="svg4325">
  <metadata
     id="metadata4331">
    <rdf:RDF>
      <cc:Work
         rdf:about="">
        <dc:format>image/svg+xml</dc:format>
        <dc:type
           rdf:resource="http://purl.org/dc/dcmitype/StillImage" />
        <dc:title></dc:title>
      </cc:Work>
    </rdf:RDF>
  </metadata>
  <defs
     id="defs4329">
    <marker
       style="overflow:visible"
       id="Arrow1Lend"
       refX="0"
       refY="0"
       orient="auto">
      <path
         transform="matrix(-0.8,0,0,-0.8,-10,0)"
         style="fill:#512508;fill-opacity:1;fill-rule:evenodd;stroke:#512508;stroke-width:1pt;stroke-opacity:1"
         d="M 0,0 5,-5 -12.5,0 5,5 0,0 Z"
         id="path4461" />
    </marker>
    <marker
       style="overflow:visible"
       id="Arrow1Lstart"
       refX="0"
       refY="0"
       orient="auto">
      <path
         transform="matrix(0.8,0,0,0.8,10,0)"
         style="fill:#512508;fill-opacity:1;fill-rule:evenodd;stroke:#512508;stroke-width:1pt;stroke-opacity:1"
         d="M 0,0 5,-5 -12.5,0 5,5 0,0 Z"
         id="path4458" />
    </marker>
  </defs>
  <path
     id="path4339"
     d="m 454.86914,233.83203 0,14.74219 -454.5957025,0 0,1.79883 456.3945325,0 0,-16.54102 -1.79883,0 z"
     style="color:#000000;font-style:normal;font-variant:normal;font-weight:normal;font-stretch:normal;font-size:medium;line-height:normal;font-family:sans-serif;text-indent:0;text-align:start;text-decoration:none;text-decoration-line:none;text-decoration-style:solid;text-decoration-color:#000000;letter-spacing:normal;word-spacing:normal;text-transform:none;direction:ltr;block-progression:tb;writing-mode:lr-tb;baseline-shift:baseline;text-anchor:start;white-space:normal;clip-rule:nonzero;display:inline;overflow:visible;visibility:visible;opacity:1;isolation:auto;mix-blend-mode:normal;color-interpolation:sRGB;color-interpolation-filters:linearRGB;solid-color:#000000;solid-opacity:1;fill:#7698bb;fill-opacity:1;fill-rule:evenodd;stroke:none;stroke-width:1.80000007;stroke-linecap:butt;stroke-linejoin:miter;stroke-miterlimit:4;stroke-dasharray:none;stroke-dashoffset:0;stroke-opacity:1;color-rendering:auto;image-rendering:auto;shape-rendering:auto;text-rendering:auto;enable-background:accumulate" />
  <path
     id="path4343"
     d="m 34,119.27344 9.660156,36.04883 0,51.0957 -43.35937475,0 0,1.80078 45.15820275,0 0,-53.13281 -9.113281,-34.01367 63.537109,0 0,19.87695 -0.197265,0.49023 -3.355469,0 -1.908203,3.30274 0,9.33008 -1.730469,6.45898 0,48.25 248.083984,0 108.12109,20.16602 -448.474605,0 0,1.79882 458.201175,0 0.16406,-1.78515 -117.8457,-21.97852 -246.449222,0 0,-46.21289 1.730468,-6.45898 0,-9.08594 1.146485,-1.98633 3.533199,0 0.78125,-1.9414 0,-22.02344 -67.68359,0 z"
     style="color:#000000;font-style:normal;font-variant:normal;font-weight:normal;font-stretch:normal;font-size:medium;line-height:normal;font-family:sans-serif;text-indent:0;text-align:start;text-decoration:none;text-decoration-line:none;text-decoration-style:solid;text-decoration-color:#000000;letter-spacing:normal;word-spacing:normal;text-transform:none;direction:ltr;block-progression:tb;writing-mode:lr-tb;baseline-shift:baseline;text-anchor:start;white-space:normal;clip-rule:nonzero;display:inline;overflow:visible;visibility:visible;opacity:1;isolation:auto;mix-blend-mode:normal;color-interpolation:sRGB;color-interpolation-filters:linearRGB;solid-color:#000000;solid-opacity:1;fill:#7698bb;fill-opacity:1;fill-rule:evenodd;stroke:none;stroke-width:1.80000007;stroke-linecap:butt;stroke-linejoin:miter;stroke-miterlimit:4;stroke-dasharray:none;stroke-dashoffset:0;stroke-opacity:1;color-rendering:auto;image-rendering:auto;shape-rendering:auto;text-rendering:auto;enable-background:accumulate" />
  <path
     id="path4347"
     d="m 63.921875,269.02539 0,87.83399 0.900391,0 0,0.5332 53.013674,0 0,-88.36719 -53.914065,0 z m 1.800781,1.79883 50.312504,0 0,84.76758 -50.312504,0 0,-84.76758 z"
     style="color:#000000;font-style:normal;font-variant:normal;font-weight:normal;font-stretch:normal;font-size:medium;line-height:normal;font-family:sans-serif;text-indent:0;text-align:start;text-decoration:none;text-decoration-line:none;text-decoration-style:solid;text-decoration-color:#000000;letter-spacing:normal;word-spacing:normal;text-transform:none;direction:ltr;block-progression:tb;writing-mode:lr-tb;baseline-shift:baseline;text-anchor:start;white-space:normal;clip-rule:nonzero;display:inline;overflow:visible;visibility:visible;opacity:1;isolation:auto;mix-blend-mode:normal;color-interpolation:sRGB;color-interpolation-filters:linearRGB;solid-color:#000000;solid-opacity:1;fill:#7698bb;fill-opacity:1;fill-rule:evenodd;stroke:none;stroke-width:1.80000007;stroke-linecap:butt;stroke-linejoin:miter;stroke-miterlimit:4;stroke-dasharray:none;stroke-dashoffset:0;stroke-opacity:1;color-rendering:auto;image-rendering:auto;shape-rendering:auto;text-rendering:auto;enable-background:accumulate" />
  <path
     id="path4359"
     d="m 372.46094,249.19727 0,219.05664 1.79883,0 0,-219.05664 -1.79883,0 z"
     style="color:#000000;font-style:normal;font-variant:normal;font-weight:normal;font-stretch:normal;font-size:medium;line-height:normal;font-family:sans-serif;text-indent:0;text-align:start;text-decoration:none;text-decoration-line:none;text-decoration-style:solid;text-decoration-color:#000000;letter-spacing:normal;word-spacing:normal;text-transform:none;direction:ltr;block-progression:tb;writing-mode:lr-tb;baseline-shift:baseline;text-anchor:start;white-space:normal;clip-rule:nonzero;display:inline;overflow:visible;visibility:visible;opacity:1;isolation:auto;mix-blend-mode:normal;color-interpolation:sRGB;color-interpolation-filters:linearRGB;solid-color:#000000;solid-opacity:1;fill:#7698bb;fill-opacity:1;fill-rule:evenodd;stroke:none;stroke-width:1.80000007;stroke-linecap:butt;stroke-linejoin:miter;stroke-miterlimit:4;stroke-dasharray:none;stroke-dashoffset:0;stroke-opacity:1;color-rendering:auto;image-rendering:auto;shape-rendering:auto;text-rendering:auto;enable-background:accumulate" />
  <path
     id="path4402"
     d="m -0.00585938,357.15234 0,1.80078 21.48242138,0 0,0.70508 -5.537109,3.47852 -15.88867175,0 0,1.79883 16.40820275,0 6.81836,-4.28125 0,-3.50196 -23.28320338,0 z"
     style="color:#000000;font-style:normal;font-variant:normal;font-weight:normal;font-stretch:normal;font-size:medium;line-height:normal;font-family:sans-serif;text-indent:0;text-align:start;text-decoration:none;text-decoration-line:none;text-decoration-style:solid;text-decoration-color:#000000;letter-spacing:normal;word-spacing:normal;text-transform:none;direction:ltr;block-progression:tb;writing-mode:lr-tb;baseline-shift:baseline;text-anchor:start;white-space:normal;clip-rule:nonzero;display:inline;overflow:visible;visibility:visible;opacity:1;isolation:auto;mix-blend-mode:normal;color-interpolation:sRGB;color-interpolation-filters:linearRGB;solid-color:#000000;solid-opacity:1;fill:#7698bb;fill-opacity:1;fill-rule:evenodd;stroke:none;stroke-width:1.80000007;stroke-linecap:butt;stroke-linejoin:miter;stroke-miterlimit:4;stroke-dasharray:none;stroke-dashoffset:0;stroke-opacity:1;color-rendering:auto;image-rendering:auto;shape-rendering:auto;text-rendering:auto;enable-background:accumulate" />
  <path
     id="path4367"
     d="m 59.285156,355.52539 0,3.22656 2.558594,4.90625 56.54687,0 3.20899,-3.67968 0,-4.35352 -4.81055,0 0,1.80078 3.01172,0 0,1.87891 -2.22851,2.55273 -54.636723,0 -1.851563,-3.54687 0,-0.98438 3.775391,0 0,-1.80078 -5.574219,0 z"
     style="color:#000000;font-style:normal;font-variant:normal;font-weight:normal;font-stretch:normal;font-size:medium;line-height:normal;font-family:sans-serif;text-indent:0;text-align:start;text-decoration:none;text-decoration-line:none;text-decoration-style:solid;text-decoration-color:#000000;letter-spacing:normal;word-spacing:normal;text-transform:none;direction:ltr;block-progression:tb;writing-mode:lr-tb;baseline-shift:baseline;text-anchor:start;white-space:normal;clip-rule:nonzero;display:inline;overflow:visible;visibility:visible;opacity:1;isolation:auto;mix-blend-mode:normal;color-interpolation:sRGB;color-interpolation-filters:linearRGB;solid-color:#000000;solid-opacity:1;fill:#7698bb;fill-opacity:1;fill-rule:evenodd;stroke:none;stroke-width:1.80000007;stroke-linecap:butt;stroke-linejoin:miter;stroke-miterlimit:4;stroke-dasharray:none;stroke-dashoffset:0;stroke-opacity:1;color-rendering:auto;image-rendering:auto;shape-rendering:auto;text-rendering:auto;enable-background:accumulate" />
  <path
     id="path4371"
     d="m 458.40234,228.88867 0,1.79883 5.00782,0 0,2.32617 -462.93750375,0 0,1.80078 464.73632375,0 0,-5.92578 -6.80664,0 z"
     style="color:#000000;font-style:normal;font-variant:normal;font-weight:normal;font-stretch:normal;font-size:medium;line-height:normal;font-family:sans-serif;text-indent:0;text-align:start;text-decoration:none;text-decoration-line:none;text-decoration-style:solid;text-decoration-color:#000000;letter-spacing:normal;word-spacing:normal;text-transform:none;direction:ltr;block-progression:tb;writing-mode:lr-tb;baseline-shift:baseline;text-anchor:start;white-space:normal;clip-rule:nonzero;display:inline;overflow:visible;visibility:visible;opacity:1;isolation:auto;mix-blend-mode:normal;color-interpolation:sRGB;color-interpolation-filters:linearRGB;solid-color:#000000;solid-opacity:1;fill:#7698bb;fill-opacity:1;fill-rule:evenodd;stroke:none;stroke-width:1.80000007;stroke-linecap:butt;stroke-linejoin:miter;stroke-miterlimit:4;stroke-dasharray:none;stroke-dashoffset:0;stroke-opacity:1;color-rendering:auto;image-rendering:auto;shape-rendering:auto;text-rendering:auto;enable-background:accumulate" />
  <path
     id="path4404"
     d="m 101.4082,15.830078 0,192.419922 1.80078,0 0,-190.619141 1.2129,0 0,-1.800781 -3.01368,0 z"
     style="color:#000000;font-style:normal;font-variant:normal;font-weight:normal;font-stretch:normal;font-size:medium;line-height:normal;font-family:sans-serif;text-indent:0;text-align:start;text-decoration:none;text-decoration-line:none;text-decoration-style:solid;text-decoration-color:#000000;letter-spacing:normal;word-spacing:normal;text-transform:none;direction:ltr;block-progression:tb;writing-mode:lr-tb;baseline-shift:baseline;text-anchor:start;white-space:normal;clip-rule:nonzero;display:inline;overflow:visible;visibility:visible;opacity:1;isolation:auto;mix-blend-mode:normal;color-interpolation:sRGB;color-interpolation-filters:linearRGB;solid-color:#000000;solid-opacity:1;fill:#ed7d31;fill-opacity:1;fill-rule:evenodd;stroke:none;stroke-width:1.80000007;stroke-linecap:butt;stroke-linejoin:miter;stroke-miterlimit:4;stroke-dasharray:none;stroke-dashoffset:0;stroke-opacity:1;color-rendering:auto;image-rendering:auto;shape-rendering:auto;text-rendering:auto;enable-background:accumulate" />
  <path
     id="path4408"
     d="m 103.33203,16.759766 0,191.533204 1.79883,0 0,-191.533204 -1.79883,0 z"
     style="color:#000000;font-style:normal;font-variant:normal;font-weight:normal;font-stretch:normal;font-size:medium;line-height:normal;font-family:sans-serif;text-indent:0;text-align:start;text-decoration:none;text-decoration-line:none;text-decoration-style:solid;text-decoration-color:#000000;letter-spacing:normal;word-spacing:normal;text-transform:none;direction:ltr;block-progression:tb;writing-mode:lr-tb;baseline-shift:baseline;text-anchor:start;white-space:normal;clip-rule:nonzero;display:inline;overflow:visible;visibility:visible;opacity:1;isolation:auto;mix-blend-mode:normal;color-interpolation:sRGB;color-interpolation-filters:linearRGB;solid-color:#000000;solid-opacity:1;fill:#ed7d31;fill-opacity:1;fill-rule:evenodd;stroke:none;stroke-width:1.80000007;stroke-linecap:butt;stroke-linejoin:miter;stroke-miterlimit:4;stroke-dasharray:none;stroke-dashoffset:0;stroke-opacity:1;color-rendering:auto;image-rendering:auto;shape-rendering:auto;text-rendering:auto;enable-background:accumulate" />
  <path
     id="path4428"
     d="m 102.33984,4.5 0,14.330078 1.80078,0 0,-14.330078 -1.80078,0 z"
     style="color:#000000;font-style:normal;font-variant:normal;font-weight:normal;font-stretch:normal;font-size:medium;line-height:normal;font-family:sans-serif;text-indent:0;text-align:start;text-decoration:none;text-decoration-line:none;text-decoration-style:solid;text-decoration-color:#000000;letter-spacing:normal;word-spacing:normal;text-transform:none;direction:ltr;block-progression:tb;writing-mode:lr-tb;baseline-shift:baseline;text-anchor:start;white-space:normal;clip-rule:nonzero;display:inline;overflow:visible;visibility:visible;opacity:1;isolation:auto;mix-blend-mode:normal;color-interpolation:sRGB;color-interpolation-filters:linearRGB;solid-color:#000000;solid-opacity:1;fill:#ed7d31;fill-opacity:1;fill-rule:evenodd;stroke:none;stroke-width:1.80000007;stroke-linecap:butt;stroke-linejoin:miter;stroke-miterlimit:4;stroke-dasharray:none;stroke-dashoffset:0;stroke-opacity:1;color-rendering:auto;image-rendering:auto;shape-rendering:auto;text-rendering:auto;enable-background:accumulate" />
  <path
     id="path4432"
     d="m 103.24023,5.0253906 1.04883,0 0,-1.0507812 -1.04883,0 z m 4.19922,0 1.05078,0 0,-1.0507812 -1.05078,0 z m 4.20117,0 1.04883,0 0,-1.0507812 -1.04883,0 z m 4.19922,0 1.05078,0 0,-1.0507812 -1.05078,0 z m 4.19922,0 1.05078,0 0,-1.0507812 -1.05078,0 z m 4.20117,0 1.04883,0 0,-1.0507812 -1.04883,0 z m 4.19922,0 1.05078,0 0,-1.0507812 -1.05078,0 z m 4.20117,0 1.04883,0 0,-1.0507812 -1.04883,0 z m 4.19922,0 1.05078,0 0,-1.0507812 -1.05078,0 z m 4.19922,0 1.05078,0 0,-1.0507812 -1.05078,0 z m 4.20117,0 1.04883,0 0,-1.0507812 -1.04883,0 z m 4.19922,0 1.05078,0 0,-1.0507812 -1.05078,0 z m 4.20117,0 1.04883,0 0,-1.0507812 -1.04883,0 z m 4.19922,0 1.05078,0 0,-1.0507812 -1.05078,0 z m 4.19922,0 1.05078,0 0,-1.0507812 -1.05078,0 z m 4.20117,0 1.04883,0 0,-1.0507812 -1.04883,0 z m 4.19922,0 1.05078,0 0,-1.0507812 -1.05078,0 z m 4.20117,0 1.04883,0 0,-1.0507812 -1.04883,0 z m 4.19922,0 1.05078,0 0,-1.0507812 -1.05078,0 z m 4.19922,0 1.05078,0 0,-1.0507812 -1.05078,0 z m 4.20117,0 1.04883,0 0,-1.0507812 -1.04883,0 z m 4.19922,0 1.05078,0 0,-1.0507812 -1.05078,0 z m 4.20117,0 1.04883,0 0,-1.0507812 -1.04883,0 z m 4.19922,0 1.05078,0 0,-1.0507812 -1.05078,0 z m 4.19922,0 1.05078,0 0,-1.0507812 -1.05078,0 z m 4.20117,0 1.04883,0 0,-1.0507812 -1.04883,0 z m 4.19922,0 1.05078,0 0,-1.0507812 -1.05078,0 z m 4.20117,0 1.04883,0 0,-1.0507812 -1.04883,0 z m 4.19922,0 1.05078,0 0,-1.0507812 -1.05078,0 z m 4.19922,0 1.05078,0 0,-1.0507812 -1.05078,0 z m 4.20117,0 1.04883,0 0,-1.0507812 -1.04883,0 z m 4.19922,0 1.05078,0 0,-1.0507812 -1.05078,0 z m 4.20117,0 1.04883,0 0,-1.0507812 -1.04883,0 z m 4.19922,0 1.05078,0 0,-1.0507812 -1.05078,0 z m 4.19922,0 1.05078,0 0,-1.0507812 -1.05078,0 z m 4.20117,0 1.04883,0 0,-1.0507812 -1.04883,0 z m 4.19922,0 1.05078,0 0,-1.0507812 -1.05078,0 z m 4.20117,0 1.04883,0 0,-1.0507812 -1.04883,0 z m 4.19922,0 1.05078,0 0,-1.0507812 -1.05078,0 z m 4.19922,0 1.05078,0 0,-1.0507812 -1.05078,0 z m 4.20117,0 1.04883,0 0,-1.0507812 -1.04883,0 z m 4.19922,0 1.05078,0 0,-1.0507812 -1.05078,0 z m 4.20117,0 1.04883,0 0,-1.0507812 -1.04883,0 z m 4.19922,0 1.05078,0 0,-1.0507812 -1.05078,0 z m 4.19922,0 1.05078,0 0,-1.0507812 -1.05078,0 z m 4.20117,0 1.04883,0 0,-1.0507812 -1.04883,0 z m 4.19922,0 1.05078,0 0,-1.0507812 -1.05078,0 z m 4.20117,0 1.04883,0 0,-1.0507812 -1.04883,0 z m 4.19922,0 1.05078,0 0,-1.0507812 -1.05078,0 z m 4.19922,0 1.05078,0 0,-1.0507812 -1.05078,0 z m 4.20117,0 1.04883,0 0,-1.0507812 -1.04883,0 z m 4.19922,0 1.05078,0 0,-1.0507812 -1.05078,0 z m 4.20117,0 1.04883,0 0,-1.0507812 -1.04883,0 z m 4.19922,0 1.05078,0 0,-1.0507812 -1.05078,0 z m 4.19922,0 1.05078,0 0,-1.0507812 -1.05078,0 z m 4.20117,0 1.04883,0 0,-1.0507812 -1.04883,0 z m 4.19922,0 1.05078,0 0,-1.0507812 -1.05078,0 z m 4.20117,0 1.04883,0 0,-1.0507812 -1.04883,0 z m 4.19922,0 1.05078,0 0,-1.0507812 -1.05078,0 z m 4.19922,0 1.05078,0 0,-1.0507812 -1.05078,0 z m 4.20117,0 1.04883,0 0,-1.0507812 -1.04883,0 z m 4.19922,0 1.05078,0 0,-1.0507812 -1.05078,0 z m 4.20117,0 1.04883,0 0,-1.0507812 -1.04883,0 z m 4.19922,0 1.05078,0 0,-1.0507812 -1.05078,0 z m 4.19922,0 1.05078,0 0,-1.0507812 -1.05078,0 z m 4.20117,0 1.04883,0 0,-1.0507812 -1.04883,0 z m 4.19922,0 1.05078,0 0,-1.0507812 -1.05078,0 z m 4.20117,0 1.04883,0 0,-1.0507812 -1.04883,0 z m 4.19922,0 1.05078,0 0,-1.0507812 -1.05078,0 z m 4.19922,0 1.05078,0 0,-1.0507812 -1.05078,0 z m 4.20117,0 1.04883,0 0,-1.0507812 -1.04883,0 z m 4.19922,0 1.05078,0 0,-1.0507812 -1.05078,0 z m 4.20117,0 1.04883,0 0,-1.0507812 -1.04883,0 z m 4.19922,0 1.05078,0 0,-1.0507812 -1.05078,0 z m 4.19922,0 1.05078,0 0,-1.0507812 -1.05078,0 z m 4.20117,0 1.04883,0 0,-1.0507812 -1.04883,0 z m 4.19922,0 1.05078,0 0,-1.0507812 -1.05078,0 z m 4.20117,0 1.04883,0 0,-1.0507812 -1.04883,0 z m 4.19922,0 1.05078,0 0,-1.0507812 -1.05078,0 z m 4.19922,0 1.05078,0 0,-1.0507812 -1.05078,0 z m 4.20117,0 1.04883,0 0,-1.0507812 -1.04883,0 z m 4.19922,0 1.05078,0 0,-1.0507812 -1.05078,0 z m 4.20117,0 1.04883,0 0,-1.0507812 -1.04883,0 z m 4.19922,0 1.05078,0 0,-1.0507812 -1.05078,0 z m 4.19922,0 1.05078,0 0,-1.0507812 -1.05078,0 z m 4.20117,0 1.04883,0 0,-1.0507812 -1.04883,0 z m 4.19922,0 1.05078,0 0,-1.0507812 -1.05078,0 z m 4.20117,0 1.04883,0 0,-1.0507812 -1.04883,0 z m 4.19922,0 1.05078,0 0,-1.0507812 -1.05078,0 z m 4.19922,0 1.05078,0 0,-1.0507812 -1.05078,0 z m 4.20117,0 1.04883,0 0,-1.0507812 -1.04883,0 z m 4.19922,0 1.05078,0 0,-1.0507812 -1.05078,0 z m 4.20117,0 1.04883,0 0,-1.0507812 -1.04883,0 z m 4.19922,0 1.05078,0 0,-1.0507812 -1.05078,0 z m 4.19922,0 1.05078,0 0,-1.0507812 -1.05078,0 z m 4.20117,0 1.04883,0 0,-1.0507812 -1.04883,0 z m 4.19922,0 1.05078,0 0,-1.0507812 -1.05078,0 z m 4.20117,0 1.04883,0 0,-1.0507812 -1.04883,0 z m 4.19922,0 1.05078,0 0,-1.0507812 -1.05078,0 z m 4.19922,0 1.05078,0 0,-1.0507812 -1.05078,0 z m 4.20117,0 1.04883,0 0,-1.0507812 -1.04883,0 z m 4.19922,0 1.05078,0 0,-1.0507812 -1.05078,0 z m 4.20117,0 0.2793,0 0,-1.0507812 -0.2793,0 z"
     style="color:#000000;font-style:normal;font-variant:normal;font-weight:normal;font-stretch:normal;font-size:medium;line-height:normal;font-family:sans-serif;text-indent:0;text-align:start;text-decoration:none;text-decoration-line:none;text-decoration-style:solid;text-decoration-color:#000000;letter-spacing:normal;word-spacing:normal;text-transform:none;direction:ltr;block-progression:tb;writing-mode:lr-tb;baseline-shift:baseline;text-anchor:start;white-space:normal;clip-rule:nonzero;display:inline;overflow:visible;visibility:visible;opacity:1;isolation:auto;mix-blend-mode:normal;color-interpolation:sRGB;color-interpolation-filters:linearRGB;solid-color:#000000;solid-opacity:1;fill:#512508;fill-opacity:1;fill-rule:evenodd;stroke:none;stroke-width:1.05000007;stroke-linecap:butt;stroke-linejoin:miter;stroke-miterlimit:4;stroke-dasharray:1.05000003, 3.15000009;stroke-dashoffset:0;stroke-opacity:1;color-rendering:auto;image-rendering:auto;shape-rendering:auto;text-rendering:auto;enable-background:accumulate" />
  <g
     id="g6708">
    <path
       id="path4436"
       d="m 530.89062,4.09375 0,466.36328 1.33985,0 0,-466.36328 -1.33985,0 z"
       style="color:#000000;font-style:normal;font-variant:normal;font-weight:normal;font-stretch:normal;font-size:medium;line-height:normal;font-family:sans-serif;text-indent:0;text-align:start;text-decoration:none;text-decoration-line:none;text-decoration-style:solid;text-decoration-color:#000000;letter-spacing:normal;word-spacing:normal;text-transform:none;direction:ltr;block-progression:tb;writing-mode:lr-tb;baseline-shift:baseline;text-anchor:start;white-space:normal;clip-rule:nonzero;display:inline;overflow:visible;visibility:visible;opacity:1;isolation:auto;mix-blend-mode:normal;color-interpolation:sRGB;color-interpolation-filters:linearRGB;solid-color:#000000;solid-opacity:1;fill:#512508;fill-opacity:1;fill-rule:evenodd;stroke:none;stroke-width:1.34000003;stroke-linecap:butt;stroke-linejoin:miter;stroke-miterlimit:4;stroke-dasharray:none;stroke-dashoffset:0;stroke-opacity:1;color-rendering:auto;image-rendering:auto;shape-rendering:auto;text-rendering:auto;enable-background:accumulate" />
    <path
       id="path6714"
       d="m 531.55998,17.493981 5.36,5.36 -5.36,-18.7600001 -5.36,18.7600001 5.36,-5.36 z"
       style="fill:#512508;fill-opacity:1;fill-rule:evenodd;stroke:#512508;stroke-width:1.07200003pt;stroke-opacity:1" />
    <path
       id="path6716"
       d="m 531.55998,457.0561 -5.36,-5.36 5.36,18.76 5.36,-18.76 -5.36,5.36 z"
       style="fill:#512508;fill-opacity:1;fill-rule:evenodd;stroke:#512508;stroke-width:1.07200003pt;stroke-opacity:1" />
  </g>
  <path
     id="path4440"
     d="m 373.36067,470.09683 158.19931,0"
     style="opacity:1;fill:#cccccc;fill-opacity:1;stroke:none;stroke-width:2;stroke-linecap:round;stroke-linejoin:round;stroke-miterlimit:10;stroke-dasharray:none;stroke-dashoffset:0;stroke-opacity:1" />
  <path
     id="path4442"
     d="m 373.36067,470.09683 158.19931,0"
     style="opacity:1;fill:#cccccc;fill-opacity:1;stroke:none;stroke-width:2;stroke-linecap:round;stroke-linejoin:round;stroke-miterlimit:10;stroke-dasharray:none;stroke-dashoffset:0;stroke-opacity:1" />
  <path
     id="path4444"
     d="m 531.55998,470.09683 -158.19931,0"
     style="opacity:1;fill:#cccccc;fill-opacity:1;stroke:none;stroke-width:2;stroke-linecap:round;stroke-linejoin:round;stroke-miterlimit:10;stroke-dasharray:none;stroke-dashoffset:0;stroke-opacity:1" />
  <path
     id="path4446"
     d="m 373.36133,470.62109 1.04883,0 0,-1.04882 -1.04883,0 z m 4.19922,0 1.05078,0 0,-1.04882 -1.05078,0 z m 4.19922,0 1.05078,0 0,-1.04882 -1.05078,0 z m 4.20117,0 1.04883,0 0,-1.04882 -1.04883,0 z m 4.19922,0 1.05078,0 0,-1.04882 -1.05078,0 z m 4.20117,0 1.04883,0 0,-1.04882 -1.04883,0 z m 4.19922,0 1.05078,0 0,-1.04882 -1.05078,0 z m 4.19922,0 1.05078,0 0,-1.04882 -1.05078,0 z m 4.20117,0 1.04883,0 0,-1.04882 -1.04883,0 z m 4.19922,0 1.05078,0 0,-1.04882 -1.05078,0 z m 4.20117,0 1.04883,0 0,-1.04882 -1.04883,0 z m 4.19922,0 1.05078,0 0,-1.04882 -1.05078,0 z m 4.19922,0 1.05078,0 0,-1.04882 -1.05078,0 z m 4.20117,0 1.04883,0 0,-1.04882 -1.04883,0 z m 4.19922,0 1.05078,0 0,-1.04882 -1.05078,0 z m 4.20117,0 1.04883,0 0,-1.04882 -1.04883,0 z m 4.19922,0 1.05078,0 0,-1.04882 -1.05078,0 z m 4.19922,0 1.05078,0 0,-1.04882 -1.05078,0 z m 4.20117,0 1.04883,0 0,-1.04882 -1.04883,0 z m 4.19922,0 1.05078,0 0,-1.04882 -1.05078,0 z m 4.20117,0 1.04883,0 0,-1.04882 -1.04883,0 z m 4.19922,0 1.05078,0 0,-1.04882 -1.05078,0 z m 4.19922,0 1.05078,0 0,-1.04882 -1.05078,0 z m 4.20117,0 1.04883,0 0,-1.04882 -1.04883,0 z m 4.19922,0 1.05078,0 0,-1.04882 -1.05078,0 z m 4.20117,0 1.04883,0 0,-1.04882 -1.04883,0 z m 4.19922,0 1.05078,0 0,-1.04882 -1.05078,0 z m 4.19922,0 1.05078,0 0,-1.04882 -1.05078,0 z m 4.20117,0 1.04883,0 0,-1.04882 -1.04883,0 z m 4.19922,0 1.05078,0 0,-1.04882 -1.05078,0 z m 4.20117,0 1.04883,0 0,-1.04882 -1.04883,0 z m 4.19922,0 1.05078,0 0,-1.04882 -1.05078,0 z m 4.19922,0 1.05078,0 0,-1.04882 -1.05078,0 z m 4.20117,0 1.04883,0 0,-1.04882 -1.04883,0 z m 4.19922,0 1.05078,0 0,-1.04882 -1.05078,0 z m 4.20117,0 1.04883,0 0,-1.04882 -1.04883,0 z m 4.19922,0 1.05078,0 0,-1.04882 -1.05078,0 z m 4.19922,0 1.05078,0 0,-1.04882 -1.05078,0 z"
     style="color:#000000;font-style:normal;font-variant:normal;font-weight:normal;font-stretch:normal;font-size:medium;line-height:normal;font-family:sans-serif;text-indent:0;text-align:start;text-decoration:none;text-decoration-line:none;text-decoration-style:solid;text-decoration-color:#000000;letter-spacing:normal;word-spacing:normal;text-transform:none;direction:ltr;block-progression:tb;writing-mode:lr-tb;baseline-shift:baseline;text-anchor:start;white-space:normal;clip-rule:nonzero;display:inline;overflow:visible;visibility:visible;opacity:1;isolation:auto;mix-blend-mode:normal;color-interpolation:sRGB;color-interpolation-filters:linearRGB;solid-color:#000000;solid-opacity:1;fill:#512508;fill-opacity:1;fill-rule:evenodd;stroke:none;stroke-width:1.05000007;stroke-linecap:butt;stroke-linejoin:miter;stroke-miterlimit:4;stroke-dasharray:1.05000003, 3.15000009;stroke-dashoffset:0;stroke-opacity:1;color-rendering:auto;image-rendering:auto;shape-rendering:auto;text-rendering:auto;enable-background:accumulate" />
  <path
     id="path4726"
     d="m 0.28320312,469.10938 0,1.79882 377.63085688,0 0,-1.79882 -377.63085688,0 z"
     style="color:#000000;font-style:normal;font-variant:normal;font-weight:normal;font-stretch:normal;font-size:medium;line-height:normal;font-family:sans-serif;text-indent:0;text-align:start;text-decoration:none;text-decoration-line:none;text-decoration-style:solid;text-decoration-color:#000000;letter-spacing:normal;word-spacing:normal;text-transform:none;direction:ltr;block-progression:tb;writing-mode:lr-tb;baseline-shift:baseline;text-anchor:start;white-space:normal;clip-rule:nonzero;display:inline;overflow:visible;visibility:visible;opacity:1;isolation:auto;mix-blend-mode:normal;color-interpolation:sRGB;color-interpolation-filters:linearRGB;solid-color:#000000;solid-opacity:1;fill:#7698bb;fill-opacity:1;fill-rule:evenodd;stroke:none;stroke-width:1.80000007;stroke-linecap:butt;stroke-linejoin:miter;stroke-miterlimit:4;stroke-dasharray:none;stroke-dashoffset:0;stroke-opacity:1;color-rendering:auto;image-rendering:auto;shape-rendering:auto;text-rendering:auto;enable-background:accumulate" />
  <g
     id="text4732"
     style="font-style:normal;font-variant:normal;font-weight:normal;font-stretch:normal;font-size:23.00477791px;line-height:125%;font-family:'Droid Serif';-inkscape-font-specification:'Droid Serif, Normal';text-align:center;letter-spacing:0px;word-spacing:0px;writing-mode:lr-tb;text-anchor:middle;fill:#512508;fill-opacity:1;stroke:none;stroke-width:1px;stroke-linecap:butt;stroke-linejoin:miter;stroke-opacity:1"
     transform="matrix(0,1,-1,0,0,0)">
    <path
       id="path6741"
       style="font-style:normal;font-variant:normal;font-weight:500;font-stretch:normal;font-family:'CMU Sans Serif';-inkscape-font-specification:'CMU Sans Serif Medium';fill:#512508;fill-opacity:1"
       d="m 226.02676,-551.18459 0,-1.33428 q 2.76058,0 4.39391,-1.51831 l 0.4371,0 0,14.23996 2.87559,0 0,1.35728 -7.59157,0 0,-1.35728 2.87559,0 0,-11.91648 q -1.35728,0.52911 -2.99062,0.52911 z" />
    <path
       id="path6743"
       style="font-style:normal;font-variant:normal;font-weight:500;font-stretch:normal;font-family:'CMU Sans Serif';-inkscape-font-specification:'CMU Sans Serif Medium';fill:#512508;fill-opacity:1"
       d="m 237.52915,-551.18459 0,-1.33428 q 2.76057,0 4.39391,-1.51831 l 0.43709,0 0,14.23996 2.8756,0 0,1.35728 -7.59158,0 0,-1.35728 2.8756,0 0,-11.91648 q -1.35728,0.52911 -2.99062,0.52911 z" />
    <path
       id="path6745"
       style="font-style:normal;font-variant:normal;font-weight:500;font-stretch:normal;font-family:'CMU Sans Serif';-inkscape-font-specification:'CMU Sans Serif Medium';fill:#512508;fill-opacity:1"
       d="m 256.94482,-532.68875 0,-23.00477 3.8188,0 0,1.40329 -2.09344,0 0,20.19819 2.09344,0 0,1.40329 -3.8188,0 z" />
    <path
       id="path6747"
       style="font-style:normal;font-variant:normal;font-weight:500;font-stretch:normal;font-family:'CMU Sans Serif';-inkscape-font-specification:'CMU Sans Serif Medium';fill:#512508;fill-opacity:1"
       d="m 263.13455,-538.43994 0,-10.35215 1.67935,0 0,1.61033 q 1.33427,-1.72536 3.35869,-1.72536 2.23147,0 2.92161,1.86339 1.40329,-1.86339 3.47372,-1.86339 0.87418,0 1.49531,0.29907 0.64414,0.27605 0.9432,0.66714 0.32207,0.36807 0.4831,0.9662 0.18404,0.59812 0.20704,0.9892 0.023,0.36808 0.023,0.92019 l 0,6.62538 -1.81738,0 0,-6.46434 q 0,-0.046 0,-0.13803 0,-0.092 -0.046,-0.36808 -0.046,-0.27606 -0.13803,-0.5061 -0.069,-0.25306 -0.23005,-0.55212 -0.16103,-0.29906 -0.39108,-0.5061 -0.23005,-0.23005 -0.59812,-0.36808 -0.36808,-0.16103 -0.82817,-0.16103 -1.21926,0 -1.79438,1.03521 -0.55211,1.03522 -0.55211,2.50752 l 0,5.52115 -1.79437,0 0,-6.46434 q 0,-0.39109 -0.023,-0.62113 0,-0.23005 -0.13803,-0.64414 -0.11502,-0.43709 -0.34507,-0.69014 -0.20704,-0.25305 -0.66714,-0.43709 -0.43709,-0.20704 -1.08122,-0.20704 -1.21926,0 -1.79437,1.03521 -0.55212,1.03522 -0.55212,2.50752 l 0,5.52115 -1.79437,0 z" />
    <path
       id="path6749"
       style="font-style:normal;font-variant:normal;font-weight:500;font-stretch:normal;font-family:'CMU Sans Serif';-inkscape-font-specification:'CMU Sans Serif Medium';fill:#512508;fill-opacity:1"
       d="m 280.06426,-534.09204 2.07043,0 0,-20.19819 -2.07043,0 0,-1.40329 3.8188,0 0,23.00477 -3.8188,0 0,-1.40329 z" />
  </g>
  <path
     id="path5510"
     d="m 0,269.02539 0,1.79883 20.746094,0 0,-1.79883 -20.746094,0 z"
     style="color:#000000;font-style:normal;font-variant:normal;font-weight:normal;font-stretch:normal;font-size:medium;line-height:normal;font-family:sans-serif;text-indent:0;text-align:start;text-decoration:none;text-decoration-line:none;text-decoration-style:solid;text-decoration-color:#000000;letter-spacing:normal;word-spacing:normal;text-transform:none;direction:ltr;block-progression:tb;writing-mode:lr-tb;baseline-shift:baseline;text-anchor:start;white-space:normal;clip-rule:nonzero;display:inline;overflow:visible;visibility:visible;opacity:1;isolation:auto;mix-blend-mode:normal;color-interpolation:sRGB;color-interpolation-filters:linearRGB;solid-color:#000000;solid-opacity:1;fill:#7698bb;fill-opacity:1;fill-rule:evenodd;stroke:none;stroke-width:1.80000007;stroke-linecap:butt;stroke-linejoin:miter;stroke-miterlimit:4;stroke-dasharray:none;stroke-dashoffset:0;stroke-opacity:1;color-rendering:auto;image-rendering:auto;shape-rendering:auto;text-rendering:auto;enable-background:accumulate" />
  <path
     id="path5514"
     d="m 19.361328,269.62891 0,88.78515 1.800781,0 0,-88.78515 -1.800781,0 z"
     style="color:#000000;font-style:normal;font-variant:normal;font-weight:normal;font-stretch:normal;font-size:medium;line-height:normal;font-family:sans-serif;text-indent:0;text-align:start;text-decoration:none;text-decoration-line:none;text-decoration-style:solid;text-decoration-color:#000000;letter-spacing:normal;word-spacing:normal;text-transform:none;direction:ltr;block-progression:tb;writing-mode:lr-tb;baseline-shift:baseline;text-anchor:start;white-space:normal;clip-rule:nonzero;display:inline;overflow:visible;visibility:visible;opacity:1;isolation:auto;mix-blend-mode:normal;color-interpolation:sRGB;color-interpolation-filters:linearRGB;solid-color:#000000;solid-opacity:1;fill:#7698bb;fill-opacity:1;fill-rule:evenodd;stroke:none;stroke-width:1.80000007;stroke-linecap:butt;stroke-linejoin:miter;stroke-miterlimit:4;stroke-dasharray:none;stroke-dashoffset:0;stroke-opacity:1;color-rendering:auto;image-rendering:auto;shape-rendering:auto;text-rendering:auto;enable-background:accumulate" />
  <path
     id="path4722"
     d="m 379.35547,467.21289 -5.72461,0.0625 0.0195,1.80078 3.90625,-0.043 0,0.98047 1.79883,0 0,-2.80078 z"
     style="color:#000000;font-style:normal;font-variant:normal;font-weight:normal;font-stretch:normal;font-size:medium;line-height:normal;font-family:sans-serif;text-indent:0;text-align:start;text-decoration:none;text-decoration-line:none;text-decoration-style:solid;text-decoration-color:#000000;letter-spacing:normal;word-spacing:normal;text-transform:none;direction:ltr;block-progression:tb;writing-mode:lr-tb;baseline-shift:baseline;text-anchor:start;white-space:normal;clip-rule:nonzero;display:inline;overflow:visible;visibility:visible;opacity:1;isolation:auto;mix-blend-mode:normal;color-interpolation:sRGB;color-interpolation-filters:linearRGB;solid-color:#000000;solid-opacity:1;fill:#7698bb;fill-opacity:1;fill-rule:evenodd;stroke:none;stroke-width:1.80000007;stroke-linecap:butt;stroke-linejoin:miter;stroke-miterlimit:4;stroke-dasharray:none;stroke-dashoffset:0;stroke-opacity:1;color-rendering:auto;image-rendering:auto;shape-rendering:auto;text-rendering:auto;enable-background:accumulate" />
</svg>
