<?xml version="1.0" encoding="UTF-8" standalone="no"?>
<!-- Created with Inkscape (http://www.inkscape.org/) -->

<svg
   xmlns:dc="http://purl.org/dc/elements/1.1/"
   xmlns:cc="http://creativecommons.org/ns#"
   xmlns:rdf="http://www.w3.org/1999/02/22-rdf-syntax-ns#"
   xmlns:svg="http://www.w3.org/2000/svg"
   xmlns="http://www.w3.org/2000/svg"
   xmlns:sodipodi="http://sodipodi.sourceforge.net/DTD/sodipodi-0.dtd"
   xmlns:inkscape="http://www.inkscape.org/namespaces/inkscape"
   id="svg5067"
   version="1.1"
   inkscape:version="0.91 r13725"
   width="281.25"
   height="281.25"
   viewBox="0 0 281.25 281.25"
   sodipodi:docname="GatewayBS.svg">
  <metadata
     id="metadata5073">
    <rdf:RDF>
      <cc:Work
         rdf:about="">
        <dc:format>image/svg+xml</dc:format>
        <dc:type
           rdf:resource="http://purl.org/dc/dcmitype/StillImage" />
        <dc:title></dc:title>
      </cc:Work>
    </rdf:RDF>
  </metadata>
  <defs
     id="defs5071">
    <inkscape:perspective
       sodipodi:type="inkscape:persp3d"
       inkscape:vp_x="0 : 140.625 : 1"
       inkscape:vp_y="0 : 1000 : 0"
       inkscape:vp_z="281.25 : 140.625 : 1"
       inkscape:persp3d-origin="140.625 : 93.75 : 1"
       id="perspective5650" />
  </defs>
  <sodipodi:namedview
     pagecolor="#ffffff"
     bordercolor="#666666"
     borderopacity="1"
     objecttolerance="10"
     gridtolerance="10"
     guidetolerance="10"
     inkscape:pageopacity="0"
     inkscape:pageshadow="2"
     inkscape:window-width="1676"
     inkscape:window-height="1027"
     id="namedview5069"
     showgrid="false"
     showguides="true"
     inkscape:guide-bbox="true"
     inkscape:zoom="1.1866823"
     inkscape:cx="73.897861"
     inkscape:cy="95.473857"
     inkscape:window-x="1920"
     inkscape:window-y="19"
     inkscape:window-maximized="0"
     inkscape:current-layer="svg5067" />
  <path
     style="fill:none;fill-rule:evenodd;stroke:#000000;stroke-width:5.80000019;stroke-linecap:round;stroke-linejoin:round;stroke-miterlimit:4;stroke-dasharray:none;stroke-opacity:1"
     d="m 84.079184,151.89694 -6.527447,-7.06161 c 0,0 -4.591134,-5.18344 -6.370992,-8.08786 -2.488893,-4.06144 -4.629662,-8.36202 -6.331105,-12.81117 -1.620182,-4.23667 -3.649695,-13.10911 -3.649695,-13.10911 l -1.427968,-10.5555 c 0,0 -0.758998,-6.692253 0.08726,-11.640614 0.432947,-2.53158 0.893803,-7.746293 1.638639,-10.204251 0.744836,-2.457958 2.519445,-8.024775 3.426244,-10.427701 0.866944,-2.297311 3.649696,-7.746292 3.649696,-7.746292 l 5.511785,-8.565612 5.437302,-7.150424 4.766949,-5.213851"
     id="path5617"
     inkscape:connector-curvature="0"
     sodipodi:nodetypes="ccssccssscccc" />
  <path
     style="fill:none;fill-rule:evenodd;stroke:#000000;stroke-width:5.80000019;stroke-linecap:round;stroke-linejoin:round;stroke-miterlimit:4;stroke-dasharray:none;stroke-opacity:1"
     d="m 99.186571,135.45788 -4.692466,-4.61798 c 0,0 -2.903655,-3.22041 -4.171081,-5.06488 -1.36571,-1.98751 -3.649695,-6.33111 -3.649695,-6.33111 l -2.979343,-8.11871 c 0,0 -1.612366,-6.70735 -1.936573,-10.12977 -0.332489,-3.509839 -0.334404,-7.067003 0,-10.576664 0.374105,-3.926333 0.499027,-6.481164 1.564155,-10.278735 0.84439,-3.010559 1.892033,-5.284004 3.128311,-8.155951 1.159033,-2.692503 2.713852,-6.039452 5.735235,-9.794591 2.488105,-3.092351 6.740765,-7.038698 6.740765,-7.038698"
     id="path5619"
     inkscape:connector-curvature="0"
     sodipodi:nodetypes="ccsccsssssc" />
  <path
     style="fill:none;fill-rule:evenodd;stroke:#000000;stroke-width:5.80000019;stroke-linecap:round;stroke-linejoin:round;stroke-miterlimit:4;stroke-dasharray:none;stroke-opacity:1"
     d="m 113.66195,70.089048 -3.72418,5.213851 c 0,0 -4.61798,7.150424 -4.91592,7.89526 -0.29793,0.744835 -2.2345,9.235964 -2.2345,9.235964 0,0 -0.14897,6.405588 0,7.448358 0.14896,1.042769 1.93657,7.001459 1.93657,7.001459 l 3.42624,7.15042 4.32005,5.95869 2.97934,2.83037"
     id="path5621"
     inkscape:connector-curvature="0" />
  <path
     style="fill:none;fill-rule:evenodd;stroke:#000000;stroke-width:5.80000019;stroke-linecap:round;stroke-linejoin:round;stroke-miterlimit:4;stroke-dasharray:none;stroke-opacity:1"
     d="m 193.66574,151.30357 6.52744,-7.06161 c 0,0 4.59114,-5.18344 6.371,-8.08786 2.48889,-4.06144 4.62966,-8.36202 6.3311,-12.81117 1.62018,-4.23667 3.6497,-13.10911 3.6497,-13.10911 l 1.42796,-10.555497 c 0,0 0.759,-6.692251 -0.0873,-11.640612 -0.43294,-2.53158 -0.8938,-7.746293 -1.63864,-10.204251 -0.74483,-2.457958 -2.51944,-8.024775 -3.42624,-10.427701 -0.86694,-2.297311 -3.6497,-7.746292 -3.6497,-7.746292 l -5.51178,-8.565612 -5.4373,-7.150424 -4.76695,-5.213851"
     id="path5617-3"
     inkscape:connector-curvature="0"
     sodipodi:nodetypes="ccssccssscccc" />
  <path
     style="fill:none;fill-rule:evenodd;stroke:#000000;stroke-width:5.80000019;stroke-linecap:round;stroke-linejoin:round;stroke-miterlimit:4;stroke-dasharray:none;stroke-opacity:1"
     d="m 178.55835,135.7072 4.69247,-4.61798 c 0,0 2.90365,-3.22041 4.17108,-5.06488 1.36571,-1.98751 3.64969,-6.33111 3.64969,-6.33111 l 2.97934,-8.11871 c 0,0 1.61237,-6.70735 1.93658,-10.12977 0.33249,-3.509838 0.3344,-7.067002 0,-10.576663 -0.37411,-3.926333 -0.49903,-6.481164 -1.56416,-10.278735 -0.84439,-3.010559 -1.89203,-5.284004 -3.12831,-8.155951 -1.15903,-2.692503 -2.71385,-6.039452 -5.73523,-9.794591 -2.48811,-3.092351 -6.74077,-7.038698 -6.74077,-7.038698"
     id="path5619-6"
     inkscape:connector-curvature="0"
     sodipodi:nodetypes="ccsccsssssc" />
  <path
     style="fill:none;fill-rule:evenodd;stroke:#000000;stroke-width:5.80000019;stroke-linecap:round;stroke-linejoin:round;stroke-miterlimit:4;stroke-dasharray:none;stroke-opacity:1"
     d="m 164.40647,69.267848 3.72418,5.213851 c 0,0 4.61798,7.150424 4.91592,7.89526 0.29793,0.744835 2.2345,9.235964 2.2345,9.235964 0,0 0.14897,6.405588 0,7.448358 -0.14896,1.042769 -1.93657,7.001459 -1.93657,7.001459 l -3.42624,7.15042 -4.32005,5.95869 -2.97934,2.83037"
     id="path5621-7"
     inkscape:connector-curvature="0" />
  <ellipse
     style="opacity:1;fill:#000000;fill-opacity:1;stroke:#000000;stroke-width:12.40463448;stroke-linecap:round;stroke-linejoin:round;stroke-miterlimit:4;stroke-dasharray:none;stroke-dashoffset:0;stroke-opacity:1"
     id="path5646"
     cx="138.51643"
     cy="95.22718"
     rx="11.760687"
     ry="11.444682" />
  <rect
     style="opacity:1;fill:#000000;fill-opacity:1;stroke:#000000;stroke-width:8.43161392;stroke-linecap:round;stroke-linejoin:round;stroke-miterlimit:4;stroke-dasharray:none;stroke-dashoffset:0;stroke-opacity:1"
     id="rect5648"
     width="0.53284162"
     height="53.864151"
     x="138.49902"
     y="111.37284" />
  <rect
     style="opacity:1;fill:#000000;fill-opacity:1;stroke:#000000;stroke-width:9.78389931;stroke-linecap:round;stroke-linejoin:round;stroke-miterlimit:4;stroke-dasharray:none;stroke-dashoffset:0;stroke-opacity:1"
     id="rect5666"
     width="195.60287"
     height="70.204498"
     x="38.686676"
     y="170.33096"
     transform="matrix(1,0,0.00853524,0.99996357,0,0)"
     ry="20.862255"
     rx="18.173994" />
  <rect
     style="opacity:1;fill:#f9f9f9;fill-opacity:1;stroke:#ffffff;stroke-width:2.20294905;stroke-linecap:round;stroke-linejoin:round;stroke-miterlimit:4;stroke-dasharray:none;stroke-dashoffset:0;stroke-opacity:1"
     id="rect5674"
     width="17.420013"
     height="14.44067"
     x="206.10065"
     y="180.18037"
     rx="0"
     ry="0" />
</svg>
