<?xml version="1.0" encoding="utf-8"?>
<!-- Generator: Adobe Illustrator 19.2.1, SVG Export Plug-In . SVG Version: 6.00 Build 0)  -->
<svg version="1.1" id="Layer_1" xmlns="http://www.w3.org/2000/svg" xmlns:xlink="http://www.w3.org/1999/xlink" x="0px" y="0px"
	 viewBox="0 0 725 400" style="enable-background:new 0 0 725 400;" xml:space="preserve">
<g>
	<path style="fill:#2CD5C4;" d="M493.8,25.4c-0.4-1.5-0.7-3.1-1.1-4.6c-0.1-0.5-0.2-1-0.4-1.5L487,14c0.4,2,0.8,3.9,1.3,5.9
		L493.8,25.4z"/>
	<path style="fill:#2CD5C4;" d="M494.8,30.6l-5.1-5.1c0.5,2,0.9,4,1.2,6l4.3,4.3C495.2,34.1,495,32.3,494.8,30.6z"/>
	<path style="fill:#2CD5C4;" d="M491.2,36.1c0,1.7-0.2,3.5-0.6,5.2c-2.3,9.7-12,16.4-22.9,15.9c-6.3-0.3-12.6-2.4-18.7-4.5
		c-8.9-3-18.2-6.1-28-3.9c-8.3,1.8-14.5,7.5-16.5,15c-2,7.7,0.6,15.7,7.1,21.4l2.7-3c-5.3-4.7-7.5-11.2-5.9-17.4
		c1.6-6.1,6.6-10.6,13.5-12.1c8.8-1.9,17.1,0.9,25.9,3.8c6.4,2.1,12.9,4.3,19.8,4.7c12.9,0.6,24.3-7.3,27-18.9
		c0.2-0.8,0.3-1.6,0.4-2.3L491.2,36.1z"/>
</g>
<path style="fill:#3F4041;" d="M491.7,21c0.3,1,0.5,2,0.7,3l2.7,2.7c-0.4-2-0.9-4-1.4-6l-2.8-2.7C491.1,19,491.4,20,491.7,21z"/>
<path style="fill:#3F4041;" d="M489.7,21.3c-0.5-2-1-4-1.4-6l-2.5-2.5c0.3,1.9,0.7,3.8,1.2,5.7L489.7,21.3z"/>
<path style="fill:#3F4041;" d="M495.9,31.8l-2.4-2.4c0.3,1.8,0.5,3.6,0.6,5.4l2,2C496.2,35.1,496.1,33.5,495.9,31.8z"/>
<path style="fill:#3F4041;" d="M491,26.9l-2.7-2.7c0.5,2.1,1,4.1,1.3,6.1l2.4,2.4C491.8,30.7,491.5,28.8,491,26.9z"/>
<path style="opacity:0.5;fill:#DEDFDF;" d="M699,375H26c-3.3,0-6-2.7-6-6l0,0c0-3.3,2.7-6,6-6h673c3.3,0,6,2.7,6,6l0,0
	C705,372.3,702.3,375,699,375z"/>
<g style="opacity:0.3;">
	<path style="fill:#DEDFDF;" d="M586.6,100.8c-0.1-0.7-0.2-1.5-0.2-2.2c0-7.1,5.8-12.8,13-12.8c1.6,0,3.2,0.3,4.6,0.8
		c3-4.6,7.4-8.2,12.6-10.4c-2.4-20.4-19.8-36.2-41-36.2c-14.5,0-27.2,7.4-34.5,18.6c-2.1-0.8-4.4-1.2-6.7-1.2c-10.5,0-19,8.5-19,19
		c0,1.1,0.1,2.2,0.3,3.3C501.3,81.1,490,93.2,490,108h83.3C576.5,104.1,581.2,101.4,586.6,100.8z"/>
</g>
<g style="opacity:0.3;">
	<path style="fill:#DEDFDF;" d="M218.3,67.7C217.1,50,202.4,36,184.4,36c-11.9,0-22.3,6.1-28.4,15.3c-1.7-0.6-3.6-1-5.5-1
		c-6.6,0-12.2,4-14.5,9.8c0.9-0.1,1.7-0.1,2.6-0.1c19,0,34.8,13.9,37.4,32H234c0-0.4,0-0.9,0-1.3C234,80.2,227.5,71.3,218.3,67.7z"
		/>
</g>
<g style="opacity:0.3;enable-background:new    ;">
	<path style="fill:#ACADAE;" d="M669,118.9c0-8.6-5.4-15.9-13.1-18.9c-0.9-14.5-13.2-26-28.2-26c-9.9,0-18.6,5-23.7,12.6
		c-1.4-0.5-3-0.8-4.6-0.8c-7.2,0-13,5.7-13,12.8c0,0.8,0.1,1.5,0.2,2.2c-9.9,1-17.6,9.2-17.6,19.2h100
		C669,119.6,669,119.3,669,118.9z"/>
</g>
<g style="opacity:0.3;enable-background:new    ;">
	<path style="fill:#ACADAE;" d="M194,120.6c0-11.6-7.3-21.5-17.6-25.5C175.2,75.5,158.7,60,138.7,60c-13.3,0-24.9,6.8-31.7,17
		c-1.9-0.7-4-1.1-6.2-1.1c-9.7,0-17.5,7.7-17.5,17.3c0,1,0.1,2,0.3,3C70.3,97.5,60,108.5,60,122h134C194,121.5,194,121,194,120.6z"
		/>
</g>
<g style="opacity:0.3;">
	<path style="fill:#DEDFDF;" d="M696,63.6c0-3.4-2.1-6.2-5-7.4c-0.4-5.7-5-10.2-10.7-10.2c-3.8,0-7.1,2-9,4.9
		c-0.5-0.2-1.1-0.3-1.7-0.3c-2.7,0-5,2.2-5,5c0,0.3,0,0.6,0.1,0.9c-3.8,0.4-6.7,3.6-6.7,7.5h38C696,63.9,696,63.7,696,63.6z"/>
</g>
<g style="opacity:0.3;">
	<path style="fill:#DEDFDF;" d="M70,53.6c0-3.4-2.1-6.2-5-7.4C64.7,40.5,60,36,54.3,36c-3.8,0-7.1,2-9,4.9c-0.5-0.2-1.1-0.3-1.7-0.3
		c-2.7,0-5,2.2-5,5c0,0.3,0,0.6,0.1,0.9C34.9,46.9,32,50.1,32,54h38C70,53.9,70,53.7,70,53.6z"/>
</g>
<g>
	<g>
		<circle style="fill:#DEDFDF;" cx="169.2" cy="194.5" r="50"/>
	</g>
	<g>
		<circle style="fill:#757778;" cx="169.2" cy="194.5" r="44.8"/>
	</g>
	<circle style="fill:#2CD5C4;" cx="169.2" cy="194.5" r="32"/>
	<g>
		<path style="fill:#3F4041;" d="M169.2,230.5c0.6,0,1,0.4,1,1s-0.4,1-1,1s-1-0.4-1-1S168.7,230.5,169.2,230.5 M169.2,228.5
			c-1.7,0-3,1.3-3,3s1.3,3,3,3c1.7,0,3-1.3,3-3S170.9,228.5,169.2,228.5L169.2,228.5z"/>
	</g>
	<g>
		<circle style="fill:#FFFFFF;" cx="169.2" cy="231.5" r="2"/>
		<path style="fill:#3F4041;" d="M169.2,230.5c0.6,0,1,0.4,1,1s-0.4,1-1,1s-1-0.4-1-1S168.7,230.5,169.2,230.5 M169.2,228.5
			c-1.7,0-3,1.3-3,3s1.3,3,3,3c1.7,0,3-1.3,3-3S170.9,228.5,169.2,228.5L169.2,228.5z"/>
	</g>
	<g>
		<path style="fill:#FFFFFF;" d="M166.9,189.7c-3.3,4.2-5.2,8.6-5.1,15.1h-2.6c0-6.1,2-11.1,5-14.9h-5.9v1.4h-2.1v-3.7h10.7V189.7z"
			/>
		<path style="fill:#FFFFFF;" d="M179.5,204.9h-10.8v-1.6c0.9-6.7,8-7.6,8-11c0-1.6-1.4-2.5-2.9-2.5c-1.4,0-2.5,1-3.1,2.1l-2.1-1.2
			c1.1-2.1,2.7-3.3,5.1-3.3c3.1,0,5.4,1.7,5.4,4.9c0,4.9-6.4,5.3-7.7,10.2h8V204.9z"/>
		<path style="fill:#FFFFFF;" d="M184.8,191.3c-1.6,0-2.8-1.3-2.8-2.8c0-1.5,1.3-2.8,2.8-2.8c1.5,0,2.8,1.3,2.8,2.8
			C187.6,190,186.3,191.3,184.8,191.3z M184.8,187.3c-0.7,0-1.2,0.5-1.2,1.2s0.5,1.2,1.2,1.2c0.6,0,1.2-0.5,1.2-1.2
			S185.5,187.3,184.8,187.3z"/>
	</g>
	<path style="fill:#FFFFFF;" d="M169.2,163.5c-17.1,0-31,13.9-31,31c0,6.3,1.9,12.1,5.1,17l4.2-2.7c-2.7-4.1-4.3-9-4.3-14.3
		c0-14.4,11.6-26,26-26s26,11.6,26,26c0,5.3-1.6,10.2-4.3,14.3l4.2,2.7c3.2-4.9,5.1-10.7,5.1-17
		C200.2,177.4,186.3,163.5,169.2,163.5z"/>
	<path style="fill:#DEDFDF;" d="M193.1,212.6c-5.7,7.5-14.5,11.9-23.9,11.9s-18.2-4.4-23.9-11.9l-1.7,1.1c6,8,15.5,12.8,25.6,12.8
		s19.5-4.8,25.6-12.8L193.1,212.6z"/>
	<path style="opacity:0.5;fill:#FFFFFF;" d="M169.2,144.5c-27.6,0-50,22.4-50,50c0,13.8,5.6,26.3,14.6,35.4l70.7-70.7
		C195.5,150.1,183,144.5,169.2,144.5z"/>
	<path style="fill:#3F4041;" d="M169.2,144.5c-27.3,0-49.4,21.8-50,49h2c0.5-26,21.8-47,48-47c26.5,0,48,21.5,48,48s-21.5,48-48,48
		s-48-21.5-48-48h-2c0,27.6,22.4,50,50,50c27.6,0,50-22.4,50-50S196.8,144.5,169.2,144.5z"/>
	<path style="fill:#3F4041;" d="M195.4,212.9l-5.8-3.8l0.5-0.8c2.7-4.1,4.1-8.8,4.1-13.7c0-13.8-11.2-25-25-25s-25,11.2-25,25
		c0,4.9,1.4,9.6,4.1,13.7l0.5,0.8l-5.8,3.8l-0.5-0.8c-3.4-5.2-5.2-11.3-5.2-17.5c0-17.6,14.4-32,32-32s32,14.4,32,32
		c0,6.3-1.8,12.3-5.2,17.5L195.4,212.9z M192.3,208.5l2.5,1.6c2.9-4.7,4.4-10.1,4.4-15.6c0-16.5-13.5-30-30-30s-30,13.5-30,30
		c0,5.5,1.5,10.9,4.4,15.6l2.5-1.6c-2.5-4.2-3.9-9-3.9-14c0-14.9,12.1-27,27-27s27,12.1,27,27C196.2,199.4,194.9,204.3,192.3,208.5z
		"/>
</g>
<g>
	<g>
		<path style="fill:#DEDFDF;" d="M688.7,311.4h-80v-96c0-3.3,2.7-6,6-6h68c3.3,0,6,2.7,6,6V311.4z"/>
	</g>
	<g>
		<path style="fill:#757778;" d="M688.7,229.4v-14c0-3.3-2.7-6-6-6h-68c-3.3,0-6,2.7-6,6v14H688.7z"/>
	</g>
	<g>
		
			<ellipse transform="matrix(0.7071 -0.7071 0.7071 0.7071 41.0528 541.9553)" style="fill:#2CD5C4;" cx="674.7" cy="221.4" rx="6" ry="6"/>
	</g>
	<g>
		<g>
			<path style="fill:#FFFFFF;" d="M648.7,240.4c-16,0-29,13-29,29s13,29,29,29s29-13,29-29S664.7,240.4,648.7,240.4z"/>
		</g>
	</g>
	<g>
		<path style="fill:#DEDFDF;" d="M660,280.7c6.2-6.2,6.2-16.4,0-22.6l-22.6,22.6C643.7,287,653.8,287,660,280.7z"/>
	</g>
	<g>
		
			<ellipse transform="matrix(0.7071 -0.7071 0.7071 0.7071 36.9523 532.0558)" style="fill:#2CD5C4;" cx="660.7" cy="221.4" rx="6" ry="6"/>
	</g>
	<g>
		<g>
			<path style="fill:#2CD5C4;" d="M648.7,240.4c-16,0-29,13-29,29s13,29,29,29s29-13,29-29S664.7,240.4,648.7,240.4z M648.7,288.4
				c-10.5,0-19-8.5-19-19s8.5-19,19-19s19,8.5,19,19S659.2,288.4,648.7,288.4z"/>
		</g>
	</g>
	<path style="opacity:0.5;fill:#FFFFFF;" d="M688.7,215.4c0-3.3-2.7-6-6-6h-68c-3.3,0-6,2.7-6,6v96l80-80V215.4z"/>
	<g>
		<path style="fill:#3F4041;" d="M648.7,290.4c11.6,0,21-9.4,21-21c0-11.6-9.4-21-21-21c-9.1,0-16.9,5.9-19.8,14l2,0.3
			c2.7-7.2,9.6-12.4,17.8-12.4c10.5,0,19,8.5,19,19s-8.5,19-19,19c-8.2,0-15.1-5.1-17.8-12.4l-2,0.3
			C631.8,284.6,639.6,290.4,648.7,290.4z"/>
		<path style="fill:#3F4041;" d="M648.7,240.4c-13.1,0-24.2,8.7-27.8,20.7l2,0.3c3.4-11,13.7-19,25.8-19c14.9,0,27,12.1,27,27
			c0,14.9-12.1,27-27,27c-12.1,0-22.4-8-25.8-19l-2,0.3c3.6,12,14.7,20.7,27.8,20.7c16,0,29-13,29-29S664.7,240.4,648.7,240.4z"/>
	</g>
	<path style="fill:#FFFFFF;" d="M640.7,218.4h-24v6h24V218.4L640.7,218.4z"/>
	<path style="fill:#3F4041;" d="M638.7,220.4v2h-20v-2H638.7 M640.7,218.4h-24v6h24V218.4L640.7,218.4z"/>
	<g>
		<path style="fill:#3F4041;" d="M679,217.2c-1.2-1.2-2.7-1.8-4.2-1.8s-3.1,0.6-4.2,1.8c-2.3,2.3-2.3,6.1,0,8.5
			c1.2,1.2,2.7,1.8,4.2,1.8s3.1-0.6,4.2-1.8C681.3,223.3,681.3,219.5,679,217.2z M677.6,224.3c-0.8,0.8-1.8,1.2-2.8,1.2
			s-2.1-0.4-2.8-1.2c-1.6-1.6-1.6-4.1,0-5.7c0.8-0.8,1.8-1.2,2.8-1.2c0.7,0,1.4,0.2,2,0.6l-2.7,2.7l1.4,1.4l2.7-2.7
			C679.1,220.9,678.9,222.9,677.6,224.3z"/>
		<path style="fill:#3F4041;" d="M660.7,215.4c-1.5,0-3.1,0.6-4.2,1.8c-2.3,2.3-2.3,6.1,0,8.5c1.2,1.2,2.7,1.8,4.2,1.8
			s3.1-0.6,4.2-1.8c2.3-2.3,2.3-6.1,0-8.5C663.8,216,662.3,215.4,660.7,215.4z M663.6,224.3c-0.8,0.8-1.8,1.2-2.8,1.2
			s-2.1-0.4-2.8-1.2c-1.6-1.6-1.6-4.1,0-5.7c0.8-0.8,1.8-1.2,2.8-1.2c0.7,0,1.4,0.2,2,0.6l-2.7,2.7l1.4,1.4l2.7-2.7
			C665.1,220.9,664.9,222.9,663.6,224.3z"/>
	</g>
	<path style="fill:#3F4041;" d="M622.2,264.4l5.9,1c-0.3,1.3-0.4,2.7-0.4,4.1s0.1,2.7,0.4,4.1l-5.9,1c-0.3-1.7-0.5-3.4-0.5-5.1
		S621.9,266,622.2,264.4 M620.7,262.1c-0.6,2.3-0.9,4.8-0.9,7.3s0.3,5,0.9,7.3l9.9-1.7c-0.6-1.8-0.9-3.7-0.9-5.7s0.3-3.9,0.9-5.7
		L620.7,262.1L620.7,262.1z"/>
	<g>
		<path style="fill:#3F4041;" d="M682.7,209.4h-68c-3.3,0-6,2.7-6,6v13h2v-13c0-2.2,1.8-4,4-4h68c2.2,0,4,1.8,4,4V228v1.5v2v1.2v0.8
			v2v1.8v72.2h-76v-68.8v-5.2v-2v-1.2v-0.8h75v-2h-74.3h-0.7h-2v6v76h80v-76v-6v-14C688.7,212.1,686,209.4,682.7,209.4z"/>
		<rect x="611.7" y="233.4" style="fill:#3F4041;" width="74" height="2"/>
	</g>
</g>
<g>
	<path style="fill:#757778;" d="M263.1,369H447c3.3,0,6-2.7,6-6V252.9c0-3.3-2.7-6-6-6H263.1c-3.3,0-6,2.7-6,6V363
		C257.1,366.3,259.8,369,263.1,369z"/>
</g>
<g>
	<path style="fill:#757778;" d="M263.1,369H447c3.3,0,6-2.7,6-6V252.9c0-3.3-2.7-6-6-6H263.1c-3.3,0-6,2.7-6,6V363
		C257.1,366.3,259.8,369,263.1,369z"/>
</g>
<g>
	<rect x="270.8" y="258.6" style="fill:#2CD5C4;" width="168.6" height="98.6"/>
</g>
<g>
	<circle style="fill:#2CD5C4;" cx="355" cy="254.2" r="3.8"/>
</g>
<path style="fill:#757778;" d="M585.9,332.2v-61.9H526h-43h-0.6h-1.2V296v36.2h47.6v8.3h-11.9v7.1h11.9h9.5h11.9v-7.1h-11.9v-8.3
	H585.9z"/>
<rect x="487.1" y="276.3" style="fill:#DEDFDF;" width="92.8" height="50"/>
<path style="fill:#2CD5C4;" d="M354.6,59.5c-45.6,0-82.5,36.9-82.5,82.5s36.9,82.5,82.5,82.5c45.6,0,82.5-36.9,82.5-82.5
	S400.1,59.5,354.6,59.5z M354.6,192c-27.6,0-50-22.4-50-50s22.4-50,50-50c27.6,0,50,22.4,50,50S382.2,192,354.6,192z"/>
<g>
	<path style="fill:#FFFFFF;" d="M312.1,212.7l16.2-28.1c-7.7-4.8-14.1-11.6-18.3-19.7l-28.2,16.3C289,194.2,299.4,205.1,312.1,212.7
		z"/>
	<path style="fill:#FFFFFF;" d="M284.4,98.6l28.2,16.3c4.6-7.1,10.8-12.9,18.3-16.9l-16.2-28.1C302.2,76.7,291.8,86.7,284.4,98.6z"
		/>
	<path style="fill:#FFFFFF;" d="M427.2,181.1l-28.2-16.3c-4.2,8.1-10.5,15-18.3,19.7l16.2,28.1C409.7,205.1,420.2,194.2,427.2,181.1
		z"/>
	<path style="fill:#FFFFFF;" d="M394.6,69.9L378.3,98c7.4,4,13.7,9.9,18.3,16.9l28.2-16.3C417.3,86.7,406.9,76.7,394.6,69.9z"/>
</g>
<path style="fill:#2CD5C4;" d="M430,102.2c-7.9-11.2-15.9-19-16.3-19.3c-0.2-0.2-7.6-8-18.3-15.8c-10.1-7.2-25.2-15.8-40.3-15.8
	c-15.1,0-30.8,8.9-41.4,16.4c-11.2,7.9-19.1,16-19.3,16.3c-0.4,0.3-8.4,7.7-16.3,18.3c-7.5,10.1-16.4,25.2-16.4,40.3
	c0,15.1,9.2,30.3,16.9,40.3c8.3,10.8,16.7,18.3,16.8,18.3l1.5-1.7c-0.3-0.3-33-29.2-33-57c0-27.8,31.6-56.7,31.9-57l-0.8-0.8
	l0.8,0.8c0.3-0.3,31.3-32,59.1-32c27.8,0,56.7,30.6,57,30.9l0.8-0.8l-0.8,0.8c0.3,0.3,32,31.3,32,59.1c0,27.8-32.6,56.7-33,57
	l0.7,0.9l-0.9-0.7c-0.3,0.3-29.1,33-57,33c-27.8,0-55.9-33.6-56.2-34l-1.7,1.4c0.1,0.1,7.3,8.8,17.9,17.4c9.9,8,24.8,17.4,40,17.4
	c15.1,0,30.3-9.2,40.3-16.9c10.5-8,17.8-16.2,18.3-16.8c0.6-0.5,8.7-7.8,16.8-18.3c7.7-10.1,16.9-25.2,16.9-40.3
	C446.3,128.5,437.4,112.8,430,102.2z"/>
<ellipse transform="matrix(0.7071 -0.7071 0.7071 0.7071 26.5543 233.5335)" style="fill:#FFFFFF;" cx="295.2" cy="84.7" rx="5.1" ry="5.1"/>
<ellipse transform="matrix(0.7071 -0.7071 0.7071 0.7071 -21.7749 350.2104)" style="fill:#FFFFFF;" cx="411.9" cy="201.4" rx="5.1" ry="5.1"/>
<ellipse transform="matrix(0.7071 -0.7071 0.7071 0.7071 61.7785 316.4716)" style="fill:#FFFFFF;" cx="412.9" cy="83.7" rx="5.1" ry="5.1"/>
<ellipse transform="matrix(0.7071 -0.7071 0.7071 0.7071 -54.8985 268.1424)" style="fill:#FFFFFF;" cx="296.2" cy="200.3" rx="5.1" ry="5.1"/>
<path style="opacity:0.5;fill:#FCFCFC;" d="M262,246.9c-2.7,0-4.9,2.2-4.9,4.9v112.4c0,2.7,2.2,4.9,4.9,4.9H298l122.1-122.1H262z"/>
<g>
	<g>
		<path style="fill:#3F4041;" d="M437.3,260.6v94.6H272.8v-94.6H437.3 M439.3,258.6H270.8v98.6h168.6V258.6L439.3,258.6z"/>
	</g>
</g>
<path style="fill:#3F4041;" d="M447,246.9h-89.8v2H447c2.2,0,4,1.8,4,4V363c0,2.2-1.8,4-4,4H263.1c-2.2,0-4-1.8-4-4V252.9
	c0-2.2,1.8-4,4-4h91.1v1.6v1.3v0.8c0.3-0.1,0.6-0.2,0.9-0.2c1,0,1.8,0.8,1.8,1.8c0,1-0.8,1.8-1.8,1.8c-1,0-1.8-0.8-1.8-1.8
	c0-0.1,0-0.2,0-0.3v-3c-1.2,0.6-2,1.9-2,3.4c0,2.1,1.7,3.8,3.8,3.8c2.1,0,3.8-1.7,3.8-3.8c0-1.7-1.1-3.2-2.7-3.6v-1.7v-2h-2h-91.1
	c-3.3,0-6,2.7-6,6V363c0,3.3,2.7,6,6,6H447c3.3,0,6-2.7,6-6V252.9C453,249.6,450.3,246.9,447,246.9z"/>
<path style="opacity:0.5;fill:#FCFCFC;" d="M354.6,59.5c-45.6,0-82.5,36.9-82.5,82.5v0c0,22.8,9.3,43.4,24.2,58.4l23-23
	c-9.1-9.1-14.7-21.6-14.7-35.4c0-27.6,22.4-50,50-50c13.8,0,26.3,5.6,35.4,14.7l23-23C398,68.7,377.4,59.5,354.6,59.5z"/>
<g>
	<path style="fill:#3F4041;" d="M286,181.4l22.2-12.8c-0.4-0.7-0.7-1.3-1.1-2l-22.3,12.9C285.2,180.1,285.6,180.7,286,181.4z"/>
	<path style="fill:#3F4041;" d="M326.7,187.5c-0.6-0.4-1.3-0.8-1.9-1.2l-12.9,22.3c0.6,0.4,1.3,0.8,1.9,1.2L326.7,187.5z"/>
</g>
<g>
	<path style="fill:#3F4041;" d="M402,166.5c-0.3,0.7-0.7,1.3-1.1,2l22.2,12.8c0.4-0.7,0.8-1.3,1.1-2L402,166.5z"/>
	<path style="fill:#3F4041;" d="M384.4,186.3c-0.6,0.4-1.3,0.8-1.9,1.2l12.9,22.3c0.6-0.4,1.3-0.8,1.9-1.2L384.4,186.3z"/>
</g>
<g>
	<path style="fill:#3F4041;" d="M420.6,98.5l-22.3,12.9c0.4,0.6,0.9,1.2,1.3,1.9l22.3-12.9C421.4,99.7,421,99.1,420.6,98.5z"/>
	<path style="fill:#3F4041;" d="M392.9,72.8L380,95.1c0.7,0.4,1.3,0.7,2,1.1l12.8-22.2C394.2,73.6,393.5,73.2,392.9,72.8z"/>
</g>
<g>
	<path style="fill:#3F4041;" d="M406.5,76.7c-1.8-4-2.2-8.4-1.1-12.7c1.9-7.2,7.8-12.6,15.7-14.3c2.2-0.5,4.4-0.7,6.6-0.7
		c7.2,0,14.2,2.3,20.9,4.6c6.2,2.1,12.5,4.2,19,4.5c11.5,0.6,21.5-6.4,24-16.6c0.3-1.5,0.5-2.9,0.6-4.4l-2-2c0.1,2-0.1,4-0.5,6
		c-2.2,9.3-11.4,15.6-21.9,15.1c-6.1-0.3-12.4-2.4-18.4-4.4c-9.1-3-18.5-6.2-28.6-4c-8.7,1.9-15.2,7.8-17.2,15.8
		c-1,3.7-0.9,7.4,0.1,11C404.6,75.2,405.6,75.9,406.5,76.7z"/>
	<path style="fill:#3F4041;" d="M494.1,38.9c-0.1,1-0.3,2-0.5,3c-2.6,11.2-13.6,18.8-26,18.2c-6.7-0.3-13.2-2.5-19.5-4.6
		c-9-3-17.4-5.8-26.4-3.8c-7.2,1.6-12.5,6.4-14.2,12.9c-1.2,4.8-0.4,9.7,2.4,14c0.6-0.4,1.2-0.6,1.9-0.8c-2.6-3.9-3.4-8.4-2.3-12.7
		c1.5-5.7,6.3-10,12.7-11.4c8.5-1.9,16.7,0.9,25.4,3.8c6.4,2.2,13.1,4.4,20,4.7c13.4,0.7,25.2-7.6,28.1-19.7
		c0.1-0.6,0.2-1.1,0.3-1.7L494.1,38.9z"/>
	<path style="fill:#3F4041;" d="M406.8,142c0-28.8-23.5-52.3-52.3-52.3s-52.3,23.5-52.3,52.3s23.5,52.3,52.3,52.3
		S406.8,170.8,406.8,142z M354.6,192c-27.6,0-50-22.4-50-50s22.4-50,50-50c27.6,0,50,22.4,50,50S382.2,192,354.6,192z"/>
	<path style="fill:#3F4041;" d="M415.4,197.7c13.5-14.7,21.7-34.2,21.7-55.7c0-21-7.8-40.1-20.7-54.6c0,0,0.1-0.1,0.1-0.1
		c2-2,2-5.2,0-7.2c-1-1-2.3-1.5-3.6-1.5c-1.3,0-2.6,0.5-3.6,1.5c0,0-0.1,0.1-0.1,0.1c-14.6-12.9-33.7-20.7-54.6-20.7
		c-21.5,0-41.1,8.2-55.7,21.7c0,0,0,0-0.1-0.1c-1-1-2.3-1.5-3.6-1.5s-2.6,0.5-3.6,1.5c-2,2-2,5.2,0,7.2c0.1,0.1,0.1,0.1,0.2,0.2
		c-12.3,14.4-19.7,33.1-19.7,53.5c0,21,7.8,40.1,20.7,54.6c0,0-0.1,0.1-0.1,0.1c-2,2-2,5.2,0,7.2c1,1,2.3,1.5,3.6,1.5
		c1.3,0,2.6-0.5,3.6-1.5c0,0,0.1-0.1,0.1-0.1c14.4,12.7,33.2,20.5,53.8,20.7v-2.3c-19.3-0.2-37.8-7.3-52.3-20.1l-1.7-1.5l-1.5,1.6
		c0,0-0.1,0.1-0.1,0.1c-0.5,0.5-1.2,0.8-1.9,0.8c-0.8,0-1.5-0.3-2-0.8c-1.1-1.1-1.1-2.8-0.1-3.9c0.1,0,0.1-0.1,0.2-0.1l1.6-1.5
		l-1.5-1.7c-13-14.7-20.1-33.5-20.1-53.1c0-19.1,6.8-37.5,19.2-52l1.4-1.7l-1.6-1.5c-0.1-0.1-0.1-0.1-0.2-0.2c-1-1.1-1-2.9,0.1-3.9
		c0.5-0.5,1.2-0.8,2-0.8c0.7,0,1.4,0.3,1.9,0.7l0,0l0.1,0.1l1.5,1.6l1.6-1.5c14.8-13.6,34.1-21.1,54.2-21.1
		c19.6,0,38.5,7.1,53.1,20.1l1.7,1.5l1.5-1.6c0,0,0.1-0.1,0.1-0.1c0.5-0.5,1.2-0.8,1.9-0.8c0.8,0,1.5,0.3,2,0.8
		c1.1,1.1,1.1,2.8,0.1,3.9c-0.1,0-0.1,0.1-0.2,0.1l-1.6,1.5l1.5,1.7c13,14.7,20.1,33.5,20.1,53.1c0,20.1-7.5,39.4-21.1,54.2
		l-1.5,1.6l1.6,1.5c0,0,0.1,0.1,0.1,0.1c1,1.1,1,2.9-0.1,3.9c-0.5,0.5-1.2,0.8-2,0.8c-0.7,0-1.4-0.3-1.9-0.8c0-0.1-0.1-0.1-0.2-0.2
		l-1.5-1.7l-1.7,1.4c-14.4,12.3-32.8,19.1-51.7,19.2v2.3c20.3-0.1,38.9-7.5,53.2-19.7c0.1,0.1,0.1,0.2,0.2,0.2c1,1,2.3,1.5,3.6,1.5
		c1.3,0,2.6-0.5,3.6-1.5C417.4,203,417.4,199.8,415.4,197.7C415.4,197.8,415.4,197.8,415.4,197.7z"/>
</g>
<g>
	<path style="fill:#3F4041;" d="M327.1,96.2c0.6-0.4,1.3-0.8,2-1.1l-12.8-22.2c-0.7,0.4-1.3,0.7-2,1.1L327.1,96.2z"/>
	<path style="fill:#3F4041;" d="M309.6,113.2c0.4-0.6,0.8-1.3,1.3-1.9l-22.3-12.9c-0.4,0.6-0.8,1.3-1.2,1.9L309.6,113.2z"/>
</g>
<polygon style="fill:#2CD5C4;" points="548.1,301.3 519.4,312.7 519.4,291.6 548.1,301.3 "/>
<polygon style="opacity:0.5;fill:#FCFCFC;" points="481.1,270.3 481.1,332.2 503.7,332.2 565.6,270.3 "/>
<g>
	<path style="fill:#3F4041;" d="M577.9,278.3v46h-88.8v-46H577.9 M579.9,276.3h-92.8v50h92.8V276.3L579.9,276.3z"/>
</g>
<polygon style="fill:#3F4041;" points="585.9,332.2 585.9,270.3 484.1,270.3 484.1,272.3 583.9,272.3 583.9,330.2 536.3,330.2 
	536.3,342.5 548.2,342.5 548.2,345.7 518.8,345.7 518.8,342.5 530.7,342.5 530.7,330.2 483.1,330.2 483.1,296 483.1,270.3 
	481.1,270.3 481.1,296 481.1,332.2 528.7,332.2 528.7,340.5 516.8,340.5 516.8,347.7 550.2,347.7 550.2,340.5 538.3,340.5 
	538.3,332.2 "/>
<path style="fill:#3F4041;" d="M518.4,314.2v-24l32.7,11L518.4,314.2z M520.4,293v18.3l24.8-9.9L520.4,293z"/>
<g>
	<path style="fill:#DFE0E0;" d="M568.9,209.3c-0.2,0-0.5,0-0.7,0.1c-0.1,0-0.1,0-0.2,0c-0.2,0.1-0.5,0.1-0.7,0.2c0,0,0,0,0,0
		c-0.1,0.1-0.3,0.1-0.4,0.2c-0.1,0-0.1,0.1-0.2,0.1c0,0-0.1,0.1-0.1,0.1c-0.2,0.1-0.4,0.3-0.5,0.4c0,0-0.1,0.1-0.1,0.1
		c-0.1,0.1-0.2,0.3-0.3,0.4c0,0.1-0.1,0.1-0.1,0.2c-0.1,0.2-0.2,0.3-0.3,0.5c0,0.1-0.1,0.2-0.1,0.3c0,0.1-0.1,0.2-0.1,0.4
		c0,0.1-0.1,0.2-0.1,0.4c0,0.1,0,0.3-0.1,0.4l0,0c0,0.1,0,0.1,0,0.2v0.8l-6.9-1.8l-3.8-6.6l7.8-4.5l-2.5-4.3l17.3-10l-7-12.1
		l-4.5-7.8l-2-3.5c-1.1-1.9-3.6-2.6-5.5-1.5l-70.1,40.5l18.9,8.7l7,12.1l29.4-17l2.5,4.3l6.9-4l4.2,7.3l8.2,2.2l0,3.1
		c0,2.2,1.8,4,4,4h9v-14L568.9,209.3z"/>
	<polygon style="fill:#95EAE1;" points="506.6,211.2 502.6,209.4 494.8,212.2 501.8,224.3 510.4,217.9 	"/>
	<path style="opacity:0.5;fill:#FFFFFF;" d="M563.3,163.5c-1.1-1.9-3.6-2.6-5.5-1.5l-70.1,40.5l15.6,7.2h0l-0.8-0.4l-7.8,2.8l7,12.1
		l8.7-6.5l-0.6-1l2.4,4.1l53.4-53.4l-0.3-0.6L563.3,163.5z"/>
	<path style="fill:#FFFFFF;" d="M561.8,180.4c-2.4,1.4-3.2,4.4-1.8,6.8c1.4,2.4,4.4,3.2,6.8,1.8c2.4-1.4,3.2-4.4,1.8-6.8
		C567.3,179.8,564.2,179,561.8,180.4L561.8,180.4z"/>
	<polygon style="fill:#3F4041;" points="508.8,216.6 502.4,221.4 497.7,213.3 504.1,210.9 501.6,209.7 494.8,212.2 501.8,224.3 
		509.8,218.3 	"/>
	<circle style="fill:#3F4041;" cx="571.9" cy="216.3" r="2"/>
	<path style="fill:#3F4041;" d="M557.9,162l-70.1,40.5l18.9,8.7l7,12.1l29.4-17l2.5,4.3l6.9-4l4.2,7.3l8.2,2.2v3.1c0,2.2,1.8,4,4,4
		l9,0l0-14l-9,0c-0.7,0-1.4,0.2-2,0.5c-1.1,0.7-1.9,1.9-2,3.3l2,0.5v-0.3c0-0.7,0.4-1.4,1-1.7c0.3-0.2,0.6-0.3,1-0.3l7,0l0,10l-7,0
		c-0.5,0-1-0.2-1.4-0.6c-0.4-0.4-0.6-0.9-0.6-1.4v-3.5v-1.2l-8.9-2.4l-3.8-6.6l-1-1.7l-6.9,4l-0.5-0.9l-0.5-0.9l-0.5-0.9l-1-1.7
		l-1.7,1l-27.7,16l-6-10.4l-0.3-0.5l-0.6-0.3l-15.4-7.1l66.8-38.6c1-0.6,2.2-0.2,2.7,0.7l2,3.5l4.5,7.8l6,10.4l-15.6,9l-1.7,1l1,1.7
		l0.5,0.9l0.5,0.9l0.5,0.9l-5.2,3l1,1.7l6.9-4l-2.5-4.3l17.3-10l-7-12.1l-4.5-7.8l-2-3.5C562.2,161.6,559.8,160.9,557.9,162z"/>
	
		<rect x="504.4" y="190.9" transform="matrix(0.866 -0.5 0.5 0.866 -23.8995 294.6589)" style="fill:#3F4041;" width="67" height="2"/>
	<path style="fill:#3F4041;" d="M562.8,182.1c1.4-0.8,3.3-0.3,4.1,1.1c0.8,1.4,0.3,3.3-1.1,4.1s-3.3,0.3-4.1-1.1
		C560.9,184.8,561.4,183,562.8,182.1 M561.8,180.4c-2.4,1.4-3.2,4.4-1.8,6.8c1.4,2.4,4.4,3.2,6.8,1.8c2.4-1.4,3.2-4.4,1.8-6.8
		C567.3,179.8,564.2,179,561.8,180.4L561.8,180.4z"/>
</g>
<path style="fill:#FFFFFF;" d="M354,269.5L354,269.5c-14.6,0-26.5,12-26.5,26.6c0,5.1,1.5,10.1,4.2,14.4c1.3,2,3,3.8,4.6,5.7
	c1.9,2.3,3.3,5,3.9,8c0.3,1.6,0.2,3.2,0.2,4.8v12.7h6.4l2.4,4.8h4.8l0,0h4.8l2.4-4.8h6.4v-12.7c0-1.6-0.1-3.2,0.2-4.8
	c0.6-2.9,2-5.7,3.9-8c1.5-1.9,3.3-3.6,4.6-5.7c2.7-4.3,4.2-9.3,4.2-14.4C380.5,281.5,368.6,269.5,354,269.5z"/>
<path style="opacity:0.5;fill:#FFFFFF;" d="M354,269.5L354,269.5c-14.6,0-26.5,12-26.5,26.6c0,5.1,1.5,10.1,4.2,14.4
	c1.3,2,3,3.8,4.6,5.7c1.5,1.8,2.7,3.9,3.4,6.1l38-38C373.4,275.5,364.4,269.5,354,269.5z"/>
<path style="fill:#DEDFDF;" d="M368.3,322.4h-28.5c0.2,0.6,0.3,1.2,0.5,1.8c0.3,1.6,0.2,3.2,0.2,4.8v12.7h6.4l2.4,4.8h4.8h4.8
	l2.4-4.8h6.4v-12.7c0-1.6-0.1-3.2,0.2-4.8C368,323.6,368.1,323,368.3,322.4z"/>
<path style="fill:#3F4041;" d="M341.8,322.1c0.2,0.5,0.3,1.1,0.4,1.6c0,0.1,0,0.3,0.1,0.4h23.6c0-0.1,0-0.2,0.1-0.4
	c0.1-0.5,0.3-1.1,0.4-1.6H341.8z"/>
<rect x="342.4" y="329" style="fill:#3F4041;" width="23.3" height="2"/>
<path style="fill:#DEDFDF;" d="M335.6,295.9c0.1-9.9,7.7-18,17.5-18.4l0.9,0v-1.6l-1,0c-10.6,0.5-19,9.3-19.1,20H335.6z"/>
<path style="fill:#DFE0E0;" d="M144.2,268.6v74l38,10l3-2v-8h9v-74H144.2z"/>
<polygon style="fill:#2CD5C4;" points="154.8,268.6 185.2,276.6 185.2,342.6 194.2,342.6 194.2,268.6 "/>
<polygon style="opacity:0.5;fill:#FFFFFF;" points="194.2,285.6 194.2,268.6 144.2,268.6 144.2,335.6 "/>
<rect x="186.2" y="345.5" style="fill:#3F4041;" width="8" height="2"/>
<rect x="188.2" y="305.6" style="fill:#FFFFFF;" width="6" height="10"/>
<path style="fill:#2CD5C4;" d="M198.9,305.2c0.5,3.6,0.5,7.2,0,10.8l1.9,0.5c0.6-3.9,0.6-7.9,0-11.9L198.9,305.2z"/>
<path style="fill:#2CD5C4;" d="M203.7,303.8c0.7,4.5,0.7,9,0,13.4l1.9,0.5c0.8-4.8,0.8-9.7,0-14.5L203.7,303.8z"/>
<path style="fill:#2CD5C4;" d="M208.6,302.5c0.9,5.3,0.9,10.7,0,16.1l1.9,0.5c1-5.7,1-11.5,0-17.1L208.6,302.5z"/>
<path style="fill:#2CD5C4;" d="M139.6,305.2c-0.5,3.6-0.5,7.2,0,10.8l-1.9,0.5c-0.6-3.9-0.6-7.9,0-11.9L139.6,305.2z"/>
<path style="fill:#2CD5C4;" d="M134.7,303.8c-0.7,4.5-0.7,9,0,13.4l-1.9,0.5c-0.8-4.8-0.8-9.7,0-14.5L134.7,303.8z"/>
<path style="fill:#2CD5C4;" d="M129.9,302.5c-0.9,5.3-0.9,10.7,0,16.1l-1.9,0.5c-1-5.7-1-11.5,0-17.1L129.9,302.5z"/>
<polygon style="fill:#3F4041;" points="151.7,345.5 144.2,345.5 144.2,347.5 159.2,347.5 "/>
<polygon style="fill:#3F4041;" points="158.3,271.6 183.2,278.1 183.2,339.6 185.2,339.6 185.2,276.6 166.2,271.6 "/>
<polygon style="fill:#3F4041;" points="191.2,313.6 190.2,313.6 190.2,307.6 191.2,307.6 191.2,305.6 188.2,305.6 188.2,315.6 
	191.2,315.6 "/>
<polygon style="fill:#3F4041;" points="144.2,268.6 144.2,342.6 179.2,351.8 179.2,349.7 146.2,341 146.2,271.6 146.2,271.2 
	146.2,270.6 151.8,270.6 152.7,270.6 154.5,270.6 162.4,270.6 168.8,270.6 192.2,270.6 192.2,340.6 190.9,340.6 185.2,340.6 
	183.2,340.6 183.2,349.5 182.2,350.2 182.2,278.6 155.6,271.6 152.7,271.6 147.7,271.6 180.2,280.1 180.2,339.1 180.2,350 
	180.2,352 182.2,352.6 185.2,350.6 185.2,342.6 194.2,342.6 194.2,268.6 "/>
<path style="fill:#FFFFFF;" d="M172.2,318.6c-2.2,0-4-1.8-4-4c0-2.2,1.8-4,4-4s4,1.8,4,4C176.2,316.8,174.4,318.6,172.2,318.6z"/>
<path style="fill:#3F4041;" d="M172.2,318.6c-2.2,0-4-1.8-4-4c0-2.2,1.8-4,4-4s4,1.8,4,4C176.2,316.8,174.4,318.6,172.2,318.6z
	 M172.2,312.6c-1.1,0-2,0.9-2,2s0.9,2,2,2s2-0.9,2-2S173.3,312.6,172.2,312.6z"/>
<path style="fill:none;stroke:#FFFFFF;stroke-width:2;stroke-linecap:round;stroke-miterlimit:10;" d="M354.6,71.8
	c-38.8,0-70.2,31.4-70.2,70.2"/>
<rect x="342.4" y="334.8" style="fill:#3F4041;" width="23.3" height="2"/>
<path style="fill:#3F4041;" d="M355,268.5l-1,0c-15.1,0-27.5,12.4-27.5,27.6c0,5.3,1.5,10.5,4.3,15c0.9,1.5,2.1,2.8,3.2,4
	c0.5,0.6,1,1.2,1.5,1.7c1.9,2.3,3.2,4.9,3.7,7.5c0.2,1.1,0.2,2.2,0.2,3.4c0,0.4,0,0.8,0,1.2v13.7h6.8l2.4,4.8h10.9l2.4-4.8h6.8
	v-13.7c0-0.4,0-0.8,0-1.2c0-1,0-1.9,0.1-2.8h-2c-0.1,1-0.1,1.9-0.1,2.8c0,0.4,0,0.7,0,1.1v11.7h-6l-2.4,4.8h-8.4l-2.4-4.8h-6v-11.7
	c0-0.4,0-0.7,0-1.1c0-1.2,0.1-2.5-0.2-3.9c-0.6-2.9-2-5.8-4.1-8.4c-0.5-0.6-1-1.2-1.5-1.8c-1.1-1.3-2.1-2.4-3-3.8
	c-2.6-4.2-4-9-4-13.9c0-13.8,10.9-25.1,24.5-25.6l1,0c14,0,25.5,11.5,25.5,25.6c0,4.9-1.4,9.7-4,13.9c-0.8,1.3-1.9,2.5-3,3.8
	c-0.5,0.6-1,1.2-1.5,1.8c-2.1,2.6-3.5,5.5-4.1,8.4c0,0,0,0,0,0l2,0.1c0.5-2.5,1.8-5.1,3.6-7.3c0.5-0.6,1-1.2,1.5-1.7
	c1.1-1.3,2.2-2.6,3.2-4c2.8-4.5,4.3-9.7,4.3-15C381.5,281.2,369.7,269,355,268.5z"/>
<rect x="356.4" y="322.1" style="fill:#3F4041;" width="12.5" height="2"/>
<g>
	<g>
		<path style="fill:#DEDFDF;" d="M87,316.6H45c-3.3,0-6-2.7-6-6v-92c0-3.3,2.7-6,6-6h42c3.3,0,6,2.7,6,6v92
			C93,313.9,90.3,316.6,87,316.6z"/>
	</g>
	<g>
		<rect x="43" y="223.6" style="fill:#757778;" width="46" height="78"/>
	</g>
	<g>
		<circle style="fill:#2CD5C4;" cx="66" cy="307.6" r="5"/>
	</g>
	<path style="fill:#3F4041;" d="M66,304.6c1.7,0,3,1.3,3,3s-1.3,3-3,3s-3-1.3-3-3S64.3,304.6,66,304.6 M66,302.6c-2.8,0-5,2.2-5,5
		s2.2,5,5,5s5-2.2,5-5S68.8,302.6,66,302.6L66,302.6z"/>
	<polygon style="fill:#2CD5C4;" points="60.1,256.4 66,244.5 71.9,256.4 85,258.3 75.5,267.6 77.7,280.6 66,274.5 54.3,280.6 
		56.5,267.6 47,258.3 	"/>
	<path style="opacity:0.5;fill:#FFFFFF;" d="M93,245.6v-27c0-3.3-2.7-6-6-6H45c-3.3,0-6,2.7-6,6v81L93,245.6z"/>
	<path style="fill:#3F4041;" d="M91,299.6v11c0,2.2-1.8,4-4,4H45c-2.2,0-4-1.8-4-4v-92c0-2.2,1.8-4,4-4h42c2.2,0,4,1.8,4,4v80h2v-80
		c0-3.3-2.7-6-6-6H45c-3.3,0-6,2.7-6,6v92c0,3.3,2.7,6,6,6h42c3.3,0,6-2.7,6-6v-11H91z"/>
	<path style="fill:#3F4041;" d="M87,225.6v74H45v-74H87 M89,223.6H43v78h46V223.6L89,223.6z"/>
	<path style="fill:#3F4041;" d="M66,249l4.1,8.3l0.5,0.9l1,0.2l9.1,1.3l-6.6,6.4l-0.8,0.7l0.2,1l1.6,9.1l-8.2-4.3l-0.9-0.5l-0.9,0.5
		l-8.2,4.3l1.6-9.1l0.2-1l-0.8-0.7l-6.6-6.4l9.1-1.3l1-0.2l0.5-0.9L66,249 M66,244.5l-5.9,11.9L47,258.3l9.5,9.3l-2.2,13.1l11.7-6.2
		l11.7,6.2l-2.2-13.1l9.5-9.3l-13.1-1.9L66,244.5L66,244.5z"/>
	<path style="fill:#3F4041;" d="M66,218.6c0.6,0,1,0.4,1,1s-0.4,1-1,1s-1-0.4-1-1S65.4,218.6,66,218.6 M66,216.6c-1.7,0-3,1.3-3,3
		s1.3,3,3,3s3-1.3,3-3S67.7,216.6,66,216.6L66,216.6z"/>
	<g>
		<circle style="fill:#FFFFFF;" cx="66" cy="219.6" r="3"/>
		<path style="fill:#3F4041;" d="M66,218.6c0.6,0,1,0.4,1,1s-0.4,1-1,1s-1-0.4-1-1S65.4,218.6,66,218.6 M66,216.6c-1.7,0-3,1.3-3,3
			s1.3,3,3,3s3-1.3,3-3S67.7,216.6,66,216.6L66,216.6z"/>
	</g>
</g>
</svg>
