<?xml version="1.0" encoding="UTF-8" standalone="no"?>
<svg
   xmlns:dc="http://purl.org/dc/elements/1.1/"
   xmlns:cc="http://creativecommons.org/ns#"
   xmlns:rdf="http://www.w3.org/1999/02/22-rdf-syntax-ns#"
   xmlns:svg="http://www.w3.org/2000/svg"
   xmlns="http://www.w3.org/2000/svg"
   height="12.28889cm"
   width="19.461109cm"
   xml:space="preserve"
   viewBox="0 0 689.56686 435.4331"
   y="0px"
   x="0px"
   id="Layer_1"
   version="1.1"><metadata
     id="metadata7084"><rdf:RDF><cc:Work
         rdf:about=""><dc:format>image/svg+xml</dc:format><dc:type
           rdf:resource="http://purl.org/dc/dcmitype/StillImage" /><dc:title></dc:title></cc:Work></rdf:RDF></metadata><defs
     id="defs7082" /><g
     transform="matrix(1.220045,0,0,1.2290384,-93.759449,-26.622193)"
     id="g6848"><path
       id="path6850"
       d="m 364.5,61.8 c 0,0 -0.1,0 0,0 -0.1,0 -0.1,0 -0.1,0 0,0 0,0 -0.1,0 0,0 0,0 0,0 0,0 0,0 -0.1,0 0,0 0,0 0,0 0,0 0,0 -0.1,0 0,0 0,0 0,0 0,0 0,0 -0.1,0 0,0 0,0 0,0 0,0 0,0 -0.1,0 0,0 0,0 0,0 0,0 0,0 -0.1,0 0,0 0,0 0,0 0,0 0,0 -0.1,0 0,0 0,0 0,0 0,0 0,0 -0.1,0 0,0 0,0 0,0 0,0 0,0 -0.1,0 0,0 0,0 0,0 0,0 0,0 -0.1,0 0,0 0,0 0,0 0,0 0,0 -0.1,0 0,0 0,0 0,0 0,0 0,0 -0.1,0 0,0 0,0 0,0 0,0 0,0 -0.1,0 0,0 0,0 0,0 0,0 -0.1,0 -0.1,0 0,0 0,0 0,0 0,0 0,0 -0.1,0 0,0 0,0 0,0 0,0 0,0 -0.1,0 0,0 0,0 0,0 0,0 -0.1,0 -0.1,0 0,0 0,0 0,0 0,0 -0.1,0 -0.1,0 l 0,0 c -1.4,0 -2.8,0 -4.1,0.1 l 0,2 c 2,0 4,-0.1 6,-0.1 l 0,-2 0,0 0,0 z m -12,0.3 c -1.5,0.1 -3,0.2 -4.5,0.3 l 0,0 c 0,0 -0.1,0 -0.1,0 0,0 0,0 0,0 0,0 -0.1,0 -0.1,0 0,0 0,0 0,0 0,0 0,0 -0.1,0 0,0 0,0 0,0 0,0 0,0 0,0 0,0 0,0 -0.1,0 0,0 0,0 0,0 -0.4,0 -0.7,0.1 -1.1,0.1 l 0.1,2 c 2,-0.1 4,-0.3 5.9,-0.4 l 0,-2 0,0 z m -12,0.8 c -0.7,0.1 -1.4,0.1 -2.1,0.2 l 0,0 c 0,0 -0.1,0 -0.1,0 l 0,0 c 0,0 -0.1,0 -0.1,0 l 0,0 c 0,0 -0.1,0 -0.1,0 0,0 0,0 0,0 0,0 -0.1,0 -0.1,0 0,0 0,0 0,0 0,0 -0.1,0 -0.1,0 0,0 0,0 0,0 0,0 -0.1,0 -0.1,0 l 0,0 c 0,0 -0.1,0 -0.1,0 l 0,0 c 0,0 -0.1,0 -0.1,0 l 0,0 c 0,0 -0.1,0 -0.1,0 l 0,0 c 0,0 -0.1,0 -0.1,0 l 0,0 c 0,0 -0.1,0 -0.1,0 l 0,0 c 0,0 -0.1,0 -0.1,0 l 0,0 c 0,0 -0.1,0 -0.1,0 l 0,0 c 0,0 -0.1,0 -0.1,0 l 0,0 c -0.8,0.1 -1.7,0.2 -2.5,0.3 l 0.2,2 c 2,-0.2 3.9,-0.5 5.9,-0.7 l -0.1,-1.8 0,0 z m -11.9,1.5 c -1.1,0.2 -2.2,0.3 -3.2,0.5 0,0 0,0 0,0 0,0 0,0 -0.1,0 0,0 0,0 0,0 0,0 0,0 0,0 0,0 -0.1,0 -0.1,0 0,0 0,0 0,0 -0.8,0.1 -1.6,0.3 -2.4,0.4 l 0.3,2 C 325,67 327,66.6 329,66.4 l -0.4,-2 0,0 z m -11.8,2.1 c -0.4,0.1 -0.9,0.2 -1.3,0.3 -1.5,0.3 -3,0.6 -4.5,1 l 0.4,2 c 1.9,-0.4 3.9,-0.8 5.8,-1.2 l -0.4,-2.1 0,0 z m -11.7,2.6 c -0.2,0 -0.3,0.1 -0.5,0.1 l 0,0 c 0,0 -0.1,0 -0.1,0 l 0,0 c 0,0 0,0 -0.1,0 0,0 0,0 0,0 0,0 0,0 -0.1,0 0,0 0,0 0,0 0,0 0,0 0,0 0,0 0,0 0,0 0,0 0,0 0,0 0,0 0,0 -0.1,0 0,0 0,0 0,0 0,0 0,0 -0.1,0 0,0 0,0 0,0 0,0 0,0 -0.1,0 0,0 0,0 0,0 0,0 0,0 -0.1,0 0,0 0,0 0,0 0,0 0,0 -0.1,0 0,0 0,0 0,0 0,0 0,0 -0.1,0 0,0 0,0 0,0 0,0 0,0 -0.1,0 0,0 0,0 0,0 0,0 0,0 -0.1,0 0,0 0,0 0,0 0,0 0,0 -0.1,0 0,0 0,0 0,0 0,0 0,0 -0.1,0 0,0 0,0 0,0 0,0 0,0 -0.1,0 0,0 0,0 0,0 0,0 0,0 -0.1,0 0,0 0,0 0,0 0,0 0,0 -0.1,0 0,0 0,0 0,0 0,0 0,0 -0.1,0 0,0 0,0 0,0 0,0 0,0 -0.1,0 0,0 0,0 0,0 0,0 0,0 -0.1,0 0,0 0,0 0,0 0,0 0,0 -0.1,0 0,0 0,0 0,0 0,0 0,0 -0.1,0 0,0 0,0 0,0 0,0 0,0 -0.1,0 0,0 0,0 0,0 0,0 0,0 -0.1,0 0,0 0,0 0,0 0,0 0,0 0,0 0,0 0,0 0,0 0,0 0,0 0,0 0,0 0,0 0,0 0,0 0,0 0,0 0,0 0,0 0,0 0,0 0,0 0,0 0,0 0,0 -0.1,0 0,0 0,0 0,0 0,0 0,0 -0.1,0 0,0 0,0 0,0 0,0 0,0 -0.1,0 0,0 0,0 0,0 0,0 0,0 -0.1,0 0,0 0,0 0,0 0,0 0,0 -0.1,0 0,0 0,0 0,0 0,0 0,0 -0.1,0 0,0 0,0 0,0 0,0 0,0 -0.1,0 0,0 0,0 0,0 0,0 0,0 -0.1,0 0,0 0,0 0,0 0,0 0,0 -0.1,0 0,0 0,0 0,0 0,0 0,0 -0.1,0 0,0 0,0 0,0 0,0 0,0 -0.1,0 0,0 0,0 0,0 0,0 0,0 -0.1,0 0,0 0,0 0,0 0,0 0,0 -0.1,0 0,0 0,0 0,0 0,0 0,0 -0.1,0 0,0 0,0 0,0 0,0 0,0 -0.1,0 0,0 0,0 0,0 0,0 0,0 -0.1,0 0,0 0,0 0,0 0,0 0,0 0,0 0,0 0,0 0,0 0,0 0,0 0,0 0,0 0,0 -0.1,0 0,0 0,0 0,0 0,0 0,0 -0.1,0 0,0 0,0 0,0 0,0 0,0 -0.1,0 0,0 0,0 0,0 0,0 -0.1,0 -0.1,0 l 0,0 c -0.3,0.1 -0.6,0.2 -0.9,0.2 l 0.5,1.9 c 1.9,-0.5 3.8,-1 5.8,-1.5 l -0.6,-0.7 0,0 z m -11.6,3.2 c -0.6,0.2 -1.1,0.4 -1.7,0.5 0,0 0,0 0,0 0,0 0,0 -0.1,0 0,0 0,0 -0.1,0 0,0 0,0 0,0 0,0 -0.1,0 -0.1,0 l 0,0 c -1.3,0.4 -2.5,0.8 -3.7,1.2 l 0.6,1.9 c 1.9,-0.6 3.8,-1.2 5.7,-1.8 l -0.6,-1.8 0,0 z m -11.3,3.8 c -0.1,0 -0.1,0 0,0 -0.1,0 -0.1,0 0,0 -0.1,0 -0.1,0 0,0 -0.1,0 -0.1,0 -0.1,0 0,0 0,0 -0.1,0 0,0 0,0 0,0 0,0 0,0 0,0 0,0 0,0 -0.1,0 0,0 0,0 0,0 0,0 -0.1,0 -0.1,0 l 0,0 c -0.7,0.2 -1.4,0.5 -2,0.7 0,0 0,0 0,0 0,0 -0.1,0 -0.1,0 0,0 0,0 0,0 0,0 0,0 -0.1,0 0,0 0,0 0,0 0,0 0,0 0,0 0,0 0,0 0,0 0,0 0,0 0,0 0,0 0,0 -0.1,0 0,0 0,0 0,0 0,0 0,0 -0.1,0 0,0 0,0 0,0 0,0 0,0 -0.1,0 0,0 0,0 0,0 0,0 0,0 -0.1,0 0,0 0,0 0,0 0,0 0,0 -0.1,0 0,0 0,0 0,0 0,0 0,0 -0.1,0 0,0 0,0 0,0 0,0 0,0 -0.1,0 0,0 0,0 0,0 0,0 0,0 -0.1,0 0,0 0,0 0,0 0,0 0,0 -0.1,0 0,0 0,0 0,0 0,0 0,0 -0.1,0 0,0 0,0 0,0 0,0 0,0 -0.1,0 0,0 0,0 0,0 0,0 0,0 -0.1,0 0,0 0,0 0,0 -0.1,0 -0.1,0 -0.2,0.1 l 0,0 c -0.1,0 -0.2,0.1 -0.3,0.1 0,0 0,0 0,0 0,0 -0.1,0 -0.1,0 0,0 0,0 0,0 0,0 0,0 -0.1,0 0,0 0,0 0,0 0,0 0,0 -0.1,0 0,0 0,0 0,0 0,0 0,0 -0.1,0 0,0 0,0 0,0 0,0 0,0 -0.1,0 0,0 0,0 0,0 0,0 0,0 -0.1,0 0,0 0,0 0,0 0,0 0,0 -0.1,0 0,0 0,0 0,0 0,0 0,0 -0.1,0 0,0 0,0 0,0 0,0 0,0 -0.1,0 0,0 0,0 0,0 0,0 0,0 0,0 0,0 0,0 0,0 0,0 0,0 0,0 0,0 0,0 0,0 0,0 0,0 0,0 0,0 0,0 -0.1,0 0,0 0,0 0,0 0,0 0,0 -0.1,0 l 0,0 c 0,0 0,0 -0.1,0 l 0,0 0.7,1.9 c 1.8,-0.7 3.7,-1.4 5.6,-2.1 l -0.8,-0.7 0,0 z M 271,80.5 c -0.5,0.2 -1.1,0.5 -1.6,0.7 l 0,0 c 0,0 0,0 -0.1,0 0,0 0,0 0,0 0,0 0,0 -0.1,0 0,0 0,0 0,0 0,0 0,0 -0.1,0 0,0 0,0 0,0 0,0 0,0 0,0 0,0 0,0 0,0 0,0 0,0 0,0 0,0 0,0 -0.1,0 0,0 0,0 0,0 0,0 0,0 -0.1,0 0,0 0,0 0,0 0,0 0,0 -0.1,0 0,0 0,0 0,0 -0.6,0.2 -1.1,0.5 -1.7,0.7 0,0 0,0 0,0 0,0 -0.1,0 -0.1,0 0,0 0,0 0,0 0,0 0,0 -0.1,0 0,0 0,0 0,0 0,0 0,0 -0.1,0 0,0 0,0 0,0 0,0 0,0 -0.1,0 0,0 0,0 0,0 0,0 0,0 0,0 0,0 0,0 0,0 0,0 0,0 0,0 0,0 0,0 0,0 0,0 0,0 0,0 0,0 0,0 -0.1,0 0,0 0,0 0,0 0,0 0,0 -0.1,0 0,0 0,0 0,0 0,0 0,0 -0.1,0 0,0 0,0 0,0 0,0 0,0 -0.1,0 0,0 0,0 0,0 0,0 0,0 -0.1,0 0,0 0,0 0,0 -0.2,0.1 -0.4,0.2 -0.6,0.3 l 0.8,1.8 c 1.8,-0.8 3.6,-1.6 5.5,-2.4 l -0.9,-1.1 0,0 z m -11,4.9 c -0.7,0.3 -1.5,0.7 -2.2,1.1 0,0 0,0 0,0 0,0 0,0 -0.1,0 0,0 0,0 0,0 0,0 0,0 -0.1,0 0,0 0,0 0,0 0,0 0,0 -0.1,0 0,0 0,0 0,0 0,0 0,0 -0.1,0 0,0 0,0 0,0 0,0 0,0 -0.1,0 0,0 0,0 0,0 0,0 0,0 -0.1,0 0,0 0,0 0,0 0,0 0,0 -0.1,0 0,0 0,0 0,0 0,0 0,0 -0.1,0 0,0 0,0 0,0 0,0 0,0 -0.1,0 0,0 0,0 0,0 0,0 0,0 0,0 0,0 0,0 0,0 0,0 0,0 0,0 0,0 0,0 0,0 0,0 0,0 0,0 0,0 0,0 0,0 0,0 0,0 0,0 0,0 0,0 0,0 0,0 0,0 0,0 0,0 0,0 0,0 0,0 0,0 0,0 0,0 0,0 0,0 0,0 0,0 -0.1,0 0,0 0,0 0,0 0,0 0,0 -0.1,0 0,0 0,0 0,0 0,0 0,0 -0.1,0 0,0 0,0 0,0 0,0 0,0 -0.1,0 0,0 0,0 0,0 0,0 0,0 -0.1,0 0,0 0,0 0,0 0,0 0,0 -0.1,0 0,0 0,0 0,0 0,0 0,0 -0.1,0 0,0 0,0 0,0 0,0 0,0 -0.1,0 0,0 0,0 0,0 -0.4,0.2 -0.9,0.4 -1.3,0.7 l 0.9,1.8 c 1.8,-0.9 3.6,-1.8 5.3,-2.6 l -1,-1 0,0 z m -10.7,5.4 c -0.1,0 -0.2,0.1 -0.2,0.1 0,0 0,0 0,0 0,0 0,0 -0.1,0 0,0 0,0 0,0 0,0 0,0 -0.1,0 0,0 0,0 0,0 0,0 0,0 -0.1,0 0,0 0,0 0,0 0,0 0,0 0,0 0,0 0,0 -0.1,0 0,0 0,0 0,0 0,0 0,0 -0.1,0 0,0 0,0 0,0 -1.5,0.8 -3,1.7 -4.5,2.5 l 1,1.7 c 1.7,-1 3.5,-2 5.2,-2.9 l -1,-1.4 0,0 z m -10.4,6 c -0.2,0.1 -0.3,0.2 -0.5,0.3 l 0,0 c 0,0 0,0 -0.1,0 0,0 0,0 0,0 0,0 0,0 -0.1,0 0,0 0,0 0,0 0,0 0,0 0,0 0,0 0,0 0,0 0,0 0,0 0,0 0,0 0,0 -0.1,0 0,0 0,0 0,0 0,0 0,0 -0.1,0 l 0,0 c -1.4,0.9 -2.8,1.7 -4.2,2.6 l 1.1,1.7 c 1.7,-1.1 3.4,-2.1 5,-3.1 l -1,-1.5 0,0 z m -10.1,6.4 c -0.6,0.4 -1.2,0.8 -1.8,1.2 0,0 0,0 0,0 0,0 0,0 -0.1,0 0,0 0,0 0,0 0,0 0,0 -0.1,0 0,0 0,0 0,0 0,0 0,0 -0.1,0 0,0 0,0 0,0 0,0 0,0 -0.1,0 0,0 0,0 0,0 0,0 0,0 -0.1,0 0,0 0,0 0,0 0,0 0,0 -0.1,0 0,0 0,0 0,0 0,0 0,0 -0.1,0 0,0 0,0 0,0 0,0 0,0 -0.1,0 0,0 0,0 0,0 0,0 0,0 -0.1,0 0,0 0,0 0,0 0,0 0,0 -0.1,0 0,0 0,0 0,0 0,0 0,0 -0.1,0 0,0 0,0 0,0 0,0 0,0 -0.1,0 0,0 0,0 0,0 0,0 0,0 -0.1,0 0,0 0,0 0,0 0,0 0,0 -0.1,0 0,0 0,0 0,0 0,0 0,0 -0.1,0 0,0 0,0 0,0 0,0 0,0 -0.1,0 0,0 0,0 0,0 0,0 0,0 -0.1,0 0,0 0,0 0,0 -0.3,0.2 -0.7,0.5 -1,0.7 l 0,0 c 0,0 0,0 -0.1,0 0,0 0,0 0,0 0,0 0,0 -0.1,0 0,0 0,0 0,0 0,0 0,0 -0.1,0 0,0 0,0 0,0 0,0 0,0 -0.1,0 0,0 0,0 0,0 0,0 0,0 0,0 0,0 0,0 0,0 0,0 0,0 0,0 0,0 0,0 0,0 0,0 0,0 0,0 0,0 0,0 0,0 0,0 0,0 0,0 0,0 0,0 0,0 0,0 0,0 0,0 0,0 0,0 0,0 0,0 0,0 0,0 0,0 0,0 0,0 0,0 0,0 0,0 0,0 0,0 -0.1,0 0,0 0,0 0,0 l 1.2,1.6 c 1.6,-1.1 3.3,-2.3 4.9,-3.4 l -1.1,-0.1 0,0 z m -9.8,7 c -0.8,0.6 -1.5,1.1 -2.2,1.7 l 0,0 c 0,0 0,0 -0.1,0.1 l 0,0 c 0,0 0,0 -0.1,0.1 0,0 0,0 0,0 0,0 0,0 -0.1,0 0,0 0,0 0,0 0,0 0,0 -0.1,0 0,0 0,0 0,0 0,0 0,0 -0.1,0 0,0 0,0 0,0 0,0 0,0 -0.1,0 0,0 0,0 0,0 0,0 0,0 0,0 0,0 0,0 0,0 0,0 0,0 0,0 0,0 0,0 0,0 0,0 0,0 0,0 0,0 0,0 0,0 0,0 0,0 0,0 0,0 0,0 0,0 0,0 0,0 0,0 0,0 0,0 0,0 0,0 0,0 0,0 0,0 0,0 0,0 0,0 0,0 0,0 0,0 0,0 0,0 0,0 0,0 0,0 0,0 0,0 0,0 0,0 0,0 0,0 0,0 0,0 0,0 0,0 0,0 0,0 0,0 0,0 0,0 0,0 0,0 0,0 0,0 0,0 0,0 0,0 0,0 0,0 0,0 0,0 0,0 0,0 0,0 0,0 0,0 0,0 0,0 0,0 0,0 0,0 0,0 0,0 0,0 0,0 0,0 -0.1,0 0,0 0,0 0,0 0,0 0,0 -0.1,0 0,0 0,0 0,0 0,0 0,0 -0.1,0 0,0 0,0 0,0 0,0 0,0 -0.1,0.1 0,0 0,0 0,0 -0.2,0.2 -0.5,0.4 -0.7,0.6 l 1.2,1.6 c 1.5,-1.2 3.1,-2.4 4.7,-3.6 l -2,-0.6 0,0 z m -9.4,7.4 c -0.2,0.1 -0.3,0.3 -0.5,0.4 0,0 0,0 0,0 0,0 0,0 0,0 0,0 0,0 0,0 0,0 0,0 0,0 0,0 0,0 0,0 0,0 0,0 0,0 0,0 0,0 0,0 0,0 0,0 0,0 0,0 0,0 -0.1,0 0,0 0,0 0,0 0,0 0,0 -0.1,0.1 l 0,0 c 0,0 0,0 -0.1,0.1 l 0,0 c -0.7,0.6 -1.5,1.2 -2.2,1.9 l 0,0 c 0,0 0,0 -0.1,0.1 l 0,0 c 0,0 0,0 -0.1,0.1 l 0,0 c 0,0 0,0 -0.1,0.1 l 0,0 c 0,0 0,0 -0.1,0.1 l 0,0 c 0,0 0,0 -0.1,0.1 0,0 0,0 0,0 0,0 0,0 -0.1,0.1 0,0 0,0 0,0 0,0 0,0 -0.1,0.1 0,0 0,0 0,0 0,0 0,0 -0.1,0.1 0,0 0,0 0,0 0,0 0,0 -0.1,0.1 l 0,0 c -0.3,0.2 -0.5,0.5 -0.8,0.7 l 1.3,1.5 c 1.5,-1.3 3,-2.6 4.5,-3.9 l -1.1,-1.7 0,0 z m -9,7.9 c -1.5,1.4 -2.9,2.7 -4.4,4.1 l 1.4,1.4 c 1.4,-1.4 2.9,-2.7 4.3,-4.1 l -1.3,-1.4 0,0 z m -8.7,8.4 c -1.4,1.4 -2.8,2.9 -4.2,4.3 l 1.5,1.4 c 1.4,-1.4 2.7,-2.9 4.1,-4.3 l -1.4,-1.4 0,0 z m -8.2,8.7 c -0.1,0.1 -0.2,0.3 -0.4,0.4 0,0 0,0 0,0 0,0 0,0 0,0 0,0 0,0 -0.1,0.1 0,0 0,0 0,0 -1.2,1.3 -2.3,2.6 -3.5,4 l 1.5,1.3 c 1.3,-1.5 2.6,-3 3.9,-4.5 l -1.4,-1.3 0,0 z m -7.8,9.1 c -0.1,0.1 -0.2,0.3 -0.4,0.4 -1.1,1.3 -2.1,2.7 -3.2,4 l 0,0 c 0,0 0,0 -0.1,0.1 l 0,0 c 0,0 0,0 -0.1,0.1 0,0 0,0 0,0 0,0 0,0 0,0.1 0,0 0,0 0,0 l 1.6,1.2 c 1.2,-1.6 2.4,-3.1 3.7,-4.7 l -1.5,-1.2 0,0 z m -7.3,9.5 c -0.3,0.4 -0.5,0.8 -0.8,1.1 0,0 0,0 0,0 0,0 0,0 0,0 0,0 0,0 0,0 0,0 0,0 0,0 -0.4,0.5 -0.7,1 -1,1.5 0,0 0,0 0,0 -0.1,0.1 -0.1,0.2 -0.2,0.3 0,0 0,0 0,0 -0.4,0.6 -0.9,1.3 -1.3,1.9 l 1.6,1.1 c 1.1,-1.6 2.3,-3.3 3.5,-4.8 l -1.8,-1.1 0,0 z m -6.8,9.9 c -0.8,1.1 -1.5,2.3 -2.2,3.5 l 0,0 c 0,0 0,0 0,0.1 0,0 0,0 0,0 0,0 0,0 0,0.1 0,0 0,0 0,0 0,0 0,0 0,0.1 0,0 0,0 0,0 0,0 0,0 0,0 0,0 0,0 0,0 0,0 0,0 0,0 0,0 0,0 0,0 0,0 0,0 0,0 0,0 0,0 0,0 0,0 0,0 0,0 0,0 0,0 0,0 0,0 0,0 0,0 0,0 0,0 0,0.1 0,0 0,0 0,0 0,0 0,0 0,0.1 0,0 0,0 0,0 0,0 0,0 0,0.1 0,0 0,0 0,0 0,0 0,0 0,0.1 0,0 0,0 0,0 0,0 0,0 0,0.1 0,0 0,0 0,0 0,0 0,0 0,0.1 0,0 0,0 0,0 -0.1,0.2 -0.2,0.3 -0.3,0.5 l 1.7,1.1 c 1,-1.7 2.1,-3.4 3.2,-5 l -2.4,-1 0,0 z m -6.4,10.2 c -0.2,0.3 -0.3,0.5 -0.4,0.8 0,0 0,0 0,0 0,0 0,0 0,0.1 0,0 0,0 0,0 0,0 0,0 0,0 0,0 0,0 0,0 0,0 0,0 0,0 0,0 0,0 0,0.1 0,0 0,0 0,0 0,0 0,0 0,0.1 0,0 0,0 0,0 0,0 0,0 0,0.1 l 0,0 c -0.4,0.7 -0.8,1.4 -1.2,2 l 0,0 c 0,0 0,0.1 0,0.1 0,0 0,0 0,0 0,0 0,0 0,0.1 0,0 0,0 0,0 0,0 0,0 0,0.1 0,0 0,0 0,0 0,0 0,0 0,0.1 0,0 0,0 0,0 0,0 0,0 0,0 0,0 0,0 0,0 0,0 0,0 0,0 0,0 0,0 0,0.1 0,0 0,0 0,0 0,0 0,0 0,0.1 0,0 0,0 0,0 0,0 0,0 0,0.1 0,0 0,0 0,0 -0.2,0.4 -0.5,0.8 -0.7,1.3 l 1.7,1 c 1,-1.7 2,-3.5 3,-5.2 l -2.4,-1 0,0 z m -5.8,10.5 c -0.9,1.8 -1.8,3.6 -2.7,5.3 l 1.8,0.9 c 0.9,-1.8 1.8,-3.6 2.7,-5.3 l -1.8,-0.9 0,0 z m -5.3,10.7 c -0.8,1.8 -1.7,3.6 -2.5,5.5 l 1.8,0.8 c 0.8,-1.8 1.6,-3.6 2.4,-5.4 l -1.7,-0.9 0,0 z m -9,22.3 c -0.2,0.7 -0.5,1.4 -0.7,2.2 0,0 0,0 0,0 0,0 0,0.1 0,0.1 0,0 0,0 0,0 0,0 0,0 0,0.1 0,0 0,0 0,0 0,0 0,0 0,0.1 0,0 0,0 0,0 0,0 0,0 0,0.1 0,0.1 0,0 0,0 0,0 0,0 0,0 0,0 0,0 0,0.1 0,0 0,0 0,0 0,0 0,0 0,0.1 0,0 0,0 0,0 0,0 0,0 0,0.1 0,0 0,0 0,0 0,0 0,0 0,0.1 0,0 0,0 0,0 0,0 0,0.1 0,0.1 l 0,0 c -0.2,0.5 -0.3,0.9 -0.5,1.4 l 0,0 c 0,0 0,0 0,0.1 0,0 0,0 0,0 0,0 0,0 0,0 0,0 0,0 0,0 0,0 0,0 0,0 0,0 0,0 0,0.1 0,0 0,0 0,0 -0.1,0.3 -0.2,0.6 -0.3,1 l 1.9,0.6 c 0.6,-1.9 1.2,-3.8 1.9,-5.6 l -2.3,-0.7 0,0 z m -3.7,11.4 c 0,0 0,0 0,0 0,0 0,0 0,0 -0.3,1.1 -0.6,2.2 -0.9,3.2 0,0 0,0 0,0 0,0 0,0.1 0,0.1 0,0 0,0 0,0 0,0 0,0.1 0,0.1 0,0 0,0 0,0 0,0 0,0.1 0,0.1 0,0 0,0 0,0 0,0 0,0.1 0,0.1 0,0 0,0 0,0 0,0 0,0.1 0,0.1 0,0 0,0 0,0 0,0 0,0.1 0,0.1 0,0 0,0 0,0 0,0 0,0.1 0,0.1 0,0 0,0 0,0 0,0 0,0.1 0,0.1 0,0 0,0 0,0 -0.2,0.6 -0.3,1.2 -0.5,1.8 l 1.9,0.5 c 0.5,-1.9 1,-3.8 1.6,-5.7 l -2.1,-0.6 0,0 z m -3.1,11.6 c 0,0 0,0 0,0 0,0 0,0 0,0 0,0.1 0,0.1 0,0.1 0,0 0,0 0,0 0,0 0,0 0,0.1 0,0 0,0 0,0 0,0 0,0 0,0.1 0,0 0,0 0,0 -0.4,1.8 -0.8,3.7 -1.2,5.5 l 2,0.4 c 0.4,-1.9 0.9,-3.9 1.3,-5.8 l -2.1,-0.4 0,0 z m -2.4,11.7 c 0,0.2 -0.1,0.4 -0.1,0.6 l 0,0 c 0,0 0,0.1 0,0.1 l 0,0 c 0,0 0,0 0,0.1 0,0 0,0 0,0 0,0 0,0 0,0.1 0,0 0,0 0,0 0,0 0,0 0,0.1 0,0 0,0 0,0 0,0 0,0 0,0.1 0,0 0,0 0,0 0,0 0,0 0,0 0,0 0,0 0,0.1 0,0 0,0 0,0 0,0 0,0 0,0.1 0,0 0,0 0,0 0,0 0,0 0,0.1 0,0 0,0 0,0 0,0 0,0 0,0.1 0,0 0,0 0,0 0,0 0,0.1 0,0.1 0,0 0,0 0,0 0,0 0,0.1 0,0.1 0,0 0,0 0,0 0,0 0,0.1 0,0.1 0,0 0,0 0,0 0,0 0,0.1 0,0.1 0,0 0,0 0,0 0,0 0,0.1 0,0.1 0,0 0,0 0,0 -0.2,1.3 -0.5,2.7 -0.7,4 l 2,0.3 c 0.3,-1.9 0.7,-3.9 1,-5.9 l -2.2,-0.4 0,0 z m -2,11.9 c -0.1,0.4 -0.1,0.8 -0.2,1.2 0,0 0,0 0,0 0,0 0,0.1 0,0.1 0,0 0,0 0,0 0,0 0,0 0,0.1 0,0 0,0 0,0 0,0 0,0 0,0.1 0,0 0,0 0,0 0,0 0,0.1 0,0.1 0,0 0,0 0,0 0,0 0,0 0,0.1 0,0 0,0 0,0 0,0 0,0 0,0.1 0,0 0,0 0,0 0,0 0,0 0,0.1 0,0 0,0 0,0 0,0 0,0 0,0.1 0,0 0,0 0,0 0,0 0,0 0,0.1 0,0 0,0 0,0 0,0 0,0 0,0.1 0,0 0,0 0,0 0,0 0,0 0,0.1 0,0 0,0 0,0 0,0 0,0 0,0.1 0,0 0,0 0,0 0,0 0,0.1 0,0.1 0,0 0,0 0,0 0,0 0,0.1 0,0.1 0,0 0,0 0,0 -0.1,1.1 -0.3,2.3 -0.4,3.4 0,0 0,0 0,0 0,0 0,0 0,0 l 2,0.2 c 0.2,-2 0.5,-4 0.7,-5.9 l -2.1,-0.3 0,0 z m -1.3,11.9 c -0.1,1.4 -0.2,2.9 -0.3,4.3 0,0 0,0 0,0 0,0 0,0.1 0,0.1 0,0 0,0 0,0 0,0 0,0 0,0.1 0,0 0,0 0,0 0,0 0,0 0,0.1 0,0 0,0 0,0 0,0 0,0 0,0.1 0,0 0,0 0,0.1 0,0 0,0 0,0 0,0 0,0 0,0.1 0,0 0,0 0,0 0,0.4 0,0.7 -0.1,1.1 l 2,0.1 c 0.1,-2 0.3,-4 0.4,-5.9 l -2,-0.2 0,0 z m -0.7,12 c 0,0 0,0 0,0 0,0 0,0 0,0 0,0.1 0,0.1 0,0.1 0,0 0,0 0,0 0,0 0,0.1 0,0.1 0,0 0,0 0,0 0,0 0,0.1 0,0.1 0,0 0,0 0,0 0,0 0,0.1 0,0.1 0,0 0,0 0,0 0,0 0,0.1 0,0.1 0,0 0,0 0,0 0,0 0,0.1 0,0.1 0,0 0,0 0,0 0,0 0,0.1 0,0.1 l 0,0 c 0,0.1 0,0.1 0,0.2 0,0 0,0 0,0 0,0.6 0,1.2 -0.1,1.8 0,0 0,0 0,0 0,0 0,0.1 0,0.1 0,0 0,0 0,0 0,0 0,0 0,0.1 0,0 0,0 0,0 0,0 0,0.1 0,0.1 0,0 0,0 0,0 0,0 0,0 0,0.1 0,0 0,0 0,0 0,0 0,0.1 0,0.1 0,0 0,0 0,0 0,0 0,0.1 0,0.1 0,0 0,0 0,0 0,0 0,0 0,0.1 0,0 0,0 0,0 0,0 0,0 0,0.1 0,0 0,0 0,0 0,0 0,0 0,0.1 0,0 0,0 0,0 0,0 0,0 0,0 0,0 0,0 0,0 0,0 0,0 0,0 0,0 0,0 0,0 0,0 0,0 0,0 0,0 0,0 0,0.1 0,0 0,0 0,0 0,0 0,0 0,0.1 0,0 0,0 0,0 0,0 0,0 0,0.1 l 0,0 c 0,0.7 0,1.3 0,2 l 2,0 c 0,-2 0.1,-4 0.1,-5.9 l -2,0 0,0 z m 1.8,11.9 -2,0 c 0,1.5 0,3 0.1,4.5 0,0 0,0 0,0 0,0 0,0 0,0.1 0,0 0,0 0,0 0,0 0,0 0,0.1 0,0 0,0 0,0 0,0 0,0 0,0.1 0,0 0,0 0,0.1 0,0 0,0 0,0 0,0 0,0 0,0.1 0,0 0,0 0,0 0,0 0,0 0,0.1 l 0,0 c 0,0 0,0.1 0,0.1 l 0,0 c 0,0.3 0,0.6 0,0.8 l 2,-0.1 c 0,-1.9 0,-3.9 -0.1,-5.9 l 0,0 z m 0.5,11.9 0,0 -2,0.1 c 0,0.2 0,0.3 0,0.5 0,0 0,0 0,0 0,0 0,0.1 0,0.1 0,0 0,0 0,0 0,0 0,0 0,0.1 0,0 0,0 0,0.1 0,0 0,0 0,0 0,0 0,0 0,0.1 0,0 0,0 0,0 0,0 0,0.1 0,0.1 0,0 0,0 0,0 m 482.5,-6.6 c -0.1,2 -0.2,4 -0.3,5.9 l 2,0.1 c 0.1,-1.2 0.1,-2.4 0.2,-3.6 0,0 0,0 0,0 0,0 0,0 0,-0.1 0,0 0,0 0,0 0,0 0,0 0,-0.1 0,0 0,0 0,0 0,0 0,0 0,0 0,0 0,0 0,-0.1 0,0 0,0 0,0 0,0 0,0 0,-0.1 l 0,0 c 0,0 0,-0.1 0,-0.1 l 0,0 c 0,-0.6 0.1,-1.2 0.1,-1.9 l -2,0 0,0 z m 2.2,-11.9 -2,0 c 0,0.9 0,1.8 0,2.7 0,1.1 0,2.2 0,3.3 l 2,0 c 0,-0.2 0,-0.4 0,-0.6 l 0,0 c 0,0 0,-0.1 0,-0.1 0,0 0,0 0,0 0,0 0,0 0,-0.1 0,0 0,0 0,0 0,0 0,0 0,0 0,0 0,0 0,-0.1 0,0 0,0 0,0 0,-0.4 0,-0.8 0,-1.3 0,0 0,0 0,0 0,0 0,-0.1 0,-0.1 0,0 0,0 0,0 0,0 0,-0.1 0,-0.1 0,0 0,0 0,0 0,0 0,-0.1 0,-0.1 0,0 0,0 0,0 0,0 0,-0.1 0,-0.1 0,0 0,0 0,0 0,0 0,0 0,-0.1 0,0 0,0 0,0 0,0 0,0 0,-0.1 0,0 0,0 0,0 0,0 0,0 0,-0.1 0,0 0,0 0,0 0,0 0,0 0,-0.1 0,0 0,0 0,-0.1 0,0 0,0 0,0 0,0 0,0 0,-0.1 0,0 0,0 0,0 0,0 0,-0.1 0,-0.1 0,0 0,-0.1 0,-0.1 0,0 0,0 0,0 0,0 0,0 0,-0.1 0,0 0,0 0,0 0,0 0,0 0,-0.1 0,0 0,0 0,0 0,0 0,0 0,-0.1 0,0 0,0 0,0 0,0 0,0 0,-0.1 0,0 0,0 0,0 0,0 0,-0.1 0,-0.1 0,0 0,0 0,0 0,0 0,-0.1 0,-0.1 0,0 0,0 0,0 0,0 0,0 0,-0.1 0,0 0,0 0,0 0,0 0,0 0,-0.1 0,0 0,0 0,0 0,0 0,-0.1 0,-0.1 0,0 0,0 0,0 0,0 0,0 0,-0.1 0,0 0,0 0,0 0,-0.6 0,-1.1 0,-1.6 l 0,0 z m -0.5,-12 -2,0.1 c 0.1,2 0.2,4 0.3,5.9 l 2,-0.1 c 0,-0.3 0,-0.7 0,-1 l 0,0 c 0,0 0,-0.1 0,-0.1 0,0 0,0 0,0 0,0 0,-0.1 0,-0.1 0,0 0,0 0,0 0,0 0,0 0,-0.1 0,0 0,0 0,0 0,0 0,0 0,-0.1 0,0 0,0 0,0 0,0 0,0 0,-0.1 0,0 0,0 0,0 0,0 0,0 0,-0.1 0,0 0,0 0,0 0,0 0,0 0,-0.1 0,0 0,0 0,0 0,0 0,0 0,-0.1 0,0 0,0 0,0 0,0 0,0 0,-0.1 0,0 0,0 0,0 0,0 0,0 0,0 0,0 0,0 0,-0.1 0,0 0,0 0,0 0,0 0,0 0,-0.1 0,0 0,0 0,0 0,0 0,0 0,-0.1 0,0 0,0 0,0 0,0 0,-0.1 0,-0.1 0,0 0,0 0,0 -0.1,-1.2 -0.2,-2.4 -0.3,-3.6 l 0,0 z m -1,-12 -2,0.2 c 0.2,2 0.4,4 0.6,5.9 l 2,-0.2 c 0,-0.5 -0.1,-1 -0.1,-1.5 0,0 0,0 0,0 0,0 0,-0.1 0,-0.1 0,0 0,0 0,0 0,0 0,0 0,-0.1 0,0 0,0 0,0 0,0 0,0 0,-0.1 0,0 0,0 0,0 0,0 0,0 0,-0.1 0,0 0,0 0,0 0,0 0,0 0,0 0,0 0,0 0,-0.1 0,0 0,0 0,0 0,0 0,0 0,-0.1 0,0 0,0 0,0 0,0 0,0 0,-0.1 0,0 0,0 0,0 0,0 0,-0.1 0,-0.1 0,0 0,0 0,0 -0.1,-1 -0.2,-2 -0.3,-3.1 l 0,0 c 0,0 0,-0.1 0,-0.1 l 0,0 c 0,0 0,-0.1 0,-0.1 0,0 0,0 0,0 0,0 0,0 0,-0.1 0,0 0,0 0,0 0,0 0,0 0,-0.1 0,0 0,0 0,0 0,0 0,0 0,0 -0.1,0 -0.2,0 -0.2,-0.1 0,0.1 0,0 0,0 0,0 0,0 0,0 l 0,0 z m -1.6,-11.9 -2,0.3 c 0.3,1.9 0.6,3.9 0.9,5.9 l 2,-0.3 c -0.2,-1.2 -0.3,-2.4 -0.5,-3.6 l 0,0 c 0,0 0,-0.1 0,-0.1 0,0 0,0 0,0 0,0 0,-0.1 0,-0.1 0,0 0,0 0,0 0,0 0,0 0,-0.1 0,0 0,0 0,0 0,0 0,0 0,-0.1 0,0 0,0 0,0 0,0 0,0 0,-0.1 0,0 0,0 0,0 0,0 0,0 0,-0.1 0,0 0,0 0,0 0,0 0,0 0,0 0,0 0,0 0,-0.1 0,0 0,0 0,0 0,0 0,0 0,-0.1 0,0 0,0 0,0 0,0 0,0 0,-0.1 0,0 0,0 0,0 0,0 0,-0.1 0,-0.1 l 0,0 c -0.2,-0.4 -0.3,-0.8 -0.4,-1.3 l 0,0 z m -2.1,-11.8 -2,0.4 c 0.4,1.9 0.8,3.9 1.2,5.8 l 2,-0.4 c -0.4,-1.9 -0.8,-3.8 -1.2,-5.8 l 0,0 z m -2.8,-11.7 -1.9,0.5 c 0.5,1.9 1,3.9 1.4,5.8 l 1.9,-0.5 c -0.3,-1.4 -0.7,-2.7 -1,-4.1 0,0 0,0 0,0 0,0 0,-0.1 0,-0.1 0,0 0,0 0,0 0,0 0,0 0,-0.1 0,0 0,0 0,0 0,0 0,0 0,-0.1 0,0 0,0 0,0 0,0 0,0 0,-0.1 0,0 0,0 0,0 0,0 0,0 0,-0.1 0,0 0,0 0,0 0,0 0,0 0,-0.1 0,0 0,0 0,0 0,0 0,0 0,0 0,0 0,0 0,0 0,0 0,0 0,0 0,0 0,0 0,-0.1 0,0 0,0 0,0 0,0 0,0 0,-0.1 0,0 0,0 0,0 0,0 0,0 0,-0.1 0,0 0,0 0,0 0,0 0,0 0,-0.1 0,0 0,0 0,0 0,0 0,-0.1 0,-0.1 0,0 0,0 0,0 0,0 0,-0.1 0,-0.1 l 0,0 c 0,0 0,-0.1 0,-0.1 l 0,0 c -0.3,-0.1 -0.4,-0.2 -0.4,-0.4 l 0,0 z m -3.4,-11.5 -1.9,0.6 c 0.6,1.9 1.2,3.8 1.7,5.7 l 1.9,-0.6 c -0.4,-1.2 -0.7,-2.4 -1.1,-3.6 0,0 0,0 0,0 0,0 0,0 0,-0.1 0,0 0,0 0,0 0,0 0,0 0,-0.1 0,0 0,0 0,0 0,0 0,0 0,0 0,0 0,0 0,0 0,0 0,0 0,0 0,0 0,0 0,-0.1 0,0 0,0 0,0 0,0 0,-0.1 0,-0.1 0,0 0,0 0,0 -0.2,-0.6 -0.4,-1.1 -0.6,-1.7 l 0,0 z m -3.9,-11.3 -1.9,0.7 c 0.7,1.8 1.4,3.7 2,5.6 l 1.9,-0.7 c -0.1,-0.3 -0.2,-0.6 -0.3,-0.9 0,0 0,0 0,0 0,0 0,0 0,-0.1 0,0 0,0 0,0 0,0 0,0 0,-0.1 0,0 0,0 0,0 0,0 0,0 0,-0.1 0,0 0,0 0,0 0,0 0,0 0,-0.1 0,0 0,0 0,0 0,0 0,0 0,0 0,0 0,0 0,0 0,0 0,0 0,0 0,0 0,0 0,0 0,0 0,0 0,0 0,0 0,0 0,-0.1 0,0 0,0 0,0 0,0 0,0 0,-0.1 0,0 0,0 0,0 0,0 0,0 0,-0.1 0,0 0,0 0,0 0,0 0,0 0,-0.1 0,0 0,0 0,0 0,0 0,0 0,-0.1 0,0 0,0 0,0 0,0 0,0 0,-0.1 0,0 0,0 0,0 0,0 0,0 0,-0.1 l 0,0 c 0,0 0,0 0,-0.1 0,0 0,0 0,0 0,0 0,0 0,-0.1 l 0,0 c 0,0 0,0 0,-0.1 0,0 0,0 0,0 0,0 0,0 0,-0.1 0,0 0,0 0,0 0,0 0,0 0,-0.1 0,0 0,0 0,0 0,0 0,0 0,-0.1 0,0 0,0 0,0 0,0 0,0 0,-0.1 0,0 0,0 0,0 0,0 0,0 0,-0.1 0,0 0,0 0,0 0,0 0,0 0,-0.1 0,0 0,0 0,0 0,0 0,0 0,-0.1 0,0 0,0 0,0 0,0 0,0 0,-0.1 0,0 0,0 0,0 0,0 0,0 0,-0.1 0,0 0,0 0,0 0,0 0,0 0,-0.1 0,0 0,0 0,0 0,0 0,0 0,-0.1 0,0 0,0 0,0 0,0 0,0 0,-0.1 0,0 0,0 0,0 0,0 0,0 0,-0.1 0,0 0,0 0,0 0,0 0,0 0,-0.1 0,0 0,0 0,0 0,0 0,0 0,-0.1 0,0 0,0 0,0 0,0 0,0 0,0 0,0 0,0 0,0 0,0 0,0 0,0 0,0 0,0 0,0 0,0 0,0 0,0 0,0 0,0 0,0 0,0 0,0 0,0 0,0 0,0 0,0 0,0 0,0 0,0 0,0 0,0 0,0 0,0 0,0 0,0 0,0 0,0 0,0 0,0 0,0 0,0 0,0 0,0 0,0 0,0 0,0 0,0 0,0 0,0 0,0 0,0 0,0 0,0 0,0 0,0 0,0 0,0 0,0 0,0 0,0 0,0 0,0 0,0 0,0 0,0 0,0 0,0 0,-0.1 0,0 0,0 0,0 0,0 0,0 0,0 0,0 0,0 0,0 0,0 0,0 0,0 0,0 0,0 0,0 0,0 0,0 0,0 0,0 0,0 0,0 0,0 0,0 0,0 0,0 0,0 0,0 0,0 0,0 0,0 0,0 0,0 0,0 0,0 0,0 0,0 0,0 0,0 0,0 0,0 0,0 0,0 0,0 0,0 0,-0.1 0,0 0,0 0,0 0,0 0,0 0,-0.1 0,0 0,0 0,0 0,0 0,-0.1 0,-0.1 0,0 0,0 0,0 -1.6,-1.3 -1.7,-1.4 -1.7,-1.4 l 0,0 z m -4.5,-11.1 -1.8,0.8 c 0.8,1.8 1.6,3.7 2.3,5.5 l 1.9,-0.7 0,0 c 0,0 0,0 0,-0.1 l 0,0 c -0.4,-1 -0.8,-2 -1.2,-3 l 0,0 c 0,0 0,-0.1 0,-0.1 l 0,0 c 0,0 0,-0.1 0,-0.1 0,0 0,0 0,0 0,0 0,0 0,-0.1 0,0 0,0 0,0 0,0 0,0 0,-0.1 0,0 0,0 0,0 0,0 0,0 0,0 0,0 0,0 0,0 0,0 0,0 0,0 0,0 0,0 0,-0.1 0,0 0,0 0,0 0,0 0,0 0,-0.1 0,0 0,0 0,0 0,0 0,0 0,-0.1 0,0 0,0 0,0 0,0 0,0 0,-0.1 0,0 0,0 0,0 -0.7,-0.7 -0.9,-1.2 -1.2,-1.7 l 0,0 z m -5,-10.9 -1.8,0.9 c 0.9,1.8 1.7,3.6 2.6,5.4 l 1.8,-0.8 c -0.2,-0.4 -0.3,-0.7 -0.5,-1.1 0,0 0,0 0,0 0,0 0,0 0,0 0,0 0,0 0,-0.1 l 0,0 c -0.7,-1.5 -1.4,-2.9 -2.1,-4.3 l 0,0 z m -5.5,-10.7 -1.7,1 c 1,1.7 1.9,3.5 2.8,5.2 l 1.8,-0.9 c -0.2,-0.4 -0.4,-0.8 -0.7,-1.2 l 0,0 c 0,0 0,0 0,-0.1 0,0 0,0 0,0 0,0 0,0 0,-0.1 0,0 0,0 0,0 0,0 0,0 0,-0.1 0,0 0,0 0,0 0,0 0,0 0,0 0,0 0,0 0,-0.1 0,0 0,0 0,0 0,0 0,0 0,-0.1 0,0 0,0 0,0 -0.9,-1.2 -1.6,-2.4 -2.2,-3.6 l 0,0 z m -6.1,-10.3 -1.7,1.1 c 1,1.7 2.1,3.4 3.1,5.1 l 1.7,-1 c -0.7,-1.1 -1.3,-2.2 -2,-3.4 l 0,0 c 0,0 0,0 0,-0.1 0,0 0,0 0,0 0,0 0,0 0,-0.1 0,0 0,0 0,0 0,0 0,0 0,-0.1 0,0 0,0 0,0 0,0 0,0 0,0 0,0 0,0 0,0 0,0 0,0 0,0 0,0 0,0 0,-0.1 0,0 0,0 0,0 0,0 0,0 0,-0.1 l 0,0 c -0.6,-0.5 -0.9,-0.9 -1.1,-1.3 l 0,0 z m -6.6,-10.1 -1.6,1.1 c 1.1,1.6 2.2,3.3 3.3,4.9 l 1.7,-1.1 c -1.1,-1.5 -2.3,-3.2 -3.4,-4.9 l 0,0 z m -14.6,-19 -1.5,1.3 c 1.3,1.5 2.6,3 3.8,4.6 l 1.6,-1.3 c -0.8,-1 -1.7,-2.1 -2.5,-3.1 0,0 0,0 0,0 0,0 0,0 -0.1,-0.1 0,0 0,0 0,0 0,0 0,0 0,-0.1 0,0 0,0 0,0 0,0 0,0 0,0 0,0 0,0 0,0 0,0 0,0 0,0 0,0 0,0 0,0 0,0 0,0 0,0 0,0 0,0 0,0 0,0 0,0 0,0 0,0 0,0 0,0 0,0 0,0 0,0 0,0 0,0 0,0 0,0 0,0 0,0 0,0 0,0 0,0 0,0 0,0 0,0 0,0 0,0 0,0 0,0 0,0 0,0 0,0 0,0 0,-0.1 0,0 0,0 0,0 0,0 0,0 0,-0.1 l 0,0 c 0,0 0,0 -0.1,-0.1 l 0,0 c 0,0 0,0 -0.1,-0.1 l 0,0 c -0.8,-0.5 -1,-0.7 -1.1,-0.9 l 0,0 z m -8,-8.9 -1.5,1.4 c 1.4,1.4 2.7,2.9 4,4.4 l 1.5,-1.3 c -0.4,-0.4 -0.7,-0.8 -1.1,-1.2 l 0,0 c 0,0 0,0 -0.1,-0.1 l 0,0 c 0,0 0,0 -0.1,-0.1 0,0 0,0 0,0 0,0 0,0 -0.1,-0.1 0,0 0,0 0,0 0,0 0,0 0,-0.1 0,0 0,0 0,0 0,0 0,0 0,0 0,0 0,0 0,0 0,0 0,0 0,0 0,0 0,0 0,0 0,0 0,0 0,0 0,0 0,0 0,0 0,0 0,0 0,0 0,0 0,0 0,0 0,0 0,0 0,0 0,0 0,0 0,0 0,0 0,0 0,0 0,0 0,0 0,0 0,0 0,0 0,0 0,0 0,0 0,0 0,0 0,0 0,0 0,0 0,0 0,0 0,0 0,0 0,0 0,0 0,0 0,0 0,0 0,0 0,0 0,0 0,0 0,0 0,0 0,0 0,0 0,0 0,0 0,0 0,0 0,0 0,0 0,0 0,0 0,-0.1 0,0 0,0 0,0 0,0 0,0 0,-0.1 0,0 0,0 0,0 0,0 0,0 0,-0.1 0,0 0,0 0,0 0,0 0,0 0,-0.1 0,0 0,0 0,0 0,0 0,0 -0.1,-0.1 0,0 0,0 0,0 0,0 0,0 -0.1,-0.1 l 0,0 c 0,0 0,0 -0.1,-0.1 0,0 0,0 0,0 -0.1,-0.2 -0.3,-0.3 -0.4,-0.5 0,0 0,0 0,0 0,0 0,0 0,-0.1 0,0 0,0 0,0 0,0 0,0 0,-0.1 0,0 0,0 0,0 0,0 0,0 0,-0.1 0,0 0,0 0,0 0,0 0,0 0,0 0,0 0,0 0,0 0,0 0,0 0,0 0,0 0,0 0,0 0,0 0,0 0,0 0,0 0,0 0,0 0,0 0,0 0,0 0,0 0,0 0,0 0,0 0,0 0,0 0,0 0,0 0,0 0,0 0,0 0,0 0,0 0,0 0,0 0,0 0,0 0,0 0,0 0,0 0,0 0,0 0,0 0,0 0,0 0,0 0,0 0,0 0,0 0,0 0,0 0,0 0,0 0,0 0,0 0,0 0,0 0,0 0,0 0,0 0,0 0,0 0,0 0,0 0,0 0,0 0,0 0,0 0,0 0,0 0,0 0,0 0,0 0,0 0,0 0,0 0,0 0,0 0,0 0,0 -1.8,-1.3 -1.8,-1.3 -1.9,-1.4 0.1,0 0.1,0 0,0 0,0 0,0 0,0 0,0 0,0 0,0 l 0,0 z m -8.4,-8.6 -1.4,1.4 c 1.4,1.4 2.8,2.8 4.2,4.2 l 1.4,-1.4 c -1.4,-1.4 -2.8,-2.8 -4.2,-4.2 l 0,0 z m -8.9,-8.1 -1.3,1.5 c 1.5,1.3 3,2.6 4.4,4 l 1.4,-1.5 c -1.5,-1.4 -2.9,-2.7 -4.5,-4 l 0,0 z m -9.2,-7.7 -1.2,1.6 c 1.5,1.2 3.1,2.5 4.6,3.8 l 1.3,-1.5 c 0,0 0,0 0,0 0,0 0,0 0,0 0,0 0,0 0,0 0,0 0,0 0,0 0,0 0,0 0,0 0,0 0,0 0,0 0,0 0,0 0,0 0,0 0,0 0,0 0,0 0,0 0,0 0,0 0,0 0,0 0,0 0,0 0,0 0,0 0,0 0,0 0,0 0,0 0,0 0,0 0,0 0,0 0,0 0,0 0,0 0,0 0,0 0,0 0,0 0,0 -0.1,0 0,0 0,0 0,0 0,0 0,0 -0.1,0 0,0 0,0 0,0 0,0 0,0 -0.1,-0.1 0,0 0,0 0,0 -1.8,-1.7 -3.1,-2.7 -4.4,-3.8 l 0,0 z m -9.6,-7.2 -1.2,1.6 c 1.6,1.1 3.2,2.3 4.8,3.5 l 1.2,-1.6 c -1.5,-1.2 -3.1,-2.3 -4.8,-3.5 l 0,0 z m -9.9,-6.7 -1.1,1.7 c 1.7,1.1 3.3,2.2 5,3.3 l 1.1,-1.7 0,0 c -0.2,-0.1 -0.3,-0.2 -0.5,-0.3 0,0 0,0 0,0 0,0 0,0 -0.1,0 0,0 0,0 0,0 0,0 0,0 0,0 0,0 0,0 0,0 0,0 0,0 0,0 0,0 0,0 0,0 0,0 0,0 0,0 0,0 0,0 0,0 0,0 0,0 0,0 0,0 0,0 -0.1,0 0,0 0,0 0,0 0,0 0,0 -0.1,0 0,0 0,0 0,0 0,0 0,0 -0.1,0 0,0 0,0 0,0 0,0 0,0 -0.1,0 0,0 0,0 0,0 0,0 0,0 -0.1,0 0,0 0,0 0,0 0,0 0,0 -0.1,0 0,0 0,0 0,0 0,0 0,0 -0.1,0 0,0 0,0 0,0 0,0 0,0 -0.1,0 0,0 0,0 0,0 0,0 0,0 -0.1,0 0,0 0,0 0,0 0,0 0,0 -0.1,0 0,0 0,0 0,0 0,0 0,0 -0.1,0 0,0 0,0 0,0 0,0 0,0 -0.1,0 0,0 0,0 0,0 0,0 0,0 -0.1,0 0,0 0,0 0,0 0,0 0,0 -0.1,0 l 0,0 c -0.6,-0.4 -1.2,-0.8 -1.8,-1.2 0,0 0,0 0,0 0,0 0,0 -0.1,0 0,0 0,0 0,0 0,0 0,0 -0.1,0 0,0 0,0 0,0 0,0 0,0 0,0 0,0 0,0 0,0 0,0 0,0 0,0 0,0 0,0 0,0 0,0 0,0 0,0 0,0 0,0 0,0 0,0 0,0 0,0 0,0 0,0 -0.1,0 0,0 0,0 0,0 0,0 0,0 -0.1,0 0,0 0,0 0,0 0,0 0,0 -0.1,0 0,0 0,0 0,0 0,0 0,0 -0.1,0 l 0,0 c -0.2,-1.6 -0.4,-1.7 -0.6,-1.8 l 0,0 z m -10.2,-6.3 -1,1.7 c 1.7,1 3.4,2 5.1,3 l 1,-1.7 c -1.7,-1 -3.4,-2 -5.1,-3 l 0,0 z M 463.9,83 l -0.8,1.8 c 1.8,0.8 3.6,1.7 5.4,2.5 l 0.9,-1.8 c -1.4,-0.7 -2.8,-1.3 -4.2,-2 0,0 0,0 -0.1,0 0,0 0,0 0,0 -0.5,-0.2 -0.8,-0.3 -1.2,-0.5 l 0,0 z m -11.1,-4.6 -0.7,1.9 c 1.8,0.7 3.7,1.5 5.5,2.2 l 0.8,-1.8 c -0.2,-0.1 -0.4,-0.2 -0.6,-0.2 l 0,0 c 0,0 0,0 -0.1,0 0,0 0,0 0,0 0,0 0,0 -0.1,0 0,0 0,0 0,0 0,0 0,0 -0.1,0 0,0 0,0 0,0 0,0 0,0 -0.1,0 0,0 0,0 0,0 0,0 0,0 -0.1,0 0,0 0,0 0,0 0,0 0,0 -0.1,0 0,0 0,0 0,0 0,0 0,0 0,0 0,0 0,0 0,0 0,0 0,0 0,0 0,0 0,0 0,0 0,0 0,0 0,0 0,0 0,0 0,0 0,0 0,0 0,0 0,0 0,0 0,0 0,0 0,0 0,0 0,0 0,0 0,0 0,0 0,0 0,0 0,0 0,0 0,0 0,0 0,0 0,0 0,0 0,0 0,0 0,0 0,0 0,0 0,0 0,0 0,0 0,0 0,0 0,0 0,0 0,0 0,0 0,0 0,0 0,0 0,0 0,0 0,0 0,0 0,0 0,0 0,0 0,0 0,0 0,0 0,0 0,0 0,0 0,0 0,0 0,0 0,0 0,0 0,0 0,0 0,0 0,0 0,0 0,0 0,0 0,0 0,0 0,0 0,0 0,0 0,0 0,0 0,0 0,0 0,0 -0.1,0 0,0 0,0 0,0 0,0 0,0 -0.1,0 0,0 0,0 0,0 0,0 0,0 -0.1,0 0,0 0,0 0,0 0,0 0,0 -0.1,0 0,0 0,0 0,0 0,0 0,0 -0.1,0 0,0 0,0 0,0 0,0 0,0 -0.1,0 0,0 0,0 0,0 0,0 0,0 -0.1,0 l 0,0 c -1.9,-1.5 -2.8,-1.8 -3.7,-2.1 l 0,0 z m -11.2,-4.1 -0.6,1.9 c 1.9,0.6 3.8,1.3 5.6,2 l 0.7,-1.9 0,0 c 0,0 0,0 -0.1,0 0,0 0,0 0,0 0,0 -0.1,0 -0.1,0 0,0 0,0 0,0 -0.8,-0.3 -1.5,-0.5 -2.3,-0.8 l 0,0 c 0,0 -0.1,0 -0.1,0 l 0,0 c 0,0 -0.1,0 -0.1,0 l 0,0 c 0,0 -0.1,0 -0.1,0 l 0,0 c 0,0 0,0 -0.1,0 0,0 0,0 0,0 0,0 0,0 -0.1,0 0,0 0,0 0,0 0,0 0,0 -0.1,0 0,0 0,0 0,0 0,0 0,0 -0.1,0 0,0 0,0 0,0 0,0 0,0 -0.1,0 0,0 0,0 0,0 0,0 0,0 -0.1,0 0,0 0,0 0,0 0,0 0,0 -0.1,0 0,0 0,0 0,0 0,0 0,0 -0.1,0 0,0 0,0 0,0 0,0 0,0 -0.1,0 0,0 0,0 0,0 0,0 0,0 -0.1,0 0,0 0,0 0,0 0,0 0,0 -0.1,0 0,0 0,0 0,0 0,0 0,0 -0.1,0 0,0 0,0 0,0 0,0 0,0 -0.1,0 0,0 0,0 0,0 0,0 0,0 -0.1,0 0,0 0,0 0,0 0,0 0,0 -0.1,0 0,0 0,0 0,0 0,0 -0.1,0 -0.1,0 0,0 0,0 0,0 0,0 -0.1,0 -0.1,0 0,0 0,0 0,0 0,0 -0.1,0 -0.1,0 0,0 0,0 0,0 -0.3,-0.9 -0.7,-1.1 -1.1,-1.2 l 0,0 z m -11.5,-3.6 -0.5,1.9 c 1.9,0.5 3.8,1.1 5.7,1.7 l 0.6,-1.9 c -0.2,-0.1 -0.4,-0.1 -0.5,-0.2 0,0 0,0 -0.1,0 0,0 0,0 0,0 0,0 0,0 -0.1,0 0,0 0,0 0,0 -1.7,-0.5 -3.4,-1 -5.1,-1.5 l 0,0 z m -11.6,-2.9 -0.4,2 c 1.9,0.4 3.9,0.9 5.8,1.4 l 0.5,-1.9 c -0.8,-0.2 -1.5,-0.4 -2.3,-0.6 l 0,0 c 0,0 -0.1,0 -0.1,0 0,0 0,0 0,0 0,0 0,0 -0.1,0 0,0 0,0 0,0 0,0 0,0 -0.1,0 0,0 0,0 0,0 0,0 0,0 0,0 0,0 0,0 0,0 0,0 0,0 0,0 0,0 0,0 -0.1,0 0,0 0,0 0,0 0,0 0,0 -0.1,0 l 0,0 c 0,0 -0.1,0 -0.1,0 l 0,0 c -1.1,-0.5 -2.1,-0.7 -3,-0.9 l 0,0 z m -11.8,-2.4 -0.3,2 c 1.9,0.3 3.9,0.7 5.8,1.1 l 0.4,-2 c 0,0 -0.1,0 -0.1,0 0,0 0,0 0,0 0,0 0,0 -0.1,0 0,0 0,0 0,0 0,0 0,0 -0.1,0 0,0 0,0 0,0 0,0 0,0 0,0 0,0 0,0 -0.1,0 0,0 0,0 0,0 0,0 0,0 -0.1,0 0,0 0,0 0,0 0,0 -0.1,0 -0.1,0 0,0 0,0 0,0 0,0 -0.1,0 -0.1,0 l 0,0 c -0.4,-0.1 -0.7,-0.1 -1.1,-0.2 l 0,0 c 0,0 -0.1,0 -0.1,0 l 0,0 c 0,0 -0.1,0 -0.1,0 l 0,0 c 0,0 -0.1,0 -0.1,0 l 0,0 c 0,0 -0.1,0 -0.1,0 0,0 0,0 0,0 0,0 0,0 -0.1,0 0,0 0,0 0,0 0,0 0,0 -0.1,0 0,0 0,0 0,0 0,0 0,0 -0.1,0 0,0 0,0 0,0 0,0 0,0 0,0 0,0 0,0 -0.1,0 0,0 0,0 0,0 0,0 0,0 -0.1,0 0,0 0,0 0,0 0,0 0,0 -0.1,0 0,0 0,0 0,0 0,0 -0.1,0 -0.1,0 0,0 0,0 0,0 -1,-0.5 -2,-0.7 -3,-0.9 l 0,0 z m -11.9,-1.7 -0.2,2 c 2,0.2 3.9,0.5 5.9,0.8 l 0.3,-2 c -2,-0.3 -4,-0.6 -6,-0.8 l 0,0 z m -11.9,-1.2 -0.1,2 c 2,0.1 4,0.3 5.9,0.5 l 0.2,-2 c -1.3,-0.1 -2.6,-0.2 -3.9,-0.4 l 0,0 c 0,0 -0.1,0 -0.1,0 0,0 0,0 0,0 0,0 0,0 -0.1,0 0,0 0,0 0,0 0,0 0,0 -0.1,0 0,0 0,0 0,0 0,0 0,0 -0.1,0 0,0 0,0 0,0 0,0 0,0 -0.1,0 0,0 0,0 0,0 0,0 0,0 -0.1,0 0,0 0,0 0,0 0,0 0,0 -0.1,0 0,0 0,0 0,0 0,0 0,0 0,0 0,0 0,0 -0.1,0 0,0 0,0 0,0 0,0 0,0 -0.1,0 0,0 0,0 0,0 0,0 0,0 -0.1,0 0,0 0,0 0,0 0,0 -0.1,0 -0.1,0 l 0,0 c 0,0 -0.1,0 -0.1,0 l 0,0 c -0.3,-0.1 -0.6,-0.1 -0.9,-0.1 l 0,0 z m -12,-0.6 -0.1,2 c 2,0.1 4,0.1 5.9,0.2 l 0.1,-2 0,0 c 0,0 0,0 0,0 0,0 0,0 0,0 0,0 0,0 -0.1,0 0,0 0,0 0,0 0,0 0,0 -0.1,0 0,0 0,0 0,0 0,0 0,0 -0.1,0 0,0 0,0 0,0 0,0 0,0 0,0 0,0 0,0 0,0 0,0 0,0 0,0 0,0 0,0 0,0 0,0 0,0 0,0 0,0 0,0 0,0 0,0 0,0 0,0 0,0 0,0 -0.1,0 0,0 0,0 0,0 0,0 0,0 -0.1,0 0,0 0,0 0,0 0,0 0,0 -0.1,0 0,0 0,0 0,0 0,0 0,0 -0.1,0 0,0 0,0 0,0 0,0 0,0 -0.1,0 0,0 0,0 0,0 0,0 0,0 -0.1,0 0,0 0,0 0,0 0,0 0,0 -0.1,0 0,0 0,0 0,0 0,0 -0.1,0 -0.1,0 0,0 0,0 0,0 0,0 -0.1,0 -0.1,0 0,0 0,0 0,0 0,0 -0.1,0 -0.1,0 l 0,0 c -1,0 -2.1,-0.1 -3.1,-0.1 l 0,0 c 0,0 0,0 -0.1,0 0,0 0,0 0,0 l 0,0 c -0.6,-0.1 -1,-0.1 -1.4,-0.1 l 0,0 z m -6.4,-0.1 0,2 0.4,0 0,-2 c -0.1,0 -0.3,0 -0.4,0 l 0,0 0,0 z"
       style="fill:#ff7f2a" /></g><g
     transform="matrix(0.74145709,0,0,0.74145709,-34.027524,48.545344)"
     id="g7169"><g
       id="g6860"><circle
         style="fill:#dfdfdf"
         cx="204.7"
         cy="120.1"
         r="54"
         id="circle6862" /><path
         style="opacity:0.5;fill:#ffffff"
         d="m 166.5,158.3 76.4,-76.4 c -9.8,-9.8 -23.3,-15.8 -38.2,-15.8 -29.8,0 -54,24.2 -54,54 0,14.9 6,28.4 15.8,38.2 z"
         id="path6864" /><path
         style="fill:#3f4041"
         d="m 204.7,68.1 c 28.7,0 52,23.3 52,52 0,28.7 -23.3,52 -52,52 -28.7,0 -52,-23.3 -52,-52 0,-28.7 23.3,-52 52,-52 m 0,-2 c -29.8,0 -54,24.2 -54,54 0,29.8 24.2,54 54,54 29.8,0 54,-24.2 54,-54 0,-29.8 -24.2,-54 -54,-54 l 0,0 z"
         id="path6866" /></g><g
       id="g6892"><g
         id="g6894"><circle
           style="fill:#ff7f2a"
           cx="143.60001"
           cy="118.7"
           r="20"
           id="circle6896" /></g><path
         style="opacity:0.5;fill:#ffffff"
         d="m 143.6,98.7 c -11,0 -20,9 -20,20 0,5.7 2.4,10.8 6.1,14.4 L 158,104.8 c -3.6,-3.7 -8.7,-6.1 -14.4,-6.1 z"
         id="path6898" /><g
         id="g6900"><g
           id="g6902"><path
             style="fill:#dedfdf"
             d="m 238.2,143.3 -31.4,-31.4 c 1.8,-6.7 0.1,-14.1 -5.2,-19.3 -7.8,-7.8 -20.5,-7.8 -28.3,0 -7.8,7.8 -7.8,20.5 0,28.3 5.8,5.8 14.3,7.3 21.4,4.5 l 4.9,4.9 8.4,-0.2 0.2,4.5 5,0.1 1.7,5 5.5,0.5 -0.5,6.2 16.9,4.3 2.8,-2.8 -1.4,-4.6 z m -59.9,-38.7 c -2,-2 -2,-5.1 0,-7.1 2,-2 5.1,-2 7.1,0 2,2 2,5.1 0,7.1 -2,2 -5.2,2 -7.1,0 z"
             id="path6904" /></g></g><path
         style="fill:#3f4041"
         d="m 238.2,143.3 -31.4,-31.4 c 1.8,-6.7 0.1,-14.1 -5.2,-19.3 -7.8,-7.8 -20.5,-7.8 -28.3,0 -3.6,3.6 -5.5,8.2 -5.8,13 l 2.1,-1 c 0.5,-3.9 2.2,-7.6 5.1,-10.6 7,-7 18.4,-7 25.5,0 4.5,4.5 6.3,11.2 4.6,17.4 l -0.3,1.1 0.8,0.8 31.1,31.1 1,2.9 -1.1,1.1 -14.1,-3.6 0.4,-4.5 0.2,-2 -2,-0.2 -4.2,-0.4 -1.2,-3.8 -0.4,-1.3 -1.4,0 -3.2,-0.1 -0.4,-2.5 -0.1,-2 -2,0 -7.5,0.2 -4.3,-4.3 -0.9,-0.9 -1.2,0.5 c -6.7,2.6 -14.2,1 -19.3,-4 -2.9,-2.9 -4.6,-6.7 -5.1,-10.5 l -1.9,0.9 c 0.6,4 2.5,7.9 5.6,11 5.8,5.8 14.3,7.3 21.4,4.5 l 4.9,4.9 8.4,-0.2 0.2,4.5 5,0.1 1.7,5 5.5,0.5 -0.5,6.2 16.9,4.3 2.8,-2.8 -1.4,-4.6 z"
         id="path6906" /><g
         id="g6908"><path
           style="fill:#ffffff"
           d="m 234.9,147.1 1.1,0.3 0.3,-0.3 -0.7,-2.1 -27.7,-27.7 c -0.3,0.6 -0.7,1.2 -1.1,1.8 l 28.1,28 z"
           id="path6910" /></g><path
         style="fill:#3f4041"
         d="m 182.7,100.7 c -0.2,-0.4 -0.5,-0.6 -0.9,-0.6 -0.1,0 -0.3,0 -0.4,0.1 l -20,9.4 c -3.3,-6.4 -10,-10.8 -17.8,-10.8 -11,0 -20,9 -20,20 0,11 9,20 20,20 11,0 20,-9 20,-20 0,-2.2 -0.4,-4.4 -1.1,-6.3 l -1.8,0.9 c 0.6,1.8 0.9,3.6 0.9,5.5 0,9.9 -8.1,18 -18,18 -9.9,0 -18,-8.1 -18,-18 0,-9.9 8.1,-18 18,-18 6.8,0 12.9,3.7 16,9.8 l 0.4,0.8 0.3,0.9 c 0,0 0,0.1 0,0.1 l 1.8,-0.9 20.1,-9.4 c 0.6,-0.4 0.8,-1 0.5,-1.5 z"
         id="path6912" /><path
         style="fill:#3f4041"
         d="m 185.4,97.5 c -2,-2 -5.1,-2 -7.1,0 -1,1 -1.5,2.3 -1.5,3.7 l 2.1,-1 c 0.1,-0.5 0.4,-0.9 0.7,-1.2 1.2,-1.2 3.1,-1.2 4.2,0 1.2,1.2 1.2,3.1 0,4.2 -0.9,0.9 -2.2,1.1 -3.3,0.6 l -2.1,1 c 2,1.7 4.9,1.7 6.8,-0.2 2.1,-1.9 2.1,-5.1 0.2,-7.1 z"
         id="path6914" /><path
         style="fill:#ffffff"
         d="m 140.4,115.5 c -0.8,0.8 -1.3,1.9 -1.3,3.2 l 0,0 2,0 c 0,-0.7 0.3,-1.3 0.7,-1.8 0.4,-0.4 1,-0.7 1.7,-0.7 l -0.1,-2 c -1.2,0.1 -2.2,0.6 -3,1.3 z"
         id="path6916" /><path
         style="fill:#ffffff"
         d="m 134.6,118.7 2,0 0,0 c 0,-1.9 0.7,-3.6 2.1,-4.9 1.2,-1.2 2.9,-2 4.6,-2 l -0.1,-2 c -2.3,0.1 -4.4,1.1 -6,2.6 -1.6,1.6 -2.6,3.8 -2.6,6.3 z"
         id="path6918" /><path
         style="fill:#ffffff"
         d="m 131.6,118.7 0,0 c 0,-3.2 1.2,-6.2 3.5,-8.5 2.1,-2.1 5,-3.4 8,-3.5 l -0.1,-2 c -3.6,0.2 -6.9,1.7 -9.3,4.1 -2.5,2.5 -4.1,6 -4.1,9.9 l 0,0 2,0 z"
         id="path6920" /><path
         style="fill:#ffffff"
         d="m 155.6,118.7 0,0 c 0,3.2 -1.2,6.2 -3.5,8.5 -2.1,2.1 -5,3.4 -8,3.5 l 0.1,2 c 3.6,-0.2 6.9,-1.7 9.3,-4.1 2.5,-2.5 4.1,-6 4.1,-9.9 l 0,0 -2,0 z"
         id="path6922" /></g></g><g
     transform="matrix(0.74145709,0,0,0.74145709,194.82216,137.40547)"
     id="g7227"><g
       id="g6884"><circle
         style="fill:#dfdfdf"
         cx="604.09998"
         cy="267"
         r="54"
         id="circle6886" /><path
         style="opacity:0.5;fill:#ffffff"
         d="m 565.9,305.2 76.4,-76.4 C 632.5,219 619,213 604.1,213 c -29.8,0 -54,24.2 -54,54 0,14.9 6,28.4 15.8,38.2 z"
         id="path6888" /><path
         style="fill:#3f4041"
         d="m 604.1,215 c 28.7,0 52,23.3 52,52 0,28.7 -23.3,52 -52,52 -28.7,0 -52,-23.3 -52,-52 0,-28.7 23.3,-52 52,-52 m 0,-2 c -29.8,0 -54,24.2 -54,54 0,29.8 24.2,54 54,54 29.8,0 54,-24.2 54,-54 0,-29.8 -24.2,-54 -54,-54 l 0,0 z"
         id="path6890" /></g><g
       id="g6924"><g
         id="g6926"><circle
           style="fill:#dedfdf"
           cx="604.09998"
           cy="266.70001"
           r="50"
           id="circle6928" /></g><g
         id="g6930"><circle
           style="fill:#757778"
           cx="604.09998"
           cy="266.70001"
           r="44.799999"
           id="circle6932" /></g><circle
         style="fill:#ff7f2a"
         cx="604.09998"
         cy="266.70001"
         r="32"
         id="circle6934" /><g
         id="g6936"><path
           style="fill:#3f4041"
           d="m 604.1,302.7 c 0.6,0 1,0.4 1,1 0,0.6 -0.4,1 -1,1 -0.6,0 -1,-0.4 -1,-1 0,-0.5 0.4,-1 1,-1 m 0,-2 c -1.7,0 -3,1.3 -3,3 0,1.7 1.3,3 3,3 1.7,0 3,-1.3 3,-3 0,-1.7 -1.4,-3 -3,-3 l 0,0 z"
           id="path6938" /></g><g
         id="g6940"><circle
           style="fill:#ffffff"
           cx="604.09998"
           cy="303.70001"
           r="2"
           id="circle6942" /><path
           style="fill:#3f4041"
           d="m 604.1,302.7 c 0.6,0 1,0.4 1,1 0,0.6 -0.4,1 -1,1 -0.6,0 -1,-0.4 -1,-1 0,-0.5 0.4,-1 1,-1 m 0,-2 c -1.7,0 -3,1.3 -3,3 0,1.7 1.3,3 3,3 1.7,0 3,-1.3 3,-3 0,-1.7 -1.4,-3 -3,-3 l 0,0 z"
           id="path6944" /></g><g
         id="g6946"><path
           style="fill:#ffffff"
           d="m 601.8,262 c -3.3,4.2 -5.2,8.6 -5.1,15.1 l -2.7,0 c 0,-6.1 2,-11.1 5,-14.9 l -5.9,0 0,1.4 -2.1,0 0,-3.7 10.7,0 0,2.1 z"
           id="path6948" /><path
           style="fill:#ffffff"
           d="m 614.4,277.1 -10.8,0 0,-1.6 c 0.9,-6.7 8,-7.6 8,-11 0,-1.6 -1.4,-2.5 -2.9,-2.5 -1.4,0 -2.5,1 -3.1,2.1 l -2.1,-1.2 c 1.1,-2.1 2.7,-3.3 5.1,-3.3 3.1,0 5.4,1.7 5.4,4.9 0,4.9 -6.4,5.3 -7.7,10.2 l 8,0 0,2.4 z"
           id="path6950" /><path
           style="fill:#ffffff"
           d="m 619.7,263.5 c -1.6,0 -2.8,-1.3 -2.8,-2.8 0,-1.5 1.3,-2.8 2.8,-2.8 1.5,0 2.8,1.3 2.8,2.8 0,1.5 -1.3,2.8 -2.8,2.8 z m 0,-4 c -0.7,0 -1.2,0.5 -1.2,1.2 0,0.7 0.5,1.2 1.2,1.2 0.6,0 1.2,-0.5 1.2,-1.2 0,-0.7 -0.6,-1.2 -1.2,-1.2 z"
           id="path6952" /></g><path
         style="fill:#ffffff"
         d="m 604.1,235.7 c -17.1,0 -31,13.9 -31,31 0,6.3 1.9,12.1 5.1,17 l 4.2,-2.7 c -2.7,-4.1 -4.3,-9 -4.3,-14.3 0,-14.4 11.6,-26 26,-26 14.4,0 26,11.6 26,26 0,5.3 -1.6,10.2 -4.3,14.3 l 4.2,2.7 c 3.2,-4.9 5.1,-10.7 5.1,-17 0,-17.1 -13.9,-31 -31,-31 z"
         id="path6954" /><path
         style="fill:#dedfdf"
         d="m 628,284.8 c -5.7,7.5 -14.5,11.9 -23.9,11.9 -9.4,0 -18.2,-4.4 -23.9,-11.9 l -1.7,1.1 c 6,8 15.5,12.8 25.6,12.8 10.1,0 19.5,-4.8 25.6,-12.8 l -1.7,-1.1 z"
         id="path6956" /><path
         style="opacity:0.5;fill:#ffffff"
         d="m 604.1,216.7 c -27.6,0 -50,22.4 -50,50 0,13.8 5.6,26.3 14.6,35.4 l 70.7,-70.7 c -9,-9.1 -21.5,-14.7 -35.3,-14.7 z"
         id="path6958" /><path
         style="fill:#3f4041"
         d="m 604.1,216.7 c -27.3,0 -49.4,21.8 -50,49 l 2,0 c 0.5,-26 21.8,-47 48,-47 26.5,0 48,21.5 48,48 0,26.5 -21.5,48 -48,48 -26.5,0 -48,-21.5 -48,-48 l -2,0 c 0,27.6 22.4,50 50,50 27.6,0 50,-22.4 50,-50 0,-27.6 -22.4,-50 -50,-50 z"
         id="path6960" /><path
         style="fill:#3f4041"
         d="m 630.3,285.1 -5.8,-3.8 0.5,-0.8 c 2.7,-4.1 4.1,-8.8 4.1,-13.7 0,-13.8 -11.2,-25 -25,-25 -13.8,0 -25,11.2 -25,25 0,4.9 1.4,9.6 4.1,13.7 l 0.5,0.8 -5.8,3.8 -0.5,-0.8 c -3.4,-5.2 -5.2,-11.3 -5.2,-17.5 0,-17.6 14.4,-32 32,-32 17.6,0 32,14.4 32,32 0,6.3 -1.8,12.3 -5.2,17.5 l -0.7,0.8 z m -3.1,-4.4 2.5,1.6 c 2.9,-4.7 4.4,-10.1 4.4,-15.6 0,-16.5 -13.5,-30 -30,-30 -16.5,0 -30,13.5 -30,30 0,5.5 1.5,10.9 4.4,15.6 l 2.5,-1.6 c -2.5,-4.2 -3.9,-9 -3.9,-14 0,-14.9 12.1,-27 27,-27 14.9,0 27,12.1 27,27 0,5 -1.4,9.8 -3.9,14 z"
         id="path6962" /></g></g><g
     transform="matrix(0.74145709,0,0,0.74145709,205.48997,-164.45989)"
     id="g7308"><g
       id="g6868"
       transform="translate(-200.22811,222.54315)"><circle
         style="fill:#dfdfdf"
         cx="363"
         cy="61.799999"
         r="54"
         id="circle6870" /><path
         style="opacity:0.5;fill:#ffffff"
         d="M 324.8,100 401.2,23.6 C 391.4,13.8 377.9,7.8 363,7.8 c -29.8,0 -54,24.2 -54,54 0,14.9 6,28.4 15.8,38.2 z"
         id="path6872" /><path
         style="fill:#3f4041"
         d="m 363,9.8 c 28.7,0 52,23.3 52,52 0,28.7 -23.3,52 -52,52 -28.7,0 -52,-23.3 -52,-52 0,-28.7 23.3,-52 52,-52 m 0,-2 c -29.8,0 -54,24.2 -54,54 0,29.8 24.2,54 54,54 29.8,0 54,-24.2 54,-54 0,-29.8 -24.2,-54 -54,-54 l 0,0 z"
         id="path6874" /></g><path
       id="path6970"
       d="m 191.77189,249.14315 c -1.1,-1.9 -3.6,-2.6 -5.5,-1.5 l -70.1,40.5 15.6,7.2 0,0 -0.8,-0.4 -7.8,2.8 7,12.1 8.7,-6.5 -0.6,-1 2.4,4.1 53.4,-53.4 -0.3,-0.5 -2,-3.4 z"
       style="opacity:0.5;fill:#ff9955" /><path
       id="path6966"
       d="m 197.37189,294.94315 c -0.2,0 -0.5,0 -0.7,0.1 -0.1,0 -0.1,0 -0.2,0 -0.2,0.1 -0.5,0.1 -0.7,0.2 0,0 0,0 0,0 -0.1,0.1 -0.3,0.1 -0.4,0.2 -0.1,0 -0.1,0.1 -0.2,0.1 0,0 -0.1,0.1 -0.1,0.1 -0.2,0.1 -0.4,0.3 -0.5,0.4 0,0 -0.1,0.1 -0.1,0.1 -0.1,0.1 -0.2,0.3 -0.3,0.4 0,0.1 -0.1,0.1 -0.1,0.2 -0.1,0.2 -0.2,0.3 -0.3,0.5 0,0.1 -0.1,0.2 -0.1,0.3 0,0.1 -0.1,0.2 -0.1,0.4 0,0.1 -0.1,0.2 -0.1,0.4 0,0.1 0,0.3 -0.1,0.4 l 0,0 c 0,0.1 0,0.1 0,0.2 l 0,0.8 -6.9,-1.8 -3.8,-6.6 7.8,-4.5 -2.5,-4.3 17.3,-10 -7,-12.1 -4.5,-7.9 -2,-3.5 c -1.1,-1.9 -3.6,-2.6 -5.5,-1.5 l -70.1,40.5 18.9,8.7 7,12.1 29.4,-17 2.5,4.3 6.9,-4 4.2,7.3 8.2,2.2 0,3.1 c 0,2.2 1.8,4 4,4 l 9,0 0,-14 -8.9,0.2 z"
       style="fill:#dfe0e0" /><polygon
       id="polygon6968"
       points="335.3,74.3 331.3,72.5 323.4,75.3 330.4,87.4 339.1,80.9 "
       style="fill:#ff9955"
       transform="translate(-200.22811,222.54315)" /><path
       id="path6972"
       d="m 190.27189,266.04315 c -2.4,1.4 -3.2,4.4 -1.8,6.8 1.4,2.4 4.4,3.2 6.8,1.8 2.4,-1.4 3.2,-4.4 1.8,-6.8 -1.3,-2.4 -4.4,-3.2 -6.8,-1.8 l 0,0 z"
       style="fill:#ffffff" /><polygon
       id="polygon6974"
       points="323.4,75.3 330.4,87.4 338.5,81.4 337.5,79.7 331.1,84.5 326.4,76.4 332.8,74 330.3,72.8 "
       style="fill:#3f4041"
       transform="translate(-200.22811,222.54315)" /><circle
       id="circle6976"
       r="2"
       cy="301.94315"
       cx="200.3719"
       style="fill:#3f4041" /><path
       id="path6978"
       d="m 186.37189,247.64315 -70.1,40.5 18.9,8.7 7,12.1 29.4,-17 2.5,4.3 6.9,-4 4.2,7.3 8.2,2.2 0,3.1 c 0,2.2 1.8,4 4,4 l 9,0 0,-14 -9,0 c -0.7,0 -1.4,0.2 -2,0.5 -1.1,0.7 -1.9,1.9 -2,3.3 l 2,0.5 0,-0.3 c 0,-0.7 0.4,-1.4 1,-1.7 0.3,-0.2 0.6,-0.3 1,-0.3 l 7,0 0,10 -7,0 c -0.5,0 -1,-0.2 -1.4,-0.6 -0.4,-0.4 -0.6,-0.9 -0.6,-1.4 l 0,-3.5 0,-1.2 -8.9,-2.4 -3.8,-6.6 -1,-1.7 -6.9,4 -0.5,-0.9 -0.5,-0.9 -0.5,-0.9 -1,-1.7 -1.7,1 -27.7,16 -6,-10.4 -0.3,-0.5 -0.6,-0.3 -15.4,-7.1 66.8,-38.6 c 1,-0.6 2.2,-0.2 2.7,0.7 l 2,3.5 4.5,7.8 6,10.4 -15.6,9 -1.7,1 1,1.7 0.5,0.9 0.5,0.9 0.5,0.9 -5.2,3 1,1.7 6.9,-4 -2.5,-4.3 17.3,-10 -7,-12.1 -4.5,-7.7 -2,-3.5 c -1.1,-1.8 -3.5,-2.5 -5.4,-1.4 z"
       style="fill:#3f4041" /><rect
       id="rect6980"
       height="1.999956"
       width="66.998528"
       style="fill:#3f4041"
       transform="matrix(0.86601905,-0.500011,0.500011,0.86601905,0,0)"
       y="322.52808"
       x="-28.205145" /><path
       id="path6982"
       d="m 191.27189,267.74315 c 1.4,-0.8 3.3,-0.3 4.1,1.1 0.8,1.4 0.3,3.3 -1.1,4.1 -1.4,0.8 -3.3,0.3 -4.1,-1.1 -0.8,-1.4 -0.3,-3.2 1.1,-4.1 m -1,-1.7 c -2.4,1.4 -3.2,4.4 -1.8,6.8 1.4,2.4 4.4,3.2 6.8,1.8 2.4,-1.4 3.2,-4.4 1.8,-6.8 -1.3,-2.4 -4.4,-3.2 -6.8,-1.8 l 0,0 z"
       style="fill:#3f4041" /></g><g
     transform="matrix(0.74145709,0,0,0.74145709,-42.49793,141.71986)"
     id="g7191"><g
       id="g6852"><circle
         style="fill:#dfdfdf"
         cx="121.9"
         cy="267"
         r="54"
         id="circle6854" /><path
         style="opacity:0.5;fill:#ffffff"
         d="m 83.7,305.2 76.4,-76.4 C 150.3,219 136.8,213 121.9,213 c -29.8,0 -54,24.2 -54,54 0,14.9 6.1,28.4 15.8,38.2 z"
         id="path6856" /><path
         style="fill:#3f4041"
         d="m 121.9,215 c 28.7,0 52,23.3 52,52 0,28.7 -23.3,52 -52,52 -28.7,0 -52,-23.3 -52,-52 0,-28.7 23.3,-52 52,-52 m 0,-2 c -29.8,0 -54,24.2 -54,54 0,29.8 24.2,54 54,54 29.8,0 54,-24.2 54,-54 0,-29.8 -24.2,-54 -54,-54 l 0,0 z"
         id="path6858" /></g><g
       id="g6984"><g
         id="g6986"><path
           style="fill:#dedfdf"
           d="m 162.2,293.1 -80,0 0,-96 c 0,-3.3 2.7,-6 6,-6 l 68,0 c 3.3,0 6,2.7 6,6 l 0,96 z"
           id="path6988" /></g><g
         id="g6990"><path
           style="fill:#757778"
           d="m 162.2,211.1 0,-14 c 0,-3.3 -2.7,-6 -6,-6 l -68,0 c -3.3,0 -6,2.7 -6,6 l 0,14 80,0 z"
           id="path6992" /></g><g
         id="g6994"><circle
           r="6"
           transform="matrix(0.7071,-0.7071,0.7071,0.7071,-100.1676,164.2898)"
           style="fill:#ff7f2a"
           cx="148.2"
           cy="203.10001"
           id="ellipse6996" /></g><g
         id="g6998"><g
           id="g7000"><path
             style="fill:#ffffff"
             d="m 122.2,222.1 c -16,0 -29,13 -29,29 0,16 13,29 29,29 16,0 29,-13 29,-29 0,-16 -13,-29 -29,-29 z"
             id="path7002" /></g></g><g
         id="g7004"><path
           style="fill:#dedfdf"
           d="m 133.5,262.4 c 6.2,-6.2 6.2,-16.4 0,-22.6 l -22.6,22.6 c 6.3,6.2 16.4,6.2 22.6,0 z"
           id="path7006" /></g><g
         id="g7008"><circle
           r="6"
           transform="matrix(0.7071,-0.7071,0.7071,0.7071,-104.2682,154.3903)"
           style="fill:#ff7f2a"
           cx="134.2"
           cy="203.10001"
           id="ellipse7010" /></g><g
         id="g7012"><g
           id="g7014"><path
             style="fill:#ff7f2a"
             d="m 122.2,222.1 c -16,0 -29,13 -29,29 0,16 13,29 29,29 16,0 29,-13 29,-29 0,-16 -13,-29 -29,-29 z m 0,48 c -10.5,0 -19,-8.5 -19,-19 0,-10.5 8.5,-19 19,-19 10.5,0 19,8.5 19,19 0,10.5 -8.5,19 -19,19 z"
             id="path7016" /></g></g><path
         style="opacity:0.5;fill:#ffffff"
         d="m 162.2,197.1 c 0,-3.3 -2.7,-6 -6,-6 l -68,0 c -3.3,0 -6,2.7 -6,6 l 0,96 80,-80 0,-16 z"
         id="path7018" /><g
         id="g7020"><path
           style="fill:#3f4041"
           d="m 122.2,272.1 c 11.6,0 21,-9.4 21,-21 0,-11.6 -9.4,-21 -21,-21 -9.1,0 -16.9,5.9 -19.8,14 l 2,0.3 c 2.7,-7.2 9.6,-12.4 17.8,-12.4 10.5,0 19,8.5 19,19 0,10.5 -8.5,19 -19,19 -8.2,0 -15.1,-5.1 -17.8,-12.4 l -2,0.3 c 2.9,8.3 10.7,14.2 19.8,14.2 z"
           id="path7022" /><path
           style="fill:#3f4041"
           d="m 122.2,222.1 c -13.1,0 -24.2,8.7 -27.8,20.7 l 2,0.3 c 3.4,-11 13.7,-19 25.8,-19 14.9,0 27,12.1 27,27 0,14.9 -12.1,27 -27,27 -12.1,0 -22.4,-8 -25.8,-19 l -2,0.3 c 3.6,12 14.7,20.7 27.8,20.7 16,0 29,-13 29,-29 0,-16 -13,-29 -29,-29 z"
           id="path7024" /></g><path
         style="fill:#ffffff"
         d="m 114.2,200.1 -24,0 0,6 24,0 0,-6 0,0 z"
         id="path7026" /><path
         style="fill:#3f4041"
         d="m 112.2,202.1 0,2 -20,0 0,-2 20,0 m 2,-2 -24,0 0,6 24,0 0,-6 0,0 z"
         id="path7028" /><g
         id="g7030"><path
           style="fill:#3f4041"
           d="m 152.5,198.8 c -1.2,-1.2 -2.7,-1.8 -4.2,-1.8 -1.5,0 -3.1,0.6 -4.2,1.8 -2.3,2.3 -2.3,6.1 0,8.5 1.2,1.2 2.7,1.8 4.2,1.8 1.5,0 3.1,-0.6 4.2,-1.8 2.3,-2.3 2.3,-6.1 0,-8.5 z m -1.4,7.1 c -0.8,0.8 -1.8,1.2 -2.8,1.2 -1,0 -2.1,-0.4 -2.8,-1.2 -1.6,-1.6 -1.6,-4.1 0,-5.7 0.8,-0.8 1.8,-1.2 2.8,-1.2 0.7,0 1.4,0.2 2,0.6 l -2.7,2.7 1.4,1.4 2.7,-2.7 c 0.9,1.6 0.7,3.6 -0.6,4.9 z"
           id="path7032" /><path
           style="fill:#3f4041"
           d="m 134.2,197.1 c -1.5,0 -3.1,0.6 -4.2,1.8 -2.3,2.3 -2.3,6.1 0,8.5 1.2,1.2 2.7,1.8 4.2,1.8 1.5,0 3.1,-0.6 4.2,-1.8 2.3,-2.3 2.3,-6.1 0,-8.5 -1.1,-1.3 -2.6,-1.8 -4.2,-1.8 z m 2.9,8.8 c -0.8,0.8 -1.8,1.2 -2.8,1.2 -1,0 -2.1,-0.4 -2.8,-1.2 -1.6,-1.6 -1.6,-4.1 0,-5.7 0.8,-0.8 1.8,-1.2 2.8,-1.2 0.7,0 1.4,0.2 2,0.6 l -2.7,2.7 1.4,1.4 2.7,-2.7 c 0.9,1.6 0.7,3.6 -0.6,4.9 z"
           id="path7034" /></g><path
         style="fill:#3f4041"
         d="m 95.7,246 5.9,1 c -0.3,1.3 -0.4,2.7 -0.4,4.1 0,1.4 0.1,2.7 0.4,4.1 l -5.9,1 c -0.3,-1.7 -0.5,-3.4 -0.5,-5.1 0,-1.7 0.2,-3.4 0.5,-5.1 m -1.5,-2.3 c -0.6,2.3 -0.9,4.8 -0.9,7.3 0,2.5 0.3,5 0.9,7.3 l 9.9,-1.7 c -0.6,-1.8 -0.9,-3.7 -0.9,-5.7 0,-2 0.3,-3.9 0.9,-5.7 l -9.9,-1.5 0,0 z"
         id="path7036" /><g
         id="g7038"><path
           style="fill:#3f4041"
           d="m 156.2,191.1 -68,0 c -3.3,0 -6,2.7 -6,6 l 0,13 2,0 0,-13 c 0,-2.2 1.8,-4 4,-4 l 68,0 c 2.2,0 4,1.8 4,4 l 0,12.5 0,1.5 0,2 0,1.2 0,0.8 0,2 0,1.8 0,72.2 -76,0 0,-68.8 0,-5.2 0,-2 0,-1.2 0,-0.8 75,0 0,-2 -74.3,0 -0.7,0 -2,0 0,6 0,76 80,0 0,-76 0,-6 0,-14 c 0,-3.4 -2.7,-6 -6,-6 z"
           id="path7040" /><rect
           x="85.199997"
           y="215.10001"
           style="fill:#3f4041"
           width="74"
           height="2"
           id="rect7042" /></g></g></g><g
     transform="matrix(0.74145709,0,0,0.74145709,183.37974,17.487151)"
     id="g7129"><g
       transform="translate(-4.6163743e-7,39.984033)"
       id="g7343"><circle
         style="fill:#dfdfdf"
         cx="521.29999"
         cy="120.1"
         r="54"
         id="circle6878" /><path
         style="opacity:0.5;fill:#ffffff"
         d="m 483.2,158.3 76.4,-76.4 c -9.8,-9.8 -23.3,-15.8 -38.2,-15.8 -29.8,0 -54,24.2 -54,54 -0.1,14.9 6,28.4 15.8,38.2 z"
         id="path6880" /><path
         style="fill:#3f4041"
         d="m 521.3,68.1 c 28.7,0 52,23.3 52,52 0,28.7 -23.3,52 -52,52 -28.7,0 -52,-23.3 -52,-52 0,-28.7 23.4,-52 52,-52 m 0,-2 c -29.8,0 -54,24.2 -54,54 0,29.8 24.2,54 54,54 29.8,0 54,-24.2 54,-54 0,-29.8 -24.1,-54 -54,-54 l 0,0 z"
         id="path6882" /><path
         style="fill:#dfe0e0"
         d="m 496.3,80.4 0,74 38,10 3,-2 0,-8 9,0 0,-74 -50,0 z"
         id="path7046" /><polygon
         style="fill:#ff7f2a"
         points="546.3,154.4 546.3,80.4 506.9,80.4 537.3,88.4 537.3,154.4 "
         id="polygon7048" /><polygon
         style="opacity:0.5;fill:#ffffff"
         points="496.3,80.4 496.3,147.4 546.3,97.4 546.3,80.4 "
         id="polygon7050" /><rect
         x="538.29999"
         y="157.39999"
         style="fill:#3f4041"
         width="8"
         height="2"
         id="rect7052" /><rect
         x="540.29999"
         y="117.4"
         style="fill:#ffffff"
         width="6"
         height="10"
         id="rect7054" /><path
         style="fill:#ff7f2a"
         d="m 551,117 c 0.5,3.6 0.5,7.2 0,10.8 l 1.9,0.5 c 0.6,-3.9 0.6,-7.9 0,-11.9 L 551,117 Z"
         id="path7056" /><path
         style="fill:#ff7f2a"
         d="m 555.8,115.7 c 0.7,4.5 0.7,9 0,13.4 l 1.9,0.5 c 0.8,-4.8 0.8,-9.7 0,-14.5 l -1.9,0.6 z"
         id="path7058" /><path
         style="fill:#ff7f2a"
         d="m 560.7,114.3 c 0.9,5.3 0.9,10.7 0,16.1 l 1.9,0.5 c 1,-5.7 1,-11.5 0,-17.1 l -1.9,0.5 z"
         id="path7060" /><path
         style="fill:#ff7f2a"
         d="m 491.7,117 c -0.5,3.6 -0.5,7.2 0,10.8 l -1.9,0.5 c -0.6,-3.9 -0.6,-7.9 0,-11.9 l 1.9,0.6 z"
         id="path7062" /><path
         style="fill:#ff7f2a"
         d="m 486.8,115.7 c -0.7,4.5 -0.7,9 0,13.4 l -1.9,0.5 c -0.8,-4.8 -0.8,-9.7 0,-14.5 l 1.9,0.6 z"
         id="path7064" /><path
         style="fill:#ff7f2a"
         d="m 482,114.3 c -0.9,5.3 -0.9,10.7 0,16.1 l -1.9,0.5 c -1,-5.7 -1,-11.5 0,-17.1 l 1.9,0.5 z"
         id="path7066" /><polygon
         style="fill:#3f4041"
         points="496.3,159.4 511.4,159.4 503.8,157.4 496.3,157.4 "
         id="polygon7068" /><polygon
         style="fill:#3f4041"
         points="537.3,88.4 518.3,83.4 510.5,83.4 535.3,89.9 535.3,151.4 537.3,151.4 "
         id="polygon7070" /><polygon
         style="fill:#3f4041"
         points="540.3,127.4 543.3,127.4 543.3,125.4 542.3,125.4 542.3,119.4 543.3,119.4 543.3,117.4 540.3,117.4 "
         id="polygon7072" /><polygon
         style="fill:#3f4041"
         points="534.3,162 534.3,90.4 507.7,83.4 504.8,83.4 499.9,83.4 532.3,91.9 532.3,150.9 532.3,161.8 532.3,163.9 534.3,164.4 537.3,162.4 537.3,154.4 546.3,154.4 546.3,80.4 496.3,80.4 496.3,154.4 531.3,163.6 531.3,161.5 498.3,152.8 498.3,83.4 498.3,83 498.3,82.4 503.9,82.4 504.8,82.4 506.7,82.4 514.5,82.4 520.9,82.4 544.3,82.4 544.3,152.4 543,152.4 537.3,152.4 535.3,152.4 535.3,161.3 "
         id="polygon7074" /><path
         style="fill:#ffffff"
         d="m 524.3,130.4 c -2.2,0 -4,-1.8 -4,-4 0,-2.2 1.8,-4 4,-4 2.2,0 4,1.8 4,4 0,2.2 -1.8,4 -4,4 z"
         id="path7076" /><path
         style="fill:#3f4041"
         d="m 524.3,130.4 c -2.2,0 -4,-1.8 -4,-4 0,-2.2 1.8,-4 4,-4 2.2,0 4,1.8 4,4 0,2.2 -1.8,4 -4,4 z m 0,-6 c -1.1,0 -2,0.9 -2,2 0,1.1 0.9,2 2,2 1.1,0 2,-0.9 2,-2 0,-1.1 -0.9,-2 -2,-2 z"
         id="path7078" /></g></g><flowRoot
     transform="translate(0,35.433194)"
     style="font-style:normal;font-variant:normal;font-weight:normal;font-stretch:normal;font-size:40px;line-height:125%;font-family:'Museo Slab';-inkscape-font-specification:'Museo Slab, Normal';text-align:center;letter-spacing:0px;word-spacing:0px;writing-mode:lr-tb;text-anchor:middle;fill:#000000;fill-opacity:1;stroke:none;stroke-width:1px;stroke-linecap:butt;stroke-linejoin:miter;stroke-opacity:1"
     id="flowRoot7092"
     xml:space="preserve"><flowRegion
       id="flowRegion7094"><rect
         y="209.59984"
         x="334.15228"
         height="63.78405"
         width="162.79213"
         id="rect7096" /></flowRegion><flowPara
       id="flowPara7098" /></flowRoot><path
     style="opacity:0.75;fill:#757778;fill-opacity:1;stroke:#757778;stroke-opacity:1"
     id="path62"
     d="m 332.16454,191.11872 c -14.4286,0.80937 -27.8455,4.38928 -40.7332,10.83313 -2.2724,1.13624 -6.4749,3.5021 -8.3583,4.68503 l -0.9806,0.63815 0.8249,0.10896 c 1.6188,0.20234 3.0818,1.1051 3.7979,2.31916 0.4202,0.71598 1.1674,3.17524 1.1674,3.82896 0,0.5759 0.5447,1.22962 1.3074,1.57204 0.8871,0.40469 3.3775,0.38913 5.6345,-0.0156 4.5605,-0.82494 11.7358,-3.26863 16.6543,-5.69674 1.5099,-0.74712 1.8367,-0.99615 2.6927,-1.9456 2.3659,-2.63047 6.3349,-4.37373 13.7282,-5.99247 l 2.506,-0.54478 1.432,0.68486 c 3.1908,1.55648 4.1402,1.69657 11.0666,1.72769 5.9769,0.0311 6.9575,0.14008 8.5296,0.87164 1.4786,0.70042 1.8676,1.78995 1.1361,3.22192 -0.5135,1.04284 -2.1012,2.59933 -3.7511,3.68888 -2.6305,1.75882 -6.0547,4.88735 -7.7046,7.06643 -1.7121,2.2569 -2.5682,4.7006 -2.1791,6.22595 0.7161,2.86393 3.6266,4.4671 8.483,4.65389 2.6304,0.10895 4.4669,-0.10896 6.3504,-0.74712 1.7276,-0.5759 2.5993,-1.07398 3.5954,-2.08568 2.5371,-2.53707 2.95726,-6.75515 1.3231,-13.21456 -0.3424,-1.35414 -0.4203,-1.89891 -0.2958,-2.02344 0.093,-0.0934 0.7471,-0.1712 1.5254,-0.1712 1.24516,0 1.44746,0.0466 2.55256,0.59146 0.6538,0.31129 1.7121,0.98058 2.3347,1.47865 1.5565,1.2452 3.5799,3.47097 4.1869,4.59164 1.8056,3.39313 4.6228,6.63063 6.5995,7.59565 0.9963,0.48251 1.2142,0.5292 2.4905,0.5292 l 1.4164,0 0.5447,0.93389 c 0.7316,1.27632 3.3775,3.90679 6.7551,6.72402 3.0197,2.52151 3.9692,3.4554 3.9692,3.93791 0,0.49809 -0.6227,0.52921 -3.1442,0.0934 -5.043,-0.85607 -7.3466,-0.35799 -8.4517,1.83665 -0.6382,1.29188 -0.716,3.01958 -0.2335,5.69674 0.2024,1.07398 0.3891,2.50594 0.4203,3.20636 0.078,1.22961 0.063,1.26075 -0.3736,1.61874 -0.5448,0.42025 -1.2607,0.37356 -3.8756,-0.31129 -5.5256,-1.43198 -9.8526,-1.35415 -13.2146,0.23348 -2.86396,1.35413 -4.26476,3.23748 -6.69286,8.94978 -1.4943,3.5021 -2.6616,5.6656 -4.0468,7.47112 -2.7551,3.57992 -4.1092,6.6462 -3.9069,8.76302 0.063,0.5292 0.1402,2.02343 0.1869,3.33088 0.14,3.62661 -0.2802,6.10142 -1.074,6.24151 -0.7316,0.14008 -1.8678,-1.78996 -2.9106,-5.01189 -0.3581,-1.08954 -0.8716,-2.3036 -1.1518,-2.69272 -1.5253,-2.2569 -5.152,-2.41255 -10.5685,-0.45138 -2.973,1.07398 -3.9847,1.80553 -4.7785,3.40871 -1.1674,2.39698 -1.0117,5.47882 0.5448,10.66192 1.074,3.61104 1.7899,4.76284 3.4243,5.57221 1.5097,0.73156 3.9846,0.48252 5.2919,-0.56033 0.7472,-0.59146 1.2142,-0.60702 3.689,0 2.3191,0.56033 3.7355,0.77824 5.2142,0.77824 1.2607,0 1.6032,0.0934 1.6032,0.42025 0,0.46695 -0.716,1.1985 -2.6305,2.72386 -1.0739,0.87163 -2.288,1.85221 -2.6772,2.2102 -0.3891,0.34243 -0.9338,0.76268 -1.214,0.90276 -0.6693,0.35799 -0.9962,1.13624 -0.7782,1.88335 0.4513,1.66545 4.7006,4.38929 9.6346,6.22594 1.681,0.62259 3.8912,1.13624 4.2648,0.99616 0.2179,-0.0934 0.2179,-0.17121 -0.078,-0.73155 -0.249,-0.46695 -0.3112,-0.80938 -0.249,-1.26076 0.249,-1.88335 2.6772,-4.68502 4.545,-5.27648 0.3424,-0.10896 1.8521,-0.8405 3.34636,-1.63431 8.3116,-4.40485 11.7359,-5.79012 13.339,-5.33875 0.6072,0.17122 0.7628,0.56034 0.6072,1.60318 -0.1402,0.87164 0.2801,1.89891 0.965,2.39699 1.4786,1.04285 4.0935,1.36971 9.0275,1.1051 3.969,-0.21789 5.043,-0.15564 6.724,0.40469 2.7705,0.93389 4.9186,2.77054 6.7397,5.79012 1.0117,1.68101 2.288,4.84068 2.288,5.69674 0,1.49423 0.9027,3.40871 2.0234,4.2959 0.825,0.65372 2.397,1.36971 3.6733,1.64988 0.6848,0.15564 2.2102,0.26459 4.2648,0.31129 1.7588,0.0466 3.4865,0.15566 3.8445,0.24904 1.3386,0.34242 1.7588,1.24519 1.1518,2.53707 -0.8094,1.7277 -3.8289,4.65389 -8.0315,7.78242 -1.7743,1.32302 -5.3231,4.90293 -6.2259,6.28821 -1.2763,1.9456 -1.5098,2.70827 -1.6499,5.38543 -0.1245,2.42812 -0.3891,3.96904 -0.9494,5.68117 -0.4826,1.49423 -1.3075,3.05072 -1.8678,3.54879 -8.9187,7.72017 -22.071,20.15648 -29.8067,28.15681 -3.9691,4.10913 -5.2609,5.4944 -6.1014,6.53724 -0.716,0.88721 -2.10136,1.5098 -3.40866,1.52536 -0.9339,0 -1.0118,-0.0311 -1.5098,-0.56034 -0.7004,-0.76267 -0.9184,-1.89891 -0.8094,-4.0313 0.1868,-3.42426 1.323,-7.40886 2.6927,-9.49455 3.84456,-5.82126 5.41656,-13.35465 4.32706,-20.77908 -0.4514,-3.11297 -1.5565,-6.30377 -2.28806,-6.61506 -0.1868,-0.0778 -1.0117,-0.40469 -1.821,-0.71598 -2.3659,-0.90277 -5.4011,-2.42812 -7.191,-3.62661 -6.6462,-4.43599 -9.012,-10.22612 -7.0353,-17.10578 0.7159,-2.4748 2.8794,-6.49053 4.6227,-8.56066 0.3269,-0.37356 0.5759,-0.73155 0.5759,-0.80937 0,-0.15565 -12.9811,-9.19884 -17.7751,-12.37406 l -1.821,-1.21406 -1.9924,-0.0156 c -1.8678,-0.0311 -2.1012,-0.0778 -3.7822,-0.63816 -4.5294,-1.52536 -10.9732,-5.46326 -18.0397,-11.03548 -4.1403,-3.25305 -4.5294,-3.64217 -5.4321,-5.16753 -1.183,-2.00787 -2.2413,-3.39313 -3.7667,-4.90292 -1.5876,-1.57206 -3.1752,-2.59934 -4.9029,-3.1908 -1.1362,-0.38912 -1.4163,-0.43582 -3.3464,-0.40469 -2.3971,0.0311 -3.2687,-0.15565 -4.7474,-0.98059 -4.2336,-2.38142 -9.977,-9.58794 -13.6348,-17.12133 -1.5875,-3.25306 -1.5719,-3.15967 -0.7159,-5.68117 1.0895,-3.20636 1.4008,-4.94962 1.4163,-7.62678 0.015,-2.63046 -0.1867,-3.57992 -1.1673,-5.58778 -0.9028,-1.82109 -2.3658,-3.28419 -4.187,-4.17139 -0.7314,-0.35798 -1.5875,-0.70041 -1.8989,-0.74711 -0.5136,-0.0934 -0.6693,-0.0311 -1.4786,0.59147 -1.3697,1.04284 -3.72,2.5682 -4.9497,3.17522 -1.6343,0.84052 -2.646,1.13624 -3.7822,1.13624 -0.965,0 -1.0428,-0.0311 -1.572,-0.59146 l -0.5759,-0.59147 -0.4359,0.70042 c -2.3814,3.78226 -5.8835,10.59967 -7.6267,14.83331 -8.4673,20.53004 -10.1327,42.92786 -4.7629,64.40736 1.7744,7.12869 4.0001,13.19898 7.3155,20.00083 12.7943,26.27346 36.2972,45.91631 64.4541,53.83882 17.9151,5.04302 37.6202,5.04302 55.53526,0 18.0241,-5.07414 34.5384,-15.1446 47.2237,-28.77942 10.6465,-11.44016 18.4912,-24.93488 23.0672,-39.69036 6.0547,-19.54946 6.0547,-41.1846 0,-60.70292 -1.5876,-5.13641 -3.362,-9.55683 -5.8369,-14.63097 -8.0314,-16.5143 -20.2031,-30.38259 -35.6434,-40.62426 -14.3041,-9.49457 -30.5695,-15.14461 -47.93976,-16.6544 -3.3153,-0.29573 -10.8954,-0.42025 -14.0862,-0.23346 z" /><text
     id="text7381"
     y="326.89124"
     x="334.62445"
     style="font-style:normal;font-variant:normal;font-weight:normal;font-stretch:normal;font-size:127.98316193px;line-height:125%;font-family:'Museo Slab';-inkscape-font-specification:'Museo Slab, Normal';text-align:center;letter-spacing:0px;word-spacing:0px;writing-mode:lr-tb;text-anchor:middle;fill:#ff7f2a;fill-opacity:1;stroke:#ff7f2a;stroke-width:3.19957876px;stroke-linecap:butt;stroke-linejoin:miter;stroke-opacity:1"
     xml:space="preserve"><tspan
       style="stroke-width:3.19957876px"
       y="326.89124"
       x="334.62445"
       id="tspan7383">Iot</tspan></text>
<path
     style="fill:#757778;fill-opacity:1;stroke:#757778;stroke-opacity:1"
     id="path84-3"
     d="m 464.70479,309.13439 c -0.078,0.20234 -0.4047,1.49423 -0.716,2.8795 -1.7745,7.96921 -4.8251,17.16803 -8.1716,24.71698 -5.6811,12.79431 -12.7943,23.95432 -22.1954,34.75632 -4.1247,4.73171 -11.4869,11.82929 -16.67,16.01623 -20.1876,16.37423 -44.6556,26.60033 -70.47756,29.44871 -5.6968,0.63816 -7.4867,0.71598 -15.098,0.71598 -7.6112,0 -9.4012,-0.0778 -15.0978,-0.71598 -15.2692,-1.68101 -29.6044,-5.80569 -43.8929,-12.57641 -1.1051,-0.5292 -2.0547,-0.90276 -2.1325,-0.82494 -0.062,0.0623 0,0.358 0.1558,0.65373 0.2957,0.59147 1.0427,1.02729 4.8562,2.73941 13.0745,5.93021 28.2969,9.94595 42.959,11.33121 6.2259,0.60703 15.1757,0.77825 21.0903,0.40469 30.98966,-1.88335 59.27086,-13.51028 82.72726,-34.0092 4.1402,-3.62661 10.8642,-10.55297 14.8021,-15.25356 7.938,-9.46342 15.2536,-21.32384 20.2187,-32.68619 3.5489,-8.15597 6.8641,-18.44435 8.3895,-26.08669 0.2802,-1.40084 0.2802,-1.40084 -0.046,-1.63431 -0.4359,-0.29573 -0.5449,-0.28017 -0.7005,0.12452 z" /><path
     style="fill:#757778;fill-opacity:1;stroke:#757778;stroke-width:0.83843857;stroke-opacity:1"
     id="path84-3-6"
     d="m 230.40082,261.39597 c 0.085,-0.16068 0.48562,-1.20369 0.88262,-2.32597 2.27033,-6.45788 5.72538,-13.81244 9.2626,-19.76401 6.00276,-10.08609 13.03515,-18.66908 21.9366,-26.72636 3.90473,-3.52875 10.74015,-8.70494 15.47179,-11.67485 18.43584,-11.62283 39.82337,-17.70133 61.60393,-17.50305 4.80616,0.0357 6.30402,0.14895 12.64052,0.90637 6.33641,0.7574 7.81888,1.0003 12.49785,2.09847 12.54452,2.91893 24.0683,7.77931 35.28988,14.83788 0.86734,0.55053 1.62072,0.95602 1.69323,0.89899 0.0578,-0.0457 0.0357,-0.29805 -0.0647,-0.55975 -0.18732,-0.52183 -0.76583,-0.959 -3.77024,-2.76384 -10.29456,-6.23804 -22.56777,-11.09601 -34.63631,-13.70831 -5.12273,-1.1249 -12.55651,-2.15806 -17.51766,-2.43564 -25.98669,-1.51593 -50.68815,5.34932 -72.25577,20.08074 -3.80767,2.60719 -10.09474,7.70435 -13.84085,11.22578 -7.5502,7.08848 -14.82078,16.23445 -20.08498,25.19966 -3.76612,6.43679 -7.54987,14.67209 -9.58029,20.88263 -0.37268,1.13833 -0.37268,1.13833 -0.12434,1.36516 0.33347,0.28958 0.42576,0.28747 0.59557,-0.034 z" /><path
     style="fill:#757778;fill-opacity:1;stroke:#757778;stroke-opacity:1"
     id="path84-3-7"
     d="m 270.63175,414.1118 c -0.16863,-0.13634 -1.29821,-0.8433 -2.52137,-1.56424 -7.04154,-4.13206 -14.86229,-9.85572 -21.0219,-15.35526 -10.43674,-9.32971 -18.87886,-19.52159 -26.27882,-31.78145 -3.23946,-5.37662 -7.7384,-14.56017 -10.13486,-20.77724 -9.39727,-24.23521 -11.63025,-50.66 -6.42567,-76.11191 1.13896,-5.61814 1.61352,-7.34573 3.94684,-14.59056 2.33328,-7.24475 2.95604,-8.92471 5.30981,-14.1514 6.28091,-14.01872 14.6015,-26.3993 25.42643,-37.92427 0.84251,-0.88966 1.48917,-1.67902 1.43894,-1.77694 -0.0403,-0.0781 -0.34086,-0.10938 -0.67,-0.0521 -0.65365,0.10015 -1.29748,0.67759 -4.09621,3.78261 -9.65273,10.62708 -18.14161,23.88554 -23.95491,37.41704 -2.48638,5.74006 -5.39293,14.20646 -6.85052,19.95081 -7.70732,30.07497 -5.30992,60.5588 7.0114,89.16989 2.18281,5.0526 6.71442,13.57617 9.98151,18.76546 6.57437,10.45685 15.62112,21.05609 24.91434,29.26531 6.67536,5.87828 15.45208,12.1878 22.25888,15.98256 1.24749,0.69612 1.24749,0.69612 1.56971,0.4572 0.41513,-0.32426 0.43373,-0.43279 0.0962,-0.70495 z" /><path
     style="fill:#757778;fill-opacity:1;stroke:#757778;stroke-opacity:1"
     id="path84-3-5"
     d="m 268.38894,170.84491 c 0.20382,-0.074 1.39272,-0.67589 2.64193,-1.35069 7.17575,-3.89432 16.11681,-7.63355 24.00779,-10.06628 13.3801,-4.11609 26.46791,-6.07895 40.78796,-6.08113 6.27712,0.004 16.46443,0.89644 23.02563,2.05647 25.60534,4.47448 49.38417,16.21429 68.48756,33.81961 4.22192,3.87766 5.45589,5.17655 10.45357,10.9172 4.99763,5.74057 6.11429,7.14172 9.37342,11.85728 8.75811,12.62021 15.05987,26.14053 19.33524,41.36305 0.32649,1.18097 0.66826,2.14247 0.77804,2.15005 0.0877,0.006 0.27001,-0.23507 0.39076,-0.54676 0.25194,-0.61139 0.0902,-1.46096 -1.12252,-5.46141 -4.11218,-13.75499 -11.07864,-27.87292 -19.66118,-39.84105 -3.63018,-5.09433 -9.37761,-11.95693 -13.54297,-16.17259 -21.76872,-22.1366 -49.1079,-35.83262 -79.97053,-40.06418 -5.4538,-0.74137 -15.09292,-1.26484 -21.22391,-1.14844 -12.34977,0.22677 -26.09874,2.49687 -37.92868,6.21274 -8.48171,2.67865 -18.41829,6.93373 -25.18395,10.8013 -1.24053,0.70848 -1.24053,0.70848 -1.20243,1.10781 0.0632,0.52295 0.14648,0.59494 0.55387,0.44657 z" /></svg>