<?xml version="1.0" encoding="UTF-8"?>
<svg xmlns="http://www.w3.org/2000/svg" id="Layer_1" viewBox="0 0 441.95 319.57">
  <defs>
    <style>.cls-1,.cls-12,.cls-20{fill:none;}.cls-1{stroke:#a7d7ea;stroke-width:2px;stroke-dasharray:7 8;}.cls-1,.cls-13,.cls-14,.cls-16,.cls-17,.cls-18,.cls-19,.cls-20,.cls-21,.cls-3,.cls-8{stroke-miterlimit:10;}.cls-2{fill:#dedfdf;}.cls-19,.cls-3{fill:#a6d7ea;}.cls-3{stroke:#a6d7ea;}.cls-4{fill:#26d068;}.cls-15,.cls-21,.cls-5,.cls-6{fill:#fff;}.cls-15,.cls-6{opacity:0.5;}.cls-16,.cls-17,.cls-7,.cls-8{fill:#3f4041;}.cls-13,.cls-14,.cls-16,.cls-17,.cls-18,.cls-19,.cls-20,.cls-21,.cls-8{stroke:#3f4041;}.cls-18,.cls-9{fill:#dfe0e0;}.cls-10,.cls-13{fill:#a7d7ea;}.cls-11,.cls-14{fill:#757778;}.cls-15{isolation:isolate;}.cls-16{stroke-width:0.5px;}.cls-17{stroke-width:0.54px;}.cls-18,.cls-19,.cls-20,.cls-21{stroke-width:1.5px;}</style>
  </defs>
  <title>appdirect-industrial-iot-challenge</title>
  <polygon class="cls-1" points="116.5 155.4 439.69 155.4 325.46 280.99 2.26 280.99 116.5 155.4"></polygon>
  <line class="cls-1" x1="29.63" y1="249.75" x2="352.83" y2="249.75"></line>
  <line class="cls-1" x1="61.1" y1="216.32" x2="384.3" y2="216.32"></line>
  <line class="cls-1" x1="90.15" y1="184.5" x2="413.35" y2="184.5"></line>
  <line class="cls-1" x1="385.83" y1="155.4" x2="271.59" y2="280.99"></line>
  <line class="cls-1" x1="331.96" y1="155.4" x2="217.73" y2="280.99"></line>
  <line class="cls-1" x1="278.09" y1="155.4" x2="163.86" y2="280.99"></line>
  <line class="cls-1" x1="224.23" y1="155.4" x2="109.99" y2="280.99"></line>
  <line class="cls-1" x1="170.36" y1="155.4" x2="56.13" y2="280.99"></line>
  <path class="cls-2" d="M68.49,318.37h45.56a34.85,34.85,0,1,0-45.56,0Z" transform="translate(-26.52 -49.27)"></path>
  <path class="cls-3" d="M70.16,313.12l6.32-6.32a20.92,20.92,0,1,1,29.58,0l6.32,6.32a29.86,29.86,0,1,0-42.22,0Z" transform="translate(-26.52 -49.27)"></path>
  <polygon class="cls-4" points="80.62 231 80.62 231 80.62 231 80.62 231"></polygon>
  <path class="cls-3" d="M107.14,280.27,93.9,286.84A5.8,5.8,0,1,0,97,291l10.16-10.73h0Z" transform="translate(-26.52 -49.27)"></path>
  <path class="cls-5" d="M108.09,279.57a20.92,20.92,0,0,1-2,27.23l6.32,6.32a29.86,29.86,0,0,0,2.89-38.87Z" transform="translate(-26.52 -49.27)"></path>
  <path class="cls-6" d="M115.91,267.37a34.85,34.85,0,1,0-49.28,49.28Z" transform="translate(-26.52 -49.27)"></path>
  <polygon class="cls-7" points="80.62 231 80.62 231 80.62 231 80.62 231"></polygon>
  <polyline class="cls-7" points="80.62 231 80.62 231 80.62 231"></polyline>
  <path class="cls-8" d="M104.71,282.07l-8.11,8.57-.18.19,0,.26a5.26,5.26,0,0,1-5.18,6.18A5.3,5.3,0,0,1,87,295.14a5.27,5.27,0,0,1,4.22-8.4,5.33,5.33,0,0,1,2.4.58l.24.12.24-.12,10.57-5.25m1.36-1.27-12.16,6a5.84,5.84,0,0,0-2.64-.63A5.8,5.8,0,1,0,97,291Z" transform="translate(-26.52 -49.27)"></path>
  <path class="cls-8" d="M91.27,262.68a29.33,29.33,0,0,1,21.11,49.69l-5.57-5.57a21.45,21.45,0,1,0-31.07,0l-5.57,5.57a29.33,29.33,0,0,1,21.11-49.69m0-.53a29.86,29.86,0,0,0-21.11,51l6.32-6.32a20.92,20.92,0,1,1,29.58,0l6.32,6.32a29.86,29.86,0,0,0-21.11-51Z" transform="translate(-26.52 -49.27)"></path>
  <path class="cls-7" d="M91.27,259.16a32.85,32.85,0,0,1,22,57.21h-44a32.85,32.85,0,0,1,22-57.21m0-2a34.85,34.85,0,0,0-22.78,61.21h45.56a34.85,34.85,0,0,0-22.78-61.21Z" transform="translate(-26.52 -49.27)"></path>
  <polygon class="cls-9" points="339.41 202.74 341.23 204.43 341.76 205.02 342.91 205.02 346.26 201.74 339.41 202.74"></polygon>
  <path class="cls-10" d="M431.16,140v-4.6h0v-5h-8v10.7a2.9,2.9,0,0,0,2.9,2.9h.9a4.13,4.13,0,0,1,4.2,3.6,4,4,0,0,1-4,4.4,3.63,3.63,0,0,1-2.8-1.2l-3.5,3.5a8.93,8.93,0,0,0,7.9,2.5,9,9,0,0,0,7.4-7.5A9.29,9.29,0,0,0,431.16,140Z" transform="translate(-26.52 -49.27)"></path>
  <polygon class="cls-10" points="317.23 76.1 280.53 76.1 280.53 50.6 305.23 50.6 317.23 63.4 317.23 76.1"></polygon>
  <polygon class="cls-2" points="317.23 63.4 305.23 50.6 280.53 50.6 280.53 64.2 317.23 64.2 317.23 63.4"></polygon>
  <path class="cls-10" d="M378.36,157.07a35,35,0,0,0,35,35v2a37,37,0,0,1-37-37Z" transform="translate(-26.52 -49.27)"></path>
  <path class="cls-10" d="M389.36,157.07a24.07,24.07,0,0,0,24,24v2a26.08,26.08,0,0,1-26-26Z" transform="translate(-26.52 -49.27)"></path>
  <path class="cls-10" d="M400.36,157.07a13,13,0,0,0,13,13v2a15,15,0,0,1-15-15Z" transform="translate(-26.52 -49.27)"></path>
  <polygon class="cls-11" points="305.13 49.6 305.13 41.9 298.13 2 292.83 2 287.53 2 280.53 41.8 280.53 49.6 305.13 49.6"></polygon>
  <rect class="cls-11" x="280.53" y="77.1" width="24.6" height="13"></rect>
  <polygon class="cls-7" points="284.63 0.6 231.73 29.1 236.03 29.1 284.33 3.1 284.63 0.6"></polygon>
  <line class="cls-12" x1="299.93" x2="404.83" y2="30.1"></line>
  <polygon class="cls-7" points="271.43 33.1 269.33 33.1 265.83 36.7 262.33 33.1 259.53 33.1 264.43 38.1 259.53 43.1 262.33 43.1 265.83 39.5 269.33 43.1 271.43 43.1 271.43 42.4 267.23 38.1 271.43 33.8 271.43 33.1"></polygon>
  <polygon class="cls-7" points="253.23 38.1 258.13 33.1 255.33 33.1 251.83 36.7 248.23 33.1 245.43 33.1 250.43 38.1 245.53 43.1 248.33 43.1 251.83 39.6 255.23 43.1 258.03 43.1 253.23 38.1"></polygon>
  <polygon class="cls-7" points="239.13 38.1 244.03 33.1 241.23 33.1 237.73 36.7 234.13 33.1 232.83 33.1 232.83 34.6 236.33 38.1 232.83 41.7 232.83 43.1 234.23 43.1 237.73 39.6 241.13 43.1 243.93 43.1 239.13 38.1"></polygon>
  <polygon class="cls-7" points="368.83 38.1 373.73 33.1 370.93 33.1 367.43 36.7 363.93 33.1 361.13 33.1 366.03 38.1 361.13 43.1 363.93 43.1 367.43 39.5 370.93 43.1 373.73 43.1 368.83 38.1"></polygon>
  <polygon class="cls-7" points="382.93 38.1 387.83 33.1 385.03 33.1 381.53 36.7 378.03 33.1 375.23 33.1 380.13 38.1 375.23 43.1 378.03 43.1 381.53 39.5 385.03 43.1 387.83 43.1 382.93 38.1"></polygon>
  <polygon class="cls-7" points="401.83 33.1 399.03 33.1 395.63 36.6 392.13 33.1 389.33 33.1 394.23 38 389.23 43.1 392.03 43.1 395.63 39.5 399.13 43.1 401.93 43.1 397.03 38 401.83 33.1"></polygon>
  <polygon class="cls-7" points="326.63 38.1 331.53 33.1 328.73 33.1 325.23 36.7 321.73 33.1 320.23 33.1 320.23 34.5 323.83 38.1 320.23 41.8 320.23 43.1 321.73 43.1 325.23 39.5 328.73 43.1 331.53 43.1 326.63 38.1"></polygon>
  <polygon class="cls-7" points="340.73 38.1 345.63 33.1 342.83 33.1 339.33 36.7 335.83 33.1 333.03 33.1 337.93 38.1 333.03 43.1 335.83 43.1 339.33 39.5 342.83 43.1 345.63 43.1 340.73 38.1"></polygon>
  <polygon class="cls-7" points="354.83 38.1 359.63 33.1 356.83 33.1 353.43 36.6 349.93 33.1 347.13 33.1 352.03 38.1 347.03 43.1 349.83 43.1 353.43 39.5 356.93 43.1 359.73 43.1 354.83 38.1"></polygon>
  <polygon class="cls-7" points="303.13 77.1 282.53 77.1 280.53 77.1 280.53 79.1 280.53 89.2 282.53 89.2 282.53 79.1 303.13 79.1 303.13 89.2 305.13 89.2 305.13 79.1 305.13 77.1 303.13 77.1"></polygon>
  <polygon class="cls-7" points="393.83 29 401.13 29 302.03 0.6 302.33 2.8 393.83 29"></polygon>
  <polygon class="cls-7" points="404.83 30.1 404.83 30.1 404.63 30 397.33 30 397.63 30.1 319.23 30.1 317.23 30.1 317.23 32.1 317.23 41.1 305.03 41.1 303.03 25 299.93 0 298.13 0 292.83 0 287.53 0 285.73 0 285.53 1.8 280.63 41.1 274.43 41.1 274.43 32.1 274.43 30.1 272.43 30.1 231.83 30.1 229.83 30.1 229.83 32.1 229.83 44.1 229.83 46.1 231.83 46.1 272.43 46.1 274.43 46.1 280.53 46.1 280.53 47.6 280.53 49.6 282.53 49.6 282.53 47.6 282.53 44.1 280.53 44.1 276.53 44.1 274.43 44.1 273.53 44.1 272.43 44.1 270.43 44.1 231.83 44.1 231.83 32.1 272.43 32.1 272.43 41.1 272.43 43.1 273.53 43.1 274.43 43.1 280.53 43.1 282.03 43.1 282.53 43.1 282.53 42.1 287.53 2 292.83 2 298.13 2 303.13 42.1 303.13 43.1 304.03 43.1 305.13 43.1 317.23 43.1 319.23 43.1 319.23 41.1 319.23 32.1 403.73 32.1 411.13 44.1 322.33 44.1 319.23 44.1 317.23 44.1 314.43 44.1 313.73 44.1 305.13 44.1 303.13 44.1 303.13 47.6 283.53 47.6 283.53 49.6 303.13 49.6 305.13 49.6 305.13 47.6 305.13 46.1 317.23 46.1 319.23 46.1 413.53 46.1 413.53 44.1 404.83 30.1"></polygon>
  <polygon class="cls-7" points="316.03 62.2 313.33 62.2 313.03 62.2 312.23 62.2 310.33 62.2 285.93 62.2 283.53 62.2 283.53 64.2 312.23 64.2 312.23 64.2 314.23 64.2 315.23 64.2 315.23 74.1 282.53 74.1 282.53 65 282.53 64.2 282.53 62.2 282.53 60.6 282.53 56 282.53 52.6 283.53 52.6 285.93 52.6 302.73 52.6 304.03 52.6 304.33 52.6 312.33 61.2 315.13 61.2 307.03 52.6 307.03 52.6 305.23 50.6 304.03 50.6 302.73 50.6 283.53 50.6 282.53 50.6 280.53 50.6 280.53 52.6 280.53 62.2 280.53 64.2 280.53 76.1 317.23 76.1 317.23 64.2 317.23 63.4 316.03 62.2"></polygon>
  <path class="cls-7" d="M433.16,138.87v-8.4h-4.1v2h2.1v7.6a9,9,0,0,1-2.5,17,7.57,7.57,0,0,1-1.5.1,9.25,9.25,0,0,1-6.4-2.6l3.5-3.5a4,4,0,0,0,2.8,1.2,4.05,4.05,0,0,0,4-4.4,4.13,4.13,0,0,0-4.2-3.6H426a2.9,2.9,0,0,1-2.9-2.9v-8.7H428v-36h-2v34.1h-4.9v10.7a4.91,4.91,0,0,0,4.9,4.9h.9a2.18,2.18,0,0,1,2.2,1.8,1.65,1.65,0,0,1-.5,1.5,2.13,2.13,0,0,1-1.5.7,2,2,0,0,1-1.4-.6l-1.4-1.4-1.4,1.4-3.5,3.5-1.4,1.4,1.4,1.4a10.8,10.8,0,0,0,7.8,3.2,13.67,13.67,0,0,0,1.9-.2,11,11,0,0,0,9-9.1A11.26,11.26,0,0,0,433.16,138.87Z" transform="translate(-26.52 -49.27)"></path>
  <polygon class="cls-2" points="161.11 177.5 161.11 96.03 151.86 96.03 151.86 61.97 144.02 61.97 144.02 44.19 140.29 44.19 140.29 61.97 132.4 61.97 132.4 96.03 123.21 96.03 123.21 177.5 114.99 177.5 114.99 216.32 123.21 216.32 132.4 216.32 140.29 216.32 144.02 216.32 151.86 216.32 161.11 216.32 169.32 216.32 169.32 177.5 161.11 177.5"></polygon>
  <circle class="cls-13" cx="133.81" cy="192.32" r="11.03"></circle>
  <path class="cls-8" d="M194.77,255.64v9.48H142.6V227.85h8.22V146.38h9.24V112.32h7.84V94.54h1.57v17.79h7.84v34.06h9.24v81.47h8.22v29a8.42,8.42,0,0,1,1.08.86V226.83h-8.22V145.3h-9.24V111.24h-7.84V93.46h-3.73v17.79H159V145.3h-9.24v81.47h-8.22v38.82h54.33V254.83A8.06,8.06,0,0,1,194.77,255.64Z" transform="translate(-26.52 -49.27)"></path>
  <rect class="cls-8" x="141.59" y="35.16" width="1.08" height="9.08"></rect>
  <rect class="cls-8" x="124.83" y="177.5" width="34.71" height="1.08"></rect>
  <path class="cls-14" d="M176,145.3H161.47v82.55H176V145.3Z" transform="translate(-26.52 -49.27)"></path>
  <path class="cls-8" d="M174.87,146.38v80.39H162.55V146.38h12.33M176,145.3H161.47v82.55H176V145.3Z" transform="translate(-26.52 -49.27)"></path>
  <rect class="cls-2" x="136.67" y="103.87" width="11.03" height="1.08"></rect>
  <rect class="cls-2" x="136.67" y="110.36" width="11.03" height="1.08"></rect>
  <rect class="cls-2" x="136.67" y="116.85" width="11.03" height="1.08"></rect>
  <rect class="cls-2" x="136.67" y="123.33" width="11.03" height="1.08"></rect>
  <rect class="cls-2" x="136.67" y="129.82" width="11.03" height="1.08"></rect>
  <rect class="cls-2" x="136.67" y="136.31" width="11.03" height="1.08"></rect>
  <rect class="cls-2" x="136.67" y="142.8" width="11.03" height="1.08"></rect>
  <rect class="cls-2" x="136.67" y="149.28" width="11.03" height="1.08"></rect>
  <rect class="cls-2" x="136.67" y="155.77" width="11.03" height="1.08"></rect>
  <rect class="cls-2" x="136.67" y="162.26" width="11.03" height="1.08"></rect>
  <rect class="cls-2" x="136.67" y="168.75" width="11.03" height="1.08"></rect>
  <path class="cls-15" d="M160.33,230.56a11,11,0,0,0-7.78,18.81l15.62-15.62A11,11,0,0,0,160.33,230.56Z" transform="translate(-26.52 -49.27)"></path>
  <path class="cls-8" d="M160.33,230.56a11,11,0,0,0-1.08,22v-1.08a9.95,9.95,0,1,1,2.16,0v1.08a11,11,0,0,0-1.08-22Z" transform="translate(-26.52 -49.27)"></path>
  <polygon class="cls-8" points="140.29 192.69 139.54 191.94 134.35 197.07 134.35 189.02 133.26 189.02 133.26 197.02 128.13 191.83 127.37 192.59 133.26 198.53 133.26 216.32 134.35 216.32 134.35 198.59 140.29 192.69"></polygon>
  <polygon class="cls-2" points="319.86 128.19 319.86 104.77 313.08 104.77 306.18 89.52 227.12 89.52 220.22 104.77 213.45 104.77 213.45 128.19 199.65 128.19 199.65 185.16 333.72 185.16 333.72 128.19 319.86 128.19"></polygon>
  <rect class="cls-5" x="208.5" y="137.87" width="13.74" height="47.29"></rect>
  <rect class="cls-5" x="232.87" y="137.87" width="13.74" height="47.29"></rect>
  <polygon class="cls-11" points="319.86 105.97 319.86 104.77 313.08 104.77 306.18 89.52 227.12 89.52 220.22 104.77 213.45 104.77 213.45 105.97 319.86 105.97"></polygon>
  <rect class="cls-5" x="311.1" y="137.86" width="13.74" height="47.29"></rect>
  <rect class="cls-5" x="220.28" y="110.47" width="92.67" height="13.74"></rect>
  <rect class="cls-2" x="231.49" y="112.37" width="1.27" height="10.13"></rect>
  <rect class="cls-2" x="242.88" y="112.37" width="1.27" height="10.13"></rect>
  <rect class="cls-2" x="254.28" y="112.37" width="1.27" height="10.13"></rect>
  <rect class="cls-2" x="265.67" y="112.37" width="1.27" height="10.13"></rect>
  <rect class="cls-2" x="277.06" y="112.37" width="1.27" height="10.13"></rect>
  <rect class="cls-2" x="289.09" y="112.37" width="1.27" height="10.13"></rect>
  <rect class="cls-2" x="300.49" y="112.37" width="1.27" height="10.13"></rect>
  <rect class="cls-2" x="210.4" y="172.5" width="10.13" height="1.27"></rect>
  <rect class="cls-2" x="210.4" y="160.47" width="10.13" height="1.27"></rect>
  <rect class="cls-2" x="234.78" y="172.5" width="10.13" height="1.27"></rect>
  <rect class="cls-2" x="234.78" y="160.48" width="10.13" height="1.27"></rect>
  <rect class="cls-2" x="313" y="172.49" width="10.13" height="1.27"></rect>
  <rect class="cls-2" x="313" y="160.46" width="10.13" height="1.27"></rect>
  <polygon class="cls-16" points="312.39 183.9 312.39 139.15 323.53 139.15 323.53 183.9 324.79 183.9 324.79 137.88 311.12 137.88 311.12 183.9 312.39 183.9"></polygon>
  <rect class="cls-5" x="259.27" y="137.86" width="13.74" height="47.29"></rect>
  <rect class="cls-2" x="261.18" y="172.49" width="10.13" height="1.27"></rect>
  <rect class="cls-2" x="261.18" y="160.46" width="10.13" height="1.27"></rect>
  <polygon class="cls-16" points="260.56 183.9 260.56 139.15 271.7 139.15 271.7 183.9 272.96 183.9 272.96 137.88 259.29 137.88 259.29 183.9 260.56 183.9"></polygon>
  <rect class="cls-5" x="285.18" y="137.86" width="13.74" height="47.29"></rect>
  <rect class="cls-2" x="287.09" y="172.49" width="10.13" height="1.27"></rect>
  <rect class="cls-2" x="287.09" y="160.46" width="10.13" height="1.27"></rect>
  <polygon class="cls-16" points="286.47 183.9 286.47 139.15 297.61 139.15 297.61 183.9 298.88 183.9 298.88 137.88 285.21 137.88 285.21 183.9 286.47 183.9"></polygon>
  <polygon class="cls-15" points="313.08 104.77 306.18 89.52 227.12 89.52 220.22 104.77 213.45 104.77 213.45 128.19 199.65 128.19 199.65 185.16 247.69 185.16 319.86 113 319.86 104.77 313.08 104.77"></polygon>
  <path class="cls-16" d="M338.21,161v11.2H248.07V161h90.14m1.27-1.27H246.81v13.74h92.67V159.74Z" transform="translate(-26.52 -49.27)"></path>
  <rect class="cls-16" x="215.35" y="128.19" width="102.61" height="1.2"></rect>
  <polygon class="cls-16" points="311.56 105.97 310.99 104.77 222.31 104.77 221.8 105.97 311.56 105.97"></polygon>
  <polygon class="cls-16" points="209.78 183.9 209.78 139.15 220.92 139.15 220.92 183.9 222.18 183.9 222.18 137.88 208.51 137.88 208.51 183.9 209.78 183.9"></polygon>
  <polygon class="cls-16" points="234.15 183.9 234.15 139.15 245.29 139.15 245.29 183.9 246.55 183.9 246.55 137.88 232.88 137.88 232.88 183.9 234.15 183.9"></polygon>
  <path class="cls-17" d="M346.38,177.46V154h-6.77l-6.9-15.26H253.64L246.74,154H240v23.42h-13.8v57h61.46a9.86,9.86,0,0,1-1-1.27H227.37V178.73h13.8V155.31h6.33l.32-.76L254.4,140h77.42l6.58,14.56.32.76h6.33v23.42h13.8v54.44H284.18a13.1,13.1,0,0,1-2.69,1.27h78.62v-57Z" transform="translate(-26.52 -49.27)"></path>
  <path class="cls-10" d="M33.92,263.45a35,35,0,0,1,35-35v-2a37,37,0,0,0-37,37Z" transform="translate(-26.52 -49.27)"></path>
  <path class="cls-10" d="M44.92,263.45a24.07,24.07,0,0,1,24-24v-2a26.08,26.08,0,0,0-26,26Z" transform="translate(-26.52 -49.27)"></path>
  <path class="cls-10" d="M55.92,263.45a13,13,0,0,1,13-13v-2a15,15,0,0,0-15,15Z" transform="translate(-26.52 -49.27)"></path>
  <circle class="cls-13" cx="164.2" cy="248.52" r="11.03"></circle>
  <path class="cls-15" d="M190.73,286.76a11,11,0,0,0-7.78,18.81L198.57,290A11.21,11.21,0,0,0,190.73,286.76Z" transform="translate(-26.52 -49.27)"></path>
  <path class="cls-8" d="M190.73,286.76a11,11,0,0,0-1.08,22v-1.08a9.95,9.95,0,1,1,2.16,0v1.08a11,11,0,0,0-1.08-22Z" transform="translate(-26.52 -49.27)"></path>
  <polygon class="cls-8" points="163.66 281.47 164.74 281.47 164.74 254.85 170.69 248.9 169.93 248.14 164.74 253.28 164.74 245.22 163.66 245.22 163.66 253.22 158.53 248.03 157.77 248.79 163.66 254.74 163.66 281.47"></polygon>
  <polyline class="cls-18" points="333.78 197.74 351.66 197.74 357.82 195.88 364.3 197.74 364.3 203.83 357.82 206.11 351.66 204.29 342.64 204.29"></polyline>
  <polygon class="cls-19" points="364.3 197.74 369.02 193.6 373.34 193.6 379.25 197.59 373.51 197.56 371.13 199.72 371.03 202.46 373.51 204.74 378.77 204.74 373.51 208.4 368.41 208.4 364.3 203.83 364.3 197.74"></polygon>
  <polygon class="cls-18" points="324.13 249.52 328.4 256.22 357.75 256.22 357.75 249.52 324.13 249.52"></polygon>
  <polygon class="cls-18" points="336.94 249.52 326.38 243.88 326.38 233.22 358.23 233.22 353.75 245.56 350.06 245.56 350.06 249.52 336.94 249.52"></polygon>
  <polygon class="cls-9" points="356.53 233.22 340.8 212.66 340.8 204.29 333.78 197.74 327.99 204.44 327.99 212.66 342.26 233.22 356.53 233.22"></polygon>
  <polygon class="cls-15" points="330.72 246.2 350.96 225.96 340.8 212.66 340.8 204.29 333.78 197.74 327.99 204.44 327.99 212.66 342.26 233.22 326.38 233.22 326.38 243.88 330.72 246.2"></polygon>
  <polygon class="cls-20" points="324.4 249.52 328.67 256.22 358.02 256.22 358.02 249.52 324.4 249.52"></polygon>
  <polyline class="cls-20" points="334.04 197.74 351.93 197.74 358.08 195.88 364.57 197.74 364.57 203.83 358.08 206.11 351.93 204.29 344.91 204.29"></polyline>
  <polygon class="cls-20" points="364.57 197.74 369.29 193.6 373.61 193.6 379.52 197.59 373.78 197.56 371.39 199.72 371.3 202.46 373.78 204.74 379.03 204.74 373.78 208.4 368.68 208.4 364.57 203.83 364.57 197.74"></polygon>
  <polygon class="cls-20" points="337.21 249.52 326.64 243.88 326.64 233.22 358.5 233.22 354.02 245.56 350.32 245.56 350.32 249.52 337.21 249.52"></polygon>
  <polygon class="cls-20" points="356.8 233.22 341.07 212.66 341.07 204.29 334.04 197.74 328.25 204.44 328.25 212.66 342.53 233.22 356.8 233.22"></polygon>
  <path class="cls-10" d="M144.62,101.26a35,35,0,0,0-35,35h-2a37,37,0,0,1,37-37Z" transform="translate(-26.52 -49.27)"></path>
  <path class="cls-10" d="M144.62,112.26a24.07,24.07,0,0,0-24,24h-2a26.08,26.08,0,0,1,26-26Z" transform="translate(-26.52 -49.27)"></path>
  <path class="cls-10" d="M144.62,123.26a13,13,0,0,0-13,13h-2a15,15,0,0,1,15-15Z" transform="translate(-26.52 -49.27)"></path>
  <path class="cls-10" d="M240.82,356.61a35,35,0,0,0,49.5,0l1.41,1.41a37,37,0,0,1-52.33,0Z" transform="translate(-26.52 -49.27)"></path>
  <path class="cls-10" d="M248.6,348.83a24.07,24.07,0,0,0,33.94,0l1.41,1.41a26.08,26.08,0,0,1-36.77,0Z" transform="translate(-26.52 -49.27)"></path>
  <path class="cls-10" d="M256.37,341a13,13,0,0,0,18.38,0l1.41,1.41a15,15,0,0,1-21.21,0Z" transform="translate(-26.52 -49.27)"></path>
  <path class="cls-10" d="M397.73,321a35,35,0,0,0,35-35h2a37,37,0,0,1-37,37Z" transform="translate(-26.52 -49.27)"></path>
  <path class="cls-10" d="M397.73,310a24.07,24.07,0,0,0,24-24h2a26.08,26.08,0,0,1-26,26Z" transform="translate(-26.52 -49.27)"></path>
  <path class="cls-10" d="M397.73,299a13,13,0,0,0,13-13h2a15,15,0,0,1-15,15Z" transform="translate(-26.52 -49.27)"></path>
  <rect class="cls-5" x="208.56" y="137.87" width="13.74" height="47.29"></rect>
  <rect class="cls-5" x="232.93" y="137.87" width="13.74" height="47.29"></rect>
  <polygon class="cls-11" points="319.92 105.97 319.92 104.77 313.14 104.77 306.25 89.52 227.18 89.52 220.28 104.77 213.51 104.77 213.51 105.97 319.92 105.97"></polygon>
  <rect class="cls-5" x="311.16" y="137.86" width="13.74" height="47.29"></rect>
  <rect class="cls-5" x="220.35" y="110.47" width="92.67" height="13.74"></rect>
  <rect class="cls-2" x="231.55" y="112.37" width="1.27" height="10.13"></rect>
  <rect class="cls-2" x="242.94" y="112.37" width="1.27" height="10.13"></rect>
  <rect class="cls-2" x="254.34" y="112.37" width="1.27" height="10.13"></rect>
  <rect class="cls-2" x="265.73" y="112.37" width="1.27" height="10.13"></rect>
  <rect class="cls-2" x="277.13" y="112.37" width="1.27" height="10.13"></rect>
  <rect class="cls-2" x="289.15" y="112.37" width="1.27" height="10.13"></rect>
  <rect class="cls-2" x="300.55" y="112.37" width="1.27" height="10.13"></rect>
  <rect class="cls-2" x="210.47" y="172.5" width="10.13" height="1.27"></rect>
  <rect class="cls-2" x="210.47" y="160.47" width="10.13" height="1.27"></rect>
  <rect class="cls-2" x="234.84" y="172.5" width="10.13" height="1.27"></rect>
  <rect class="cls-2" x="234.84" y="160.48" width="10.13" height="1.27"></rect>
  <rect class="cls-2" x="313.07" y="172.49" width="10.13" height="1.27"></rect>
  <rect class="cls-2" x="313.07" y="160.46" width="10.13" height="1.27"></rect>
  <polygon class="cls-16" points="312.45 183.9 312.45 139.15 323.59 139.15 323.59 183.9 324.86 183.9 324.86 137.88 311.18 137.88 311.18 183.9 312.45 183.9"></polygon>
  <rect class="cls-5" x="259.33" y="137.86" width="13.74" height="47.29"></rect>
  <rect class="cls-2" x="261.24" y="172.49" width="10.13" height="1.27"></rect>
  <rect class="cls-2" x="261.24" y="160.46" width="10.13" height="1.27"></rect>
  <polygon class="cls-16" points="260.62 183.9 260.62 139.15 271.76 139.15 271.76 183.9 273.03 183.9 273.03 137.88 259.36 137.88 259.36 183.9 260.62 183.9"></polygon>
  <rect class="cls-5" x="285.25" y="137.86" width="13.74" height="47.29"></rect>
  <rect class="cls-2" x="287.15" y="172.49" width="10.13" height="1.27"></rect>
  <rect class="cls-2" x="287.15" y="160.46" width="10.13" height="1.27"></rect>
  <polygon class="cls-16" points="286.54 183.9 286.54 139.15 297.68 139.15 297.68 183.9 298.94 183.9 298.94 137.88 285.27 137.88 285.27 183.9 286.54 183.9"></polygon>
  <path class="cls-16" d="M338.28,161v11.2H248.14V161h90.14m1.27-1.27H246.87v13.74h92.67V159.74Z" transform="translate(-26.52 -49.27)"></path>
  <rect class="cls-16" x="215.41" y="128.19" width="102.61" height="1.2"></rect>
  <polygon class="cls-16" points="311.63 105.97 311.06 104.77 222.37 104.77 221.87 105.97 311.63 105.97"></polygon>
  <polygon class="cls-16" points="209.84 183.9 209.84 139.15 220.98 139.15 220.98 183.9 222.25 183.9 222.25 137.88 208.57 137.88 208.57 183.9 209.84 183.9"></polygon>
  <polygon class="cls-16" points="234.21 183.9 234.21 139.15 245.35 139.15 245.35 183.9 246.62 183.9 246.62 137.88 232.94 137.88 232.94 183.9 234.21 183.9"></polygon>
  <path class="cls-17" d="M346.44,177.46V154h-6.77l-6.9-15.26H253.71L246.81,154H240v23.42h-13.8v57H287.7a9.86,9.86,0,0,1-1-1.27H227.44V178.73h13.8V155.31h6.33l.32-.76L254.47,140h77.42l6.58,14.56.32.76h6.33v23.42h13.8v54.44H284.25a13.1,13.1,0,0,1-2.69,1.27h78.62v-57Z" transform="translate(-26.52 -49.27)"></path>
  <polygon class="cls-15" points="115.99 212.12 161.21 164.9 161.21 97.11 150.78 97.11 150.78 63.05 144.02 63.05 144.02 45.16 140.29 45.16 140.29 63.05 133.53 63.05 133.53 97.11 124.29 97.11 124.29 177.5 116.07 177.5 115.99 212.12"></polygon>
  <circle class="cls-13" cx="133.81" cy="192.4" r="11.03"></circle>
  <path class="cls-8" d="M194.77,255.73v9.48H142.6V227.94h8.22V146.47h9.24V112.41h7.84V94.62h1.57v17.79h7.84v34.06h9.24v81.47h8.22v29a8.42,8.42,0,0,1,1.08.86V226.91h-8.22V145.39h-9.24V111.33h-7.84V93.54h-3.73v17.79H159v34.06h-9.24v81.47h-8.22v38.82h54.33V254.91A8.06,8.06,0,0,1,194.77,255.73Z" transform="translate(-26.52 -49.27)"></path>
  <rect class="cls-8" x="141.59" y="35.24" width="1.08" height="9.08"></rect>
  <rect class="cls-8" x="124.83" y="177.59" width="34.71" height="1.08"></rect>
  <path class="cls-8" d="M174.87,146.47v80.39H162.55V146.47h12.33m1.08-1.08H161.47v82.55H176V145.39Z" transform="translate(-26.52 -49.27)"></path>
  <rect class="cls-2" x="136.67" y="103.95" width="11.03" height="1.08"></rect>
  <rect class="cls-2" x="136.67" y="110.44" width="11.03" height="1.08"></rect>
  <rect class="cls-2" x="136.67" y="116.93" width="11.03" height="1.08"></rect>
  <rect class="cls-2" x="136.67" y="123.42" width="11.03" height="1.08"></rect>
  <rect class="cls-2" x="136.67" y="129.9" width="11.03" height="1.08"></rect>
  <rect class="cls-2" x="136.67" y="136.39" width="11.03" height="1.08"></rect>
  <rect class="cls-2" x="136.67" y="142.88" width="11.03" height="1.08"></rect>
  <rect class="cls-2" x="136.67" y="149.37" width="11.03" height="1.08"></rect>
  <rect class="cls-2" x="136.67" y="155.85" width="11.03" height="1.08"></rect>
  <rect class="cls-2" x="136.67" y="162.34" width="11.03" height="1.08"></rect>
  <rect class="cls-2" x="136.67" y="168.83" width="11.03" height="1.08"></rect>
  <path class="cls-15" d="M160.33,230.64a11,11,0,0,0-7.78,18.81l15.62-15.62A11,11,0,0,0,160.33,230.64Z" transform="translate(-26.52 -49.27)"></path>
  <path class="cls-8" d="M160.33,230.64a11,11,0,0,0-1.08,22v-1.08a9.95,9.95,0,1,1,2.16,0v1.08a11,11,0,0,0-1.08-22Z" transform="translate(-26.52 -49.27)"></path>
  <polygon class="cls-8" points="140.29 192.78 139.54 192.02 134.35 197.16 134.35 189.1 133.26 189.1 133.26 197.1 128.13 191.91 127.37 192.67 133.26 198.62 133.26 216.4 134.35 216.4 134.35 198.67 140.29 192.78"></polygon>
  <circle class="cls-13" cx="418.33" cy="136.51" r="11.03"></circle>
  <path class="cls-15" d="M444.85,174.75a11,11,0,0,0-7.78,18.81l15.62-15.62A11.21,11.21,0,0,0,444.85,174.75Z" transform="translate(-26.52 -49.27)"></path>
  <path class="cls-8" d="M444.85,174.75a11,11,0,0,0-1.08,22v-1.08a9.95,9.95,0,1,1,2.16,0v1.08a11,11,0,0,0-1.08-22Z" transform="translate(-26.52 -49.27)"></path>
  <polygon class="cls-8" points="417.79 155.97 418.87 155.97 418.87 142.84 424.81 136.89 424.06 136.13 418.87 141.27 418.87 133.22 417.79 133.22 417.79 141.22 412.65 136.03 411.89 136.78 417.79 142.73 417.79 155.97"></polygon>
  <rect class="cls-2" x="210.04" y="212.12" width="57.98" height="57.98"></rect>
  <circle class="cls-10" cx="240.31" cy="241.42" r="18.67"></circle>
  <polygon class="cls-6" points="210.06 262.6 259.88 212.79 210.06 212.12 210.06 262.6"></polygon>
  <rect class="cls-20" x="210.06" y="212.12" width="57.98" height="57.98"></rect>
  <circle class="cls-20" cx="239.62" cy="241.42" r="18.67"></circle>
  <circle class="cls-21" cx="239.53" cy="241.7" r="5.37"></circle>
  <circle class="cls-5" cx="248.14" cy="249.32" r="1.68"></circle>
  <path class="cls-5" d="M255.4,283.67s3.54-6.9,10.75-5.12L266,281.1s-4.48-1.32-8.57,4.08A24.07,24.07,0,0,1,255.4,283.67Z" transform="translate(-26.52 -49.27)"></path>
  <path class="cls-5" d="M257.37,287c-.48.51-.48,1-.73,1.79a24.07,24.07,0,0,1-2.38-.76,4.42,4.42,0,0,1,.71-2.43Z" transform="translate(-26.52 -49.27)"></path>
</svg>
