<?xml version="1.0" encoding="utf-8"?>
<!-- Generator: Adobe Illustrator 21.0.2, SVG Export Plug-In . SVG Version: 6.00 Build 0)  -->
<svg version="1.1" id="Layer_1" xmlns="http://www.w3.org/2000/svg" xmlns:xlink="http://www.w3.org/1999/xlink" x="0px" y="0px"
	 viewBox="0 0 725 400" style="enable-background:new 0 0 725 400;" xml:space="preserve">
<path style="fill:#3F4041;" d="M407,224h-2c0-1,0-2,0-3l2,0C407,222,407,223,407,224z"/>
<g>
	<g>
		<circle style="fill:#DEDFDF;" cx="388.1" cy="201.4" r="50"/>
	</g>
	<g>
		<circle style="fill:#757778;" cx="388.1" cy="201.4" r="44.8"/>
	</g>
	<circle style="fill:#2CD5C4;" cx="388.1" cy="201.4" r="32"/>
	<g>
		<path style="fill:#3F4041;" d="M388.1,237.4c0.6,0,1,0.4,1,1s-0.4,1-1,1s-1-0.4-1-1S387.6,237.4,388.1,237.4 M388.1,235.4
			c-1.7,0-3,1.3-3,3s1.3,3,3,3s3-1.3,3-3S389.8,235.4,388.1,235.4L388.1,235.4z"/>
	</g>
	<g>
		<circle style="fill:#FFFFFF;" cx="388.1" cy="238.4" r="2"/>
		<path style="fill:#3F4041;" d="M388.1,237.4c0.6,0,1,0.4,1,1s-0.4,1-1,1s-1-0.4-1-1S387.6,237.4,388.1,237.4 M388.1,235.4
			c-1.7,0-3,1.3-3,3s1.3,3,3,3s3-1.3,3-3S389.8,235.4,388.1,235.4L388.1,235.4z"/>
	</g>
	<g>
		<path style="fill:#FFFFFF;" d="M385.8,196.6c-3.3,4.2-5.2,8.6-5.1,15.1h-2.6c0-6.1,2-11.1,5-14.9h-5.9v1.4h-2.1v-3.7h10.7V196.6z"
			/>
		<path style="fill:#FFFFFF;" d="M398.4,211.8h-10.8v-1.6c0.9-6.7,8-7.6,8-11c0-1.6-1.4-2.5-2.9-2.5c-1.4,0-2.5,1-3.1,2.1l-2.1-1.2
			c1.1-2.1,2.7-3.3,5.1-3.3c3.1,0,5.4,1.7,5.4,4.9c0,4.9-6.4,5.3-7.7,10.2h8V211.8z"/>
		<path style="fill:#FFFFFF;" d="M403.7,198.2c-1.6,0-2.8-1.3-2.8-2.8c0-1.5,1.3-2.8,2.8-2.8c1.5,0,2.8,1.3,2.8,2.8
			C406.5,196.9,405.3,198.2,403.7,198.2z M403.7,194.2c-0.7,0-1.2,0.5-1.2,1.2s0.5,1.2,1.2,1.2c0.6,0,1.2-0.5,1.2-1.2
			S404.4,194.2,403.7,194.2z"/>
	</g>
	<path style="fill:#FFFFFF;" d="M388.1,170.4c-17.1,0-31,13.9-31,31c0,6.3,1.9,12.1,5.1,17l4.2-2.7c-2.7-4.1-4.3-9-4.3-14.3
		c0-14.4,11.6-26,26-26s26,11.6,26,26c0,5.3-1.6,10.2-4.3,14.3l4.2,2.7c3.2-4.9,5.1-10.7,5.1-17
		C419.1,184.3,405.3,170.4,388.1,170.4z"/>
	<path style="fill:#DEDFDF;" d="M412,219.5c-5.7,7.5-14.5,11.9-23.9,11.9s-18.2-4.4-23.9-11.9l-1.7,1.1c6,8,15.5,12.8,25.6,12.8
		s19.5-4.8,25.6-12.8L412,219.5z"/>
	<path style="opacity:0.5;fill:#FFFFFF;" d="M388.1,151.4c-27.6,0-50,22.4-50,50c0,13.8,5.6,26.3,14.6,35.4l70.7-70.7
		C414.4,157,401.9,151.4,388.1,151.4z"/>
	<path style="fill:#3F4041;" d="M388.1,151.4c-27.3,0-49.4,21.8-50,49h2c0.5-26,21.8-47,48-47c26.5,0,48,21.5,48,48s-21.5,48-48,48
		s-48-21.5-48-48h-2c0,27.6,22.4,50,50,50c27.6,0,50-22.4,50-50S415.8,151.4,388.1,151.4z"/>
	<path style="fill:#3F4041;" d="M414.3,219.8l-5.8-3.8l0.5-0.8c2.7-4.1,4.1-8.8,4.1-13.7c0-13.8-11.2-25-25-25s-25,11.2-25,25
		c0,4.9,1.4,9.6,4.1,13.7l0.5,0.8l-5.8,3.8l-0.5-0.8c-3.4-5.2-5.2-11.3-5.2-17.5c0-17.6,14.4-32,32-32s32,14.4,32,32
		c0,6.3-1.8,12.3-5.2,17.5L414.3,219.8z M411.2,215.3l2.5,1.6c2.9-4.7,4.4-10.1,4.4-15.6c0-16.5-13.5-30-30-30s-30,13.5-30,30
		c0,5.5,1.5,10.9,4.4,15.6l2.5-1.6c-2.5-4.2-3.9-9-3.9-14c0-14.9,12.1-27,27-27s27,12.1,27,27C415.1,206.3,413.8,211.1,411.2,215.3z
		"/>
</g>
<g>
	<g>
		<path style="fill:#DEDFDF;" d="M648.4,251.4h-80v-96c0-3.3,2.7-6,6-6h68c3.3,0,6,2.7,6,6V251.4z"/>
	</g>
	<g>
		<path style="fill:#757778;" d="M648.4,169.4v-14c0-3.3-2.7-6-6-6h-68c-3.3,0-6,2.7-6,6v14H648.4z"/>
	</g>
	<g>
		
			<ellipse transform="matrix(0.7071 -0.7071 0.7071 0.7071 71.6841 495.8323)" style="fill:#2CD5C4;" cx="634.4" cy="161.4" rx="6" ry="6"/>
	</g>
	<g>
		<g>
			<path style="fill:#FFFFFF;" d="M608.4,180.4c-16,0-29,13-29,29s13,29,29,29s29-13,29-29S624.4,180.4,608.4,180.4z"/>
		</g>
	</g>
	<g>
		<path style="fill:#DEDFDF;" d="M619.7,220.7c6.2-6.2,6.2-16.4,0-22.6l-22.6,22.6C603.3,226.9,613.4,226.9,619.7,220.7z"/>
	</g>
	<g>
		
			<ellipse transform="matrix(0.7071 -0.7071 0.7071 0.7071 67.5836 485.9328)" style="fill:#2CD5C4;" cx="620.4" cy="161.4" rx="6" ry="6"/>
	</g>
	<g>
		<g>
			<path style="fill:#2CD5C4;" d="M608.4,180.4c-16,0-29,13-29,29s13,29,29,29s29-13,29-29S624.4,180.4,608.4,180.4z M608.4,228.4
				c-10.5,0-19-8.5-19-19s8.5-19,19-19s19,8.5,19,19S618.9,228.4,608.4,228.4z"/>
		</g>
	</g>
	<path style="opacity:0.5;fill:#FFFFFF;" d="M648.4,155.4c0-3.3-2.7-6-6-6h-68c-3.3,0-6,2.7-6,6v96l80-80V155.4z"/>
	<g>
		<path style="fill:#3F4041;" d="M608.4,230.4c11.6,0,21-9.4,21-21c0-11.6-9.4-21-21-21c-9.1,0-16.9,5.9-19.8,14l2,0.3
			c2.7-7.2,9.6-12.4,17.8-12.4c10.5,0,19,8.5,19,19s-8.5,19-19,19c-8.2,0-15.1-5.1-17.8-12.4l-2,0.3
			C591.5,224.5,599.2,230.4,608.4,230.4z"/>
		<path style="fill:#3F4041;" d="M608.4,180.4c-13.1,0-24.2,8.7-27.8,20.7l2,0.3c3.4-11,13.7-19,25.8-19c14.9,0,27,12.1,27,27
			c0,14.9-12.1,27-27,27c-12.1,0-22.4-8-25.8-19l-2,0.3c3.6,12,14.7,20.7,27.8,20.7c16,0,29-13,29-29S624.4,180.4,608.4,180.4z"/>
	</g>
	<path style="fill:#FFFFFF;" d="M600.4,158.4h-24v6h24V158.4L600.4,158.4z"/>
	<path style="fill:#3F4041;" d="M598.4,160.4v2h-20v-2H598.4 M600.4,158.4h-24v6h24V158.4L600.4,158.4z"/>
	<g>
		<path style="fill:#3F4041;" d="M638.6,157.1c-1.2-1.2-2.7-1.8-4.2-1.8s-3.1,0.6-4.2,1.8c-2.3,2.3-2.3,6.1,0,8.5
			c1.2,1.2,2.7,1.8,4.2,1.8s3.1-0.6,4.2-1.8C641,163.3,641,159.5,638.6,157.1z M637.2,164.2c-0.8,0.8-1.8,1.2-2.8,1.2
			s-2.1-0.4-2.8-1.2c-1.6-1.6-1.6-4.1,0-5.7c0.8-0.8,1.8-1.2,2.8-1.2c0.7,0,1.4,0.2,2,0.6l-2.7,2.7l1.4,1.4l2.7-2.7
			C638.7,160.9,638.5,162.9,637.2,164.2z"/>
		<path style="fill:#3F4041;" d="M620.4,155.4c-1.5,0-3.1,0.6-4.2,1.8c-2.3,2.3-2.3,6.1,0,8.5c1.2,1.2,2.7,1.8,4.2,1.8
			s3.1-0.6,4.2-1.8c2.3-2.3,2.3-6.1,0-8.5C623.4,156,621.9,155.4,620.4,155.4z M623.2,164.2c-0.8,0.8-1.8,1.2-2.8,1.2
			s-2.1-0.4-2.8-1.2c-1.6-1.6-1.6-4.1,0-5.7c0.8-0.8,1.8-1.2,2.8-1.2c0.7,0,1.4,0.2,2,0.6l-2.7,2.7l1.4,1.4l2.7-2.7
			C624.7,160.9,624.5,162.9,623.2,164.2z"/>
	</g>
	<path style="fill:#3F4041;" d="M581.8,204.3l5.9,1c-0.3,1.3-0.4,2.7-0.4,4.1c0,1.4,0.1,2.7,0.4,4.1l-5.9,1
		c-0.3-1.7-0.5-3.4-0.5-5.1S581.5,206,581.8,204.3 M580.3,202c-0.6,2.3-0.9,4.8-0.9,7.3s0.3,5,0.9,7.3l9.9-1.7
		c-0.6-1.8-0.9-3.7-0.9-5.7c0-2,0.3-3.9,0.9-5.7L580.3,202L580.3,202z"/>
	<g>
		<path style="fill:#3F4041;" d="M642.4,149.4h-68c-3.3,0-6,2.7-6,6v13h2v-13c0-2.2,1.8-4,4-4h68c2.2,0,4,1.8,4,4v12.5v1.5v2v1.2
			v0.8v2v1.8v72.2h-76v-68.8v-5.2v-2v-1.2v-0.8h75v-2h-74.3h-0.7h-2v6v76h80v-76v-6v-14C648.4,152.1,645.7,149.4,642.4,149.4z"/>
		<rect x="571.4" y="173.4" style="fill:#3F4041;" width="74" height="2"/>
	</g>
</g>
<g>
	<g>
		<path style="fill:#DEDFDF;" d="M539.5,253.4h-72v-164c0-2.2,1.8-4,4-4h64c2.2,0,4,1.8,4,4V253.4z"/>
	</g>
	<g>
		<path style="fill:#757778;" d="M476.5,184.4v-62c0-5-4-9-9-9v80C472.5,193.4,476.5,189.4,476.5,184.4z"/>
	</g>
	<g>
		<path style="fill:#2CD5C4;" d="M521.5,179.4h-16c-2.2,0-4-1.8-4-4v-58c0-2.2,1.8-4,4-4h16c2.2,0,4,1.8,4,4v58
			C525.5,177.6,523.8,179.4,521.5,179.4z"/>
	</g>
	<g>
		<rect x="506.5" y="119.4" style="fill:#FFFFFF;" width="14" height="6"/>
	</g>
	<path style="opacity:0.5;fill:#FFFFFF;" d="M539.5,136.2V89.4c0-2.2-1.8-4-4-4h-64c-2.2,0-4,1.8-4,4v118.8L539.5,136.2z"/>
	<g>
		<g>
			<path style="fill:#3F4041;" d="M503.5,95.4c0.6,0,1,0.4,1,1s-0.4,1-1,1s-1-0.4-1-1S503,95.4,503.5,95.4 M503.5,93.4
				c-1.7,0-3,1.3-3,3s1.3,3,3,3s3-1.3,3-3S505.2,93.4,503.5,93.4L503.5,93.4z"/>
		</g>
		<g>
			<circle style="fill:#FFFFFF;" cx="503.5" cy="96.4" r="2"/>
			<path style="fill:#3F4041;" d="M503.5,95.4c0.6,0,1,0.4,1,1s-0.4,1-1,1s-1-0.4-1-1S503,95.4,503.5,95.4 M503.5,93.4
				c-1.7,0-3,1.3-3,3s1.3,3,3,3s3-1.3,3-3S505.2,93.4,503.5,93.4L503.5,93.4z"/>
		</g>
	</g>
	<g>
		<path style="fill:#3F4041;" d="M535.5,85.4h-64c-2.2,0-4,1.8-4,4v24v26v2h2h5h2v-2v-17c0-3.9-2.5-7.2-6-8.5v2.2
			c2.4,1.1,4,3.5,4,6.3v17h-5v-15.8v-7.9v-2.1V89.4c0-1.1,0.9-2,2-2h64c1.1,0,2,0.9,2,2v53h-1h-60h-2h-5h-2v2v49v60h72v-108h-2v106
			h-68v-58v-0.2v-2.1v-7.7v-39h5h2h54.7h6.3h2v-2v-53C539.5,87.2,537.8,85.4,535.5,85.4z"/>
		<path style="fill:#3F4041;" d="M474.5,184.4c0,2.8-1.6,5.2-4,6.3v2.2c3.5-1.2,6-4.6,6-8.5v-39h-2V184.4z"/>
	</g>
	<path style="fill:#3F4041;" d="M523.5,145.4v30c0,1.1-0.9,2-2,2h-16c-1.1,0-2-0.9-2-2v-30h-2v30c0,2.2,1.8,4,4,4h16
		c2.2,0,4-1.8,4-4v-30H523.5z"/>
	<path style="fill:#3F4041;" d="M503.5,141.4v-24c0-1.1,0.9-2,2-2h16c1.1,0,2,0.9,2,2v24h2v-24c0-2.2-1.8-4-4-4h-16
		c-2.2,0-4,1.8-4,4v24H503.5z"/>
	<g>
		<path style="fill:#3F4041;" d="M518.5,121.4v2h-10v-2H518.5 M520.5,119.4h-14v6h14V119.4L520.5,119.4z"/>
	</g>
</g>
<g>
	<path style="opacity:0.7;fill:#ACADAE;enable-background:new    ;" d="M258.3,363.9c0-3.3-2.7-6-6-6H76.7c-3.3,0-6,2.7-6,6
		s2.7,6,6,6h175.6C255.6,369.9,258.3,367.2,258.3,363.9z"/>
	<g>
		<circle style="fill:#2CD5C4;" cx="165.2" cy="240.9" r="120"/>
	</g>
	<path style="fill:#DEDFDF;" d="M165.2,360.9c28.2,0,54.1-9.7,74.6-26l-9.6-10.2h-41.7c0,6-10.4,10.3-23.2,10.3
		c-12.8,0-23.2-4.2-23.2-10.3h-40.7l-10.1,10.7C111.7,351.4,137.3,360.9,165.2,360.9z"/>
	<path style="fill:#9EA0A0;" d="M234.7,223.1c1.8-12.2,3.4-24.9-0.9-38.6c-9.1-29.2-35.8-49.2-66.5-49.8l-0.4,0c-0.3,0-0.5,0-0.8,0
		l-0.4,0l-0.4,0c-0.2,0-0.5,0-0.8,0c0,0-0.4,0-0.4,0c-30.6,0.6-57.3,20.6-66.4,49.8c-4.2,13.4-2.8,25.8-1,37.8l-9.9,9.9v13.5
		l10.8,10.8h22v-10.8v-13.5v-10.8h-1.8c0.7-1.9,1.7-4.3,3-7c3.2-6.5,9-16.2,19-26.7c6.4,1.7,18.6,5.1,31.4,10.3
		c18.1,7.3,31.8,15.6,39.5,24.1v10.1v13.5v10.8h22l10.8-10.8v-13.5L234.7,223.1z M173.7,192c-16-6.4-30.9-10.2-35.7-11.4
		c-12.1,12-19,23.4-22.7,30.9c-2,4-3.3,7.4-4.1,9.8h-8.1c-1.7-11.7-3-22.9,0.8-35c8.3-26.6,32.6-44.8,60.5-45.3l0.3,0
		c0.2,0,0.4,0,0.7,0l0.5,0l0.4,0c0.2,0,0.4,0,0.7,0l0.3,0c27.9,0.5,52.2,18.7,60.5,45.3c3.8,12.1,2.5,23.3,0.8,35h-9.9
		C210.7,210.8,195.4,200.7,173.7,192z"/>
	<path style="fill:#FFFFFF;" d="M224.7,187.3c-7.7-24.6-30.5-42.6-57.5-43.1c-0.5,0-0.9,0-1.4,0c-0.5,0-0.9,0-1.4,0
		c-27,0.5-49.8,18.5-57.5,43.1c-4.4,13.9-1.6,27,0.5,41l7.1,49.5c1.5,10.4,7,19.8,15.3,26.3l12.5,9.7c0,0,0,0,0,0
		c0,0,23.2,0,23.2-0.1h0.5c0,0,23.2,0.1,23.2,0.1c0,0,0,0,0,0l12.5-9.7c8.3-6.4,13.8-15.9,15.3-26.3l7.1-49.5
		C226.3,214.3,229.1,201.3,224.7,187.3z"/>
	<path style="fill:#757778;" d="M224.7,187.3c-7.7-24.6-30.5-42.6-57.5-43.1c-0.5,0-0.9,0-1.4,0c-0.5,0-0.9,0-1.4,0
		c-27,0.5-49.8,18.5-57.5,43.1c-4,12.8-2,24.9,0,37.7c0,0,0,0,0,0c0,0,4.4-22.9,30.2-47.9c0,0,71.5,15.7,87.7,48.1l0,0
		C226.7,212.4,228.8,200.2,224.7,187.3z"/>
	<path style="fill:none;stroke:#3F4041;stroke-width:2;stroke-miterlimit:10;" d="M165.3,294.9c7.6,0,13.8-6.2,13.8-13.8h-27.6
		C151.5,288.7,157.7,294.9,165.3,294.9z"/>
	<path style="fill:#FFFFFF;" d="M142.3,311.9v11.4c-0.1,0.4-0.2,0.9-0.2,1.3c0,6,10.4,10.9,23.2,10.9c12.8,0,23.2-4.9,23.2-10.9h0.8
		v-12.8H142.3z"/>
	<path style="fill:#3F4041;" d="M186.4,327.7c-2.9,4-11.4,6.9-21.1,6.9s-18.2-2.9-21.1-6.9h-2.3c2.6,5.2,12,8.9,23.5,8.9
		c11.5,0,20.8-3.7,23.4-8.9H186.4z"/>
	<path style="fill:#3F4041;" d="M145.3,312.9v2c5.7,0,20.3,0,20.3-0.1h0.5c0,0,14.6,0.1,20.3,0.1v-2H145.3z"/>
	<path style="opacity:0.5;fill:#FFFFFF;" d="M45.3,237v7.8c1,31.6,14.2,60.1,35.1,80.9l169.7-169.7c-21.7-21.7-51.7-35.2-84.9-35.2
		C100.3,120.9,47.4,172.6,45.3,237z"/>
	<path style="fill:#3F4041;" d="M165.2,122.9c31.5,0,61.1,12.3,83.4,34.6c22.3,22.3,34.6,51.9,34.6,83.4s-12.3,61.1-34.6,83.4
		c-22.3,22.3-51.9,34.6-83.4,34.6s-61.1-12.3-83.4-34.6c-22.3-22.3-34.6-51.9-34.6-83.4s12.3-61.1,34.6-83.4
		C104.1,135.2,133.7,122.9,165.2,122.9 M165.2,120.9c-66.3,0-120,53.7-120,120s53.7,120,120,120c66.3,0,120-53.7,120-120
		S231.5,120.9,165.2,120.9L165.2,120.9z"/>
	<path style="fill:#3F4041;" d="M222.8,187.9c3.7,11.9,2,23.3,0.2,35.4c-0.2,1.6-0.5,3.2-0.7,4.8l-7.1,49.5
		c-0.5,3.3-1.4,6.5-2.6,9.5h2.2c1.2-2.9,2-6,2.5-9.2l7.1-49.5c2-14,4.8-27.1,0.5-41c-7.7-24.6-30.5-42.6-57.5-43.1
		c-0.1,0-0.2,0-0.3,0c-0.4,0-0.7,0-1.1,0c-0.4,0-0.7,0-1.1,0c-0.1,0-0.2,0-0.3,0c-27,0.5-49.8,18.5-57.5,43.1
		c-4.4,13.9-1.6,27,0.5,41l7.1,49.5c1.5,10.4,7,19.8,15.3,26.3l12.5,9.7v9.4c-0.1,0.4-0.2,0.9-0.2,1.3h-40.7l-8.1,8.5
		c0.5,0.4,1.1,0.8,1.6,1.2l7.3-7.8h39.8h2l0.2-13.8l-0.8-0.6l-12.5-9.7c-7.9-6.2-13.1-15-14.5-25l-7.1-49.5
		c-0.2-1.6-0.5-3.2-0.7-4.8c-1.8-12.1-3.5-23.4,0.2-35.4c7.7-24.5,30-41.2,55.7-41.7l0.2,0c0.2,0,0.4,0,0.6,0c0.2,0,0.4,0,0.6,0
		c0.2,0,0.4,0,0.5,0c0.2,0,0.4,0,0.6,0l0.2,0C192.8,146.7,215.2,163.5,222.8,187.9z"/>
	<path style="fill:#3F4041;" d="M230.2,324.7h-40.9v-10.8l12.5-9.7c3.1-2.4,5.8-5.2,8-8.3h-2.5c-1.9,2.5-4.2,4.7-6.8,6.7l-12.5,9.7
		l-0.8,0.6v1v12.8h2h40l6.8,7.2c0.5-0.4,1.1-0.8,1.6-1.2L230.2,324.7z"/>
	<path style="fill:#3F4041;" d="M228.5,223.4h1.7l0.3-1.7c1.8-12.3,3-23.5-0.8-35.9c-8.6-27.4-33.6-46.2-62.4-46.7l-0.3,0
		c-0.2,0-0.5,0-0.7,0l-0.4,0l-0.4,0c-0.2,0-0.5,0-0.7,0c0,0,0,0,0,0l-0.3,0c-28.7,0.5-53.8,19.3-62.4,46.7
		c-3.9,12.4-2.7,23.6-0.8,35.9l0.3,1.7h1.7h2.5c-0.1-0.7-0.2-1.3-0.3-2h-2.2c-1.7-11.7-3-22.9,0.8-35c8.3-26.6,32.6-44.8,60.5-45.3
		l0.3,0c0.2,0,0.4,0,0.7,0l0.5,0l0.4,0c0.2,0,0.4,0,0.7,0l0.3,0c27.9,0.5,52.2,18.7,60.5,45.3c3.8,12.1,2.5,23.3,0.8,35h-2.2
		c-0.1,0.7-0.2,1.3-0.3,2H228.5z"/>
	<path style="fill:#3F4041;" d="M234.7,223.1c1.8-12.2,3.4-24.9-0.9-38.6c-9.1-29.2-35.8-49.2-66.5-49.8l-0.4,0c-0.3,0-0.5,0-0.8,0
		l-0.4,0l-0.4,0c-0.2,0-0.5,0-0.8,0c0,0-0.4,0-0.4,0c-30.6,0.6-57.3,20.6-66.4,49.8c-4.2,13.4-2.8,25.8-1,37.8l-9.9,9.9v13.5
		l10.8,10.8h12.7l-0.3-2H98.5l-9.6-9.6V233l9.3-9.3l0.7-0.7l-0.1-1c-1.8-12.1-3.1-24.1,0.9-36.9c8.9-28.4,34.8-47.8,64.6-48.4l0.4,0
		c0.3,0,0.5,0,0.7,0l0.1,0l0.4,0l0,0l0,0l0.4,0c0.2,0,0.5,0,0.7,0l0.4,0c29.8,0.5,55.7,20,64.6,48.4c4,12.9,2.7,24.7,0.8,37.8
		l-0.1,1l0.7,0.7l8.4,8.4v11.8l-9.6,9.6h-10.5l-0.3,2h11.7l10.8-10.8v-13.5L234.7,223.1z"/>
	<polygon style="fill:#9EA0A0;" points="201.8,293.9 227.1,293.9 231.9,293.9 231.9,289.1 231.9,258.8 227.1,258.8 227.1,289.1 
		201.8,289.1 201.8,286.7 185.9,286.7 185.9,296.3 201.8,296.3 	"/>
	<path style="fill:#3F4041;" d="M202.8,297.3h-17.9v-11.5h17.9v2.4h23.4v-30.3h6.8v37.1h-30.1V297.3z M186.9,295.3h13.9v-2.4h30.1
		v-33.1h-2.8v30.3h-27.4v-2.4h-13.9V295.3z"/>
	<circle style="fill:#3F4041;" cx="188.7" cy="238.9" r="4.8"/>
	<polygon style="fill:#3F4041;" points="160.5,268.6 160.5,238.9 159,238.9 159,270.2 171.6,270.2 171.6,268.6 	"/>
	<circle style="fill:#3F4041;" cx="141.9" cy="238.9" r="4.8"/>
	<path style="fill:none;stroke:#3F4041;stroke-width:2;stroke-miterlimit:10;" d="M149.5,228.8c-2.1-1.6-4.7-2.5-7.6-2.5
		c-3.1,0-5.9,1.1-8.1,2.9"/>
	<path style="fill:none;stroke:#3F4041;stroke-width:2;stroke-miterlimit:10;" d="M196.5,228.8c-2.1-1.6-4.7-2.5-7.6-2.5
		c-3.1,0-5.9,1.1-8.1,2.9"/>
	<path style="fill:#3F4041;" d="M222.3,221.2c0.1-1,0.3-1.9,0.4-2.9c-8.5-11.5-24.3-21.9-47.2-31.1c-19.8-7.9-37.9-12-38.1-12
		l-1-0.2l-0.8,0.7c-15.5,15.1-23.4,29.3-27.3,38.5c0.2,1.4,0.4,2.7,0.5,4.1c3.2-8.6,10.8-24.4,28.1-41.2
		C137,177.2,202.5,191.6,222.3,221.2z"/>
	<polygon style="fill:#3F4041;" points="161,268.2 161,238.9 159,238.9 159,268.2 159,270.2 161,270.2 171.6,270.2 171.6,268.2 	"/>
</g>
<path style="fill:#3F4041;" d="M677.7,28.1V274H365.6h-0.8l-0.6,0.6l-54.5,54.5V276V28.1H677.7 M679.7,26.1h-372V276v57.9l57.9-57.9
	h314.1V26.1L679.7,26.1z"/>
<g>
	<path style="fill:#757778;" d="M438.7,114.2V52.3h-59.9h-43h-0.6H334V78v36.2h47.6v8.3h-11.9v7.1h11.9h9.5H403v-7.1h-11.9v-8.3
		H438.7z"/>
	<rect x="340" y="58.3" style="fill:#DEDFDF;" width="92.8" height="50"/>
	<polygon style="fill:#2CD5C4;" points="401,83.3 372.3,94.7 372.3,73.6 401,83.3 	"/>
	<polygon style="opacity:0.5;fill:#FCFCFC;" points="334,52.3 334,114.2 356.6,114.2 418.5,52.3 	"/>
	<g>
		<path style="fill:#3F4041;" d="M430.8,60.3v46H342v-46H430.8 M432.8,58.3H340v50h92.8V58.3L432.8,58.3z"/>
	</g>
	<polygon style="fill:#3F4041;" points="438.7,114.2 438.7,52.3 337,52.3 337,54.3 436.7,54.3 436.7,112.2 389.1,112.2 389.1,124.5 
		401,124.5 401,127.7 371.7,127.7 371.7,124.5 383.6,124.5 383.6,112.2 336,112.2 336,78 336,52.3 334,52.3 334,78 334,114.2 
		381.6,114.2 381.6,122.5 369.7,122.5 369.7,129.7 403,129.7 403,122.5 391.1,122.5 391.1,114.2 	"/>
	<path style="fill:#3F4041;" d="M371.3,96.2v-24l32.7,11L371.3,96.2z M373.3,75v18.3l24.8-9.9L373.3,75z"/>
</g>
<g>
	<path style="fill:#DFE0E0;" d="M639.4,99.6c-0.2,0-0.5,0-0.7,0.1c-0.1,0-0.1,0-0.2,0c-0.2,0.1-0.5,0.1-0.7,0.2c0,0,0,0,0,0
		c-0.1,0.1-0.3,0.1-0.4,0.2c-0.1,0-0.1,0.1-0.2,0.1c0,0-0.1,0.1-0.1,0.1c-0.2,0.1-0.4,0.3-0.5,0.4c0,0-0.1,0.1-0.1,0.1
		c-0.1,0.1-0.2,0.3-0.3,0.4c0,0.1-0.1,0.1-0.1,0.2c-0.1,0.2-0.2,0.3-0.3,0.5c0,0.1-0.1,0.2-0.1,0.3c0,0.1-0.1,0.2-0.1,0.4
		c0,0.1-0.1,0.2-0.1,0.4c0,0.1,0,0.3-0.1,0.4l0,0c0,0.1,0,0.1,0,0.2v0.8l-6.9-1.8l-3.8-6.6l7.8-4.5l-2.5-4.3l17.3-10l-7-12.1
		l-4.5-7.8l-2-3.5c-1.1-1.9-3.6-2.6-5.5-1.5l-70.1,40.5l18.9,8.7l7,12.1l29.4-17l2.5,4.3l6.9-4l4.2,7.3l8.2,2.2l0,3.1
		c0,2.2,1.8,4,4,4h9v-14L639.4,99.6z"/>
	<polygon style="fill:#95EAE1;" points="577.1,101.6 573,99.7 565.2,102.6 572.2,114.7 580.9,108.2 	"/>
	<path style="opacity:0.5;fill:#FFFFFF;" d="M633.8,53.8c-1.1-1.9-3.6-2.6-5.5-1.5l-70.1,40.5l15.6,7.2h0l-0.8-0.4l-7.8,2.8l7,12.1
		l8.7-6.5l-0.6-1l2.4,4.1l53.4-53.4l-0.3-0.6L633.8,53.8z"/>
	<path style="fill:#FFFFFF;" d="M632.3,70.8c-2.4,1.4-3.2,4.4-1.8,6.8c1.4,2.4,4.4,3.2,6.8,1.8c2.4-1.4,3.2-4.4,1.8-6.8
		C637.8,70.2,634.7,69.4,632.3,70.8L632.3,70.8z"/>
	<polygon style="fill:#3F4041;" points="579.3,106.9 572.8,111.7 568.2,103.6 574.6,101.3 572,100.1 565.2,102.6 572.2,114.7 
		580.3,108.7 	"/>
	<circle style="fill:#3F4041;" cx="642.4" cy="106.6" r="2"/>
	<path style="fill:#3F4041;" d="M628.4,52.4l-70.1,40.5l18.9,8.7l7,12.1l29.4-17l2.5,4.3l6.9-4l4.2,7.3l8.2,2.2v3.1c0,2.2,1.8,4,4,4
		l9,0v-14l-9,0c-0.7,0-1.4,0.2-2,0.5c-1.1,0.7-1.9,1.9-2,3.3l2,0.5v-0.3c0-0.7,0.4-1.4,1-1.7c0.3-0.2,0.6-0.3,1-0.3l7,0v10l-7,0
		c-0.5,0-1-0.2-1.4-0.6c-0.4-0.4-0.6-0.9-0.6-1.4l0-3.5l0-1.2l-8.9-2.4l-3.8-6.6l-1-1.7l-6.9,4l-0.5-0.9l-0.5-0.9l-0.5-0.9l-1-1.7
		l-1.7,1l-27.7,16l-6-10.4l-0.3-0.5l-0.6-0.3l-15.4-7.1l66.8-38.6c1-0.6,2.2-0.2,2.7,0.7l2,3.5l4.5,7.8l6,10.4l-15.6,9l-1.7,1l1,1.7
		l0.5,0.9l0.5,0.9l0.5,0.9l-5.2,3l1,1.7l6.9-4l-2.5-4.3l17.3-10l-7-12.1l-4.5-7.8l-2-3.5C632.7,51.9,630.3,51.3,628.4,52.4z"/>
	
		<rect x="574.9" y="81.3" transform="matrix(0.866 -0.5 0.5 0.866 40.3648 315.2071)" style="fill:#3F4041;" width="67" height="2"/>
	<path style="fill:#3F4041;" d="M633.3,72.5c1.4-0.8,3.3-0.3,4.1,1.1c0.8,1.4,0.3,3.3-1.1,4.1s-3.3,0.3-4.1-1.1
		C631.4,75.2,631.9,73.3,633.3,72.5 M632.3,70.8c-2.4,1.4-3.2,4.4-1.8,6.8c1.4,2.4,4.4,3.2,6.8,1.8c2.4-1.4,3.2-4.4,1.8-6.8
		C637.8,70.2,634.7,69.4,632.3,70.8L632.3,70.8z"/>
</g>
</svg>
