<?xml version="1.0" encoding="UTF-8" standalone="no"?>
<!-- Generator: Adobe Illustrator 21.0.2, SVG Export Plug-In . SVG Version: 6.00 Build 0)  -->

<svg
   xmlns:dc="http://purl.org/dc/elements/1.1/"
   xmlns:cc="http://creativecommons.org/ns#"
   xmlns:rdf="http://www.w3.org/1999/02/22-rdf-syntax-ns#"
   xmlns:svg="http://www.w3.org/2000/svg"
   xmlns="http://www.w3.org/2000/svg"
   xmlns:sodipodi="http://sodipodi.sourceforge.net/DTD/sodipodi-0.dtd"
   xmlns:inkscape="http://www.inkscape.org/namespaces/inkscape"
   version="1.1"
   id="Layer_1"
   x="0px"
   y="0px"
   viewBox="0 0 725 400"
   style="enable-background:new 0 0 725 400;"
   xml:space="preserve"
   inkscape:version="0.91 r13725"
   sodipodi:docname="iot3-front-page.svg"><metadata
     id="metadata7084"><rdf:RDF><cc:Work
         rdf:about=""><dc:format>image/svg+xml</dc:format><dc:type
           rdf:resource="http://purl.org/dc/dcmitype/StillImage" /><dc:title></dc:title></cc:Work></rdf:RDF></metadata><defs
     id="defs7082" /><sodipodi:namedview
     pagecolor="#ffffff"
     bordercolor="#666666"
     borderopacity="1"
     objecttolerance="10"
     gridtolerance="10"
     guidetolerance="10"
     inkscape:pageopacity="0"
     inkscape:pageshadow="2"
     inkscape:window-width="1676"
     inkscape:window-height="1027"
     id="namedview7080"
     showgrid="false"
     inkscape:zoom="0.74275862"
     inkscape:cx="564.63415"
     inkscape:cy="281.84608"
     inkscape:window-x="1920"
     inkscape:window-y="19"
     inkscape:window-maximized="0"
     inkscape:current-layer="g6984" /><g
     id="g6798"
     transform="translate(78.087279,-617.96657)"><path
       style="opacity:0.7;fill:#acadae;enable-background:new"
       d="m 456.3,363.9 c 0,-3.3 -2.7,-6 -6,-6 l -175.6,0 c -3.3,0 -6,2.7 -6,6 0,3.3 2.7,6 6,6 l 175.6,0 c 3.3,0 6,-2.7 6,-6 z"
       id="path6800"
       inkscape:connector-curvature="0" /><g
       id="g6802"><circle
         style="fill:#2cd5c4"
         cx="362.5"
         cy="243.89999"
         r="120"
         id="circle6804" /></g><path
       style="fill:#ffffff"
       d="m 449.9,232.7 -175.3,0 0,92.8 c 21.9,23.6 53.2,38.3 87.9,38.3 34.5,0 65.5,-14.5 87.4,-37.8 l 0,-93.3 z"
       id="path6806"
       inkscape:connector-curvature="0" /><g
       id="g6808"><path
         style="fill:#2cd5c4"
         d="m 323.6,266.7 c -15.4,0 -27.9,12.5 -27.9,27.9 l 55.9,0 c 0,-15.4 -12.5,-27.9 -28,-27.9 z"
         id="path6810"
         inkscape:connector-curvature="0" /><path
         style="fill:#2cd5c4"
         d="m 400.9,266.7 c -15.4,0 -27.9,12.5 -27.9,27.9 l 55.9,0 c -0.1,-15.4 -12.6,-27.9 -28,-27.9 z"
         id="path6812"
         inkscape:connector-curvature="0" /></g><polygon
       style="fill:#757778"
       points="314,195.8 314,183 318.4,183 318.4,174.3 293,174.3 293,183 297.4,183 297.4,211.3 274.6,232.7 362.3,232.7 449.9,232.7 362.3,150.6 "
       id="polygon6814" /><path
       style="opacity:0.5;fill:#ffffff"
       d="m 242.6,240 0,7.8 c 1,31.6 14.2,60.1 35.1,80.9 L 447.4,159 C 425.7,137.3 395.7,123.8 362.5,123.8 297.6,123.9 244.7,175.6 242.6,240 Z"
       id="path6816"
       inkscape:connector-curvature="0" /><path
       style="fill:#3f4041"
       d="m 449.9,321.6 0,-88.9 -87.7,-82.1 -48.2,45.2 0,-12.8 4.4,0 0,-8.7 -25.4,0 0,8.7 4.4,0 0,28.4 -22.8,21.4 0,88.4 c 0.7,0.7 1.3,1.5 2,2.2 l 0,-89.7 22.2,-20.8 0.6,-0.6 0,-0.9 0,-28.4 0,-2 -2,0 -2.4,0 0,-4.7 21.3,0 0,4.7 -2.3,0 -2,0 0,2 0,12.8 0,4.6 3.4,-3.2 46.9,-43.9 85.7,80.2 0,90.2 c 0.6,-0.6 1.3,-1.4 1.9,-2.1 z"
       id="path6818"
       inkscape:connector-curvature="0" /><path
       style="fill:#3f4041"
       d="m 362.5,125.9 c 31.5,0 61.1,12.3 83.4,34.6 22.3,22.3 34.6,51.9 34.6,83.4 0,31.5 -12.3,61.1 -34.6,83.4 -22.3,22.3 -51.9,34.6 -83.4,34.6 -31.5,0 -61.1,-12.3 -83.4,-34.6 -22.3,-22.3 -34.6,-51.9 -34.6,-83.4 0,-31.5 12.3,-61.1 34.6,-83.4 22.3,-22.3 51.9,-34.6 83.4,-34.6 m 0,-2 c -66.3,0 -120,53.7 -120,120 0,66.3 53.7,120 120,120 66.3,0 120,-53.7 120,-120 0,-66.3 -53.7,-120 -120,-120 l 0,0 z"
       id="path6820"
       inkscape:connector-curvature="0" /><polygon
       style="fill:#3f4041"
       points="280.2,231.6 278.1,233.6 446.5,233.6 444.3,231.6 "
       id="polygon6822" /><polygon
       style="fill:#3f4041"
       points="345,170.9 379.6,170.9 377.4,168.9 347.1,168.9 "
       id="polygon6824" /><polygon
       style="fill:#3f4041"
       points="419.7,208.5 417.6,206.5 307,206.5 304.8,208.5 "
       id="polygon6826" /><polygon
       style="fill:#3f4041"
       points="293.6,219 291.4,221 433.1,221 430.9,219 "
       id="polygon6828" /><polygon
       style="fill:#3f4041"
       points="331.6,183.5 392.9,183.5 390.8,181.5 333.7,181.5 "
       id="polygon6830" /><polygon
       style="fill:#3f4041"
       points="318.2,196 406.3,196 404.2,194 320.3,194 "
       id="polygon6832" /><g
       id="g6834"><g
         id="g6836"><path
           style="fill:#3f4041"
           d="m 323.6,268.7 c 13.6,0 24.8,10.6 25.9,23.9 l -51.7,0 c 1,-13.3 12.2,-23.9 25.8,-23.9 m 0,-2 c -15.4,0 -27.9,12.5 -27.9,27.9 l 55.9,0 c 0,-15.4 -12.5,-27.9 -28,-27.9 l 0,0 z"
           id="path6838"
           inkscape:connector-curvature="0" /></g><g
         id="g6840"><path
           style="fill:#3f4041"
           d="m 400.9,268.7 c 13.6,0 24.8,10.6 25.9,23.9 l -51.8,0 c 1,-13.3 12.3,-23.9 25.9,-23.9 m 0,-2 c -15.4,0 -27.9,12.5 -27.9,27.9 l 55.9,0 c -0.1,-15.4 -12.6,-27.9 -28,-27.9 l 0,0 z"
           id="path6842"
           inkscape:connector-curvature="0" /></g></g><path
       style="fill:#dedfdf"
       d="m 362.3,341.6 c 7.6,0 13.8,-6.2 13.8,-13.8 l -27.6,0 c -0.1,7.6 6.1,13.8 13.8,13.8 z"
       id="path6844"
       inkscape:connector-curvature="0" /><path
       style="fill:#3f4041"
       d="m 376.1,327.8 c 0,7.6 -6.2,13.8 -13.8,13.8 -7.6,0 -13.8,-6.2 -13.8,-13.8 l 27.6,0 m 2,-2 -2,0 -27.6,0 -2,0 0,2 c 0,8.7 7.1,15.8 15.8,15.8 8.7,0 15.8,-7.1 15.8,-15.8 l 0,-2 0,0 z"
       id="path6846"
       inkscape:connector-curvature="0" /></g><g
     id="g6848"><path
       style="fill:#2CD5C4;"
       d="M364.5,61.8C364.5,61.8,364.4,61.8,364.5,61.8c-0.1,0-0.1,0-0.1,0c0,0,0,0-0.1,0c0,0,0,0,0,0   c0,0,0,0-0.1,0c0,0,0,0,0,0c0,0,0,0-0.1,0c0,0,0,0,0,0c0,0,0,0-0.1,0c0,0,0,0,0,0c0,0,0,0-0.1,0c0,0,0,0,0,0c0,0,0,0-0.1,0   c0,0,0,0,0,0c0,0,0,0-0.1,0c0,0,0,0,0,0c0,0,0,0-0.1,0c0,0,0,0,0,0c0,0,0,0-0.1,0c0,0,0,0,0,0c0,0,0,0-0.1,0c0,0,0,0,0,0   c0,0,0,0-0.1,0c0,0,0,0,0,0c0,0,0,0-0.1,0c0,0,0,0,0,0c0,0,0,0-0.1,0c0,0,0,0,0,0c0,0-0.1,0-0.1,0c0,0,0,0,0,0c0,0,0,0-0.1,0   c0,0,0,0,0,0c0,0,0,0-0.1,0c0,0,0,0,0,0c0,0-0.1,0-0.1,0c0,0,0,0,0,0c0,0-0.1,0-0.1,0h0c-1.4,0-2.8,0-4.1,0.1l0,2c2,0,4-0.1,6-0.1   V61.8L364.5,61.8L364.5,61.8z M352.5,62.1c-1.5,0.1-3,0.2-4.5,0.3l0,0c0,0-0.1,0-0.1,0c0,0,0,0,0,0c0,0-0.1,0-0.1,0c0,0,0,0,0,0   c0,0,0,0-0.1,0c0,0,0,0,0,0c0,0,0,0,0,0c0,0,0,0-0.1,0c0,0,0,0,0,0c-0.4,0-0.7,0.1-1.1,0.1l0.1,2c2-0.1,4-0.3,5.9-0.4L352.5,62.1   L352.5,62.1z M340.5,62.9c-0.7,0.1-1.4,0.1-2.1,0.2h0c0,0-0.1,0-0.1,0l0,0c0,0-0.1,0-0.1,0l0,0c0,0-0.1,0-0.1,0c0,0,0,0,0,0   c0,0-0.1,0-0.1,0c0,0,0,0,0,0c0,0-0.1,0-0.1,0c0,0,0,0,0,0c0,0-0.1,0-0.1,0l0,0c0,0-0.1,0-0.1,0l0,0c0,0-0.1,0-0.1,0l0,0   c0,0-0.1,0-0.1,0l0,0c0,0-0.1,0-0.1,0l0,0c0,0-0.1,0-0.1,0l0,0c0,0-0.1,0-0.1,0l0,0c0,0-0.1,0-0.1,0l0,0c0,0-0.1,0-0.1,0l0,0   c-0.8,0.1-1.7,0.2-2.5,0.3l0.2,2c2-0.2,3.9-0.5,5.9-0.7L340.5,62.9L340.5,62.9z M328.6,64.4c-1.1,0.2-2.2,0.3-3.2,0.5c0,0,0,0,0,0   c0,0,0,0-0.1,0c0,0,0,0,0,0c0,0,0,0,0,0c0,0-0.1,0-0.1,0c0,0,0,0,0,0c-0.8,0.1-1.6,0.3-2.4,0.4l0.3,2c1.9-0.3,3.9-0.7,5.9-0.9   L328.6,64.4L328.6,64.4z M316.8,66.5c-0.4,0.1-0.9,0.2-1.3,0.3c-1.5,0.3-3,0.6-4.5,1l0.4,2c1.9-0.4,3.9-0.8,5.8-1.2L316.8,66.5   L316.8,66.5z M305.1,69.1c-0.2,0-0.3,0.1-0.5,0.1l0,0c0,0-0.1,0-0.1,0l0,0c0,0,0,0-0.1,0c0,0,0,0,0,0c0,0,0,0-0.1,0c0,0,0,0,0,0   c0,0,0,0,0,0c0,0,0,0,0,0c0,0,0,0,0,0c0,0,0,0-0.1,0c0,0,0,0,0,0c0,0,0,0-0.1,0c0,0,0,0,0,0c0,0,0,0-0.1,0c0,0,0,0,0,0   c0,0,0,0-0.1,0c0,0,0,0,0,0c0,0,0,0-0.1,0c0,0,0,0,0,0c0,0,0,0-0.1,0c0,0,0,0,0,0c0,0,0,0-0.1,0c0,0,0,0,0,0c0,0,0,0-0.1,0   c0,0,0,0,0,0c0,0,0,0-0.1,0c0,0,0,0,0,0c0,0,0,0-0.1,0c0,0,0,0,0,0c0,0,0,0-0.1,0c0,0,0,0,0,0c0,0,0,0-0.1,0c0,0,0,0,0,0   c0,0,0,0-0.1,0c0,0,0,0,0,0c0,0,0,0-0.1,0c0,0,0,0,0,0c0,0,0,0-0.1,0c0,0,0,0,0,0c0,0,0,0-0.1,0c0,0,0,0,0,0c0,0,0,0-0.1,0   c0,0,0,0,0,0c0,0,0,0-0.1,0c0,0,0,0,0,0c0,0,0,0-0.1,0c0,0,0,0,0,0c0,0,0,0-0.1,0c0,0,0,0,0,0c0,0,0,0,0,0c0,0,0,0,0,0c0,0,0,0,0,0   c0,0,0,0,0,0c0,0,0,0,0,0c0,0,0,0,0,0c0,0,0,0,0,0c0,0,0,0-0.1,0c0,0,0,0,0,0c0,0,0,0-0.1,0c0,0,0,0,0,0c0,0,0,0-0.1,0c0,0,0,0,0,0   c0,0,0,0-0.1,0c0,0,0,0,0,0c0,0,0,0-0.1,0c0,0,0,0,0,0c0,0,0,0-0.1,0c0,0,0,0,0,0c0,0,0,0-0.1,0c0,0,0,0,0,0c0,0,0,0-0.1,0   c0,0,0,0,0,0c0,0,0,0-0.1,0c0,0,0,0,0,0c0,0,0,0-0.1,0c0,0,0,0,0,0c0,0,0,0-0.1,0c0,0,0,0,0,0c0,0,0,0-0.1,0c0,0,0,0,0,0   c0,0,0,0-0.1,0c0,0,0,0,0,0c0,0,0,0-0.1,0c0,0,0,0,0,0c0,0,0,0-0.1,0c0,0,0,0,0,0c0,0,0,0-0.1,0c0,0,0,0,0,0c0,0,0,0,0,0   c0,0,0,0,0,0c0,0,0,0,0,0c0,0,0,0-0.1,0c0,0,0,0,0,0c0,0,0,0-0.1,0c0,0,0,0,0,0c0,0,0,0-0.1,0c0,0,0,0,0,0c0,0-0.1,0-0.1,0l0,0   c-0.3,0.1-0.6,0.2-0.9,0.2l0.5,1.9c1.9-0.5,3.8-1,5.8-1.5L305.1,69.1L305.1,69.1z M293.5,72.3c-0.6,0.2-1.1,0.4-1.7,0.5   c0,0,0,0,0,0c0,0,0,0-0.1,0c0,0,0,0-0.1,0c0,0,0,0,0,0c0,0-0.1,0-0.1,0l0,0c-1.3,0.4-2.5,0.8-3.7,1.2l0.6,1.9   c1.9-0.6,3.8-1.2,5.7-1.8L293.5,72.3L293.5,72.3z M282.2,76.1C282.1,76.1,282.1,76.1,282.2,76.1C282.1,76.1,282.1,76.1,282.2,76.1   C282.1,76.1,282.1,76.1,282.2,76.1c-0.1,0-0.1,0-0.1,0c0,0,0,0-0.1,0c0,0,0,0,0,0c0,0,0,0,0,0c0,0,0,0-0.1,0c0,0,0,0,0,0   c0,0-0.1,0-0.1,0l0,0c-0.7,0.2-1.4,0.5-2,0.7c0,0,0,0,0,0c0,0-0.1,0-0.1,0c0,0,0,0,0,0c0,0,0,0-0.1,0c0,0,0,0,0,0c0,0,0,0,0,0   c0,0,0,0,0,0c0,0,0,0,0,0c0,0,0,0-0.1,0c0,0,0,0,0,0c0,0,0,0-0.1,0c0,0,0,0,0,0c0,0,0,0-0.1,0c0,0,0,0,0,0c0,0,0,0-0.1,0   c0,0,0,0,0,0c0,0,0,0-0.1,0c0,0,0,0,0,0c0,0,0,0-0.1,0c0,0,0,0,0,0c0,0,0,0-0.1,0c0,0,0,0,0,0c0,0,0,0-0.1,0c0,0,0,0,0,0   c0,0,0,0-0.1,0c0,0,0,0,0,0c0,0,0,0-0.1,0c0,0,0,0,0,0c0,0,0,0-0.1,0c0,0,0,0,0,0c0,0,0,0-0.1,0c0,0,0,0,0,0c-0.1,0-0.1,0-0.2,0.1   l0,0c-0.1,0-0.2,0.1-0.3,0.1c0,0,0,0,0,0c0,0-0.1,0-0.1,0c0,0,0,0,0,0c0,0,0,0-0.1,0c0,0,0,0,0,0c0,0,0,0-0.1,0c0,0,0,0,0,0   c0,0,0,0-0.1,0c0,0,0,0,0,0c0,0,0,0-0.1,0c0,0,0,0,0,0c0,0,0,0-0.1,0c0,0,0,0,0,0c0,0,0,0-0.1,0c0,0,0,0,0,0c0,0,0,0-0.1,0   c0,0,0,0,0,0c0,0,0,0-0.1,0c0,0,0,0,0,0c0,0,0,0,0,0c0,0,0,0,0,0c0,0,0,0,0,0c0,0,0,0,0,0c0,0,0,0,0,0c0,0,0,0-0.1,0c0,0,0,0,0,0   c0,0,0,0-0.1,0l0,0c0,0,0,0-0.1,0l0,0l0.7,1.9c1.8-0.7,3.7-1.4,5.6-2.1L282.2,76.1L282.2,76.1z M271,80.5c-0.5,0.2-1.1,0.5-1.6,0.7   l0,0c0,0,0,0-0.1,0c0,0,0,0,0,0c0,0,0,0-0.1,0c0,0,0,0,0,0c0,0,0,0-0.1,0c0,0,0,0,0,0c0,0,0,0,0,0c0,0,0,0,0,0c0,0,0,0,0,0   c0,0,0,0-0.1,0c0,0,0,0,0,0c0,0,0,0-0.1,0c0,0,0,0,0,0c0,0,0,0-0.1,0c0,0,0,0,0,0c-0.6,0.2-1.1,0.5-1.7,0.7c0,0,0,0,0,0   c0,0-0.1,0-0.1,0c0,0,0,0,0,0c0,0,0,0-0.1,0c0,0,0,0,0,0c0,0,0,0-0.1,0c0,0,0,0,0,0c0,0,0,0-0.1,0c0,0,0,0,0,0c0,0,0,0,0,0   c0,0,0,0,0,0c0,0,0,0,0,0c0,0,0,0,0,0c0,0,0,0,0,0c0,0,0,0-0.1,0c0,0,0,0,0,0c0,0,0,0-0.1,0c0,0,0,0,0,0c0,0,0,0-0.1,0c0,0,0,0,0,0   c0,0,0,0-0.1,0c0,0,0,0,0,0c0,0,0,0-0.1,0c0,0,0,0,0,0c-0.2,0.1-0.4,0.2-0.6,0.3l0.8,1.8c1.8-0.8,3.6-1.6,5.5-2.4L271,80.5   L271,80.5z M260,85.4c-0.7,0.3-1.5,0.7-2.2,1.1c0,0,0,0,0,0c0,0,0,0-0.1,0c0,0,0,0,0,0c0,0,0,0-0.1,0c0,0,0,0,0,0c0,0,0,0-0.1,0   c0,0,0,0,0,0c0,0,0,0-0.1,0c0,0,0,0,0,0c0,0,0,0-0.1,0c0,0,0,0,0,0c0,0,0,0-0.1,0c0,0,0,0,0,0c0,0,0,0-0.1,0c0,0,0,0,0,0   c0,0,0,0-0.1,0c0,0,0,0,0,0c0,0,0,0-0.1,0c0,0,0,0,0,0c0,0,0,0,0,0c0,0,0,0,0,0c0,0,0,0,0,0c0,0,0,0,0,0c0,0,0,0,0,0c0,0,0,0,0,0   c0,0,0,0,0,0c0,0,0,0,0,0c0,0,0,0,0,0c0,0,0,0,0,0c0,0,0,0,0,0c0,0,0,0,0,0c0,0,0,0-0.1,0c0,0,0,0,0,0c0,0,0,0-0.1,0c0,0,0,0,0,0   c0,0,0,0-0.1,0c0,0,0,0,0,0c0,0,0,0-0.1,0c0,0,0,0,0,0c0,0,0,0-0.1,0c0,0,0,0,0,0c0,0,0,0-0.1,0c0,0,0,0,0,0c0,0,0,0-0.1,0   c0,0,0,0,0,0c0,0,0,0-0.1,0c0,0,0,0,0,0c-0.4,0.2-0.9,0.4-1.3,0.7l0.9,1.8c1.8-0.9,3.6-1.8,5.3-2.6L260,85.4L260,85.4z M249.3,90.8   c-0.1,0-0.2,0.1-0.2,0.1c0,0,0,0,0,0c0,0,0,0-0.1,0c0,0,0,0,0,0c0,0,0,0-0.1,0c0,0,0,0,0,0c0,0,0,0-0.1,0c0,0,0,0,0,0c0,0,0,0,0,0   c0,0,0,0-0.1,0c0,0,0,0,0,0c0,0,0,0-0.1,0c0,0,0,0,0,0c-1.5,0.8-3,1.7-4.5,2.5l1,1.7c1.7-1,3.5-2,5.2-2.9L249.3,90.8L249.3,90.8z    M238.9,96.8c-0.2,0.1-0.3,0.2-0.5,0.3l0,0c0,0,0,0-0.1,0c0,0,0,0,0,0c0,0,0,0-0.1,0c0,0,0,0,0,0c0,0,0,0,0,0c0,0,0,0,0,0   c0,0,0,0,0,0c0,0,0,0-0.1,0c0,0,0,0,0,0c0,0,0,0-0.1,0l0,0c-1.4,0.9-2.8,1.7-4.2,2.6l1.1,1.7c1.7-1.1,3.4-2.1,5-3.1L238.9,96.8   L238.9,96.8z M228.8,103.2c-0.6,0.4-1.2,0.8-1.8,1.2c0,0,0,0,0,0c0,0,0,0-0.1,0c0,0,0,0,0,0c0,0,0,0-0.1,0c0,0,0,0,0,0   c0,0,0,0-0.1,0c0,0,0,0,0,0c0,0,0,0-0.1,0c0,0,0,0,0,0c0,0,0,0-0.1,0c0,0,0,0,0,0c0,0,0,0-0.1,0c0,0,0,0,0,0c0,0,0,0-0.1,0   c0,0,0,0,0,0c0,0,0,0-0.1,0c0,0,0,0,0,0c0,0,0,0-0.1,0c0,0,0,0,0,0c0,0,0,0-0.1,0c0,0,0,0,0,0c0,0,0,0-0.1,0c0,0,0,0,0,0   c0,0,0,0-0.1,0c0,0,0,0,0,0c0,0,0,0-0.1,0c0,0,0,0,0,0c0,0,0,0-0.1,0c0,0,0,0,0,0c0,0,0,0-0.1,0c0,0,0,0,0,0c0,0,0,0-0.1,0   c0,0,0,0,0,0c0,0,0,0-0.1,0c0,0,0,0,0,0c-0.3,0.2-0.7,0.5-1,0.7v0c0,0,0,0-0.1,0c0,0,0,0,0,0c0,0,0,0-0.1,0c0,0,0,0,0,0   c0,0,0,0-0.1,0c0,0,0,0,0,0c0,0,0,0-0.1,0c0,0,0,0,0,0c0,0,0,0,0,0c0,0,0,0,0,0c0,0,0,0,0,0c0,0,0,0,0,0c0,0,0,0,0,0c0,0,0,0,0,0   c0,0,0,0,0,0c0,0,0,0,0,0c0,0,0,0,0,0c0,0,0,0,0,0c0,0,0,0,0,0c0,0,0,0,0,0c0,0,0,0,0,0c0,0,0,0-0.1,0c0,0,0,0,0,0l1.2,1.6   c1.6-1.1,3.3-2.3,4.9-3.4L228.8,103.2L228.8,103.2z M219,110.2c-0.8,0.6-1.5,1.1-2.2,1.7l0,0c0,0,0,0-0.1,0.1l0,0c0,0,0,0-0.1,0.1   c0,0,0,0,0,0c0,0,0,0-0.1,0c0,0,0,0,0,0c0,0,0,0-0.1,0c0,0,0,0,0,0c0,0,0,0-0.1,0c0,0,0,0,0,0c0,0,0,0-0.1,0c0,0,0,0,0,0   c0,0,0,0,0,0c0,0,0,0,0,0c0,0,0,0,0,0c0,0,0,0,0,0c0,0,0,0,0,0c0,0,0,0,0,0c0,0,0,0,0,0c0,0,0,0,0,0c0,0,0,0,0,0c0,0,0,0,0,0   c0,0,0,0,0,0c0,0,0,0,0,0c0,0,0,0,0,0c0,0,0,0,0,0c0,0,0,0,0,0c0,0,0,0,0,0c0,0,0,0,0,0c0,0,0,0,0,0c0,0,0,0,0,0c0,0,0,0,0,0   c0,0,0,0,0,0c0,0,0,0,0,0c0,0,0,0,0,0c0,0,0,0,0,0c0,0,0,0,0,0c0,0,0,0,0,0c0,0,0,0,0,0c0,0,0,0,0,0c0,0,0,0-0.1,0c0,0,0,0,0,0   c0,0,0,0-0.1,0c0,0,0,0,0,0c0,0,0,0-0.1,0c0,0,0,0,0,0c0,0,0,0-0.1,0.1c0,0,0,0,0,0c-0.2,0.2-0.5,0.4-0.7,0.6l1.2,1.6   c1.5-1.2,3.1-2.4,4.7-3.6L219,110.2L219,110.2z M209.6,117.6c-0.2,0.1-0.3,0.3-0.5,0.4c0,0,0,0,0,0c0,0,0,0,0,0c0,0,0,0,0,0   c0,0,0,0,0,0c0,0,0,0,0,0c0,0,0,0,0,0c0,0,0,0,0,0c0,0,0,0,0,0c0,0,0,0-0.1,0c0,0,0,0,0,0c0,0,0,0-0.1,0.1l0,0c0,0,0,0-0.1,0.1l0,0   c-0.7,0.6-1.5,1.2-2.2,1.9l0,0c0,0,0,0-0.1,0.1l0,0c0,0,0,0-0.1,0.1l0,0c0,0,0,0-0.1,0.1l0,0c0,0,0,0-0.1,0.1l0,0c0,0,0,0-0.1,0.1   c0,0,0,0,0,0c0,0,0,0-0.1,0.1c0,0,0,0,0,0c0,0,0,0-0.1,0.1c0,0,0,0,0,0c0,0,0,0-0.1,0.1c0,0,0,0,0,0c0,0,0,0-0.1,0.1l0,0   c-0.3,0.2-0.5,0.5-0.8,0.7l1.3,1.5c1.5-1.3,3-2.6,4.5-3.9L209.6,117.6L209.6,117.6z M200.6,125.5c-1.5,1.4-2.9,2.7-4.4,4.1l1.4,1.4   c1.4-1.4,2.9-2.7,4.3-4.1L200.6,125.5L200.6,125.5z M191.9,133.9c-1.4,1.4-2.8,2.9-4.2,4.3l1.5,1.4c1.4-1.4,2.7-2.9,4.1-4.3   L191.9,133.9L191.9,133.9z M183.7,142.6c-0.1,0.1-0.2,0.3-0.4,0.4c0,0,0,0,0,0c0,0,0,0,0,0c0,0,0,0-0.1,0.1c0,0,0,0,0,0   c-1.2,1.3-2.3,2.6-3.5,4l1.5,1.3c1.3-1.5,2.6-3,3.9-4.5L183.7,142.6L183.7,142.6z M175.9,151.7c-0.1,0.1-0.2,0.3-0.4,0.4   c-1.1,1.3-2.1,2.7-3.2,4l0,0c0,0,0,0-0.1,0.1l0,0c0,0,0,0-0.1,0.1c0,0,0,0,0,0c0,0,0,0,0,0.1c0,0,0,0,0,0l1.6,1.2   c1.2-1.6,2.4-3.1,3.7-4.7L175.9,151.7L175.9,151.7z M168.6,161.2c-0.3,0.4-0.5,0.8-0.8,1.1c0,0,0,0,0,0c0,0,0,0,0,0c0,0,0,0,0,0   c0,0,0,0,0,0c-0.4,0.5-0.7,1-1,1.5c0,0,0,0,0,0c-0.1,0.1-0.1,0.2-0.2,0.3c0,0,0,0,0,0c-0.4,0.6-0.9,1.3-1.3,1.9l1.6,1.1   c1.1-1.6,2.3-3.3,3.5-4.8L168.6,161.2L168.6,161.2z M161.8,171.1c-0.8,1.1-1.5,2.3-2.2,3.5l0,0c0,0,0,0,0,0.1c0,0,0,0,0,0   c0,0,0,0,0,0.1c0,0,0,0,0,0c0,0,0,0,0,0.1c0,0,0,0,0,0c0,0,0,0,0,0c0,0,0,0,0,0c0,0,0,0,0,0c0,0,0,0,0,0c0,0,0,0,0,0c0,0,0,0,0,0   c0,0,0,0,0,0c0,0,0,0,0,0c0,0,0,0,0,0c0,0,0,0,0,0.1c0,0,0,0,0,0c0,0,0,0,0,0.1c0,0,0,0,0,0c0,0,0,0,0,0.1c0,0,0,0,0,0   c0,0,0,0,0,0.1c0,0,0,0,0,0c0,0,0,0,0,0.1c0,0,0,0,0,0c0,0,0,0,0,0.1c0,0,0,0,0,0c-0.1,0.2-0.2,0.3-0.3,0.5l1.7,1.1   c1-1.7,2.1-3.4,3.2-5L161.8,171.1L161.8,171.1z M155.4,181.3c-0.2,0.3-0.3,0.5-0.4,0.8c0,0,0,0,0,0c0,0,0,0,0,0.1c0,0,0,0,0,0   c0,0,0,0,0,0c0,0,0,0,0,0c0,0,0,0,0,0c0,0,0,0,0,0.1c0,0,0,0,0,0c0,0,0,0,0,0.1c0,0,0,0,0,0c0,0,0,0,0,0.1l0,0   c-0.4,0.7-0.8,1.4-1.2,2l0,0c0,0,0,0.1,0,0.1c0,0,0,0,0,0c0,0,0,0,0,0.1c0,0,0,0,0,0c0,0,0,0,0,0.1c0,0,0,0,0,0c0,0,0,0,0,0.1   c0,0,0,0,0,0c0,0,0,0,0,0c0,0,0,0,0,0c0,0,0,0,0,0c0,0,0,0,0,0.1c0,0,0,0,0,0c0,0,0,0,0,0.1c0,0,0,0,0,0c0,0,0,0,0,0.1c0,0,0,0,0,0   c-0.2,0.4-0.5,0.8-0.7,1.3l1.7,1c1-1.7,2-3.5,3-5.2L155.4,181.3L155.4,181.3z M149.6,191.8c-0.9,1.8-1.8,3.6-2.7,5.3l1.8,0.9   c0.9-1.8,1.8-3.6,2.7-5.3L149.6,191.8L149.6,191.8z M144.3,202.5c-0.8,1.8-1.7,3.6-2.5,5.5l1.8,0.8c0.8-1.8,1.6-3.6,2.4-5.4   L144.3,202.5L144.3,202.5z M135.3,224.8c-0.2,0.7-0.5,1.4-0.7,2.2c0,0,0,0,0,0c0,0,0,0.1,0,0.1c0,0,0,0,0,0c0,0,0,0,0,0.1   c0,0,0,0,0,0c0,0,0,0,0,0.1c0,0,0,0,0,0c0,0,0,0,0,0.1s0,0,0,0s0,0,0,0c0,0,0,0,0,0.1c0,0,0,0,0,0c0,0,0,0,0,0.1c0,0,0,0,0,0   c0,0,0,0,0,0.1c0,0,0,0,0,0c0,0,0,0,0,0.1c0,0,0,0,0,0c0,0,0,0.1,0,0.1l0,0c-0.2,0.5-0.3,0.9-0.5,1.4l0,0c0,0,0,0,0,0.1   c0,0,0,0,0,0c0,0,0,0,0,0c0,0,0,0,0,0c0,0,0,0,0,0c0,0,0,0,0,0.1c0,0,0,0,0,0c-0.1,0.3-0.2,0.6-0.3,1l1.9,0.6   c0.6-1.9,1.2-3.8,1.9-5.6L135.3,224.8L135.3,224.8z M131.6,236.2C131.6,236.2,131.6,236.2,131.6,236.2   C131.6,236.2,131.6,236.2,131.6,236.2c-0.3,1.1-0.6,2.2-0.9,3.2c0,0,0,0,0,0c0,0,0,0.1,0,0.1c0,0,0,0,0,0c0,0,0,0.1,0,0.1   c0,0,0,0,0,0c0,0,0,0.1,0,0.1c0,0,0,0,0,0c0,0,0,0.1,0,0.1c0,0,0,0,0,0c0,0,0,0.1,0,0.1c0,0,0,0,0,0c0,0,0,0.1,0,0.1c0,0,0,0,0,0   c0,0,0,0.1,0,0.1c0,0,0,0,0,0c0,0,0,0.1,0,0.1c0,0,0,0,0,0c-0.2,0.6-0.3,1.2-0.5,1.8l1.9,0.5c0.5-1.9,1-3.8,1.6-5.7L131.6,236.2   L131.6,236.2z M128.5,247.8C128.5,247.8,128.5,247.8,128.5,247.8C128.5,247.8,128.5,247.8,128.5,247.8c0,0.1,0,0.1,0,0.1   c0,0,0,0,0,0c0,0,0,0,0,0.1c0,0,0,0,0,0c0,0,0,0,0,0.1c0,0,0,0,0,0c-0.4,1.8-0.8,3.7-1.2,5.5l2,0.4c0.4-1.9,0.9-3.9,1.3-5.8   L128.5,247.8L128.5,247.8z M126.1,259.5c0,0.2-0.1,0.4-0.1,0.6l0,0c0,0,0,0.1,0,0.1l0,0c0,0,0,0,0,0.1c0,0,0,0,0,0c0,0,0,0,0,0.1   c0,0,0,0,0,0c0,0,0,0,0,0.1c0,0,0,0,0,0c0,0,0,0,0,0.1c0,0,0,0,0,0c0,0,0,0,0,0c0,0,0,0,0,0.1c0,0,0,0,0,0c0,0,0,0,0,0.1   c0,0,0,0,0,0c0,0,0,0,0,0.1c0,0,0,0,0,0c0,0,0,0,0,0.1c0,0,0,0,0,0c0,0,0,0.1,0,0.1c0,0,0,0,0,0c0,0,0,0.1,0,0.1c0,0,0,0,0,0   c0,0,0,0.1,0,0.1c0,0,0,0,0,0c0,0,0,0.1,0,0.1c0,0,0,0,0,0c0,0,0,0.1,0,0.1c0,0,0,0,0,0c-0.2,1.3-0.5,2.7-0.7,4l2,0.3   c0.3-1.9,0.7-3.9,1-5.9L126.1,259.5L126.1,259.5z M124.1,271.4c-0.1,0.4-0.1,0.8-0.2,1.2c0,0,0,0,0,0c0,0,0,0.1,0,0.1c0,0,0,0,0,0   c0,0,0,0,0,0.1c0,0,0,0,0,0c0,0,0,0,0,0.1c0,0,0,0,0,0c0,0,0,0.1,0,0.1c0,0,0,0,0,0c0,0,0,0,0,0.1c0,0,0,0,0,0c0,0,0,0,0,0.1   c0,0,0,0,0,0c0,0,0,0,0,0.1c0,0,0,0,0,0c0,0,0,0,0,0.1c0,0,0,0,0,0c0,0,0,0,0,0.1c0,0,0,0,0,0c0,0,0,0,0,0.1c0,0,0,0,0,0   c0,0,0,0,0,0.1c0,0,0,0,0,0c0,0,0,0,0,0.1c0,0,0,0,0,0c0,0,0,0.1,0,0.1c0,0,0,0,0,0c0,0,0,0.1,0,0.1c0,0,0,0,0,0   c-0.1,1.1-0.3,2.3-0.4,3.4c0,0,0,0,0,0c0,0,0,0,0,0l2,0.2c0.2-2,0.5-4,0.7-5.9L124.1,271.4L124.1,271.4z M122.8,283.3   c-0.1,1.4-0.2,2.9-0.3,4.3c0,0,0,0,0,0c0,0,0,0.1,0,0.1c0,0,0,0,0,0c0,0,0,0,0,0.1c0,0,0,0,0,0c0,0,0,0,0,0.1c0,0,0,0,0,0   c0,0,0,0,0,0.1c0,0,0,0,0,0.1c0,0,0,0,0,0c0,0,0,0,0,0.1c0,0,0,0,0,0c0,0.4,0,0.7-0.1,1.1l2,0.1c0.1-2,0.3-4,0.4-5.9L122.8,283.3   L122.8,283.3z M122.1,295.3C122.1,295.3,122.1,295.3,122.1,295.3C122.1,295.3,122.1,295.3,122.1,295.3c0,0.1,0,0.1,0,0.1   c0,0,0,0,0,0c0,0,0,0.1,0,0.1c0,0,0,0,0,0c0,0,0,0.1,0,0.1c0,0,0,0,0,0c0,0,0,0.1,0,0.1c0,0,0,0,0,0c0,0,0,0.1,0,0.1c0,0,0,0,0,0   c0,0,0,0.1,0,0.1c0,0,0,0,0,0c0,0,0,0.1,0,0.1v0c0,0.1,0,0.1,0,0.2c0,0,0,0,0,0c0,0.6,0,1.2-0.1,1.8c0,0,0,0,0,0c0,0,0,0.1,0,0.1   c0,0,0,0,0,0c0,0,0,0,0,0.1c0,0,0,0,0,0c0,0,0,0.1,0,0.1c0,0,0,0,0,0c0,0,0,0,0,0.1c0,0,0,0,0,0c0,0,0,0.1,0,0.1c0,0,0,0,0,0   c0,0,0,0.1,0,0.1c0,0,0,0,0,0c0,0,0,0,0,0.1c0,0,0,0,0,0c0,0,0,0,0,0.1c0,0,0,0,0,0c0,0,0,0,0,0.1c0,0,0,0,0,0c0,0,0,0,0,0   c0,0,0,0,0,0c0,0,0,0,0,0c0,0,0,0,0,0c0,0,0,0,0,0c0,0,0,0,0,0.1c0,0,0,0,0,0c0,0,0,0,0,0.1c0,0,0,0,0,0c0,0,0,0,0,0.1v0   c0,0.7,0,1.3,0,2l2,0c0-2,0.1-4,0.1-5.9L122.1,295.3L122.1,295.3z M123.9,307.2l-2,0c0,1.5,0,3,0.1,4.5c0,0,0,0,0,0c0,0,0,0,0,0.1   c0,0,0,0,0,0c0,0,0,0,0,0.1c0,0,0,0,0,0c0,0,0,0,0,0.1c0,0,0,0,0,0.1c0,0,0,0,0,0c0,0,0,0,0,0.1c0,0,0,0,0,0c0,0,0,0,0,0.1l0,0   c0,0,0,0.1,0,0.1l0,0c0,0.3,0,0.6,0,0.8l2-0.1C124,311.2,124,309.2,123.9,307.2L123.9,307.2z M124.4,319.1L124.4,319.1l-2,0.1   c0,0.2,0,0.3,0,0.5c0,0,0,0,0,0c0,0,0,0.1,0,0.1c0,0,0,0,0,0c0,0,0,0,0,0.1c0,0,0,0,0,0.1c0,0,0,0,0,0c0,0,0,0,0,0.1c0,0,0,0,0,0   c0,0,0,0.1,0,0.1c0,0,0,0,0,0 M604.9,313.6c-0.1,2-0.2,4-0.3,5.9l2,0.1c0.1-1.2,0.1-2.4,0.2-3.6c0,0,0,0,0,0c0,0,0,0,0-0.1   c0,0,0,0,0,0c0,0,0,0,0-0.1c0,0,0,0,0,0c0,0,0,0,0,0c0,0,0,0,0-0.1c0,0,0,0,0,0c0,0,0,0,0-0.1l0,0c0,0,0-0.1,0-0.1l0,0   c0-0.6,0.1-1.2,0.1-1.9L604.9,313.6L604.9,313.6z M607.1,301.7l-2,0c0,0.9,0,1.8,0,2.7c0,1.1,0,2.2,0,3.3l2,0c0-0.2,0-0.4,0-0.6v0   c0,0,0-0.1,0-0.1c0,0,0,0,0,0c0,0,0,0,0-0.1c0,0,0,0,0,0c0,0,0,0,0,0c0,0,0,0,0-0.1c0,0,0,0,0,0c0-0.4,0-0.8,0-1.3c0,0,0,0,0,0   c0,0,0-0.1,0-0.1c0,0,0,0,0,0c0,0,0-0.1,0-0.1c0,0,0,0,0,0c0,0,0-0.1,0-0.1c0,0,0,0,0,0c0,0,0-0.1,0-0.1c0,0,0,0,0,0c0,0,0,0,0-0.1   c0,0,0,0,0,0c0,0,0,0,0-0.1c0,0,0,0,0,0c0,0,0,0,0-0.1c0,0,0,0,0,0c0,0,0,0,0-0.1c0,0,0,0,0-0.1c0,0,0,0,0,0c0,0,0,0,0-0.1   c0,0,0,0,0,0c0,0,0-0.1,0-0.1c0,0,0-0.1,0-0.1c0,0,0,0,0,0c0,0,0,0,0-0.1c0,0,0,0,0,0c0,0,0,0,0-0.1c0,0,0,0,0,0c0,0,0,0,0-0.1   c0,0,0,0,0,0c0,0,0,0,0-0.1c0,0,0,0,0,0c0,0,0-0.1,0-0.1c0,0,0,0,0,0c0,0,0-0.1,0-0.1c0,0,0,0,0,0c0,0,0,0,0-0.1c0,0,0,0,0,0   c0,0,0,0,0-0.1c0,0,0,0,0,0c0,0,0-0.1,0-0.1c0,0,0,0,0,0c0,0,0,0,0-0.1c0,0,0,0,0,0C607.1,302.7,607.1,302.2,607.1,301.7   L607.1,301.7z M606.6,289.7l-2,0.1c0.1,2,0.2,4,0.3,5.9l2-0.1c0-0.3,0-0.7,0-1l0,0c0,0,0-0.1,0-0.1c0,0,0,0,0,0c0,0,0-0.1,0-0.1   c0,0,0,0,0,0c0,0,0,0,0-0.1c0,0,0,0,0,0c0,0,0,0,0-0.1c0,0,0,0,0,0c0,0,0,0,0-0.1c0,0,0,0,0,0c0,0,0,0,0-0.1c0,0,0,0,0,0   c0,0,0,0,0-0.1c0,0,0,0,0,0c0,0,0,0,0-0.1c0,0,0,0,0,0c0,0,0,0,0-0.1c0,0,0,0,0,0c0,0,0,0,0,0c0,0,0,0,0-0.1c0,0,0,0,0,0   c0,0,0,0,0-0.1c0,0,0,0,0,0c0,0,0,0,0-0.1c0,0,0,0,0,0c0,0,0-0.1,0-0.1c0,0,0,0,0,0C606.8,292.1,606.7,290.9,606.6,289.7   L606.6,289.7z M605.6,277.7l-2,0.2c0.2,2,0.4,4,0.6,5.9l2-0.2c0-0.5-0.1-1-0.1-1.5c0,0,0,0,0,0c0,0,0-0.1,0-0.1c0,0,0,0,0,0   c0,0,0,0,0-0.1c0,0,0,0,0,0c0,0,0,0,0-0.1c0,0,0,0,0,0c0,0,0,0,0-0.1c0,0,0,0,0,0c0,0,0,0,0,0c0,0,0,0,0-0.1c0,0,0,0,0,0   c0,0,0,0,0-0.1c0,0,0,0,0,0c0,0,0,0,0-0.1c0,0,0,0,0,0c0,0,0-0.1,0-0.1c0,0,0,0,0,0c-0.1-1-0.2-2-0.3-3.1l0,0c0,0,0-0.1,0-0.1l0,0   c0,0,0-0.1,0-0.1c0,0,0,0,0,0c0,0,0,0,0-0.1c0,0,0,0,0,0c0,0,0,0,0-0.1c0,0,0,0,0,0c0,0,0,0,0,0   C605.7,277.8,605.6,277.8,605.6,277.7C605.6,277.8,605.6,277.7,605.6,277.7C605.6,277.7,605.6,277.7,605.6,277.7L605.6,277.7z    M604,265.8l-2,0.3c0.3,1.9,0.6,3.9,0.9,5.9l2-0.3c-0.2-1.2-0.3-2.4-0.5-3.6l0,0c0,0,0-0.1,0-0.1c0,0,0,0,0,0c0,0,0-0.1,0-0.1   c0,0,0,0,0,0c0,0,0,0,0-0.1c0,0,0,0,0,0c0,0,0,0,0-0.1c0,0,0,0,0,0c0,0,0,0,0-0.1c0,0,0,0,0,0c0,0,0,0,0-0.1c0,0,0,0,0,0   c0,0,0,0,0,0c0,0,0,0,0-0.1c0,0,0,0,0,0c0,0,0,0,0-0.1c0,0,0,0,0,0c0,0,0,0,0-0.1c0,0,0,0,0,0c0,0,0-0.1,0-0.1l0,0   C604.2,266.7,604.1,266.3,604,265.8L604,265.8z M601.9,254l-2,0.4c0.4,1.9,0.8,3.9,1.2,5.8l2-0.4C602.7,257.9,602.3,256,601.9,254   L601.9,254z M599.1,242.3l-1.9,0.5c0.5,1.9,1,3.9,1.4,5.8l1.9-0.5c-0.3-1.4-0.7-2.7-1-4.1c0,0,0,0,0,0c0,0,0-0.1,0-0.1c0,0,0,0,0,0   c0,0,0,0,0-0.1c0,0,0,0,0,0c0,0,0,0,0-0.1c0,0,0,0,0,0c0,0,0,0,0-0.1c0,0,0,0,0,0c0,0,0,0,0-0.1c0,0,0,0,0,0c0,0,0,0,0-0.1   c0,0,0,0,0,0c0,0,0,0,0,0s0,0,0,0c0,0,0,0,0,0c0,0,0,0,0-0.1c0,0,0,0,0,0c0,0,0,0,0-0.1c0,0,0,0,0,0c0,0,0,0,0-0.1c0,0,0,0,0,0   c0,0,0,0,0-0.1c0,0,0,0,0,0c0,0,0-0.1,0-0.1c0,0,0,0,0,0c0,0,0-0.1,0-0.1l0,0c0,0,0-0.1,0-0.1l0,0   C599.2,242.6,599.1,242.5,599.1,242.3L599.1,242.3z M595.7,230.8l-1.9,0.6c0.6,1.9,1.2,3.8,1.7,5.7l1.9-0.6   c-0.4-1.2-0.7-2.4-1.1-3.6c0,0,0,0,0,0c0,0,0,0,0-0.1c0,0,0,0,0,0c0,0,0,0,0-0.1c0,0,0,0,0,0c0,0,0,0,0,0c0,0,0,0,0,0c0,0,0,0,0,0   c0,0,0,0,0-0.1c0,0,0,0,0,0c0,0,0-0.1,0-0.1c0,0,0,0,0,0C596.1,231.9,595.9,231.4,595.7,230.8L595.7,230.8z M591.8,219.5l-1.9,0.7   c0.7,1.8,1.4,3.7,2,5.6l1.9-0.7c-0.1-0.3-0.2-0.6-0.3-0.9c0,0,0,0,0,0c0,0,0,0,0-0.1c0,0,0,0,0,0c0,0,0,0,0-0.1c0,0,0,0,0,0   c0,0,0,0,0-0.1c0,0,0,0,0,0c0,0,0,0,0-0.1c0,0,0,0,0,0c0,0,0,0,0,0c0,0,0,0,0,0c0,0,0,0,0,0c0,0,0,0,0,0c0,0,0,0,0,0c0,0,0,0,0-0.1   c0,0,0,0,0,0c0,0,0,0,0-0.1c0,0,0,0,0,0c0,0,0,0,0-0.1c0,0,0,0,0,0c0,0,0,0,0-0.1c0,0,0,0,0,0c0,0,0,0,0-0.1c0,0,0,0,0,0   c0,0,0,0,0-0.1c0,0,0,0,0,0c0,0,0,0,0-0.1l0,0c0,0,0,0,0-0.1c0,0,0,0,0,0c0,0,0,0,0-0.1l0,0c0,0,0,0,0-0.1c0,0,0,0,0,0   c0,0,0,0,0-0.1c0,0,0,0,0,0c0,0,0,0,0-0.1c0,0,0,0,0,0c0,0,0,0,0-0.1c0,0,0,0,0,0c0,0,0,0,0-0.1c0,0,0,0,0,0c0,0,0,0,0-0.1   c0,0,0,0,0,0c0,0,0,0,0-0.1c0,0,0,0,0,0c0,0,0,0,0-0.1c0,0,0,0,0,0c0,0,0,0,0-0.1c0,0,0,0,0,0c0,0,0,0,0-0.1c0,0,0,0,0,0   c0,0,0,0,0-0.1c0,0,0,0,0,0c0,0,0,0,0-0.1c0,0,0,0,0,0c0,0,0,0,0-0.1c0,0,0,0,0,0c0,0,0,0,0-0.1c0,0,0,0,0,0c0,0,0,0,0-0.1   c0,0,0,0,0,0c0,0,0,0,0-0.1c0,0,0,0,0,0c0,0,0,0,0,0c0,0,0,0,0,0c0,0,0,0,0,0c0,0,0,0,0,0c0,0,0,0,0,0c0,0,0,0,0,0c0,0,0,0,0,0   c0,0,0,0,0,0c0,0,0,0,0,0c0,0,0,0,0,0c0,0,0,0,0,0c0,0,0,0,0,0c0,0,0,0,0,0c0,0,0,0,0,0c0,0,0,0,0,0c0,0,0,0,0,0c0,0,0,0,0,0   c0,0,0,0,0,0c0,0,0,0,0,0c0,0,0,0,0,0c0,0,0,0,0,0c0,0,0,0,0-0.1c0,0,0,0,0,0c0,0,0,0,0,0c0,0,0,0,0,0c0,0,0,0,0,0c0,0,0,0,0,0   c0,0,0,0,0,0c0,0,0,0,0,0c0,0,0,0,0,0c0,0,0,0,0,0c0,0,0,0,0,0c0,0,0,0,0,0c0,0,0,0,0,0c0,0,0,0,0,0c0,0,0,0,0,0c0,0,0,0,0-0.1   c0,0,0,0,0,0c0,0,0,0,0-0.1c0,0,0,0,0,0c0,0,0-0.1,0-0.1c0,0,0,0,0,0C591.9,219.6,591.8,219.5,591.8,219.5L591.8,219.5z    M587.3,208.4l-1.8,0.8c0.8,1.8,1.6,3.7,2.3,5.5l1.9-0.7l0,0c0,0,0,0,0-0.1l0,0c-0.4-1-0.8-2-1.2-3l0,0c0,0,0-0.1,0-0.1l0,0   c0,0,0-0.1,0-0.1c0,0,0,0,0,0c0,0,0,0,0-0.1c0,0,0,0,0,0c0,0,0,0,0-0.1c0,0,0,0,0,0c0,0,0,0,0,0c0,0,0,0,0,0c0,0,0,0,0,0   c0,0,0,0,0-0.1c0,0,0,0,0,0c0,0,0,0,0-0.1c0,0,0,0,0,0c0,0,0,0,0-0.1c0,0,0,0,0,0c0,0,0,0,0-0.1c0,0,0,0,0,0   C587.8,209.4,587.6,208.9,587.3,208.4L587.3,208.4z M582.3,197.5l-1.8,0.9c0.9,1.8,1.7,3.6,2.6,5.4l1.8-0.8   c-0.2-0.4-0.3-0.7-0.5-1.1c0,0,0,0,0,0c0,0,0,0,0,0c0,0,0,0,0-0.1l0,0C583.7,200.3,583,198.9,582.3,197.5L582.3,197.5z    M576.8,186.8l-1.7,1c1,1.7,1.9,3.5,2.8,5.2l1.8-0.9c-0.2-0.4-0.4-0.8-0.7-1.2l0,0c0,0,0,0,0-0.1c0,0,0,0,0,0c0,0,0,0,0-0.1   c0,0,0,0,0,0c0,0,0,0,0-0.1c0,0,0,0,0,0c0,0,0,0,0,0c0,0,0,0,0-0.1c0,0,0,0,0,0c0,0,0,0,0-0.1c0,0,0,0,0,0   C578.1,189.2,577.4,188,576.8,186.8L576.8,186.8z M570.7,176.5l-1.7,1.1c1,1.7,2.1,3.4,3.1,5.1l1.7-1c-0.7-1.1-1.3-2.2-2-3.4l0,0   c0,0,0,0,0-0.1c0,0,0,0,0,0c0,0,0,0,0-0.1c0,0,0,0,0,0c0,0,0,0,0-0.1c0,0,0,0,0,0c0,0,0,0,0,0c0,0,0,0,0,0c0,0,0,0,0,0   c0,0,0,0,0-0.1c0,0,0,0,0,0c0,0,0,0,0-0.1l0,0C571.2,177.3,570.9,176.9,570.7,176.5L570.7,176.5z M564.1,166.4l-1.6,1.1   c1.1,1.6,2.2,3.3,3.3,4.9l1.7-1.1C566.4,169.8,565.2,168.1,564.1,166.4L564.1,166.4z M549.5,147.4l-1.5,1.3c1.3,1.5,2.6,3,3.8,4.6   l1.6-1.3c-0.8-1-1.7-2.1-2.5-3.1c0,0,0,0,0,0c0,0,0,0-0.1-0.1c0,0,0,0,0,0c0,0,0,0,0-0.1c0,0,0,0,0,0c0,0,0,0,0,0c0,0,0,0,0,0   c0,0,0,0,0,0c0,0,0,0,0,0c0,0,0,0,0,0c0,0,0,0,0,0c0,0,0,0,0,0c0,0,0,0,0,0c0,0,0,0,0,0c0,0,0,0,0,0c0,0,0,0,0,0c0,0,0,0,0,0   c0,0,0,0,0,0c0,0,0,0,0,0c0,0,0,0,0,0c0,0,0,0,0-0.1c0,0,0,0,0,0c0,0,0,0,0-0.1l0,0c0,0,0,0-0.1-0.1l0,0c0,0,0,0-0.1-0.1l0,0   C549.8,147.8,549.6,147.6,549.5,147.4L549.5,147.4z M541.5,138.5l-1.5,1.4c1.4,1.4,2.7,2.9,4,4.4l1.5-1.3c-0.4-0.4-0.7-0.8-1.1-1.2   l0,0c0,0,0,0-0.1-0.1l0,0c0,0,0,0-0.1-0.1c0,0,0,0,0,0c0,0,0,0-0.1-0.1c0,0,0,0,0,0c0,0,0,0,0-0.1c0,0,0,0,0,0c0,0,0,0,0,0   c0,0,0,0,0,0c0,0,0,0,0,0c0,0,0,0,0,0c0,0,0,0,0,0c0,0,0,0,0,0c0,0,0,0,0,0c0,0,0,0,0,0c0,0,0,0,0,0c0,0,0,0,0,0c0,0,0,0,0,0   c0,0,0,0,0,0c0,0,0,0,0,0c0,0,0,0,0,0c0,0,0,0,0,0c0,0,0,0,0,0c0,0,0,0,0,0c0,0,0,0,0,0c0,0,0,0,0,0c0,0,0,0,0,0c0,0,0,0,0,0   c0,0,0,0,0,0c0,0,0,0,0,0c0,0,0,0,0-0.1c0,0,0,0,0,0c0,0,0,0,0-0.1c0,0,0,0,0,0c0,0,0,0,0-0.1c0,0,0,0,0,0c0,0,0,0,0-0.1   c0,0,0,0,0,0c0,0,0,0-0.1-0.1c0,0,0,0,0,0c0,0,0,0-0.1-0.1v0c0,0,0,0-0.1-0.1c0,0,0,0,0,0c-0.1-0.2-0.3-0.3-0.4-0.5c0,0,0,0,0,0   c0,0,0,0,0-0.1c0,0,0,0,0,0c0,0,0,0,0-0.1c0,0,0,0,0,0c0,0,0,0,0-0.1c0,0,0,0,0,0c0,0,0,0,0,0c0,0,0,0,0,0c0,0,0,0,0,0c0,0,0,0,0,0   c0,0,0,0,0,0c0,0,0,0,0,0c0,0,0,0,0,0c0,0,0,0,0,0c0,0,0,0,0,0c0,0,0,0,0,0c0,0,0,0,0,0c0,0,0,0,0,0c0,0,0,0,0,0c0,0,0,0,0,0   c0,0,0,0,0,0c0,0,0,0,0,0c0,0,0,0,0,0c0,0,0,0,0,0c0,0,0,0,0,0c0,0,0,0,0,0c0,0,0,0,0,0c0,0,0,0,0,0c0,0,0,0,0,0c0,0,0,0,0,0   c0,0,0,0,0,0c0,0,0,0,0,0c0,0,0,0,0,0C541.6,138.6,541.6,138.6,541.5,138.5C541.6,138.5,541.6,138.5,541.5,138.5   C541.5,138.5,541.5,138.5,541.5,138.5C541.5,138.5,541.5,138.5,541.5,138.5L541.5,138.5z M533.1,129.9l-1.4,1.4   c1.4,1.4,2.8,2.8,4.2,4.2l1.4-1.4C535.9,132.7,534.5,131.3,533.1,129.9L533.1,129.9z M524.2,121.8l-1.3,1.5c1.5,1.3,3,2.6,4.4,4   l1.4-1.5C527.2,124.4,525.8,123.1,524.2,121.8L524.2,121.8z M515,114.1l-1.2,1.6c1.5,1.2,3.1,2.5,4.6,3.8l1.3-1.5c0,0,0,0,0,0   c0,0,0,0,0,0c0,0,0,0,0,0c0,0,0,0,0,0c0,0,0,0,0,0c0,0,0,0,0,0c0,0,0,0,0,0c0,0,0,0,0,0c0,0,0,0,0,0c0,0,0,0,0,0c0,0,0,0,0,0   c0,0,0,0,0,0c0,0,0,0,0,0c0,0,0,0,0,0c0,0,0,0,0,0c0,0,0,0,0,0c0,0,0,0-0.1,0c0,0,0,0,0,0c0,0,0,0-0.1,0c0,0,0,0,0,0   c0,0,0,0-0.1-0.1c0,0,0,0,0,0C517.6,116.2,516.3,115.2,515,114.1L515,114.1z M505.4,106.9l-1.2,1.6c1.6,1.1,3.2,2.3,4.8,3.5   l1.2-1.6C508.7,109.2,507.1,108.1,505.4,106.9L505.4,106.9z M495.5,100.2l-1.1,1.7c1.7,1.1,3.3,2.2,5,3.3l1.1-1.7v0   c-0.2-0.1-0.3-0.2-0.5-0.3c0,0,0,0,0,0c0,0,0,0-0.1,0c0,0,0,0,0,0c0,0,0,0,0,0c0,0,0,0,0,0c0,0,0,0,0,0c0,0,0,0,0,0c0,0,0,0,0,0   c0,0,0,0,0,0c0,0,0,0,0,0c0,0,0,0-0.1,0c0,0,0,0,0,0c0,0,0,0-0.1,0c0,0,0,0,0,0c0,0,0,0-0.1,0c0,0,0,0,0,0c0,0,0,0-0.1,0   c0,0,0,0,0,0c0,0,0,0-0.1,0c0,0,0,0,0,0c0,0,0,0-0.1,0c0,0,0,0,0,0c0,0,0,0-0.1,0c0,0,0,0,0,0c0,0,0,0-0.1,0c0,0,0,0,0,0   c0,0,0,0-0.1,0c0,0,0,0,0,0c0,0,0,0-0.1,0c0,0,0,0,0,0c0,0,0,0-0.1,0c0,0,0,0,0,0c0,0,0,0-0.1,0c0,0,0,0,0,0c0,0,0,0-0.1,0   c0,0,0,0,0,0c0,0,0,0-0.1,0l0,0c-0.6-0.4-1.2-0.8-1.8-1.2c0,0,0,0,0,0c0,0,0,0-0.1,0c0,0,0,0,0,0c0,0,0,0-0.1,0c0,0,0,0,0,0   c0,0,0,0,0,0c0,0,0,0,0,0c0,0,0,0,0,0c0,0,0,0,0,0c0,0,0,0,0,0c0,0,0,0,0,0c0,0,0,0,0,0c0,0,0,0-0.1,0c0,0,0,0,0,0c0,0,0,0-0.1,0   c0,0,0,0,0,0c0,0,0,0-0.1,0c0,0,0,0,0,0c0,0,0,0-0.1,0l0,0C495.9,100.4,495.7,100.3,495.5,100.2L495.5,100.2z M485.3,93.9l-1,1.7   c1.7,1,3.4,2,5.1,3l1-1.7C488.7,95.9,487,94.9,485.3,93.9L485.3,93.9z M463.9,83l-0.8,1.8c1.8,0.8,3.6,1.7,5.4,2.5l0.9-1.8   c-1.4-0.7-2.8-1.3-4.2-2c0,0,0,0-0.1,0c0,0,0,0,0,0C464.6,83.3,464.3,83.2,463.9,83L463.9,83z M452.8,78.4l-0.7,1.9   c1.8,0.7,3.7,1.5,5.5,2.2l0.8-1.8c-0.2-0.1-0.4-0.2-0.6-0.2l0,0c0,0,0,0-0.1,0c0,0,0,0,0,0c0,0,0,0-0.1,0c0,0,0,0,0,0   c0,0,0,0-0.1,0c0,0,0,0,0,0c0,0,0,0-0.1,0c0,0,0,0,0,0c0,0,0,0-0.1,0c0,0,0,0,0,0c0,0,0,0-0.1,0c0,0,0,0,0,0c0,0,0,0,0,0   c0,0,0,0,0,0c0,0,0,0,0,0c0,0,0,0,0,0c0,0,0,0,0,0c0,0,0,0,0,0c0,0,0,0,0,0c0,0,0,0,0,0c0,0,0,0,0,0c0,0,0,0,0,0c0,0,0,0,0,0   c0,0,0,0,0,0c0,0,0,0,0,0c0,0,0,0,0,0c0,0,0,0,0,0c0,0,0,0,0,0c0,0,0,0,0,0c0,0,0,0,0,0c0,0,0,0,0,0c0,0,0,0,0,0c0,0,0,0,0,0   c0,0,0,0,0,0c0,0,0,0,0,0c0,0,0,0,0,0c0,0,0,0,0,0c0,0,0,0,0,0c0,0,0,0,0,0c0,0,0,0,0,0c0,0,0,0,0,0c0,0,0,0,0,0c0,0,0,0-0.1,0   c0,0,0,0,0,0c0,0,0,0-0.1,0c0,0,0,0,0,0c0,0,0,0-0.1,0c0,0,0,0,0,0c0,0,0,0-0.1,0c0,0,0,0,0,0c0,0,0,0-0.1,0c0,0,0,0,0,0   c0,0,0,0-0.1,0c0,0,0,0,0,0c0,0,0,0-0.1,0l0,0C454.6,79,453.7,78.7,452.8,78.4L452.8,78.4z M441.6,74.3l-0.6,1.9   c1.9,0.6,3.8,1.3,5.6,2l0.7-1.9l0,0c0,0,0,0-0.1,0c0,0,0,0,0,0c0,0-0.1,0-0.1,0c0,0,0,0,0,0c-0.8-0.3-1.5-0.5-2.3-0.8l0,0   c0,0-0.1,0-0.1,0l0,0c0,0-0.1,0-0.1,0l0,0c0,0-0.1,0-0.1,0l0,0c0,0,0,0-0.1,0c0,0,0,0,0,0c0,0,0,0-0.1,0c0,0,0,0,0,0c0,0,0,0-0.1,0   c0,0,0,0,0,0c0,0,0,0-0.1,0c0,0,0,0,0,0c0,0,0,0-0.1,0c0,0,0,0,0,0c0,0,0,0-0.1,0c0,0,0,0,0,0c0,0,0,0-0.1,0c0,0,0,0,0,0   c0,0,0,0-0.1,0c0,0,0,0,0,0c0,0,0,0-0.1,0c0,0,0,0,0,0c0,0,0,0-0.1,0c0,0,0,0,0,0c0,0,0,0-0.1,0c0,0,0,0,0,0c0,0,0,0-0.1,0   c0,0,0,0,0,0c0,0,0,0-0.1,0c0,0,0,0,0,0c0,0,0,0-0.1,0c0,0,0,0,0,0c0,0,0,0-0.1,0c0,0,0,0,0,0c0,0-0.1,0-0.1,0c0,0,0,0,0,0   c0,0-0.1,0-0.1,0c0,0,0,0,0,0c0,0-0.1,0-0.1,0c0,0,0,0,0,0C442.4,74.6,442,74.4,441.6,74.3L441.6,74.3z M430.1,70.7l-0.5,1.9   c1.9,0.5,3.8,1.1,5.7,1.7l0.6-1.9c-0.2-0.1-0.4-0.1-0.5-0.2c0,0,0,0-0.1,0c0,0,0,0,0,0c0,0,0,0-0.1,0c0,0,0,0,0,0   C433.5,71.7,431.8,71.2,430.1,70.7L430.1,70.7z M418.5,67.8l-0.4,2c1.9,0.4,3.9,0.9,5.8,1.4l0.5-1.9c-0.8-0.2-1.5-0.4-2.3-0.6l0,0   c0,0-0.1,0-0.1,0c0,0,0,0,0,0c0,0,0,0-0.1,0c0,0,0,0,0,0c0,0,0,0-0.1,0c0,0,0,0,0,0c0,0,0,0,0,0c0,0,0,0,0,0c0,0,0,0,0,0   c0,0,0,0-0.1,0c0,0,0,0,0,0c0,0,0,0-0.1,0l0,0c0,0-0.1,0-0.1,0l0,0C420.4,68.2,419.4,68,418.5,67.8L418.5,67.8z M406.7,65.4l-0.3,2   c1.9,0.3,3.9,0.7,5.8,1.1l0.4-2c0,0-0.1,0-0.1,0c0,0,0,0,0,0c0,0,0,0-0.1,0c0,0,0,0,0,0c0,0,0,0-0.1,0c0,0,0,0,0,0c0,0,0,0,0,0   c0,0,0,0-0.1,0c0,0,0,0,0,0c0,0,0,0-0.1,0c0,0,0,0,0,0c0,0-0.1,0-0.1,0c0,0,0,0,0,0c0,0-0.1,0-0.1,0l0,0c-0.4-0.1-0.7-0.1-1.1-0.2   l0,0c0,0-0.1,0-0.1,0l0,0c0,0-0.1,0-0.1,0l0,0c0,0-0.1,0-0.1,0l0,0c0,0-0.1,0-0.1,0c0,0,0,0,0,0c0,0,0,0-0.1,0c0,0,0,0,0,0   c0,0,0,0-0.1,0c0,0,0,0,0,0c0,0,0,0-0.1,0c0,0,0,0,0,0c0,0,0,0,0,0c0,0,0,0-0.1,0c0,0,0,0,0,0c0,0,0,0-0.1,0c0,0,0,0,0,0   c0,0,0,0-0.1,0c0,0,0,0,0,0c0,0-0.1,0-0.1,0c0,0,0,0,0,0C408.7,65.8,407.7,65.6,406.7,65.4L406.7,65.4z M394.8,63.7l-0.2,2   c2,0.2,3.9,0.5,5.9,0.8l0.3-2C398.8,64.2,396.8,63.9,394.8,63.7L394.8,63.7z M382.9,62.5l-0.1,2c2,0.1,4,0.3,5.9,0.5l0.2-2   c-1.3-0.1-2.6-0.2-3.9-0.4l0,0c0,0-0.1,0-0.1,0c0,0,0,0,0,0c0,0,0,0-0.1,0c0,0,0,0,0,0c0,0,0,0-0.1,0c0,0,0,0,0,0c0,0,0,0-0.1,0   c0,0,0,0,0,0c0,0,0,0-0.1,0c0,0,0,0,0,0c0,0,0,0-0.1,0c0,0,0,0,0,0c0,0,0,0-0.1,0c0,0,0,0,0,0c0,0,0,0,0,0c0,0,0,0-0.1,0   c0,0,0,0,0,0c0,0,0,0-0.1,0c0,0,0,0,0,0c0,0,0,0-0.1,0c0,0,0,0,0,0c0,0-0.1,0-0.1,0l0,0c0,0-0.1,0-0.1,0l0,0   C383.5,62.5,383.2,62.5,382.9,62.5L382.9,62.5z M370.9,61.9l-0.1,2c2,0.1,4,0.1,5.9,0.2l0.1-2l0,0c0,0,0,0,0,0c0,0,0,0,0,0   c0,0,0,0-0.1,0c0,0,0,0,0,0c0,0,0,0-0.1,0c0,0,0,0,0,0c0,0,0,0-0.1,0c0,0,0,0,0,0c0,0,0,0,0,0c0,0,0,0,0,0c0,0,0,0,0,0c0,0,0,0,0,0   c0,0,0,0,0,0c0,0,0,0,0,0c0,0,0,0,0,0c0,0,0,0-0.1,0c0,0,0,0,0,0c0,0,0,0-0.1,0c0,0,0,0,0,0c0,0,0,0-0.1,0c0,0,0,0,0,0   c0,0,0,0-0.1,0c0,0,0,0,0,0c0,0,0,0-0.1,0c0,0,0,0,0,0c0,0,0,0-0.1,0c0,0,0,0,0,0c0,0,0,0-0.1,0c0,0,0,0,0,0c0,0-0.1,0-0.1,0   c0,0,0,0,0,0c0,0-0.1,0-0.1,0c0,0,0,0,0,0c0,0-0.1,0-0.1,0l0,0c-1,0-2.1-0.1-3.1-0.1l0,0c0,0,0,0-0.1,0c0,0,0,0,0,0l0,0   C371.7,61.9,371.3,61.9,370.9,61.9L370.9,61.9z M364.5,61.8v2l0.4,0l0-2C364.8,61.8,364.6,61.8,364.5,61.8L364.5,61.8L364.5,61.8z"
       id="path6850" /></g><g
     id="g6852"><circle
       style="fill:#DFDFDF;"
       cx="121.9"
       cy="267"
       r="54"
       id="circle6854" /><path
       style="opacity:0.5;fill:#FFFFFF;"
       d="M83.7,305.2l76.4-76.4c-9.8-9.8-23.3-15.8-38.2-15.8c-29.8,0-54,24.2-54,54   C67.9,281.9,74,295.4,83.7,305.2z"
       id="path6856" /><path
       style="fill:#3F4041;"
       d="M121.9,215c28.7,0,52,23.3,52,52c0,28.7-23.3,52-52,52s-52-23.3-52-52   C69.9,238.3,93.2,215,121.9,215 M121.9,213c-29.8,0-54,24.2-54,54s24.2,54,54,54s54-24.2,54-54S151.7,213,121.9,213L121.9,213z"
       id="path6858" /></g><g
     id="g6860"><circle
       style="fill:#DFDFDF;"
       cx="204.7"
       cy="120.1"
       r="54"
       id="circle6862" /><path
       style="opacity:0.5;fill:#FFFFFF;"
       d="M166.5,158.3l76.4-76.4c-9.8-9.8-23.3-15.8-38.2-15.8c-29.8,0-54,24.2-54,54   C150.7,135,156.7,148.5,166.5,158.3z"
       id="path6864" /><path
       style="fill:#3F4041;"
       d="M204.7,68.1c28.7,0,52,23.3,52,52c0,28.7-23.3,52-52,52s-52-23.3-52-52   C152.7,91.4,176,68.1,204.7,68.1 M204.7,66.1c-29.8,0-54,24.2-54,54s24.2,54,54,54s54-24.2,54-54S234.5,66.1,204.7,66.1L204.7,66.1   z"
       id="path6866" /></g><g
     id="g6868"><circle
       style="fill:#DFDFDF;"
       cx="363"
       cy="61.8"
       r="54"
       id="circle6870" /><path
       style="opacity:0.5;fill:#FFFFFF;"
       d="M324.8,100l76.4-76.4c-9.8-9.8-23.3-15.8-38.2-15.8c-29.8,0-54,24.2-54,54   C309,76.7,315,90.2,324.8,100z"
       id="path6872" /><path
       style="fill:#3F4041;"
       d="M363,9.8c28.7,0,52,23.3,52,52s-23.3,52-52,52s-52-23.3-52-52S334.3,9.8,363,9.8 M363,7.8   c-29.8,0-54,24.2-54,54s24.2,54,54,54c29.8,0,54-24.2,54-54S392.8,7.8,363,7.8L363,7.8z"
       id="path6874" /></g><g
     id="g6876"><circle
       style="fill:#DFDFDF;"
       cx="521.3"
       cy="120.1"
       r="54"
       id="circle6878" /><path
       style="opacity:0.5;fill:#FFFFFF;"
       d="M483.2,158.3l76.4-76.4c-9.8-9.8-23.3-15.8-38.2-15.8c-29.8,0-54,24.2-54,54   C467.3,135,473.4,148.5,483.2,158.3z"
       id="path6880" /><path
       style="fill:#3F4041;"
       d="M521.3,68.1c28.7,0,52,23.3,52,52c0,28.7-23.3,52-52,52c-28.7,0-52-23.3-52-52   C469.3,91.4,492.7,68.1,521.3,68.1 M521.3,66.1c-29.8,0-54,24.2-54,54s24.2,54,54,54c29.8,0,54-24.2,54-54S551.2,66.1,521.3,66.1   L521.3,66.1z"
       id="path6882" /></g><g
     id="g6884"><circle
       style="fill:#DFDFDF;"
       cx="604.1"
       cy="267"
       r="54"
       id="circle6886" /><path
       style="opacity:0.5;fill:#FFFFFF;"
       d="M565.9,305.2l76.4-76.4C632.5,219,619,213,604.1,213c-29.8,0-54,24.2-54,54   C550.1,281.9,556.1,295.4,565.9,305.2z"
       id="path6888" /><path
       style="fill:#3F4041;"
       d="M604.1,215c28.7,0,52,23.3,52,52c0,28.7-23.3,52-52,52c-28.7,0-52-23.3-52-52   C552.1,238.3,575.4,215,604.1,215 M604.1,213c-29.8,0-54,24.2-54,54s24.2,54,54,54s54-24.2,54-54S633.9,213,604.1,213L604.1,213z"
       id="path6890" /></g><g
     id="g6892"><g
       id="g6894"><circle
         style="fill:#2CD5C4;"
         cx="143.6"
         cy="118.7"
         r="20"
         id="circle6896" /></g><path
       style="opacity:0.5;fill:#FFFFFF;"
       d="M143.6,98.7c-11,0-20,9-20,20c0,5.7,2.4,10.8,6.1,14.4l28.3-28.3   C154.4,101.1,149.3,98.7,143.6,98.7z"
       id="path6898" /><g
       id="g6900"><g
         id="g6902"><path
           style="fill:#DEDFDF;"
           d="M238.2,143.3l-31.4-31.4c1.8-6.7,0.1-14.1-5.2-19.3c-7.8-7.8-20.5-7.8-28.3,0s-7.8,20.5,0,28.3     c5.8,5.8,14.3,7.3,21.4,4.5l4.9,4.9l8.4-0.2l0.2,4.5l5,0.1l1.7,5l5.5,0.5l-0.5,6.2l16.9,4.3l2.8-2.8L238.2,143.3z M178.3,104.6     c-2-2-2-5.1,0-7.1c2-2,5.1-2,7.1,0c2,2,2,5.1,0,7.1C183.4,106.6,180.2,106.6,178.3,104.6z"
           id="path6904" /></g></g><path
       style="fill:#3F4041;"
       d="M238.2,143.3l-31.4-31.4c1.8-6.7,0.1-14.1-5.2-19.3c-7.8-7.8-20.5-7.8-28.3,0   c-3.6,3.6-5.5,8.2-5.8,13l2.1-1c0.5-3.9,2.2-7.6,5.1-10.6c7-7,18.4-7,25.5,0c4.5,4.5,6.3,11.2,4.6,17.4l-0.3,1.1l0.8,0.8l31.1,31.1   l1,2.9l-1.1,1.1l-14.1-3.6l0.4-4.5l0.2-2l-2-0.2l-4.2-0.4l-1.2-3.8l-0.4-1.3l-1.4,0l-3.2-0.1L210,130l-0.1-2l-2,0l-7.5,0.2   l-4.3-4.3l-0.9-0.9l-1.2,0.5c-6.7,2.6-14.2,1-19.3-4c-2.9-2.9-4.6-6.7-5.1-10.5l-1.9,0.9c0.6,4,2.5,7.9,5.6,11   c5.8,5.8,14.3,7.3,21.4,4.5l4.9,4.9l8.4-0.2l0.2,4.5l5,0.1l1.7,5l5.5,0.5l-0.5,6.2l16.9,4.3l2.8-2.8L238.2,143.3z"
       id="path6906" /><g
       id="g6908"><path
         style="fill:#FFFFFF;"
         d="M234.9,147.1l1.1,0.3l0.3-0.3l-0.7-2.1l-27.7-27.7c-0.3,0.6-0.7,1.2-1.1,1.8L234.9,147.1z"
         id="path6910" /></g><path
       style="fill:#3F4041;"
       d="M182.7,100.7c-0.2-0.4-0.5-0.6-0.9-0.6c-0.1,0-0.3,0-0.4,0.1l-20,9.4c-3.3-6.4-10-10.8-17.8-10.8   c-11,0-20,9-20,20s9,20,20,20c11,0,20-9,20-20c0-2.2-0.4-4.4-1.1-6.3l-1.8,0.9c0.6,1.8,0.9,3.6,0.9,5.5c0,9.9-8.1,18-18,18   s-18-8.1-18-18s8.1-18,18-18c6.8,0,12.9,3.7,16,9.8l0.4,0.8l0.3,0.9c0,0,0,0.1,0,0.1l1.8-0.9l20.1-9.4   C182.8,101.8,183,101.2,182.7,100.7z"
       id="path6912" /><path
       style="fill:#3F4041;"
       d="M185.4,97.5c-2-2-5.1-2-7.1,0c-1,1-1.5,2.3-1.5,3.7l2.1-1c0.1-0.5,0.4-0.9,0.7-1.2   c1.2-1.2,3.1-1.2,4.2,0c1.2,1.2,1.2,3.1,0,4.2c-0.9,0.9-2.2,1.1-3.3,0.6l-2.1,1c2,1.7,4.9,1.7,6.8-0.2   C187.3,102.7,187.3,99.5,185.4,97.5z"
       id="path6914" /><path
       style="fill:#FFFFFF;"
       d="M140.4,115.5c-0.8,0.8-1.3,1.9-1.3,3.2l0,0h2c0-0.7,0.3-1.3,0.7-1.8c0.4-0.4,1-0.7,1.7-0.7l-0.1-2   C142.2,114.3,141.2,114.8,140.4,115.5z"
       id="path6916" /><path
       style="fill:#FFFFFF;"
       d="M134.6,118.7h2l0,0c0-1.9,0.7-3.6,2.1-4.9c1.2-1.2,2.9-2,4.6-2l-0.1-2c-2.3,0.1-4.4,1.1-6,2.6   C135.6,114,134.6,116.2,134.6,118.7z"
       id="path6918" /><path
       style="fill:#FFFFFF;"
       d="M131.6,118.7L131.6,118.7c0-3.2,1.2-6.2,3.5-8.5c2.1-2.1,5-3.4,8-3.5l-0.1-2   c-3.6,0.2-6.9,1.7-9.3,4.1c-2.5,2.5-4.1,6-4.1,9.9l0,0H131.6z"
       id="path6920" /><path
       style="fill:#FFFFFF;"
       d="M155.6,118.7L155.6,118.7c0,3.2-1.2,6.2-3.5,8.5c-2.1,2.1-5,3.4-8,3.5l0.1,2   c3.6-0.2,6.9-1.7,9.3-4.1c2.5-2.5,4.1-6,4.1-9.9l0,0H155.6z"
       id="path6922" /></g><g
     id="g6924"><g
       id="g6926"><circle
         style="fill:#DEDFDF;"
         cx="604.1"
         cy="266.7"
         r="50"
         id="circle6928" /></g><g
       id="g6930"><circle
         style="fill:#757778;"
         cx="604.1"
         cy="266.7"
         r="44.8"
         id="circle6932" /></g><circle
       style="fill:#2CD5C4;"
       cx="604.1"
       cy="266.7"
       r="32"
       id="circle6934" /><g
       id="g6936"><path
         style="fill:#3F4041;"
         d="M604.1,302.7c0.6,0,1,0.4,1,1c0,0.6-0.4,1-1,1s-1-0.4-1-1C603.1,303.2,603.5,302.7,604.1,302.7     M604.1,300.7c-1.7,0-3,1.3-3,3s1.3,3,3,3s3-1.3,3-3S605.7,300.7,604.1,300.7L604.1,300.7z"
         id="path6938" /></g><g
       id="g6940"><circle
         style="fill:#FFFFFF;"
         cx="604.1"
         cy="303.7"
         r="2"
         id="circle6942" /><path
         style="fill:#3F4041;"
         d="M604.1,302.7c0.6,0,1,0.4,1,1c0,0.6-0.4,1-1,1s-1-0.4-1-1C603.1,303.2,603.5,302.7,604.1,302.7     M604.1,300.7c-1.7,0-3,1.3-3,3s1.3,3,3,3s3-1.3,3-3S605.7,300.7,604.1,300.7L604.1,300.7z"
         id="path6944" /></g><g
       id="g6946"><path
         style="fill:#FFFFFF;"
         d="M601.8,262c-3.3,4.2-5.2,8.6-5.1,15.1H594c0-6.1,2-11.1,5-14.9h-5.9v1.4h-2.1v-3.7h10.7V262z"
         id="path6948" /><path
         style="fill:#FFFFFF;"
         d="M614.4,277.1h-10.8v-1.6c0.9-6.7,8-7.6,8-11c0-1.6-1.4-2.5-2.9-2.5c-1.4,0-2.5,1-3.1,2.1l-2.1-1.2    c1.1-2.1,2.7-3.3,5.1-3.3c3.1,0,5.4,1.7,5.4,4.9c0,4.9-6.4,5.3-7.7,10.2h8V277.1z"
         id="path6950" /><path
         style="fill:#FFFFFF;"
         d="M619.7,263.5c-1.6,0-2.8-1.3-2.8-2.8c0-1.5,1.3-2.8,2.8-2.8c1.5,0,2.8,1.3,2.8,2.8    C622.5,262.2,621.2,263.5,619.7,263.5z M619.7,259.5c-0.7,0-1.2,0.5-1.2,1.2s0.5,1.2,1.2,1.2c0.6,0,1.2-0.5,1.2-1.2    S620.3,259.5,619.7,259.5z"
         id="path6952" /></g><path
       style="fill:#FFFFFF;"
       d="M604.1,235.7c-17.1,0-31,13.9-31,31c0,6.3,1.9,12.1,5.1,17l4.2-2.7c-2.7-4.1-4.3-9-4.3-14.3   c0-14.4,11.6-26,26-26s26,11.6,26,26c0,5.3-1.6,10.2-4.3,14.3l4.2,2.7c3.2-4.9,5.1-10.7,5.1-17   C635.1,249.6,621.2,235.7,604.1,235.7z"
       id="path6954" /><path
       style="fill:#DEDFDF;"
       d="M628,284.8c-5.7,7.5-14.5,11.9-23.9,11.9s-18.2-4.4-23.9-11.9l-1.7,1.1c6,8,15.5,12.8,25.6,12.8   s19.5-4.8,25.6-12.8L628,284.8z"
       id="path6956" /><path
       style="opacity:0.5;fill:#FFFFFF;"
       d="M604.1,216.7c-27.6,0-50,22.4-50,50c0,13.8,5.6,26.3,14.6,35.4l70.7-70.7   C630.4,222.3,617.9,216.7,604.1,216.7z"
       id="path6958" /><path
       style="fill:#3F4041;"
       d="M604.1,216.7c-27.3,0-49.4,21.8-50,49h2c0.5-26,21.8-47,48-47c26.5,0,48,21.5,48,48s-21.5,48-48,48   s-48-21.5-48-48h-2c0,27.6,22.4,50,50,50c27.6,0,50-22.4,50-50S631.7,216.7,604.1,216.7z"
       id="path6960" /><path
       style="fill:#3F4041;"
       d="M630.3,285.1l-5.8-3.8l0.5-0.8c2.7-4.1,4.1-8.8,4.1-13.7c0-13.8-11.2-25-25-25s-25,11.2-25,25   c0,4.9,1.4,9.6,4.1,13.7l0.5,0.8l-5.8,3.8l-0.5-0.8c-3.4-5.2-5.2-11.3-5.2-17.5c0-17.6,14.4-32,32-32s32,14.4,32,32   c0,6.3-1.8,12.3-5.2,17.5L630.3,285.1z M627.2,280.7l2.5,1.6c2.9-4.7,4.4-10.1,4.4-15.6c0-16.5-13.5-30-30-30s-30,13.5-30,30   c0,5.5,1.5,10.9,4.4,15.6l2.5-1.6c-2.5-4.2-3.9-9-3.9-14c0-14.9,12.1-27,27-27s27,12.1,27,27C631.1,271.7,629.7,276.5,627.2,280.7z   "
       id="path6962" /></g><g
     id="g6964"><path
       style="fill:#DFE0E0;"
       d="M397.6,72.4c-0.2,0-0.5,0-0.7,0.1c-0.1,0-0.1,0-0.2,0c-0.2,0.1-0.5,0.1-0.7,0.2c0,0,0,0,0,0   c-0.1,0.1-0.3,0.1-0.4,0.2c-0.1,0-0.1,0.1-0.2,0.1c0,0-0.1,0.1-0.1,0.1c-0.2,0.1-0.4,0.3-0.5,0.4c0,0-0.1,0.1-0.1,0.1   c-0.1,0.1-0.2,0.3-0.3,0.4c0,0.1-0.1,0.1-0.1,0.2c-0.1,0.2-0.2,0.3-0.3,0.5c0,0.1-0.1,0.2-0.1,0.3c0,0.1-0.1,0.2-0.1,0.4   c0,0.1-0.1,0.2-0.1,0.4c0,0.1,0,0.3-0.1,0.4l0,0c0,0.1,0,0.1,0,0.2v0.8l-6.9-1.8l-3.8-6.6l7.8-4.5l-2.5-4.3l17.3-10l-7-12.1L394,30   l-2-3.5c-1.1-1.9-3.6-2.6-5.5-1.5l-70.1,40.5l18.9,8.7l7,12.1l29.4-17l2.5,4.3l6.9-4l4.2,7.3l8.2,2.2l0,3.1c0,2.2,1.8,4,4,4h9v-14   L397.6,72.4z"
       id="path6966" /><polygon
       style="fill:#95EAE1;"
       points="335.3,74.3 331.3,72.5 323.4,75.3 330.4,87.4 339.1,80.9  "
       id="polygon6968" /><path
       style="opacity:0.5;fill:#FFFFFF;"
       d="M392,26.6c-1.1-1.9-3.6-2.6-5.5-1.5l-70.1,40.5l15.6,7.2h0l-0.8-0.4l-7.8,2.8l7,12.1   l8.7-6.5l-0.6-1l2.4,4.1l53.4-53.4L394,30L392,26.6z"
       id="path6970" /><path
       style="fill:#FFFFFF;"
       d="M390.5,43.5c-2.4,1.4-3.2,4.4-1.8,6.8c1.4,2.4,4.4,3.2,6.8,1.8s3.2-4.4,1.8-6.8   C396,42.9,392.9,42.1,390.5,43.5L390.5,43.5z"
       id="path6972" /><polygon
       style="fill:#3F4041;"
       points="337.5,79.7 331.1,84.5 326.4,76.4 332.8,74 330.3,72.8 323.4,75.3 330.4,87.4 338.5,81.4     "
       id="polygon6974" /><circle
       style="fill:#3F4041;"
       cx="400.6"
       cy="79.4"
       r="2"
       id="circle6976" /><path
       style="fill:#3F4041;"
       d="M386.6,25.1l-70.1,40.5l18.9,8.7l7,12.1l29.4-17l2.5,4.3l6.9-4l4.2,7.3l8.2,2.2l0,3.1   c0,2.2,1.8,4,4,4l9,0v-14l-9,0c-0.7,0-1.4,0.2-2,0.5c-1.1,0.7-1.9,1.9-2,3.3l2,0.5l0-0.3c0-0.7,0.4-1.4,1-1.7   c0.3-0.2,0.6-0.3,1-0.3l7,0v10l-7,0c-0.5,0-1-0.2-1.4-0.6c-0.4-0.4-0.6-0.9-0.6-1.4l0-3.5l0-1.2l-8.9-2.4l-3.8-6.6l-1-1.7l-6.9,4   l-0.5-0.9l-0.5-0.9l-0.5-0.9l-1-1.7l-1.7,1l-27.7,16l-6-10.4l-0.3-0.5l-0.6-0.3l-15.4-7.1l66.8-38.6c1-0.6,2.2-0.2,2.7,0.7l2,3.5   l4.5,7.8l6,10.4l-15.6,9l-1.7,1l1,1.7l0.5,0.9l0.5,0.9l0.5,0.9l-5.2,3l1,1.7l6.9-4l-2.5-4.3l17.3-10l-7-12.1L394,30l-2-3.5   C390.9,24.7,388.5,24,386.6,25.1z"
       id="path6978" /><rect
       x="333.1"
       y="54"
       transform="matrix(0.866 -0.5 0.5 0.866 21.6049 190.6612)"
       style="fill:#3F4041;"
       width="67"
       height="2"
       id="rect6980" /><path
       style="fill:#3F4041;"
       d="M391.5,45.2c1.4-0.8,3.3-0.3,4.1,1.1c0.8,1.4,0.3,3.3-1.1,4.1s-3.3,0.3-4.1-1.1   C389.6,47.9,390.1,46.1,391.5,45.2 M390.5,43.5c-2.4,1.4-3.2,4.4-1.8,6.8c1.4,2.4,4.4,3.2,6.8,1.8s3.2-4.4,1.8-6.8   C396,42.9,392.9,42.1,390.5,43.5L390.5,43.5z"
       id="path6982" /></g><g
     id="g6984"><g
       id="g6986"><path
         style="fill:#DEDFDF;"
         d="M162.2,293.1h-80v-96c0-3.3,2.7-6,6-6h68c3.3,0,6,2.7,6,6V293.1z"
         id="path6988" /></g><g
       id="g6990"><path
         style="fill:#757778;"
         d="M162.2,211.1v-14c0-3.3-2.7-6-6-6h-68c-3.3,0-6,2.7-6,6v14H162.2z"
         id="path6992" /></g><g
       id="g6994"><ellipse
         transform="matrix(0.7071 -0.7071 0.7071 0.7071 -100.1676 164.2898)"
         style="fill:#2CD5C4;"
         cx="148.2"
         cy="203.1"
         rx="6"
         ry="6"
         id="ellipse6996" /></g><g
       id="g6998"><g
         id="g7000"><path
           style="fill:#FFFFFF;"
           d="M122.2,222.1c-16,0-29,13-29,29s13,29,29,29s29-13,29-29S138.2,222.1,122.2,222.1z"
           id="path7002" /></g></g><g
       id="g7004"><path
         style="fill:#DEDFDF;"
         d="M133.5,262.4c6.2-6.2,6.2-16.4,0-22.6l-22.6,22.6C117.2,268.6,127.3,268.6,133.5,262.4z"
         id="path7006" /></g><g
       id="g7008"><ellipse
         transform="matrix(0.7071 -0.7071 0.7071 0.7071 -104.2682 154.3903)"
         style="fill:#2CD5C4;"
         cx="134.2"
         cy="203.1"
         rx="6"
         ry="6"
         id="ellipse7010" /></g><g
       id="g7012"><g
         id="g7014"><path
           style="fill:#2CD5C4;"
           d="M122.2,222.1c-16,0-29,13-29,29s13,29,29,29s29-13,29-29S138.2,222.1,122.2,222.1z M122.2,270.1     c-10.5,0-19-8.5-19-19s8.5-19,19-19s19,8.5,19,19S132.7,270.1,122.2,270.1z"
           id="path7016" /></g></g><path
       style="opacity:0.5;fill:#FFFFFF;"
       d="M162.2,197.1c0-3.3-2.7-6-6-6h-68c-3.3,0-6,2.7-6,6v96l80-80V197.1z"
       id="path7018" /><g
       id="g7020"><path
         style="fill:#3F4041;"
         d="M122.2,272.1c11.6,0,21-9.4,21-21c0-11.6-9.4-21-21-21c-9.1,0-16.9,5.9-19.8,14l2,0.3    c2.7-7.2,9.6-12.4,17.8-12.4c10.5,0,19,8.5,19,19s-8.5,19-19,19c-8.2,0-15.1-5.1-17.8-12.4l-2,0.3    C105.3,266.2,113.1,272.1,122.2,272.1z"
         id="path7022" /><path
         style="fill:#3F4041;"
         d="M122.2,222.1c-13.1,0-24.2,8.7-27.8,20.7l2,0.3c3.4-11,13.7-19,25.8-19c14.9,0,27,12.1,27,27    c0,14.9-12.1,27-27,27c-12.1,0-22.4-8-25.8-19l-2,0.3c3.6,12,14.7,20.7,27.8,20.7c16,0,29-13,29-29S138.2,222.1,122.2,222.1z"
         id="path7024" /></g><path
       style="fill:#FFFFFF;"
       d="M114.2,200.1h-24v6h24V200.1L114.2,200.1z"
       id="path7026" /><path
       style="fill:#3F4041;"
       d="M112.2,202.1v2h-20v-2H112.2 M114.2,200.1h-24v6h24V200.1L114.2,200.1z"
       id="path7028" /><g
       id="g7030"><path
         style="fill:#3F4041;"
         d="M152.5,198.8c-1.2-1.2-2.7-1.8-4.2-1.8s-3.1,0.6-4.2,1.8c-2.3,2.3-2.3,6.1,0,8.5    c1.2,1.2,2.7,1.8,4.2,1.8s3.1-0.6,4.2-1.8C154.8,205,154.8,201.2,152.5,198.8z M151.1,205.9c-0.8,0.8-1.8,1.2-2.8,1.2    s-2.1-0.4-2.8-1.2c-1.6-1.6-1.6-4.1,0-5.7c0.8-0.8,1.8-1.2,2.8-1.2c0.7,0,1.4,0.2,2,0.6l-2.7,2.7l1.4,1.4l2.7-2.7    C152.6,202.6,152.4,204.6,151.1,205.9z"
         id="path7032" /><path
         style="fill:#3F4041;"
         d="M134.2,197.1c-1.5,0-3.1,0.6-4.2,1.8c-2.3,2.3-2.3,6.1,0,8.5c1.2,1.2,2.7,1.8,4.2,1.8    s3.1-0.6,4.2-1.8c2.3-2.3,2.3-6.1,0-8.5C137.3,197.6,135.8,197.1,134.2,197.1z M137.1,205.9c-0.8,0.8-1.8,1.2-2.8,1.2    s-2.1-0.4-2.8-1.2c-1.6-1.6-1.6-4.1,0-5.7c0.8-0.8,1.8-1.2,2.8-1.2c0.7,0,1.4,0.2,2,0.6l-2.7,2.7l1.4,1.4l2.7-2.7    C138.6,202.6,138.4,204.6,137.1,205.9z"
         id="path7034" /></g><path
       style="fill:#3F4041;"
       d="M95.7,246l5.9,1c-0.3,1.3-0.4,2.7-0.4,4.1c0,1.4,0.1,2.7,0.4,4.1l-5.9,1c-0.3-1.7-0.5-3.4-0.5-5.1   S95.4,247.7,95.7,246 M94.2,243.7c-0.6,2.3-0.9,4.8-0.9,7.3s0.3,5,0.9,7.3l9.9-1.7c-0.6-1.8-0.9-3.7-0.9-5.7c0-2,0.3-3.9,0.9-5.7   L94.2,243.7L94.2,243.7z"
       id="path7036" /><g
       id="g7038"><path
         style="fill:#3F4041;"
         d="M156.2,191.1h-68c-3.3,0-6,2.7-6,6v13h2v-13c0-2.2,1.8-4,4-4h68c2.2,0,4,1.8,4,4v12.5v1.5v2v1.2    v0.8v2v1.8v72.2h-76v-68.8v-5.2v-2v-1.2v-0.8h75v-2H84.9h-0.7h-2v6v76h80v-76v-6v-14C162.2,193.7,159.5,191.1,156.2,191.1z"
         id="path7040" /><rect
         x="85.2"
         y="215.1"
         style="fill:#3F4041;"
         width="74"
         height="2"
         id="rect7042" /></g></g><g
     id="g7044"><path
       style="fill:#DFE0E0;"
       d="M496.3,80.4v74l38,10l3-2v-8h9v-74H496.3z"
       id="path7046" /><polygon
       style="fill:#2CD5C4;"
       points="506.9,80.4 537.3,88.4 537.3,154.4 546.3,154.4 546.3,80.4  "
       id="polygon7048" /><polygon
       style="opacity:0.5;fill:#FFFFFF;"
       points="546.3,97.4 546.3,80.4 496.3,80.4 496.3,147.4  "
       id="polygon7050" /><rect
       x="538.3"
       y="157.4"
       style="fill:#3F4041;"
       width="8"
       height="2"
       id="rect7052" /><rect
       x="540.3"
       y="117.4"
       style="fill:#FFFFFF;"
       width="6"
       height="10"
       id="rect7054" /><path
       style="fill:#2CD5C4;"
       d="M551,117c0.5,3.6,0.5,7.2,0,10.8l1.9,0.5c0.6-3.9,0.6-7.9,0-11.9L551,117z"
       id="path7056" /><path
       style="fill:#2CD5C4;"
       d="M555.8,115.7c0.7,4.5,0.7,9,0,13.4l1.9,0.5c0.8-4.8,0.8-9.7,0-14.5L555.8,115.7z"
       id="path7058" /><path
       style="fill:#2CD5C4;"
       d="M560.7,114.3c0.9,5.3,0.9,10.7,0,16.1l1.9,0.5c1-5.7,1-11.5,0-17.1L560.7,114.3z"
       id="path7060" /><path
       style="fill:#2CD5C4;"
       d="M491.7,117c-0.5,3.6-0.5,7.2,0,10.8l-1.9,0.5c-0.6-3.9-0.6-7.9,0-11.9L491.7,117z"
       id="path7062" /><path
       style="fill:#2CD5C4;"
       d="M486.8,115.7c-0.7,4.5-0.7,9,0,13.4l-1.9,0.5c-0.8-4.8-0.8-9.7,0-14.5L486.8,115.7z"
       id="path7064" /><path
       style="fill:#2CD5C4;"
       d="M482,114.3c-0.9,5.3-0.9,10.7,0,16.1l-1.9,0.5c-1-5.7-1-11.5,0-17.1L482,114.3z"
       id="path7066" /><polygon
       style="fill:#3F4041;"
       points="503.8,157.4 496.3,157.4 496.3,159.4 511.4,159.4  "
       id="polygon7068" /><polygon
       style="fill:#3F4041;"
       points="510.5,83.4 535.3,89.9 535.3,151.4 537.3,151.4 537.3,88.4 518.3,83.4  "
       id="polygon7070" /><polygon
       style="fill:#3F4041;"
       points="543.3,125.4 542.3,125.4 542.3,119.4 543.3,119.4 543.3,117.4 540.3,117.4 540.3,127.4    543.3,127.4  "
       id="polygon7072" /><polygon
       style="fill:#3F4041;"
       points="496.3,80.4 496.3,154.4 531.3,163.6 531.3,161.5 498.3,152.8 498.3,83.4 498.3,83    498.3,82.4 503.9,82.4 504.8,82.4 506.7,82.4 514.5,82.4 520.9,82.4 544.3,82.4 544.3,152.4 543,152.4 537.3,152.4 535.3,152.4    535.3,161.3 534.3,162 534.3,90.4 507.7,83.4 504.8,83.4 499.9,83.4 532.3,91.9 532.3,150.9 532.3,161.8 532.3,163.9 534.3,164.4    537.3,162.4 537.3,154.4 546.3,154.4 546.3,80.4  "
       id="polygon7074" /><path
       style="fill:#FFFFFF;"
       d="M524.3,130.4c-2.2,0-4-1.8-4-4c0-2.2,1.8-4,4-4s4,1.8,4,4C528.3,128.6,526.5,130.4,524.3,130.4z"
       id="path7076" /><path
       style="fill:#3F4041;"
       d="M524.3,130.4c-2.2,0-4-1.8-4-4c0-2.2,1.8-4,4-4s4,1.8,4,4C528.3,128.6,526.5,130.4,524.3,130.4z    M524.3,124.4c-1.1,0-2,0.9-2,2s0.9,2,2,2s2-0.9,2-2S525.4,124.4,524.3,124.4z"
       id="path7078" /></g><text
     xml:space="preserve"
     style="font-style:normal;font-variant:normal;font-weight:normal;font-stretch:normal;font-size:40px;line-height:125%;font-family:'Museo Slab';-inkscape-font-specification:'Museo Slab, Normal';text-align:center;letter-spacing:0px;word-spacing:0px;writing-mode:lr-tb;text-anchor:middle;fill:#000000;fill-opacity:1;stroke:none;stroke-width:1px;stroke-linecap:butt;stroke-linejoin:miter;stroke-opacity:1"
     x="365.5683"
     y="183.89583"
     id="text7086"
     sodipodi:linespacing="125%"><tspan
       sodipodi:role="line"
       x="365.5683"
       y="183.89583"
       id="tspan7090"
       style="fill:#ed7d31;fill-opacity:1">Internet</tspan><tspan
       sodipodi:role="line"
       x="365.5683"
       y="233.89583"
       style="fill:#ed7d31;fill-opacity:1"
       id="tspan7102">of</tspan><tspan
       sodipodi:role="line"
       x="365.5683"
       y="283.89581"
       style="fill:#ed7d31;fill-opacity:1"
       id="tspan7104">Things</tspan></text>
<flowRoot
     xml:space="preserve"
     id="flowRoot7092"
     style="fill:black;stroke:none;stroke-opacity:1;stroke-width:1px;stroke-linejoin:miter;stroke-linecap:butt;fill-opacity:1;font-family:'Museo Slab';font-style:normal;font-weight:normal;font-size:40px;line-height:125%;letter-spacing:0px;word-spacing:0px;text-anchor:middle;text-align:center;-inkscape-font-specification:'Museo Slab, Normal';font-stretch:normal;font-variant:normal;writing-mode:lr"><flowRegion
       id="flowRegion7094"><rect
         id="rect7096"
         width="162.79213"
         height="63.78405"
         x="334.15228"
         y="209.59984" /></flowRegion><flowPara
       id="flowPara7098"></flowPara></flowRoot></svg>