<!-- Generator: Adobe Illustrator 18.1.1, SVG Export Plug-In  -->
<svg version="1.1"
	 xmlns="http://www.w3.org/2000/svg" xmlns:xlink="http://www.w3.org/1999/xlink" xmlns:a="http://ns.adobe.com/AdobeSVGViewerExtensions/3.0/"
	 x="0px" y="0px" width="401.815px" height="332.193px" viewBox="0 0 401.815 332.193" enable-background="new 0 0 401.815 332.193"
	 xml:space="preserve">
<defs>
</defs>
<g>
	<g>
		<path fill="#474A4D" d="M181.596,136.516h11.192c4.122-0.101,8.645,1.039,8.645,5.998c0,2.145-1.273,3.887-3.15,4.825
			c2.547,0.771,4.122,2.948,4.122,5.663c0,5.696-4.188,7.438-9.315,7.438h-11.493V136.516z M187.829,145.932h4.825
			c1.072,0,2.547-0.57,2.547-2.279c0-1.742-1.24-2.312-2.547-2.312h-4.825V145.932z M187.829,155.448h4.993
			c1.977,0,3.351-0.703,3.351-2.681c0-2.11-1.475-2.814-3.351-2.814h-4.993V155.448z"/>
		<path fill="#474A4D" d="M205.789,136.516h6.232v23.925h-6.232V136.516z"/>
		<path fill="#474A4D" d="M238.427,160.441h-4.021l-0.369-2.613c-1.608,2.312-4.523,3.116-6.668,3.116
			c-7.271,0-11.929-5.529-11.929-12.466c0-6.936,4.658-12.465,11.929-12.465c4.959,0,10.287,2.614,10.823,8.646h-6.233
			c-0.234-2.044-2.178-3.284-4.725-3.284c-4.021,0-5.562,3.519-5.562,7.104c0,3.586,1.542,7.104,5.562,7.104
			c3.083,0,5.127-1.441,5.496-3.619h-4.356v-4.624h10.053V160.441z"/>
		<path fill="#474A4D" d="M167.924,169.095h10.287c7.338,0,11.728,4.456,11.728,11.862c0,7.841-4.457,12.062-11.728,12.062h-10.287
			V169.095z M174.156,187.659h2.949c4.725-0.101,6.601-1.943,6.601-6.735c0-4.39-2.312-6.467-6.601-6.467h-2.949V187.659z"/>
		<path fill="#474A4D" d="M199.858,169.095h6.333l8.947,23.925h-6.5l-1.474-4.289h-8.344l-1.508,4.289h-6.4L199.858,169.095z
			 M200.26,184.107h5.428l-2.647-8.377h-0.067L200.26,184.107z"/>
		<path fill="#474A4D" d="M232.831,174.456h-7.137v18.563h-6.233v-18.563h-7.137v-5.361h20.507V174.456z"/>
		<path fill="#474A4D" d="M238.997,169.095h6.333l8.947,23.925h-6.5l-1.475-4.289h-8.343l-1.508,4.289h-6.4L238.997,169.095z
			 M239.399,184.107h5.428l-2.647-8.377h-0.067L239.399,184.107z"/>
	</g>
	<circle fill="none" stroke="#474A4D" stroke-width="2.234" cx="213.45" cy="169.455" r="59.968"/>
	<circle fill="#F15A29" cx="215.011" cy="115.147" r="3.708"/>
	<path fill="none" stroke="#F15A29" stroke-width="2.234" d="M213.578,114.913c30.122,0,54.541,24.419,54.541,54.542
		c0,30.122-24.418,54.541-54.541,54.541"/>
	<circle fill="#F15A29" cx="213.577" cy="223.529" r="3.709"/>
	<circle fill="none" stroke="#474A4D" stroke-width="1.117" cx="366.125" cy="152.273" r="35.131"/>
	<circle fill="none" stroke="#474A4D" stroke-width="1.117" cx="144.154" cy="257.452" r="26.05"/>
	<circle fill="none" stroke="#474A4D" stroke-width="1.117" cx="35.69" cy="176.972" r="35.131"/>
	<circle fill="none" stroke="#474A4D" stroke-width="1.117" cx="366.125" cy="294.769" r="35.131"/>
	<circle fill="none" stroke="#474A4D" stroke-width="1.117" cx="216.868" cy="296.503" r="35.131"/>
	<circle fill="none" stroke="#474A4D" stroke-width="1.117" cx="35.982" cy="36.308" r="35.131"/>
	<circle fill="none" stroke="#474A4D" stroke-width="1.117" cx="201.11" cy="35.69" r="35.131"/>
	<circle fill="none" stroke="#474A4D" stroke-width="1.117" cx="35.884" cy="294.961" r="35.131"/>
	<circle fill="none" stroke="#474A4D" stroke-width="1.117" cx="365.935" cy="36.207" r="35.131"/>
	<circle fill="none" stroke="#474A4D" stroke-width="1.117" cx="325.587" cy="221.949" r="26.05"/>
	<circle fill="none" stroke="#474A4D" stroke-width="1.117" cx="94.137" cy="104.401" r="26.05"/>
	<circle fill="none" stroke="#474A4D" stroke-width="1.117" cx="285.827" cy="60.312" r="26.05"/>
	<polyline fill="none" stroke="#474A4D" stroke-width="1.117" points="201.111,70.822 201.111,82.363 218.72,109.719 	"/>
	<polyline fill="none" stroke="#474A4D" stroke-width="1.117" points="365.935,71.338 365.935,98.903 305.705,98.903 
		262.154,134.462 	"/>
	<polyline fill="none" stroke="#474A4D" stroke-width="1.117" points="330.994,152.273 287.699,152.273 272.456,162.925 	"/>
	<polyline fill="none" stroke="#474A4D" stroke-width="1.117" points="259.777,60.312 243.696,68.953 233.488,112.92 	"/>
	<polyline fill="none" stroke="#474A4D" stroke-width="1.117" points="71.113,36.308 146.665,36.308 146.665,69.57 181.253,118.856 
			"/>
	<polyline fill="none" stroke="#474A4D" stroke-width="1.117" points="94.138,130.45 94.138,138.33 153.482,161.123 	"/>
	<polyline fill="none" stroke="#474A4D" stroke-width="1.117" points="70.821,176.972 112.115,176.972 152.319,173.428 	"/>
	<polyline fill="none" stroke="#474A4D" stroke-width="1.117" points="35.885,259.829 35.885,242.282 165.979,206.096 	"/>
	<polyline fill="none" stroke="#474A4D" stroke-width="1.117" points="170.204,257.452 181.253,257.452 197.365,227.238 	"/>
	<polyline fill="none" stroke="#474A4D" stroke-width="1.117" points="216.869,261.371 216.869,251.461 213.45,229.423 	"/>
	<polyline fill="none" stroke="#474A4D" stroke-width="1.117" points="330.994,294.769 271.231,294.769 250.909,217.595 	"/>
	<polyline fill="none" stroke="#474A4D" stroke-width="1.117" points="299.537,221.949 288.424,221.949 272.456,180.205 	"/>
	<polygon fill="#474A4D" points="337.912,210.307 342.63,218.782 340.74,218.782 340.74,221.091 340.736,228.52 340.736,239.378 
		335.08,239.378 335.08,228.52 335.08,227.515 335.08,222.595 335.08,221.091 335.08,218.782 333.19,218.782 	"/>
	<polygon fill="#474A4D" points="329.389,220.997 334.108,229.472 332.221,229.472 332.221,231.781 332.285,239.21 326.558,239.21 
		326.558,233.285 326.558,231.781 326.558,229.472 324.671,229.472 	"/>
	<polygon fill="#474A4D" points="321.085,226.985 325.807,235.46 323.917,235.46 323.917,239.277 318.257,239.277 318.257,235.46 
		316.37,235.46 	"/>
	<polygon fill="#F15A29" points="313.294,230.514 313.294,225.323 311.887,225.323 311.887,224.713 313.294,224.713 
		313.294,219.763 311.887,219.763 311.887,219.153 313.294,219.153 313.294,214.435 311.887,214.435 311.887,213.825 
		313.294,213.825 313.294,208.876 311.887,208.876 311.887,208.266 313.294,208.266 313.294,203.906 314.102,203.906 
		314.102,208.266 315.107,208.266 315.107,208.876 314.102,208.876 314.102,213.825 315.107,213.825 315.107,214.435 
		314.102,214.435 314.102,219.153 315.107,219.153 315.107,219.763 314.102,219.763 314.102,224.713 315.107,224.713 
		315.107,225.323 314.102,225.323 314.102,230.514 314.973,230.514 314.973,231.12 314.102,231.12 314.102,236.073 314.973,236.073 
		314.973,236.683 314.102,236.683 314.102,239.277 313.294,239.277 313.294,236.683 311.752,236.683 311.752,236.073 
		313.294,236.073 313.294,231.12 311.752,231.12 311.752,230.514 	"/>
	<path fill="#F15A29" d="M390.975,22.53c0-0.404,0.324-0.731,0.727-0.731c0.4,0,0.727,0.327,0.727,0.731v2.667h0.76v5.462h-0.76
		v3.636c0,0.404-0.327,0.731-0.727,0.731c-0.404,0-0.727-0.327-0.727-0.731v-3.636h-0.764v-5.462h0.764V22.53z"/>
	<path fill="#474A4D" d="M386.806,20.466v5.458h-0.763v3.641c0,0.404-0.328,0.727-0.727,0.727c-0.404,0-0.727-0.323-0.727-0.727
		v-3.641h-0.764v-5.458h0.764v-2.671c0-0.4,0.323-0.728,0.727-0.728c0.399,0,0.727,0.327,0.727,0.728v2.671H386.806z"/>
	<path fill="#F15A29" d="M379.901,35.588c0,0.404-0.324,0.728-0.728,0.728c-0.399,0-0.727-0.324-0.727-0.728v-3.64h-0.761V26.49
		h0.761v-2.671c0-0.4,0.327-0.727,0.727-0.727c0.404,0,0.728,0.327,0.728,0.727v2.671h0.764v5.458h-0.764V35.588z"/>
	<path fill="#474A4D" d="M374.572,15.532v5.463h-0.764v3.64c0,0.4-0.323,0.727-0.727,0.727c-0.4,0-0.727-0.327-0.727-0.727v-3.64
		h-0.759v-5.463h0.759v-2.666c0-0.404,0.327-0.727,0.727-0.727c0.404,0,0.727,0.323,0.727,0.727v2.666H374.572z"/>
	<path fill="#F15A29" d="M367.703,27.637v3.636c0,0.405-0.327,0.731-0.727,0.731c-0.404,0-0.731-0.327-0.731-0.731v-3.636h-0.76
		v-5.462h0.76v-2.666c0-0.404,0.327-0.732,0.731-0.732c0.401,0,0.727,0.328,0.727,0.732v2.666h0.76v5.462H367.703z"/>
	<path fill="#474A4D" d="M359.801,47.455c0-0.631,0.509-1.136,1.136-1.136c0.63,0,1.139,0.505,1.139,1.136
		c0,0.625-0.509,1.135-1.139,1.135C360.31,48.59,359.801,48.08,359.801,47.455z"/>
	<circle fill="#474A4D" cx="350.565" cy="41.259" r="1.138"/>
	<path fill="#474A4D" d="M350.565,38.057c-1.766,0-3.2,1.434-3.2,3.204c0,1.766,1.435,3.2,3.2,3.2c1.769,0,3.204-1.434,3.204-3.2
		C353.769,39.491,352.334,38.057,350.565,38.057z M360.937,44.25c-1.766,0-3.2,1.435-3.2,3.204c0,1.766,1.435,3.2,3.2,3.2
		c1.769,0,3.204-1.434,3.204-3.2C364.141,45.685,362.706,44.25,360.937,44.25z M360.003,38.817c0-0.643-0.367-1.253-0.982-1.535
		c-0.849-0.392-1.854-0.021-2.242,0.824l-5.216,11.313c-0.105,0.23-0.158,0.468-0.158,0.707c0,0.638,0.368,1.248,0.982,1.535
		c0.849,0.392,1.855,0.02,2.243-0.824l5.216-11.313C359.95,39.293,360.003,39.055,360.003,38.817z M383.897,39.528
		c0,11.458-9.288,20.747-20.747,20.747c-11.458,0-20.747-9.288-20.747-20.747c0-11.458,9.289-20.751,20.747-20.751v20.751H383.897z"
		/>
	<polygon fill="#F15A29" points="229.097,30.923 229.097,33.301 216.324,33.301 212.891,22.2 210.754,22.2 207.552,61.059 
		199.224,61.059 196.813,48.46 187.759,48.46 187.759,46.11 198.797,46.11 201.032,58.923 204.99,58.923 208.619,19.846 
		214.385,19.846 217.801,30.923 	"/>
	
		<rect x="177.023" y="45.197" transform="matrix(0.8811 0.4729 -0.4729 0.8811 44.1537 -79.847)" fill="#474A4D" width="7.709" height="5.385"/>
	<path fill="#474A4D" d="M199.113,13.904c6.08,3.261,8.364,10.836,5.101,16.914c-2.627,4.895-8.043,7.323-13.229,6.386l-5.034,9.381
		l-6.791-3.645l5.031-9.381c-3.645-3.8-4.615-9.663-1.992-14.555C185.461,12.926,193.036,10.642,199.113,13.904z M200.893,29.035
		c2.276-4.244,0.684-9.53-3.561-11.809c-4.245-2.276-9.532-0.681-11.81,3.561c-2.276,4.245-0.682,9.53,3.562,11.809
		C193.327,34.876,198.614,33.28,200.893,29.035z"/>
	<path fill="#474A4D" d="M94.137,116.085c0.908,0,1.642-0.736,1.642-1.643c0-0.906-0.734-1.639-1.642-1.639
		c-0.907,0-1.64,0.733-1.64,1.639C92.496,115.348,93.23,116.085,94.137,116.085z M108.963,111.748V92.152H79.309v19.596H108.963z
		 M110.699,90.072v26.706H77.576V90.072H110.699z"/>
	<path fill="#474A4D" d="M102.549,120.871v0.414c0,0-0.176,0.729-3.296,0.729c-3.122,0-3.122,0-3.122,0h-3.988c0,0,0,0-3.12,0
		c-3.124,0-3.298-0.729-3.298-0.729v-0.414H102.549z"/>
	<polygon fill="#474A4D" points="97.865,119.414 102.549,120.454 85.725,120.454 90.41,119.414 90.41,117.333 94.137,117.333 
		97.865,117.333 	"/>
	<rect x="84.117" y="101.88" fill="#F15A29" width="1.856" height="7.601"/>
	<rect x="86.68" y="95.788" fill="#F15A29" width="1.856" height="13.692"/>
	<rect x="89.299" y="97.429" fill="#F15A29" width="1.855" height="12.051"/>
	<rect x="91.861" y="100.32" fill="#F15A29" width="1.858" height="9.161"/>
	<rect x="94.555" y="102.634" fill="#F15A29" width="1.857" height="6.846"/>
	<rect x="97.117" y="105.68" fill="#F15A29" width="1.858" height="3.8"/>
	<rect x="99.737" y="99.07" fill="#F15A29" width="1.857" height="10.41"/>
	<rect x="102.299" y="95.788" fill="#F15A29" width="1.858" height="13.692"/>
	<path fill="#474A4D" d="M155.526,240.218c0.386,0,0.698-0.313,0.698-0.695c0-0.385-0.312-0.699-0.698-0.699
		c-0.382,0-0.696,0.313-0.696,0.699C154.83,239.906,155.143,240.218,155.526,240.218z M159.74,249.547
		c0.76,0,1.375-0.614,1.375-1.375c0-0.759-0.616-1.375-1.375-1.375c-0.76,0-1.376,0.616-1.376,1.375
		C158.364,248.933,158.98,249.547,159.74,249.547z M136.304,242.751c0,1.985,1.611,3.597,3.597,3.597
		c1.987,0,3.599-1.611,3.599-3.597c0-1.987-1.612-3.601-3.599-3.601C137.914,239.15,136.304,240.764,136.304,242.751z
		 M139.899,257.343c5,0.73,8.84,5.032,8.84,10.233c0,5.715-4.631,10.345-10.344,10.345c-5.713,0-10.344-4.63-10.344-10.345
		c0-5.373,4.097-9.787,9.337-10.295l0.614-7.588c-3.052-0.833-5.297-3.626-5.297-6.94c0-3.975,3.222-7.196,7.195-7.196
		c3.974,0,7.196,3.221,7.196,7.196c0,0.357-0.027,0.708-0.078,1.049l10.377,2.938c0.245-0.399,0.586-0.73,0.993-0.961l-2.469-4.637
		c-0.125,0.029-0.257,0.046-0.393,0.046c-0.92,0-1.666-0.745-1.666-1.664c0-0.923,0.746-1.67,1.666-1.67
		c0.921,0,1.668,0.747,1.668,1.67c0,0.448-0.179,0.855-0.471,1.158l2.547,4.781c0.153-0.027,0.309-0.041,0.47-0.041
		c1.52,0,2.751,1.23,2.751,2.751c0,1.52-1.231,2.752-2.751,2.752c-1.458,0-2.647-1.134-2.742-2.57c-0.004,0-0.006,0-0.01-0.002
		l-10.401-2.942c-0.989,2.481-3.314,4.281-6.085,4.512L139.899,257.343z M138.395,272.749c2.858,0,5.173-2.317,5.173-5.174
		c0-2.856-2.315-5.173-5.173-5.173c-2.856,0-5.172,2.317-5.172,5.173C133.224,270.433,135.539,272.749,138.395,272.749z"/>
	<rect x="237.198" y="277.06" fill="#474A4D" width="5.083" height="3.118"/>
	<rect x="230.141" y="277.06" fill="#474A4D" width="5.092" height="3.118"/>
	<rect x="223.367" y="281.499" fill="#474A4D" width="5.083" height="3.11"/>
	<rect x="223.367" y="277.06" fill="#474A4D" width="5.083" height="3.118"/>
	<path fill="#F15A29" d="M191.945,314.164c-0.908-1.022-0.819-2.59,0.203-3.488l23.159-20.632c0.529-0.466,1.207-0.678,1.859-0.617
		c0.071-0.009,0.132-0.009,0.203-0.009c1.101,0,2.114,0.749,2.405,1.859l4.352,16.737l8.941-19.654l-6.237,3.48
		c-0.916,0.51-2.079,0.185-2.59-0.74c-0.51-0.908-0.185-2.062,0.74-2.582l4.308-2.404l8.615-4.801
		c0.687-0.388,1.497-0.308,2.088,0.14c0.678,0.273,1.172,0.934,1.198,1.727l0.423,14.791c0.026,1.048-0.801,1.921-1.849,1.955
		c-1.058,0.027-1.93-0.801-1.956-1.85l-0.22-7.655l-11.787,25.918c-0.115,0.238-0.255,0.457-0.432,0.642
		c-0.317,0.38-0.749,0.661-1.26,0.793c-1.329,0.352-2.686-0.449-3.03-1.771l-5.163-19.856l-20.463,18.218
		C194.429,315.283,192.852,315.186,191.945,314.164z"/>
	<polygon fill="#474A4D" points="221.553,285.94 221.553,289.058 217.368,289.058 216.461,289.058 216.461,285.94 	"/>
	<rect x="216.461" y="281.499" fill="#474A4D" width="5.092" height="3.11"/>
	<rect x="216.461" y="277.06" fill="#474A4D" width="5.092" height="3.118"/>
	<rect x="209.413" y="285.94" fill="#474A4D" width="5.084" height="3.118"/>
	<rect x="209.413" y="281.499" fill="#474A4D" width="5.084" height="3.11"/>
	<rect x="209.413" y="277.06" fill="#474A4D" width="5.084" height="3.118"/>
	<rect x="202.63" y="290.37" fill="#474A4D" width="5.092" height="3.11"/>
	<rect x="202.63" y="285.94" fill="#474A4D" width="5.092" height="3.118"/>
	<rect x="202.63" y="281.499" fill="#474A4D" width="5.092" height="3.11"/>
	<rect x="202.63" y="277.06" fill="#474A4D" width="5.092" height="3.118"/>
	<rect x="195.583" y="299.462" fill="#474A4D" width="5.083" height="3.118"/>
	<rect x="195.583" y="295.031" fill="#474A4D" width="5.083" height="3.118"/>
	<rect x="195.583" y="290.37" fill="#474A4D" width="5.083" height="3.11"/>
	<rect x="195.583" y="285.94" fill="#474A4D" width="5.083" height="3.118"/>
	<rect x="195.583" y="281.499" fill="#474A4D" width="5.083" height="3.11"/>
	<rect x="195.583" y="277.06" fill="#474A4D" width="5.083" height="3.118"/>
	<rect x="34.612" y="54.569" fill="#474A4D" width="9.028" height="1.76"/>
	<rect x="34.612" y="51.486" fill="#474A4D" width="9.028" height="1.764"/>
	<rect x="34.612" y="48.21" fill="#474A4D" width="9.028" height="1.759"/>
	<rect x="34.612" y="45.126" fill="#474A4D" width="9.028" height="1.759"/>
	<rect x="46.228" y="54.69" fill="#474A4D" width="9.033" height="1.764"/>
	<rect x="46.228" y="51.605" fill="#474A4D" width="9.033" height="1.764"/>
	<rect x="46.228" y="48.329" fill="#474A4D" width="9.033" height="1.761"/>
	<rect x="46.228" y="45.245" fill="#474A4D" width="9.033" height="1.762"/>
	<rect x="46.228" y="41.958" fill="#474A4D" width="9.033" height="1.759"/>
	<rect x="46.228" y="38.873" fill="#474A4D" width="9.033" height="1.759"/>
	<rect x="46.228" y="35.596" fill="#474A4D" width="9.033" height="1.759"/>
	<rect x="46.228" y="32.511" fill="#474A4D" width="9.033" height="1.759"/>
	<rect x="46.228" y="29.369" fill="#474A4D" width="9.033" height="1.759"/>
	<rect x="46.228" y="26.286" fill="#474A4D" width="9.033" height="1.759"/>
	<rect x="23.16" y="54.508" fill="#474A4D" width="9.028" height="1.759"/>
	<rect x="23.16" y="29.185" fill="#474A4D" width="9.028" height="1.764"/>
	<rect x="23.16" y="38.686" fill="#474A4D" width="9.028" height="1.764"/>
	<rect x="23.16" y="35.41" fill="#474A4D" width="9.028" height="1.764"/>
	<rect x="23.16" y="32.327" fill="#474A4D" width="9.028" height="1.764"/>
	<rect x="23.16" y="41.772" fill="#474A4D" width="9.028" height="1.764"/>
	<rect x="23.16" y="45.064" fill="#474A4D" width="9.028" height="1.759"/>
	<rect x="23.16" y="26.102" fill="#474A4D" width="9.028" height="1.764"/>
	<rect x="23.16" y="48.142" fill="#474A4D" width="9.028" height="1.764"/>
	<rect x="23.16" y="22.825" fill="#474A4D" width="9.028" height="1.764"/>
	<rect x="23.16" y="51.423" fill="#474A4D" width="9.028" height="1.759"/>
	<rect x="11.54" y="54.632" fill="#474A4D" width="9.028" height="1.759"/>
	<rect x="11.54" y="51.546" fill="#474A4D" width="9.028" height="1.766"/>
	<rect x="11.54" y="48.27" fill="#474A4D" width="9.028" height="1.759"/>
	<rect x="11.54" y="45.187" fill="#474A4D" width="9.028" height="1.759"/>
	<rect x="11.54" y="41.895" fill="#474A4D" width="9.028" height="1.764"/>
	<rect x="11.54" y="38.814" fill="#474A4D" width="9.028" height="1.761"/>
	<rect x="46.228" y="23.005" fill="#474A4D" width="9.033" height="1.764"/>
	<rect x="46.228" y="19.679" fill="#474A4D" width="9.033" height="1.763"/>
	<rect x="46.228" y="16.599" fill="#474A4D" width="9.033" height="1.76"/>
	<rect x="46.228" y="13.318" fill="#474A4D" width="9.033" height="1.764"/>
	<path fill="#474A4D" d="M385.298,276.898c4.071,0,7.369,3.297,7.369,7.367c0,4.07-3.298,7.368-7.369,7.368
		c-4.069,0-7.367-3.298-7.367-7.368C377.93,280.195,381.228,276.898,385.298,276.898z M391.42,284.265
		c0-3.36-2.723-6.083-6.081-6.083c-3.359,0-6.082,2.723-6.082,6.083c0,3.359,2.723,6.085,6.082,6.085
		C388.697,290.349,391.42,287.624,391.42,284.265z"/>
	<polygon fill="#F15A29" points="381.447,275.36 379.382,278.182 377.314,275.36 378.348,275.36 378.348,271.659 371.812,271.659 
		371.812,269.537 380.416,269.537 380.416,271.659 380.416,275.36 	"/>
	<polygon fill="#F15A29" points="380.951,290.775 380.951,299.381 378.832,299.381 375.13,299.381 375.13,300.417 372.307,298.349 
		375.13,296.281 375.13,297.316 378.832,297.316 378.832,290.775 	"/>
	<path fill="#474A4D" d="M369.958,312.146v11.163h-19.379v-11.163H369.958z M368.973,322.137v-8.819h-17.411v8.819H368.973z"/>
	<path fill="#474A4D" d="M369.958,290.314v11.158h-19.379v-11.158H369.958z M368.973,300.306v-8.816h-17.411v8.816H368.973z"/>
	<path fill="#474A4D" d="M369.958,266.973v11.163h-19.379v-11.163H369.958z M368.973,276.961v-8.812h-17.411v8.812H368.973z"/>
	<polygon fill="#F15A29" points="362.832,287.128 360.268,289.682 357.703,287.128 358.987,287.128 358.987,280.19 361.55,280.19 
		361.55,287.128 	"/>
	<polygon fill="#F15A29" points="362.832,309.226 360.268,311.777 357.703,309.226 358.987,309.226 358.987,302.285 361.55,302.285 
		361.55,309.226 	"/>
	<path fill="#474A4D" d="M294.052,56.873c2.769,0,5.013-2.244,5.013-5.013c0-2.77-2.244-5.014-5.013-5.014
		c-2.769,0-5.014,2.244-5.014,5.014c0,0.347,0.036,0.685,0.102,1.012C289.608,55.156,291.629,56.873,294.052,56.873z
		 M294.052,47.824c2.229,0,4.035,1.807,4.035,4.037c0,2.229-1.806,4.036-4.035,4.036c-2.23,0-4.037-1.806-4.037-4.036
		C290.015,49.631,291.822,47.824,294.052,47.824z"/>
	<path fill="#474A4D" d="M294.052,58.644c-2.769,0-5.014,2.245-5.014,5.014c0,0.329,0.032,0.651,0.092,0.962
		c0.449,2.31,2.482,4.052,4.922,4.052c2.769,0,5.013-2.243,5.013-5.014C299.065,60.889,296.821,58.644,294.052,58.644z
		 M294.052,67.694c-2.23,0-4.037-1.807-4.037-4.036c0-2.229,1.807-4.036,4.037-4.036c2.229,0,4.035,1.807,4.035,4.036
		C298.087,65.887,296.28,67.694,294.052,67.694z"/>
	<path fill="#474A4D" d="M294.052,70.557c-2.422,0-4.443,1.717-4.912,4c-0.067,0.329-0.103,0.667-0.103,1.014
		c0,2.769,2.245,5.014,5.014,5.014c2.769,0,5.013-2.245,5.013-5.014C299.065,72.799,296.821,70.557,294.052,70.557z M294.052,79.606
		c-2.23,0-4.037-1.807-4.037-4.036c0-2.229,1.807-4.036,4.037-4.036c2.229,0,4.035,1.807,4.035,4.036
		C298.087,77.799,296.28,79.606,294.052,79.606z"/>
	<path fill="#474A4D" d="M295.832,76.254h-3.431c-0.069,0-0.131,0.028-0.177,0.072c-0.044,0.047-0.072,0.107-0.072,0.179
		c0,0.135,0.111,0.247,0.249,0.247h3.431c0.137,0,0.249-0.111,0.249-0.247C296.081,76.365,295.969,76.254,295.832,76.254z"/>
	<path fill="#474A4D" d="M295.81,64.341h-3.43c-0.071,0-0.132,0.028-0.177,0.072c-0.045,0.046-0.073,0.11-0.073,0.179
		c0,0.135,0.111,0.247,0.25,0.247h3.43c0.137,0,0.25-0.112,0.25-0.247C296.06,64.453,295.947,64.341,295.81,64.341z"/>
	<path fill="#474A4D" d="M295.788,52.488h-3.43c-0.069,0-0.132,0.027-0.177,0.072c-0.044,0.046-0.071,0.109-0.071,0.176
		c0,0.138,0.109,0.251,0.249,0.251h3.43c0.138,0,0.251-0.113,0.251-0.251C296.039,52.599,295.926,52.488,295.788,52.488z"/>
	<path fill="#474A4D" d="M292.358,74.887h3.43c0.138,0,0.251-0.111,0.251-0.251c0-0.136-0.113-0.249-0.251-0.249h-3.43
		c-0.069,0-0.132,0.028-0.177,0.073c-0.044,0.044-0.071,0.108-0.071,0.176C292.109,74.776,292.218,74.887,292.358,74.887z"/>
	<path fill="#474A4D" d="M292.336,62.975h3.43c0.138,0,0.251-0.112,0.251-0.251c0-0.135-0.113-0.247-0.251-0.247h-3.43
		c-0.069,0-0.131,0.028-0.177,0.072c-0.044,0.044-0.073,0.108-0.073,0.175C292.087,62.863,292.199,62.975,292.336,62.975z"/>
	<path fill="#474A4D" d="M292.316,51.122h3.43c0.138,0,0.25-0.112,0.25-0.251c0-0.138-0.112-0.249-0.25-0.249h-3.43
		c-0.07,0-0.132,0.028-0.177,0.073c-0.046,0.045-0.074,0.109-0.074,0.177C292.065,51.01,292.177,51.122,292.316,51.122z"/>
	<polygon fill="#474A4D" points="277.603,49.617 276.651,49.617 276.654,75.57 288.259,75.57 288.259,74.557 277.603,74.557 
		277.603,64.621 288.259,64.621 288.259,63.658 277.603,63.658 277.603,52.872 288.259,52.872 288.259,51.861 277.603,51.861 	"/>
	<path fill="#474A4D" d="M277.603,48.978c2.77,0,5.014-2.246,5.014-5.016c0-2.769-2.244-5.013-5.014-5.013
		c-2.768,0-5.013,2.244-5.013,5.013c0,2.444,1.747,4.48,4.061,4.925C276.958,48.946,277.278,48.978,277.603,48.978z M273.568,43.962
		c0-2.228,1.807-4.035,4.035-4.035c2.23,0,4.037,1.807,4.037,4.035c0,2.23-1.806,4.037-4.037,4.037
		C275.375,47.999,273.568,46.192,273.568,43.962z"/>
	<path fill="#474A4D" d="M279.568,44.807c0-0.139-0.111-0.251-0.249-0.251h-3.43c-0.068,0-0.132,0.028-0.177,0.074
		c-0.045,0.045-0.074,0.107-0.074,0.177c0,0.136,0.113,0.249,0.251,0.249h3.43C279.456,45.056,279.568,44.943,279.568,44.807z"/>
	<path fill="#474A4D" d="M275.846,43.19h3.43c0.14,0,0.25-0.113,0.25-0.249c0-0.139-0.111-0.251-0.25-0.251h-3.43
		c-0.07,0-0.132,0.028-0.178,0.074c-0.045,0.046-0.073,0.107-0.073,0.177C275.595,43.078,275.706,43.19,275.846,43.19z"/>
	<path fill="#474A4D" d="M52.823,200.693h5.246v-5.911c0,0-2.027-0.14-5.246-0.691V200.693z"/>
	<path fill="#F15A29" d="M45.238,200.693h5.819v-6.927c-1.727-0.334-3.699-0.779-5.819-1.358V200.693z"/>
	<path fill="#474A4D" d="M36.922,200.693h6.19v-8.896c-1.99-0.609-4.077-1.334-6.19-2.195V200.693z"/>
	<path fill="#F15A29" d="M29.683,200.693h5.062v-12.036c-1.697-0.768-3.396-1.636-5.062-2.606V200.693z"/>
	<path fill="#474A4D" d="M58.069,192.697l-0.637-2.255c0,0-22.856-5.093-32.443-26.99l4.695-0.297l-10.658-9.904l-5.716,13.033
		l3.795-1.391C25.64,189.047,58.069,192.697,58.069,192.697z"/>
	<path fill="#474A4D" d="M22.417,200.693h5.632v-15.636c-1.961-1.252-3.86-2.657-5.632-4.237V200.693z"/>
	<path fill="#F15A29" d="M15.776,172.975v27.718h5.271v-21.149C19.073,177.604,17.284,175.425,15.776,172.975z"/>
	<rect x="340.958" y="167.93" fill="#474A4D" width="50.495" height="1.493"/>
	<path fill="#474A4D" d="M391.453,167.067h-17.779h-14.942h-17.775l5.376-5.376h19.871h19.868L391.453,167.067z M369.192,166.218
		l-0.83-1.344h-4.315l-0.83,1.344H369.192z"/>
	<path fill="#474A4D" d="M386.074,132.44v28.234h-39.739V132.44H386.074z M384.208,158.403v-24.354h-36.004v24.354H384.208z"/>
	<polygon fill="#474A4D" points="381.565,155.927 379.491,156.701 379.491,156.258 351.115,156.258 351.115,155.815 
		351.115,137.258 350.643,137.258 351.413,135.18 352.18,137.258 351.562,137.258 351.562,155.815 379.491,155.815 379.491,155.163 
			"/>
	<rect x="353.506" y="151.846" fill="#474A4D" width="20.583" height="1.642"/>
	<rect x="353.506" y="147.363" fill="#F15A29" width="15.322" height="1.646"/>
	<rect x="353.506" y="143.256" fill="#474A4D" width="11.505" height="1.642"/>
	<rect x="353.506" y="138.997" fill="#F15A29" width="6.423" height="1.642"/>
	<path fill="#474A4D" d="M59.048,298.344v16.596H48.779v-16.596H59.048z M55.923,311.617v-9.654h-4.018v9.654H55.923z"/>
	<rect x="52.455" y="278.605" fill="#474A4D" width="4.493" height="16.596"/>
	<path fill="#474A4D" d="M47.466,278.605V295.2H37.197v-16.596H47.466z M44.34,291.878v-9.654h-4.018v9.654H44.34z"/>
	<rect x="40.085" y="298.344" fill="#474A4D" width="4.493" height="16.596"/>
	<path fill="#474A4D" d="M35.361,298.107v16.596H25.092v-16.596H35.361z M32.236,311.38v-9.654h-4.018v9.654H32.236z"/>
	<rect x="27.98" y="278.455" fill="#474A4D" width="4.493" height="16.595"/>
	<path fill="#474A4D" d="M22.99,278.455v16.595H12.722v-16.595H22.99z M19.865,291.728v-9.654h-4.018v9.654H19.865z"/>
	<rect x="15.609" y="298.15" fill="#474A4D" width="4.493" height="16.595"/>
</g>
</svg>