<?xml version="1.0" encoding="utf-8"?>
<!-- Generator: Adobe Illustrator 19.0.1, SVG Export Plug-In . SVG Version: 6.00 Build 0)  -->
<svg version="1.1" id="Layer_1" xmlns="http://www.w3.org/2000/svg" xmlns:xlink="http://www.w3.org/1999/xlink" x="0px" y="0px"
	 viewBox="0 0 316 474" style="enable-background:new 0 0 316 474;" xml:space="preserve">
<style type="text/css">
	.st0{fill:none;stroke:#FFFFFF;stroke-width:3.946;stroke-miterlimit:10;}
	.st1{fill:#2E98D4;}
	.st2{fill:#FFFFFF;}
	.st3{fill:#9C9B9B;}
</style>
<g>
	<polyline class="st0" points="269.9,352 69.7,242 276.8,193.8 	"/>
	<polyline class="st0" points="248.1,34.1 69.7,242 34.9,130.4 	"/>
	<polyline class="st0" points="41.3,386.7 69.7,242 166.9,438 	"/>
	<g>
		<circle class="st1" cx="69.7" cy="242" r="61.3"/>
		<g>
			<polygon class="st2" points="95.3,229.5 95.3,215.7 83.7,215.7 83.7,219.8 69.5,209.1 69.5,209.1 30,241 35,246.8 69.5,219.3 
				103.9,246.9 109.4,241.2 			"/>
			<polygon class="st2" points="62.1,254 77,254 77,275 98.2,274.8 97.8,245.5 69.6,222.9 41.7,245.5 41.3,274.8 62.1,274.9 			"/>
		</g>
	</g>
	<g>
		<circle class="st2" cx="41.3" cy="386.7" r="28.7"/>
		<path class="st3" d="M64.5,376.9c0-0.1,0-0.1,0-0.2l0,0l-0.1,0c0-0.1,0-0.1,0-0.2l0.1,0c0-0.1,0-0.1,0-0.2l-0.1,0
			c0-0.1,0-0.1-0.1-0.2l0.1-0.1c0-0.1-0.1-0.1-0.1-0.2l-0.1,0.1c0-0.1-0.1-0.1-0.1-0.2l0.1-0.1c0-0.1-0.1-0.1-0.1-0.2l-0.1,0.1
			c0,0-0.1-0.1-0.2-0.1l0.1-0.1c-0.1,0-0.1-0.1-0.2-0.1l-0.1,0.1c-0.1,0-0.1-0.1-0.2-0.1l0.1-0.1c-0.1,0-0.1-0.1-0.2-0.1l0,0.1
			c-0.1,0-0.1,0-0.2,0l0-0.1c-0.1,0-0.1,0-0.2,0l0,0l0,0.1c-0.1,0-0.1,0-0.2,0l0-0.1c-0.1,0-0.1,0-0.2,0l0,0.1c-0.1,0-0.1,0-0.2,0.1
			l-0.1-0.1c-0.1,0-0.1,0.1-0.2,0.1l0.1,0.1c-0.1,0-0.1,0.1-0.2,0.1l-0.1-0.1c-0.1,0-0.1,0.1-0.2,0.1l0.1,0.1c0,0-0.1,0.1-0.1,0.2
			l-0.1-0.1c0,0.1-0.1,0.1-0.1,0.2l0.1,0.1c0,0.1-0.1,0.1-0.1,0.2l-0.1-0.1c0,0.1-0.1,0.1-0.1,0.2l0,0h-0.7v-0.2h-0.9v0.2h-0.3
			c-0.1-0.5-0.4-0.7-0.4-0.7h-1l-0.4-0.7c-0.1-0.2-0.3-0.2-0.4,0l-0.4,0.7h-3.1l-0.4-0.7c-0.1-0.2-0.3-0.2-0.4,0l-0.4,0.7h-3.1
			l-0.4-0.7c-0.1-0.2-0.3-0.2-0.4,0l-0.4,0.7h-2.7l-0.4-0.7c-0.1-0.2-0.3-0.2-0.4,0l-0.4,0.7h-2.9l-0.4-0.7c-0.1-0.2-0.3-0.2-0.4,0
			l-0.4,0.7H37l-0.4-0.7c-0.1-0.2-0.3-0.2-0.4,0l-0.4,0.7h-3.1l-0.4-0.7c-0.1-0.2-0.3-0.2-0.4,0l-0.4,0.7h-3.1l-0.4-0.7
			c-0.1-0.2-0.3-0.2-0.4,0l-0.4,0.7h-2.9l-0.4-0.7c-0.1-0.2-0.3-0.2-0.4,0l-0.4,0.7h-1.4c0,0-0.6,0.1-0.6,1.1s0.6,1.1,0.6,1.1h0.6
			v17h-0.5c0,0-0.6,0.1-0.6,1.1c0,1,0.6,1.1,0.6,1.1h1.2l0.9,1.9l0.9-1.9h2.3l0.9,1.9l0.9-1.9h2.4l0.9,1.9l0.9-1.9h2.5l0.9,1.9
			l0.9-1.9h2.3l0.9,1.9l0.9-1.9h2.3l0.9,1.9l0.9-1.9h2.1l0.9,1.9l0.9-1.9h2.4l0.9,1.9l0.9-1.9h2.4l0.9,1.9l0.9-1.9h0.6
			c0,0,0.3-0.2,0.4-0.7h0.3v0.2h0.9v-0.2h0.3v-0.8h-0.3v-0.2h-0.9v0.2h-0.3c-0.1-0.5-0.4-0.7-0.4-0.7h0v-17h0c0,0,0.3-0.2,0.4-0.7
			h0.3v0.2h0.9V377h0.6c0,0,0,0.1,0,0.1l0.1,0c0,0.1,0,0.1,0.1,0.2l-0.1,0.1c0,0.1,0.1,0.1,0.1,0.2l0.1-0.1c0,0.1,0.1,0.1,0.1,0.2
			l-0.1,0.1c0,0.1,0.1,0.1,0.1,0.2l0.1-0.1c0,0,0.1,0.1,0.2,0.1l-0.1,0.1c0.1,0,0.1,0.1,0.2,0.1L62,378c0.1,0,0.1,0.1,0.2,0.1
			l-0.1,0.1c0.1,0,0.1,0.1,0.2,0.1l0-0.1c0.1,0,0.1,0,0.2,0l0,0.1c0.1,0,0.1,0,0.2,0h0l0-0.1c0.1,0,0.1,0,0.2,0l0,0.1
			c0.1,0,0.1,0,0.2,0l0-0.1c0.1,0,0.1,0,0.2-0.1l0.1,0.1c0.1,0,0.1-0.1,0.2-0.1l-0.1-0.1c0.1,0,0.1-0.1,0.2-0.1l0.1,0.1
			c0.1,0,0.1-0.1,0.2-0.1l-0.1-0.1c0,0,0.1-0.1,0.1-0.2l0.1,0.1c0-0.1,0.1-0.1,0.1-0.2l-0.1-0.1c0-0.1,0.1-0.1,0.1-0.2l0.1,0.1
			c0-0.1,0.1-0.1,0.1-0.2l-0.1,0c0-0.1,0-0.1,0-0.2L64.5,376.9z M33.6,377.7h1.3v17h-1.3V377.7z M30.5,394.8h-1.2v-17h1.2V394.8z
			 M37.9,377.7H39v17h-1.1V377.7z M42.1,377.7h1.1v17h-1.1V377.7z M46.3,377.7h0.9v17h-0.9V377.7z M50.3,377.7h1.2v17h-1.2V377.7z
			 M25.2,377.7h1v17h-1V377.7z M55.7,394.8h-1.2v-17h1.2V394.8z"/>
	</g>
	<g>
		<circle class="st2" cx="168.5" cy="438" r="28.7"/>
		<path class="st3" d="M189.6,427.8h-42.1c-1.1,0-1.9,0.9-1.9,1.9v0.2v0.3v15v0.8v0.3c0,1.1,0.9,2,2,2h42c1.1,0,2-0.9,2-2V446v-0.8
			v-15v-0.3v-0.2C191.5,428.7,190.6,427.8,189.6,427.8z M189.1,444.1L189.1,444.1L189.1,444.1C189.1,444.2,189.1,444.2,189.1,444.1
			C189.1,444.2,189.1,444.2,189.1,444.1v0.2c0,0.2-0.2,0.4-0.4,0.4h-40.4c-0.2,0-0.4-0.2-0.4-0.4v-0.1c0,0,0,0,0,0c0,0,0,0,0,0v0v0
			V444c0-0.2,0.2-0.4,0.4-0.4h40.4C188.9,443.7,189.1,443.8,189.1,444.1L189.1,444.1z M189.1,442.4L189.1,442.4L189.1,442.4
			C189.1,442.5,189.1,442.5,189.1,442.4C189.1,442.5,189.1,442.5,189.1,442.4v0.2c0,0.2-0.2,0.4-0.4,0.4h-40.4
			c-0.2,0-0.4-0.2-0.4-0.4v-0.1c0,0,0,0,0,0c0,0,0,0,0,0v0v0v-0.1c0-0.2,0.2-0.4,0.4-0.4h40.4C188.9,442,189.1,442.1,189.1,442.4
			L189.1,442.4z M189.1,440.8L189.1,440.8L189.1,440.8C189.1,440.9,189.1,440.9,189.1,440.8C189.1,440.9,189.1,440.9,189.1,440.8
			v0.2c0,0.2-0.2,0.4-0.4,0.4h-40.4c-0.2,0-0.4-0.2-0.4-0.4v-0.1c0,0,0,0,0,0c0,0,0,0,0,0v0v0v-0.1c0-0.2,0.2-0.4,0.4-0.4h40.4
			C188.9,440.3,189.1,440.5,189.1,440.8L189.1,440.8z"/>
	</g>
	<g>
		<circle class="st2" cx="281.4" cy="357" r="28.7"/>
		<g>
			<path class="st3" d="M280.7,349.3c4.8,0,9.6,0,14.4,0c1.3,0,2.1,0.9,2.1,2.1c0,7.4,0,14.8,0,22.1c0,1.1-0.9,2.1-2.1,2.1
				c-9.6,0-19.3,0-28.9,0c-1.1,0-2.1-0.9-2.1-2.1c0-7.4,0-14.8,0-22.2c0-1.3,0.8-2,2-2C271,349.3,275.9,349.3,280.7,349.3z
				 M280.7,371.3c3.6,0,7.2,0,10.8,0c0.2,0,0.5,0,0.7,0c1.5-0.3,2.3-1.4,2.4-3.1c0-3.9,0-7.9,0-11.8c0-0.6,0-1.1,0-1.7
				c-0.1-1.5-1.5-2.7-3.1-2.7c-7.2,0-14.3,0-21.5,0c-0.2,0-0.4,0-0.5,0c-1.6,0.3-2.5,1.4-2.5,3.1c0,3,0,6,0,8.9c0,1.4,0,2.8,0,4.2
				c0,1.7,1.4,3,3.1,3C273.5,371.3,277.1,371.3,280.7,371.3z M291.2,373.4c0-0.5-0.4-0.9-0.9-0.9c-0.5,0-0.9,0.4-0.9,0.9
				c0,0.5,0.4,0.9,0.9,0.9C290.8,374.3,291.2,374,291.2,373.4z M292.8,374.3c0.5,0,0.9-0.4,0.9-0.9c0-0.5-0.4-0.9-0.9-0.9
				c-0.5,0-0.9,0.4-0.9,0.9C291.9,374,292.3,374.3,292.8,374.3z"/>
			<path class="st3" d="M283.6,345.5c1.9,0.5,3.7,1.2,4.8,3l-13.9,0c1.7-2.4,4.2-3,6.9-3.2c-0.8-0.9-0.3-0.4-5.9-4.8
				c-1.2-0.9-2-2.2-2.6-3.6c-0.1-0.3-0.4-0.5-0.6-0.7c-0.3-0.3-0.3-0.7,0-1c0.3-0.3,0.7-0.3,1.1-0.1c0.1,0.1,0.3,0.2,0.4,0.4
				c2.8,2.8,5.6,5.6,8.4,8.4c0.1,0.1,0.2,0.3,0.3,0.4c0.1,0,0.1,0,0.2,0.1c0.1-0.2,0.1-0.3,0.3-0.5c1.8-1.8,3.7-3.7,5.6-5.5
				c0.2-0.2,0.5-0.4,0.7-0.4c0.6,0,0.9,0.7,0.6,1.2c-0.1,0.1-0.2,0.2-0.3,0.4c-1.9,1.9-3.7,3.7-5.6,5.6c-0.1,0.1-0.3,0.2-0.5,0.3
				C283.5,345.4,283.5,345.4,283.6,345.5z"/>
			<path class="st3" d="M268.6,376.3c1,0,2,0,3.1,0c0,0.4,0,0.7,0,1.1c-0.1,0.4-0.4,0.7-0.9,0.8c-0.4,0-0.7,0-1.1,0
				c-0.6,0-1-0.5-1-1C268.6,376.9,268.6,376.6,268.6,376.3z"/>
			<path class="st3" d="M290.3,376.3c1,0,2,0,3.1,0c0,0.6,0.2,1.3-0.4,1.6c-0.7,0.4-1.5,0.3-2.2,0
				C290.1,377.7,290.3,377,290.3,376.3z"/>
		</g>
	</g>
	<g>
		<circle class="st2" cx="34.8" cy="131.7" r="28.7"/>
		<path class="st3" d="M24.9,126.4c0-1.1,0-2.2,0-3.3c0-1.7,0.3-3.3,1.2-4.8c2.1-3.6,5.2-5.4,9.3-5.3c4.3,0.1,8.2,3.4,9.2,7.7
			c0.2,1,0.3,2,0.3,3.1c0,0.9,0,1.7,0,2.7c0.4,0,0.8,0,1.2,0c1.8,0,2.8,1,2.8,2.8c0,5.2,0,10.5,0,15.7c0,1-0.3,1.8-1.2,2.4
			c-0.5,0.3-1,0.4-1.5,0.4c-6,0-12,0-18,0c-1.5,0-3,0-4.5,0c-0.6,0-1.2-0.1-1.7-0.5c-0.9-0.5-1.2-1.3-1.2-2.3c0-2.3,0-4.6,0-7
			c0-2.9,0-5.9,0-8.8c0-1.7,1.1-2.8,2.8-2.8C24,126.4,24.4,126.4,24.9,126.4z M40.8,126.4c0-0.4,0-0.7,0-1c0-1.1,0-2.3-0.1-3.4
			c-0.3-2.6-2.4-4.6-5.2-4.9c-2.7-0.3-5,1-6.1,3.4c-0.4,0.8-0.6,1.6-0.6,2.5c0,1.1,0,2.3,0,3.4C32.9,126.4,36.8,126.4,40.8,126.4z
			 M36.2,137.7c0.1-0.1,0.2-0.1,0.3-0.2c1.9-1,2.2-3.4,0.7-4.9c-0.9-0.8-1.9-1-3-0.9c-1.8,0.3-3,2-2.6,3.8c0.2,0.9,0.8,1.5,1.6,1.9
			c0.3,0.2,0.3,0.3,0.2,0.6c-0.3,0.9-0.7,1.8-1,2.7c-0.2,0.5-0.3,1-0.2,1.6c1.8,0,3.6,0,5.4,0C37.5,140.6,36.7,139.2,36.2,137.7z"/>
	</g>
	<g>
		<circle class="st2" cx="276.8" cy="194.2" r="28.7"/>
		<g>
			<path class="st3" d="M276.8,196.7c-2.4,0-4.4,2-4.4,4.4c0,2.4,2,4.4,4.4,4.4c2.4,0,4.4-2,4.4-4.4
				C281.2,198.7,279.2,196.7,276.8,196.7z"/>
			<circle class="st3" cx="276.8" cy="186.2" r="1.8"/>
			<path class="st3" d="M285.1,177.6l-16.7,0c-1.6,0-2.9,1.3-2.9,2.9l0.1,27.3c0,1.6,1.3,2.9,2.9,2.9l16.7,0c1.6,0,2.9-1.3,2.9-2.9
				l-0.1-27.3C288,178.9,286.7,177.6,285.1,177.6z M276.7,181.5c2.6,0,4.7,2.1,4.7,4.7c0,2.6-2.1,4.7-4.7,4.7
				c-2.6,0-4.7-2.1-4.7-4.7C272.1,183.6,274.2,181.5,276.7,181.5z M276.8,208.4c-4,0-7.3-3.3-7.3-7.3c0-4,3.3-7.3,7.3-7.3
				s7.3,3.3,7.3,7.3C284.1,205.2,280.8,208.4,276.8,208.4z"/>
		</g>
	</g>
	<g>
		<circle class="st2" cx="248.1" cy="34.1" r="28.7"/>
		<g>
			<path class="st3" d="M264.1,27.6c0,3.6-1.2,6.8-3.2,9.7c-1.4,2-2.6,4.1-3.7,6.2c-0.4,0.7-0.5,1.6-0.5,2.4c-0.1,2.1,0,4.1-0.1,6.2
				c0,0.9-0.3,1.7-1.2,2.1c-0.5,0.2-1.1,0.3-1.6,0.3c-1,0-2,0-3,0c-0.4,0-0.6,0-0.7,0.5c-0.3,1-1,1.6-2,1.6
				c-0.8,0.1-1.7-0.3-1.9-1.1c-0.3-1.3-1.2-1-2.1-1.1c-1,0-2.1,0-3.1-0.2c-0.8-0.1-1.3-0.6-1.4-1.4c-0.1-0.4-0.1-0.8-0.1-1.2
				c0-1.8,0-3.5,0-5.3c0.1-1.8-0.6-3.4-1.5-4.9c-1.3-2.2-2.7-4.3-4-6.5c-0.9-1.6-1.5-3.3-1.7-5.1c-0.1-1.1-0.3-2.3-0.2-3.4
				c0.2-2.9,1.1-5.6,2.8-8c1.5-2.2,3.4-3.9,5.8-5.2c1.6-0.8,3.2-1.4,4.9-1.6c1-0.1,2-0.3,3-0.2c4.1,0.1,7.7,1.6,10.8,4.4
				c2.1,1.9,3.5,4.3,4.4,7c0.5,1.5,0.6,3.1,0.8,4.7C264.2,27.6,264.2,27.6,264.1,27.6z M252.4,43.7c1-3.2,2.8-5.9,4.7-8.5
				c1.1-1.5,2-3.2,2.4-5c0.6-2.7,0.3-5.4-1-7.9c-1.8-3.4-4.5-5.6-8.3-6.2c-3.1-0.6-6.2-0.1-8.9,1.8c-3.4,2.5-5.2,5.8-5.1,10
				c0,1.4,0.2,2.9,0.8,4.1c1,1.9,2.2,3.8,3.4,5.6c1.2,1.9,2.3,3.8,2.9,6c0.7,0,1.5,0,2.2,0c0-0.3,0.1-0.6,0.1-0.8c0-1.1,0-2.2,0-3.3
				c0-1.1,0.6-1.9,1.8-2.3c0.7-0.2,1.6,0.1,2.1,0.9c0.3,0.4,0.4,0.9,0.4,1.4c0.1,1.4,0,2.7,0,4.2C250.9,43.7,251.6,43.7,252.4,43.7z
				 M252.1,50.2c0-0.5,0-1,0-1.4c0.1-0.6-0.2-0.8-0.8-0.8c-2.3,0-4.6,0-6.9,0c-0.3,0-0.6,0.1-0.9,0.1c0,0.5,0,0.9,0,1.4
				c0,0.5,0.2,0.7,0.7,0.7c1.8,0,3.7,0,5.5,0C250.5,50.2,251.3,50.2,252.1,50.2z"/>
			<path class="st3" d="M248.6,21.2c2.4,0.3,4.2,1.4,5.2,3.7c0.3,0.8,0.5,1.6,0.6,2.4c0.1,0.7-0.4,1.3-1,1.3c-0.6,0-1.1-0.5-1.1-1.2
				c-0.1-2.2-1.9-4-4.1-4.1c-0.7,0-1.2-0.5-1.2-1.1c0-0.7,0.4-1,1.2-1C248.3,21.2,248.4,21.2,248.6,21.2z"/>
		</g>
	</g>
</g>
</svg>
