<?xml version="1.0" encoding="UTF-8" standalone="no"?>
<svg
   xmlns:dc="http://purl.org/dc/elements/1.1/"
   xmlns:cc="http://creativecommons.org/ns#"
   xmlns:rdf="http://www.w3.org/1999/02/22-rdf-syntax-ns#"
   xmlns:svg="http://www.w3.org/2000/svg"
   xmlns="http://www.w3.org/2000/svg"
   height="15.44978cm"
   width="24.44978cm"
   xml:space="preserve"
   viewBox="0 0 866.33077 547.43317"
   version="1.1"
   id="Layer_1"><metadata
     id="metadata16327"><rdf:RDF><cc:Work
         rdf:about=""><dc:format>image/svg+xml</dc:format><dc:type
           rdf:resource="http://purl.org/dc/dcmitype/StillImage" /><dc:title></dc:title></cc:Work></rdf:RDF></metadata><defs
     id="defs16325" /><style
     id="style16301"
     type="text/css">
	.st0{fill:#E8E8E8;}
	.st1{fill:#5CB8CD;}
	.st2{fill:#FB8A52;}
	.st3{fill:#BB0D48;}
	.st4{fill:#152D39;}
	.st5{fill:#FFFFFF;}
</style><g
     transform="translate(0,35.432914)"
     id="g16303"><g
       transform="matrix(1.0216758,0,0,1.0216758,376.81198,3.3571654)"
       id="g8180"><polygon
         style="fill:#ed7d31;fill-opacity:1;stroke:#ed7d31;stroke-opacity:1"
         points="170.9,185.6 158.7,210.8 412.3,323.5 345.4,185.6 "
         id="XMLID_6_"
         class="st0"
         transform="translate(-384.13071,-8.1154381)" /><polygon
         style="fill:#7698bb;fill-opacity:1"
         points="325.1,143.8 222.2,80 176.2,174.8 340.1,174.8 "
         id="XMLID_5_"
         class="st1"
         transform="translate(-384.13071,-8.1154381)" /><polygon
         style="fill:#ed7d31;fill-opacity:1"
         points="98.7,334.2 409.9,334.2 153.9,220.5 "
         id="XMLID_4_"
         class="st2"
         transform="translate(-384.13071,-8.1154381)" /><polygon
         style="fill:#512508;fill-opacity:1;stroke:#512508;stroke-opacity:1"
         points="85.2,362 496.7,497.2 422.8,345 93.5,345 "
         id="XMLID_3_"
         class="st3"
         transform="translate(-384.13071,-8.1154381)" /><polygon
         style="fill:#7698bb;fill-opacity:1;stroke:#7698bb;stroke-opacity:1"
         points="226.9,70.2 316.3,125.7 258.1,6 "
         id="XMLID_2_"
         class="st4"
         transform="translate(-384.13071,-8.1154381)" /><polygon
         style="fill:#512508;fill-opacity:1"
         points="488.9,506 80.4,371.8 15.3,506 "
         id="XMLID_1_"
         class="st4"
         transform="translate(-384.13071,-8.1154381)" /></g><text
       transform="matrix(0.93661787,-0.35035262,0.35035262,0.93661787,0,0)"
       id="text4337"
       y="280.27417"
       x="465.24707"
       style="font-style:normal;font-variant:normal;font-weight:normal;font-stretch:normal;font-size:26.59031868px;line-height:125%;font-family:'Museo Slab';-inkscape-font-specification:'Museo Slab, Normal';text-align:center;letter-spacing:0px;word-spacing:0px;writing-mode:lr-tb;text-anchor:middle;fill:#000000;fill-opacity:1;stroke:none;stroke-width:1px;stroke-linecap:butt;stroke-linejoin:miter;stroke-opacity:1"
       xml:space="preserve"><tspan
         style="font-size:45px"
         y="280.27417"
         x="465.24707"
         id="tspan4339">Application layer</tspan></text>
<text
       transform="matrix(0.9389363,-0.34409101,0.34409101,0.9389363,0,0)"
       id="text4341"
       y="445.12628"
       x="454.59515"
       style="font-style:normal;font-variant:normal;font-weight:normal;font-stretch:normal;font-size:26.59031868px;line-height:125%;font-family:'Museo Slab';-inkscape-font-specification:'Museo Slab, Normal';text-align:center;letter-spacing:0px;word-spacing:0px;writing-mode:lr-tb;text-anchor:middle;fill:#000000;fill-opacity:1;stroke:none;stroke-width:1px;stroke-linecap:butt;stroke-linejoin:miter;stroke-opacity:1"
       xml:space="preserve"><tspan
         style="font-size:45px"
         y="445.12628"
         x="454.59515"
         id="tspan4343">Network Layer</tspan></text>
<text
       transform="matrix(0.93736011,-0.34836192,0.34836192,0.93736011,0,0)"
       id="text4345"
       y="641.40796"
       x="449.81439"
       style="font-style:normal;font-variant:normal;font-weight:normal;font-stretch:normal;font-size:26.59031868px;line-height:125%;font-family:'Museo Slab';-inkscape-font-specification:'Museo Slab, Normal';text-align:center;letter-spacing:0px;word-spacing:0px;writing-mode:lr-tb;text-anchor:middle;fill:#000000;fill-opacity:1;stroke:none;stroke-width:1px;stroke-linecap:butt;stroke-linejoin:miter;stroke-opacity:1"
       xml:space="preserve"><tspan
         style="font-size:45px"
         y="641.40796"
         x="449.81439"
         id="tspan4347">Device Layer</tspan></text>
<g
       transform="matrix(1.0990896,0,0,1.0990896,-317.10356,176.82464)"
       id="g14370"><g
         id="g8961"
         transform="matrix(0.21068322,0,0,0.21068322,409.97452,60.159043)"><path
           id="path5617"
           d="m 84.079184,151.89694 -6.527447,-7.06161 c 0,0 -4.591134,-5.18344 -6.370992,-8.08786 -2.488893,-4.06144 -4.629662,-8.36202 -6.331105,-12.81117 -1.620182,-4.23667 -3.649695,-13.10911 -3.649695,-13.10911 l -1.427968,-10.5555 c 0,0 -0.758998,-6.692253 0.08726,-11.640614 0.432947,-2.53158 0.893803,-7.746293 1.638639,-10.204251 0.744836,-2.457958 2.519445,-8.024775 3.426244,-10.427701 0.866944,-2.297311 3.649696,-7.746292 3.649696,-7.746292 l 5.511785,-8.565612 5.437302,-7.150424 4.766949,-5.213851"
           style="fill:none;fill-rule:evenodd;stroke:#ffffff;stroke-width:5.80000019;stroke-linecap:round;stroke-linejoin:round;stroke-miterlimit:4;stroke-dasharray:none;stroke-opacity:1" /><path
           id="path5619"
           d="m 99.186571,135.45788 -4.692466,-4.61798 c 0,0 -2.903655,-3.22041 -4.171081,-5.06488 -1.36571,-1.98751 -3.649695,-6.33111 -3.649695,-6.33111 l -2.979343,-8.11871 c 0,0 -1.612366,-6.70735 -1.936573,-10.12977 -0.332489,-3.509839 -0.334404,-7.067003 0,-10.576664 0.374105,-3.926333 0.499027,-6.481164 1.564155,-10.278735 0.84439,-3.010559 1.892033,-5.284004 3.128311,-8.155951 1.159033,-2.692503 2.713852,-6.039452 5.735235,-9.794591 2.488105,-3.092351 6.740765,-7.038698 6.740765,-7.038698"
           style="fill:none;fill-rule:evenodd;stroke:#ffffff;stroke-width:5.80000019;stroke-linecap:round;stroke-linejoin:round;stroke-miterlimit:4;stroke-dasharray:none;stroke-opacity:1" /><path
           id="path5621"
           d="m 113.66195,70.089048 -3.72418,5.213851 c 0,0 -4.61798,7.150424 -4.91592,7.89526 -0.29793,0.744835 -2.2345,9.235964 -2.2345,9.235964 0,0 -0.14897,6.405588 0,7.448358 0.14896,1.042769 1.93657,7.001459 1.93657,7.001459 l 3.42624,7.15042 4.32005,5.95869 2.97934,2.83037"
           style="fill:none;fill-rule:evenodd;stroke:#ffffff;stroke-width:5.80000019;stroke-linecap:round;stroke-linejoin:round;stroke-miterlimit:4;stroke-dasharray:none;stroke-opacity:1" /><path
           id="path5617-3"
           d="m 193.66574,151.30357 6.52744,-7.06161 c 0,0 4.59114,-5.18344 6.371,-8.08786 2.48889,-4.06144 4.62966,-8.36202 6.3311,-12.81117 1.62018,-4.23667 3.6497,-13.10911 3.6497,-13.10911 l 1.42796,-10.555497 c 0,0 0.759,-6.692251 -0.0873,-11.640612 -0.43294,-2.53158 -0.8938,-7.746293 -1.63864,-10.204251 -0.74483,-2.457958 -2.51944,-8.024775 -3.42624,-10.427701 -0.86694,-2.297311 -3.6497,-7.746292 -3.6497,-7.746292 l -5.51178,-8.565612 -5.4373,-7.150424 -4.76695,-5.213851"
           style="fill:none;fill-rule:evenodd;stroke:#ffffff;stroke-width:5.80000019;stroke-linecap:round;stroke-linejoin:round;stroke-miterlimit:4;stroke-dasharray:none;stroke-opacity:1" /><path
           id="path5619-6"
           d="m 178.55835,135.7072 4.69247,-4.61798 c 0,0 2.90365,-3.22041 4.17108,-5.06488 1.36571,-1.98751 3.64969,-6.33111 3.64969,-6.33111 l 2.97934,-8.11871 c 0,0 1.61237,-6.70735 1.93658,-10.12977 0.33249,-3.509838 0.3344,-7.067002 0,-10.576663 -0.37411,-3.926333 -0.49903,-6.481164 -1.56416,-10.278735 -0.84439,-3.010559 -1.89203,-5.284004 -3.12831,-8.155951 -1.15903,-2.692503 -2.71385,-6.039452 -5.73523,-9.794591 -2.48811,-3.092351 -6.74077,-7.038698 -6.74077,-7.038698"
           style="fill:none;fill-rule:evenodd;stroke:#ffffff;stroke-width:5.80000019;stroke-linecap:round;stroke-linejoin:round;stroke-miterlimit:4;stroke-dasharray:none;stroke-opacity:1" /><path
           id="path5621-7"
           d="m 164.40647,69.267848 3.72418,5.213851 c 0,0 4.61798,7.150424 4.91592,7.89526 0.29793,0.744835 2.2345,9.235964 2.2345,9.235964 0,0 0.14897,6.405588 0,7.448358 -0.14896,1.042769 -1.93657,7.001459 -1.93657,7.001459 l -3.42624,7.15042 -4.32005,5.95869 -2.97934,2.83037"
           style="fill:none;fill-rule:evenodd;stroke:#ffffff;stroke-width:5.80000019;stroke-linecap:round;stroke-linejoin:round;stroke-miterlimit:4;stroke-dasharray:none;stroke-opacity:1" /><ellipse
           ry="11.444682"
           rx="11.760687"
           cy="95.22718"
           cx="138.51643"
           id="path5646"
           style="opacity:1;fill:#ffffff;fill-opacity:1;stroke:#ffffff;stroke-width:12.40463448;stroke-linecap:round;stroke-linejoin:round;stroke-miterlimit:4;stroke-dasharray:none;stroke-dashoffset:0;stroke-opacity:1" /><rect
           y="111.37284"
           x="138.49902"
           height="53.864151"
           width="0.53284162"
           id="rect5648"
           style="opacity:1;fill:#000000;fill-opacity:1;stroke:#ffffff;stroke-width:8.43161392;stroke-linecap:round;stroke-linejoin:round;stroke-miterlimit:4;stroke-dasharray:none;stroke-dashoffset:0;stroke-opacity:1" /><rect
           rx="18.173994"
           ry="20.862255"
           transform="matrix(1,0,0.00853524,0.99996357,0,0)"
           y="170.33096"
           x="38.686676"
           height="70.204498"
           width="195.60287"
           id="rect5666"
           style="opacity:1;fill:#ffffff;fill-opacity:1;stroke:#ffffff;stroke-width:9.78389931;stroke-linecap:round;stroke-linejoin:round;stroke-miterlimit:4;stroke-dasharray:none;stroke-dashoffset:0;stroke-opacity:1" /><rect
           ry="0"
           rx="0"
           y="180.18037"
           x="206.10065"
           height="14.44067"
           width="17.420013"
           id="rect5674"
           style="opacity:1;fill:#fb8a52;fill-opacity:1;stroke:#fb8a52;stroke-width:2.20294905;stroke-linecap:round;stroke-linejoin:round;stroke-miterlimit:4;stroke-dasharray:none;stroke-dashoffset:0;stroke-opacity:1" /></g></g><g
       style="fill:#ffffff"
       id="g4899"
       transform="matrix(0.70080197,0,0,-0.62321559,75.341829,429.65889)"><path
         style="fill:#ffffff"
         id="path4901"
         d="m 17.922,-0.729 4.934,0 c 0.474,0 0.864,-0.39 0.864,-0.864 0,-0.475 -0.39,-0.865 -0.864,-0.865 l -4.934,0 c -0.288,-0.476 -0.815,-0.796 -1.409,-0.796 -0.136,0 -0.27,0.017 -0.406,0.05 -0.711,0.186 -1.254,0.83 -1.254,1.593 0,0.595 0.323,1.119 0.795,1.408 l 0,9.5117 c 0,0.323 0.189,0.611 0.459,0.763 0.119,0.069 0.255,0.103 0.406,0.103 0.477,0 0.867,-0.391 0.867,-0.866 l 0,-9.5117 c 0.218,-0.119 0.406,-0.306 0.542,-0.526 m -1.798,-24.025 9.92,0 0,-17.499 -19.144,0 0,17.499 z m 11.445,3.729 4.138,0 -4.374,-3.729 0,1.338 -21.722,0 0,-1.338 -4.374,3.729 26.096,0 z m -0.186,42.662 4.374,-3.731 -30.469,0 4.375,3.731 0,-1.341 21.737,0 0,1.341 z m -11.259,0 -9.173,0 0,17.499 19.143,0 0,-17.499 z m 13.464,-39.22 -26.112,0 0,31.979 26.112,0 z m -13.464,34.133 -14.802,0 0,-36.304 30.42,0 0,36.304 -2.154,0 z" /></g><path
       style="fill:#ffffff"
       id="path4905-0"
       d="m 405.18535,435.44763 -16.6596,0 0,2.18783 16.6596,0 0,-2.18783 z m -25.17137,-41.16201 12.76338,11.35034 1.76657,-1.57177 1.43775,-3.70247 0.52236,-1.35548 0.60456,-1.55653 0.55232,-1.43242 1.00617,-2.60055 -1.20399,-1.07069 -2.54667,-2.2655 -1.15602,-1.03413 -11.9807,3.66668 -1.76573,1.57252 z m 38.24388,17.28632 -1.22026,1.08668 -0.89654,0.79654 -1.2331,1.09582 -0.44187,0.39294 0.58743,0.5224 1.16374,1.03413 0.95993,0.8529 1.15603,1.02955 0.56516,0.50183 4.42373,-3.93549 -4.42373,-3.93549 -0.64052,0.55819 z m -24.52743,23.31749 2.2915,0 c 4.97177,-4.53023 15.09426,-13.75061 19.75347,-17.99071 l -1.16374,-1.03414 -20.88123,19.02485 z m 22.9972,-17.14315 -19.11895,17.14315 2.31976,0 c 4.29356,-3.84791 12.70599,-11.40287 17.95693,-16.11435 l -1.15774,-1.0288 z m -19.66442,-18.46591 -0.57116,1.46364 17.9338,13.43992 1.23223,-1.09658 c -6.06527,-4.51425 -15.86238,-11.46456 -18.59487,-13.80698 m 20.71854,11.91996 c -4.9084,-3.84716 -15.36829,-11.3671 -19.61476,-14.7741 l -0.54718,1.41108 18.93997,14.45425 1.22197,-1.09123 z m -19.87507,-19.25788 -2.54155,-2.26474 1.31359,-1.16893 2.54668,2.26475 -1.31872,1.16892 z" /><g
       style="fill:#ffffff"
       id="g4923"
       transform="matrix(0.0220977,0,0,-0.0220977,-1057.6436,751.72005)"><path
         style="fill:#ffffff"
         id="path4925"
         d="m 54888,11991 c -165.38,0 -300.51,131.47 -300.51,293.64 0,161.71 135.14,293.18 300.51,293.18 165.83,0 300.06,-131.48 300.06,-293.18 0,-162.17 -134.22,-293.64 -300.06,-293.64 z m 113.61,1056.4 c 75.128,0 136.52,-59.553 136.52,-132.85 0,-73.753 -61.387,-133.31 -136.52,-133.31 -75.129,0 -136.06,59.554 -136.06,133.31 0,73.298 60.928,132.85 136.06,132.85 z m -609.27,441.15 0,-1788 986.29,0 0,1788 -986.29,0 z m 609.27,-663.79 c 50.392,0 91.62,40.313 91.62,89.787 0,49.477 -41.228,89.331 -91.62,89.331 -50.39,0 -91.621,-39.854 -91.621,-89.331 0,-49.474 41.231,-89.787 91.621,-89.787 z M 54888,12412.93 c -72.38,0 -131.48,-57.262 -131.48,-128.27 0,-71.005 59.095,-128.73 131.48,-128.73 72.838,0 131.93,57.721 131.93,128.73 0,71.006 -59.095,128.27 -131.93,128.27" /><path
         style="fill:#ffffff"
         id="path4927"
         d="m 54949,12284 c 0,-32.525 -27.485,-59.095 -60.928,-59.095 -33.441,0 -60.47,26.57 -60.47,59.095 0,32.983 27.029,59.553 60.47,59.553 33.443,0 60.928,-26.57 60.928,-59.553" /><path
         style="fill:#ffffff"
         id="path4929"
         d="m 55834,11863 c -93.452,0 -168.58,73.754 -168.58,164.46 0,91.162 75.128,164.92 168.58,164.92 92.538,0 168.12,-73.754 168.12,-164.92 0,-90.704 -75.584,-164.46 -168.12,-164.46 z m 63.217,592.78 c 42.605,0 76.503,-33.441 76.503,-74.671 0,-41.229 -33.898,-74.67 -76.503,-74.67 -42.143,0 -76.043,33.441 -76.043,74.67 0,41.23 33.9,74.671 76.043,74.671 z m -341.28,247.37 0,-1003.2 552.93,0 0,1003.2 -552.93,0 z m 278.07,-603.32 c -40.77,0 -74.213,-32.525 -74.213,-72.38 0,-39.855 33.443,-71.922 74.213,-71.922 40.312,0 73.297,32.067 73.297,71.922 0,39.855 -32.985,72.38 -73.297,72.38 z m 63.217,230.88 c 28.403,0 51.308,22.447 51.308,50.391 0,27.944 -22.905,50.391 -51.308,50.391 -27.943,0 -51.307,-22.447 -51.307,-50.391 0,-27.944 23.364,-50.391 51.307,-50.391" /><path
         style="fill:#ffffff"
         id="path4931"
         d="m 55868,12028 c 0,-18.324 -15.118,-32.984 -33.9,-32.984 -19.239,0 -34.357,14.66 -34.357,32.984 0,18.324 15.118,33.441 34.357,33.441 18.782,0 33.9,-15.117 33.9,-33.441" /></g><g
       style="fill:#ffffff"
       id="g5065"
       transform="matrix(0.01898654,0,0,-0.01898654,-994.78122,711.2584)"><path
         style="fill:#ffffff"
         id="path5067"
         d="m 67452,17484 -1363.8,0 0,797.09 1363.8,0 0,-797.09 z m -1465.9,894.67 0,-992.25 1568.1,0 0,992.25 -1568.1,0" /><path
         style="fill:#ffffff"
         id="path5069"
         d="m 68044,16669 c 0,26.57 -22.446,48.1 -49.016,48.1 l -2437.1,0 c -27.028,0 -49.015,-21.53 -49.015,-48.1 0,-26.11 21.987,-47.641 49.015,-47.641 l 2437.1,0 c 26.57,0 49.016,21.531 49.016,47.641" /><path
         style="fill:#ffffff"
         id="path5071"
         d="m 66906,16874 -248.75,0 c -49.933,0 -76.505,38.938 -59.554,87.497 16.949,48.559 59.095,87.956 94.369,87.956 l 176.37,0 c 34.816,0 77.418,-39.397 95.285,-87.956 17.407,-48.559 -7.788,-87.497 -57.721,-87.497 z m 659.21,416.87 -1591,0 -446.65,-504.82 2502.1,0 -464.51,504.82" /></g><g
       style="fill:#ffffff"
       id="g5103"
       transform="matrix(0.01253982,0,0,-0.01253982,-1014.03,521.06561)"><g
         style="fill:#ffffff"
         id="g5105"
         transform="matrix(5.6699,0,0,5.6699,37563,-25695)"><path
           style="fill:#ffffff"
           id="path5107"
           d="m 11406,5055.6 c 59.1,107.7 196.5,-46.05 272,2.97 -37.4,-117.91 -201.6,34.45 -272,-2.97" /><path
           style="fill:#ffffff"
           id="path5109"
           d="m 11458,5115 c 59,107.6 196.5,-45.96 272,2.97 -37.4,-118 -201.6,34.44 -272,-2.97" /><path
           style="fill:#ffffff"
           id="path5111"
           d="m 11510,5174.5 c 59,107.7 196.4,-46.05 272,2.88 -37.4,-117.91 -201.7,34.53 -272,-2.88" /><path
           style="fill:#ffffff"
           id="path5113"
           d="m 11570,5233.5 c 0,0 11.6,17.45 71.6,-3.9 59.8,-21.17 63.5,-11.7 69.6,3.25 10.4,25.99 -120,75.01 -141.2,0.65" /><path
           style="fill:#ffffff"
           id="path5115"
           d="m 11556,4992.6 c -14,-72.32 -85.8,-17.73 -121.6,-59.7 l 36.5,-36.48 c 0,0 7.8,16.61 47.7,13.92 52.2,-3.62 82,40.85 81.3,66.94 l -43.9,15.32" /><path
           style="fill:#ffffff"
           id="path5117"
           d="m 11474,5031.1 -51.4,18.57 c -26.3,-3.34 -13,-35.28 -9.1,-51.81 9.3,-38.06 0.4,-44.19 0.4,-44.19 l 8.2,-8.45 c 11.4,13.83 23.5,17.83 37.2,19.59 -3.6,25.53 -13.4,50.79 14.7,66.29" /><path
           style="fill:#ffffff"
           id="path5119"
           d="m 11444,4840.4 c -3.4,-3.25 -8.9,-3.15 -12.3,0.28 l -72.3,73.16 c -3.3,3.34 -3.2,8.73 0.2,11.98 3.4,3.34 8.9,3.15 12.3,-0.19 l 72.3,-73.25 c 3.3,-3.34 3.2,-8.73 -0.2,-11.98" /><path
           style="fill:#ffffff"
           id="path5121"
           d="m 11434,4828.7 c -3.4,-3.24 -8.9,-3.15 -12.3,0.19 l -72.3,73.25 c -3.3,3.34 -3.2,8.73 0.3,11.98 3.4,3.25 8.9,3.16 12.3,-0.19 l 72.3,-73.25 c 3.2,-3.34 3.1,-8.73 -0.3,-11.98" /><path
           style="fill:#ffffff"
           id="path5123"
           d="m 11455,4851.8 c -3.4,-3.25 -8.9,-3.16 -12.3,0.19 l -72.3,73.25 c -3.3,3.34 -3.2,8.73 0.3,11.98 3.4,3.25 8.9,3.15 12.3,-0.19 l 72.2,-73.25 c 3.3,-3.34 3.2,-8.73 -0.2,-11.98" /><path
           style="fill:#ffffff"
           id="path5125"
           d="m 11465,4863.7 c -3.5,-3.25 -9,-3.16 -12.4,0.27 l -72.3,73.26 c -3.2,3.34 -3.1,8.72 0.3,11.97 3.4,3.25 8.9,3.07 12.2,-0.18 l 72.4,-73.25 c 3.3,-3.35 3.2,-8.73 -0.2,-12.07" /><path
           style="fill:#ffffff"
           id="path5127"
           d="m 11384,4837.2 c -0.9,-1.02 -2.5,-1.11 -3.5,-0.28 l -21.7,18.02 c -1.1,0.93 -1.2,2.5 -0.2,3.52 l 20.5,23.49 c 0.9,1.03 2.5,1.12 3.6,0.28 l 21.6,-18.01 c 1.1,-0.93 1.1,-2.41 0.2,-3.44 l -20.5,-23.58" /></g></g><g
       style="fill:#ffffff"
       transform="matrix(0.05371705,0,0,0.05371705,203.14035,114.16912)"
       id="g17664"><g
         style="fill:#ffffff"
         id="g17620"><path
           style="fill:#ffffff"
           d="m 61.2,341.538 c 4.9,16.8 11.7,33 20.3,48.2 l -24.5,30.9 c -8,10.1 -7.1,24.5 1.9,33.6 l 42.2,42.2 c 9.1,9.1 23.5,9.899 33.6,1.899 l 30.7,-24.3 c 15.8,9.101 32.6,16.2 50.1,21.2 l 4.6,39.5 c 1.5,12.8 12.3,22.4 25.1,22.4 l 59.7,0 c 12.8,0 23.6,-9.601 25.1,-22.4 l 4.4,-38.1 c 18.8,-4.9 36.8,-12.2 53.7,-21.7 l 29.7,23.5 c 10.1,8 24.5,7.1 33.6,-1.9 l 42.2,-42.2 c 9.1,-9.1 9.9,-23.5 1.9,-33.6 l -23.1,-29.3 c 9.6,-16.601 17.1,-34.3 22.1,-52.8 l 35.6,-4.1 c 12.801,-1.5 22.4,-12.3 22.4,-25.1 l 0,-59.7 c 0,-12.8 -9.6,-23.6 -22.4,-25.1 l -35.1,-4.1 c -4.801,-18.3 -12,-35.8 -21.199,-52.2 l 21.6,-27.3 c 8,-10.1 7.1,-24.5 -1.9,-33.6 l -42.1,-42.1 c -9.1,-9.1 -23.5,-9.9 -33.6,-1.9 l -26.5,21 c -17.2,-10.1 -35.601,-17.8 -54.9,-23 l -4,-34.3 c -1.5,-12.8 -12.3,-22.4 -25.1,-22.4 l -59.7,0 c -12.8,0 -23.6,9.6 -25.1,22.4 l -4,34.3 c -19.8,5.3 -38.7,13.3 -56.3,23.8 l -27.5,-21.8 c -10.1,-8 -24.5,-7.1 -33.6,1.9 l -42.2,42.2 c -9.1,9.1 -9.9,23.5 -1.9,33.6 l 23,29.1 c -9.2,16.6 -16.2,34.3 -20.8,52.7 l -36.8,4.2 c -12.8,1.5 -22.4,12.3 -22.4,25.1 l 0,59.7 c 0,12.8 9.6,23.6 22.4,25.1 l 38.799,4.501 z m 216.3,-161.5 c 54.4,0 98.7,44.3 98.7,98.7 0,54.4 -44.3,98.7 -98.7,98.7 -54.399,0 -98.7,-44.3 -98.7,-98.7 0,-54.4 44.3,-98.7 98.7,-98.7 z"
           id="path17622" /><path
           style="fill:#ffffff"
           d="m 867.699,356.238 -31.5,-26.6 c -9.699,-8.2 -24,-7.8 -33.199,0.9 l -17.4,16.3 c -14.699,-7.1 -30.299,-12.1 -46.4,-15 l -4.898,-24 c -2.5,-12.4 -14,-21 -26.602,-20 l -41.1,3.5 c -12.6,1.1 -22.5,11.4 -22.9,24.1 l -0.799,24.4 c -15.801,5.7 -30.701,13.5 -44.301,23.3 l -20.799,-13.8 c -10.602,-7 -24.701,-5 -32.9,4.7 l -26.6,31.7 c -8.201,9.7 -7.801,24 0.898,33.2 l 18.201,19.399 c -6.301,14.2 -10.801,29.101 -13.4,44.4 l -26,5.3 c -12.4,2.5 -21,14 -20,26.601 l 3.5,41.1 c 1.1,12.6 11.4,22.5 24.1,22.9 l 28.1,0.899 c 5.102,13.4 11.801,26.101 19.9,38 l -15.699,23.7 c -7,10.6 -5,24.7 4.699,32.9 l 31.5,26.6 c 9.701,8.2 24,7.8 33.201,-0.9 l 20.6,-19.3 c 13.5,6.3 27.699,11 42.299,13.8 l 5.701,28.2 c 2.5,12.4 14,21 26.6,20 l 41.1,-3.5 c 12.6,-1.1 22.5,-11.399 22.9,-24.1 l 0.9,-27.601 c 15,-5.3 29.199,-12.5 42.299,-21.399 l 22.701,15 c 10.6,7 24.699,5 32.9,-4.7 l 26.6,-31.5 c 8.199,-9.7 7.799,-24 -0.9,-33.2 L 872.7,592.138 c 6.701,-14.2 11.602,-29.2 14.4,-44.601 l 25,-5.1 c 12.4,-2.5 21,-14 20,-26.601 l -3.5,-41.1 c -1.1,-12.6 -11.4,-22.5 -24.1,-22.9 l -25.1,-0.8 c -5.201,-14.6 -12.201,-28.399 -20.9,-41.2 l 13.699,-20.6 c 7.201,-10.598 5.201,-24.798 -4.5,-32.998 z M 712.801,593.837 c -44.4,3.801 -83.602,-29.3 -87.301,-73.699 -3.801,-44.4 29.301,-83.601 73.699,-87.301 44.4,-3.8 83.602,29.301 87.301,73.7 3.801,44.401 -29.301,83.601 -73.699,87.3 z"
           id="path17624" /><path
           style="fill:#ffffff"
           d="m 205,704.438 c -12.6,1.3 -22.3,11.899 -22.4,24.6 l -0.3,25.3 c -0.2,12.7 9.2,23.5 21.8,25.101 l 18.6,2.399 c 3.1,11.301 7.5,22.101 13.2,32.301 l -12,14.8 c -8,9.899 -7.4,24.1 1.5,33.2 l 17.7,18.1 c 8.9,9.1 23.1,10.1 33.2,2.3 l 14.899,-11.5 c 10.5,6.2 21.601,11.101 33.2,14.5 l 2,19.2 c 1.3,12.6 11.9,22.3 24.6,22.4 l 25.301,0.3 c 12.699,0.2 23.5,-9.2 25.1,-21.8 l 2.3,-18.2 c 12.601,-3.101 24.601,-7.8 36,-14 l 14,11.3 c 9.9,8 24.101,7.4 33.201,-1.5 l 18.1,-17.7 c 9.1,-8.899 10.1,-23.1 2.301,-33.2 L 496.6,818.438 c 6.6,-11 11.701,-22.7 15.201,-35 l 16.6,-1.7 c 12.6,-1.3 22.299,-11.9 22.4,-24.6 l 0.299,-25.301 c 0.201,-12.699 -9.199,-23.5 -21.799,-25.1 l -16.201,-2.1 c -3.1,-12.2 -7.699,-24 -13.699,-35 l 10.1,-12.4 c 8,-9.9 7.4,-24.1 -1.5,-33.2 l -17.699,-18.1 c -8.9,-9.101 -23.102,-10.101 -33.201,-2.3 l -12.101,9.3 c -11.399,-6.9 -23.6,-12.2 -36.399,-15.8 L 407,581.437 c -1.3,-12.601 -11.899,-22.3 -24.6,-22.4 l -25.3,-0.3 c -12.7,-0.2 -23.5,9.2 -25.101,21.8 l -2,15.601 c -13.199,3.399 -25.899,8.6 -37.699,15.399 l -12.5,-10.2 c -9.9,-8 -24.101,-7.399 -33.201,1.5 l -18.2,17.801 c -9.1,8.899 -10.1,23.1 -2.3,33.199 l 10.7,13.801 c -6.2,11 -11.1,22.699 -14.3,35 l -17.499,1.8 z m 163.3,-28.601 c 36.3,0.4 65.399,30.301 65,66.601 -0.4,36.3 -30.301,65.399 -66.601,65 -36.3,-0.4 -65.399,-30.3 -65,-66.601 0.401,-36.299 30.301,-65.399 66.601,-65 z"
           id="path17626" /></g><g
         style="fill:#ffffff"
         id="g17628" /><g
         style="fill:#ffffff"
         id="g17630" /><g
         style="fill:#ffffff"
         id="g17632" /><g
         style="fill:#ffffff"
         id="g17634" /><g
         style="fill:#ffffff"
         id="g17636" /><g
         style="fill:#ffffff"
         id="g17638" /><g
         style="fill:#ffffff"
         id="g17640" /><g
         style="fill:#ffffff"
         id="g17642" /><g
         style="fill:#ffffff"
         id="g17644" /><g
         style="fill:#ffffff"
         id="g17646" /><g
         style="fill:#ffffff"
         id="g17648" /><g
         style="fill:#ffffff"
         id="g17650" /><g
         style="fill:#ffffff"
         id="g17652" /><g
         style="fill:#ffffff"
         id="g17654" /><g
         style="fill:#ffffff"
         id="g17656" /></g><g
       style="fill:#ffffff;fill-opacity:1"
       transform="matrix(0.53273326,0,0,-0.43027598,233.47773,71.485509)"
       id="g5904-4-4"><path
         style="fill:#ffffff;fill-opacity:1"
         id="path5906-2-7"
         d="m 0,24.108 0,11.783 c 0,0.974 0.314,1.868 0.835,2.608 l 58.329,0 C 59.686,37.76 60,36.865 60,35.892 L 60,24.108 C 60,23.134 59.686,22.24 59.165,21.5 l -58.33,0 C 0.314,22.24 0,23.135 0,24.108 Z M 52,30.5 c 0.552,0 1,0.448 1,1 0,0.552 -0.448,1 -1,1 -0.552,0 -1,-0.448 -1,-1 0,-0.552 0.448,-1 1,-1 z m -2,-3 c 0.552,0 1,0.448 1,1 0,0.552 -0.448,1 -1,1 -0.552,0 -1,-0.448 -1,-1 0,-0.552 0.448,-1 1,-1 z m -2,3 c 0.552,0 1,0.448 1,1 0,0.552 -0.448,1 -1,1 -0.552,0 -1,-0.448 -1,-1 0,-0.552 0.448,-1 1,-1 z m -2,-3 c 0.552,0 1,0.448 1,1 0,0.552 -0.448,1 -1,1 -0.552,0 -1,-0.448 -1,-1 0,-0.552 0.448,-1 1,-1 z m -2,3 c 0.552,0 1,0.448 1,1 0,0.552 -0.448,1 -1,1 -0.552,0 -1,-0.448 -1,-1 0,-0.552 0.448,-1 1,-1 z m -2,-3 c 0.552,0 1,0.448 1,1 0,0.552 -0.448,1 -1,1 -0.552,0 -1,-0.448 -1,-1 0,-0.552 0.448,-1 1,-1 z m -2,3 c 0.552,0 1,0.448 1,1 0,0.552 -0.448,1 -1,1 -0.552,0 -1,-0.448 -1,-1 0,-0.552 0.448,-1 1,-1 z m -2,-3 c 0.552,0 1,0.448 1,1 0,0.552 -0.448,1 -1,1 -0.552,0 -1,-0.448 -1,-1 0,-0.552 0.448,-1 1,-1 z m -2,3 c 0.552,0 1,0.448 1,1 0,0.552 -0.448,1 -1,1 -0.552,0 -1,-0.448 -1,-1 0,-0.552 0.448,-1 1,-1 z m -2,-3 c 0.552,0 1,0.448 1,1 0,0.552 -0.448,1 -1,1 -0.552,0 -1,-0.448 -1,-1 0,-0.552 0.448,-1 1,-1 z m -23.5,-2 c 2.481,0 4.5,2.019 4.5,4.5 0,2.481 -2.019,4.5 -4.5,4.5 C 8.019,34.5 6,32.481 6,30 6,27.519 8.019,25.5 10.5,25.5 Z" /><path
         style="fill:#ffffff;fill-opacity:1"
         id="path5908-2-6"
         d="M 59.165,19.5 C 59.686,18.76 60,17.865 60,16.892 L 60,5.108 C 60,2.567 57.933,0.5 55.392,0.5 L 4.608,0.5 C 2.067,0.5 0,2.567 0,5.108 l 0,11.783 c 0,0.974 0.314,1.868 0.835,2.608 l 58.33,0 z M 52,11.5 c 0.552,0 1,0.448 1,1 0,0.552 -0.448,1 -1,1 -0.552,0 -1,-0.448 -1,-1 0,-0.552 0.448,-1 1,-1 z m -2,-3 c 0.552,0 1,0.448 1,1 0,0.552 -0.448,1 -1,1 -0.552,0 -1,-0.448 -1,-1 0,-0.552 0.448,-1 1,-1 z m -2,3 c 0.552,0 1,0.448 1,1 0,0.552 -0.448,1 -1,1 -0.552,0 -1,-0.448 -1,-1 0,-0.552 0.448,-1 1,-1 z m -2,-3 c 0.552,0 1,0.448 1,1 0,0.552 -0.448,1 -1,1 -0.552,0 -1,-0.448 -1,-1 0,-0.552 0.448,-1 1,-1 z m -2,3 c 0.552,0 1,0.448 1,1 0,0.552 -0.448,1 -1,1 -0.552,0 -1,-0.448 -1,-1 0,-0.552 0.448,-1 1,-1 z m -2,-3 c 0.552,0 1,0.448 1,1 0,0.552 -0.448,1 -1,1 -0.552,0 -1,-0.448 -1,-1 0,-0.552 0.448,-1 1,-1 z m -2,3 c 0.552,0 1,0.448 1,1 0,0.552 -0.448,1 -1,1 -0.552,0 -1,-0.448 -1,-1 0,-0.552 0.448,-1 1,-1 z m -2,-3 c 0.552,0 1,0.448 1,1 0,0.552 -0.448,1 -1,1 -0.552,0 -1,-0.448 -1,-1 0,-0.552 0.448,-1 1,-1 z m -2,3 c 0.552,0 1,0.448 1,1 0,0.552 -0.448,1 -1,1 -0.552,0 -1,-0.448 -1,-1 0,-0.552 0.448,-1 1,-1 z m -2,-3 c 0.552,0 1,0.448 1,1 0,0.552 -0.448,1 -1,1 -0.552,0 -1,-0.448 -1,-1 0,-0.552 0.448,-1 1,-1 z m -23.5,-2 c 2.481,0 4.5,2.019 4.5,4.5 0,2.481 -2.019,4.5 -4.5,4.5 C 8.019,15.5 6,13.481 6,11 6,8.519 8.019,6.5 10.5,6.5 Z" /><path
         style="fill:#ffffff;fill-opacity:1"
         id="path5910-6-89"
         d="M 0.835,40.5 C 0.314,41.24 0,42.135 0,43.108 L 0,54.891 C 0,57.433 2.067,59.5 4.608,59.5 l 50.783,0 c 2.541,0 4.608,-2.067 4.608,-4.608 l 0,-11.784 c 0,-0.974 -0.314,-1.868 -0.835,-2.608 l -58.329,0 z m 9.665,13 C 8.019,53.5 6,51.481 6,49 c 0,-2.481 2.019,-4.5 4.5,-4.5 2.481,0 4.5,2.019 4.5,4.5 0,2.481 -2.019,4.5 -4.5,4.5 z m 23.5,-5 c -0.552,0 -1,-0.448 -1,-1 0,-0.552 0.448,-1 1,-1 0.552,0 1,0.448 1,1 0,0.552 -0.448,1 -1,1 z m 2,3 c -0.552,0 -1,-0.448 -1,-1 0,-0.552 0.448,-1 1,-1 0.552,0 1,0.448 1,1 0,0.552 -0.448,1 -1,1 z m 2,-3 c -0.552,0 -1,-0.448 -1,-1 0,-0.552 0.448,-1 1,-1 0.552,0 1,0.448 1,1 0,0.552 -0.448,1 -1,1 z m 2,3 c -0.552,0 -1,-0.448 -1,-1 0,-0.552 0.448,-1 1,-1 0.552,0 1,0.448 1,1 0,0.552 -0.448,1 -1,1 z m 2,-3 c -0.552,0 -1,-0.448 -1,-1 0,-0.552 0.448,-1 1,-1 0.552,0 1,0.448 1,1 0,0.552 -0.448,1 -1,1 z m 2,3 c -0.552,0 -1,-0.448 -1,-1 0,-0.552 0.448,-1 1,-1 0.552,0 1,0.448 1,1 0,0.552 -0.448,1 -1,1 z m 2,-3 c -0.552,0 -1,-0.448 -1,-1 0,-0.552 0.448,-1 1,-1 0.552,0 1,0.448 1,1 0,0.552 -0.448,1 -1,1 z m 2,3 c -0.552,0 -1,-0.448 -1,-1 0,-0.552 0.448,-1 1,-1 0.552,0 1,0.448 1,1 0,0.552 -0.448,1 -1,1 z m 2,-3 c -0.552,0 -1,-0.448 -1,-1 0,-0.552 0.448,-1 1,-1 0.552,0 1,0.448 1,1 0,0.552 -0.448,1 -1,1 z m 2,3 c -0.552,0 -1,-0.448 -1,-1 0,-0.552 0.448,-1 1,-1 0.552,0 1,0.448 1,1 0,0.552 -0.448,1 -1,1 z" /></g><g
       transform="matrix(0.664758,0,0,0.664758,45.507003,137.79976)"
       id="g46496"><path
         id="path3281"
         style="opacity:1;fill:#ffffff;fill-opacity:1;fill-rule:evenodd;stroke:none;stroke-width:1px;stroke-linecap:butt;stroke-linejoin:miter;stroke-opacity:1"
         d="m 351.65317,240.39802 0,0.70696 1.20901,0 0,3.3299 0.76844,0 0,-3.31966 1.18851,0 0,-0.72745 -3.16596,0.0103 z m 3.88317,0.0307 0,3.99588 0.61475,0 0,-3.084 0.95949,2.67971 0.6471,-0.005 0.99586,-2.63422 0,3.09424 0.625,0 0,-4.05735 -1.14754,0 -0.80915,2.85184 -0.83018,-2.84159 -1.05533,0 z m -94.8048,24.01626 0,-11.31141 c 0,0 -0.12295,-4.87702 4.75407,-9.75404 4.87703,-4.87702 9.50815,-4.34424 9.50815,-4.34424 l 6.39341,0 c 0,0 8.03274,-12.04911 23.93429,-12.04911 15.90155,0 24.99986,11.88518 24.99986,11.88518 l 7.21307,0 c 0,0 1.82093,-0.0825 4.10957,1.06689 2.31324,1.1617 4.39421,2.5003 6.51306,5.78879 2.12489,3.29784 2.41009,5.67357 2.41009,7.40653 0,0 0,12.37698 0,12.37698 0,2.58041 -0.2459,4.59014 -4.59014,8.93438 -4.34424,4.34424 -9.91798,3.85243 -9.91798,3.85243 l -6.6393,0 c 0,0 -8.2926,11.95241 -23.85233,11.95241 -15.56226,0 -23.52446,-11.87044 -23.52446,-11.87044 l -7.37701,0 c 0,0 -4.87702,0.28688 -9.59011,-4.4262 -4.71309,-4.71309 -4.26227,-9.50815 -4.34424,-9.50815 z m 7.82783,-16.2704 4.59014,19.79497 5.04095,0 2.25409,-11.39337 2.17212,11.39337 5.1639,0 4.59014,-19.67202 -5.49177,0 -1.59835,10.77863 -2.25409,-10.81961 -4.95899,0 -2.25408,10.94256 -1.68032,-10.98354 -5.57374,-0.041 z m 26.40528,5.53743 0,14.23933 4.84431,0 0,-14.23933 -4.84431,0 z m 5.57829,-4.02224 c 0,1.37754 -1.36792,2.49555 -3.05338,2.49555 -1.68547,0 -3.05338,-1.11801 -3.05338,-2.49555 0,-1.37755 1.36791,-2.49555 3.05338,-2.49555 1.68546,0 3.05338,1.118 3.05338,2.49555 z m 1.17438,25.80695 c 0,0 6.04804,-4.58967 6.04804,-11.42083 0,0 0,-11.5089 0,-11.5089 0,-1.85045 0.94881,-4.47193 3.78737,-7.3105 2.83856,-2.83856 5.33998,-3.28825 7.07563,-3.28825 0,0 18.02669,0 18.02669,0 3.06407,0.0427 5.44496,1.32705 7.63345,3.37633 2.02785,2.13065 3.34698,4.80068 3.34698,7.72153 l 0,11.00979 c 0,2.16731 -0.58116,5.30803 -3.46441,7.95641 -2.88326,2.64838 -5.10517,3.46442 -7.39858,3.46442 0,0 -35.05517,0 -35.05517,0 z m 33.29358,-21.77003 0,14.23933 4.84431,0 0,-14.23933 -4.84431,0 z m 5.5783,-4.02224 c 0,1.37754 -1.36792,2.49555 -3.05339,2.49555 -1.68546,0 -3.05338,-1.11801 -3.05338,-2.49555 0,-1.37755 1.36792,-2.49556 3.05338,-2.49556 1.68547,0 3.05339,1.11801 3.05339,2.49556 z m -25.95373,18.15881 5.4315,0 0,-5.9306 10.33452,0 0,-4.43328 -10.36388,0 0,-4.63879 11.71441,0 0,-4.60943 -17.14591,0 0.0294,19.6121 z" /><path
         style="fill:#fb8a52;fill-opacity:1"
         d="m 273.18023,267.6719 c -0.14536,-0.43328 -4.40607,-18.98726 -4.40607,-19.18696 0,-0.15741 0.64229,-0.20758 2.65731,-0.20758 1.46152,0 2.65699,0.056 2.65659,0.12456 -10e-4,0.21026 1.50192,10.06217 1.60273,10.50469 0.0878,0.38538 0.10326,0.39135 0.21524,0.083 0.0664,-0.18269 0.60015,-2.66953 1.1862,-5.52631 l 1.06556,-5.19415 2.40116,0.0456 2.40115,0.0456 1.08773,5.26042 c 0.59824,2.89323 1.13339,5.30609 1.18921,5.36191 0.1334,0.1334 0.15876,-0.012 0.99091,-5.68139 l 0.71304,-4.8579 2.62537,0 c 1.44395,0 2.62537,0.0475 2.62537,0.10556 0,0.11999 -4.28935,18.58865 -4.42097,19.0354 -0.0766,0.25993 -0.34654,0.29064 -2.55448,0.29064 -2.2075,0 -2.47803,-0.0308 -2.55562,-0.29064 -0.0477,-0.15986 -0.53976,-2.6772 -1.0934,-5.5941 -0.55363,-2.9169 -1.04102,-5.33786 -1.08307,-5.37992 -0.12983,-0.12982 -0.20896,0.22495 -1.29009,5.78395 l -1.04975,5.39767 -2.44649,0.046 c -1.86955,0.0351 -2.46327,-0.004 -2.51763,-0.16608 l 0,0 z"
         id="path2814" /><path
         style="fill:#fb8a52;fill-opacity:1"
         d="m 295.01512,260.81655 0,-7.05848 2.32515,0 2.32515,0 0,7.05848 0,7.05849 -2.32515,0 -2.32515,0 0,-7.05849 z"
         id="path2816" /><path
         style="fill:#fb8a52;fill-opacity:1"
         d="m 296.39466,251.9226 c -0.29172,-0.0892 -0.78983,-0.40684 -1.10691,-0.70588 -1.0996,-1.03705 -0.92456,-2.50322 0.40378,-3.38228 0.5746,-0.38025 0.88703,-0.46544 1.71542,-0.46773 3.83058,-0.0106 4.08249,4.41986 0.26549,4.66923 -0.41106,0.0268 -0.98606,-0.0242 -1.27778,-0.11334 z"
         id="path2818" /><path
         style="fill:#fb8a52;fill-opacity:1"
         d="m 303.35456,274.04877 c 1.94725,-2.03817 3.17214,-4.02291 3.96387,-6.42285 0.37097,-1.1245 0.38678,-1.41007 0.48257,-8.71931 0.10645,-8.12186 0.0933,-7.99686 1.03857,-9.88188 0.55224,-1.10129 1.89088,-2.80727 3.09155,-3.93993 1.32917,-1.25387 2.67597,-2.10754 4.17643,-2.64723 l 1.07953,-0.38829 10.29709,0 c 11.33075,0 11.16384,-0.0131 13.45264,1.0595 2.90422,1.36105 5.58784,4.63591 6.31046,7.70074 0.36512,1.54859 0.3614,14.40233 -0.005,15.82653 -0.75788,2.94928 -2.86314,5.58248 -5.92684,7.41318 -2.32591,1.38983 -0.854,1.2995 -21.17612,1.2995 l -18.02714,0 1.24198,-1.29996 z m 36.50272,-13.23222 0,-7.22457 -2.49123,0 -2.49123,0 0,7.22457 0,7.22457 2.49123,0 2.49123,0 0,-7.22457 z m -19.76376,4.15206 0,-2.90644 5.23158,0 5.23158,0 0,-2.32515 0,-2.32515 -5.23158,0 -5.23158,0 0,-2.24211 0,-2.2421 5.89591,0 5.89591,0 0,-2.40819 0,-2.40819 -8.74539,0 -8.74539,0 0.10912,2.76688 c 0.06,1.52178 0.10913,5.96863 0.10913,9.88188 l 0,7.115 2.74035,0 2.74036,0 0,-2.90643 z m 18.64584,-12.88096 c 1.78725,-0.49633 2.52363,-2.68309 1.31499,-3.90499 -1.40701,-1.42245 -3.82816,-1.38234 -5.06189,0.0839 -0.83971,0.99793 -0.79712,2.14368 0.11354,3.05433 0.85713,0.85713 2.24974,1.15103 3.63336,0.76679 l 0,0 z"
         id="path2820" /></g><g
       transform="matrix(0.03675387,0,0,0.03675387,241.76454,195.89496)"
       id="g46458"><rect
         id="rect46444"
         width="640"
         height="976"
         ry="291"
         x="0"
         y="0"
         style="fill:#ffffff;fill-opacity:1" /><path
         id="path46446"
         d="M 157,330 462,637 315,815 315,179 462,349 157,648"
         style="fill:none;stroke:#fb8a52;stroke-width:53;stroke-opacity:1" /></g><g
       style="fill:#ffffff"
       id="layer1"
       transform="matrix(0.664758,0,0,0.664758,-770.61877,100.39603)"><path
         id="path12597-7"
         d="M 1622.9425,254.89561"
         style="fill:#ffffff;stroke:#000000;stroke-width:0.24894519" /><path
         id="path12599-5"
         d="M 1622.9425,254.89561"
         style="opacity:0.477778;fill:#ffffff;stroke:#000000;stroke-width:0.24894519" /><path
         d="m 1637.532,178.56317 c -5.9168,0 -10.7086,3.43886 -12.2949,8.04105 -1.8063,-0.80706 -3.7638,-1.38639 -5.9439,-1.38639 -7.1914,0 -13.0278,4.9688 -13.0278,11.09112 0,1.2842 0.4234,2.45713 0.8957,3.60461 -3.5787,1.70967 -6.1068,4.85569 -6.1068,8.59561 0,5.51006 5.2528,9.98202 11.725,9.98201 0.4615,0 49.0439,0 49.5054,0 6.4721,0 11.725,-4.47195 11.725,-9.98201 0,-3.73992 -2.5281,-6.88594 -6.1068,-8.59561 0.4723,-1.14747 0.8957,-2.32044 0.8957,-3.60461 0,-6.1223 -5.8364,-11.0911 -13.0277,-11.09112 -2.1802,0 -4.1377,0.57933 -5.944,1.38639 -1.5863,-4.60219 -6.3781,-8.04105 -12.2949,-8.04105 z"
         id="path12329-1"
         stroke-miterlimit="2"
         style="fill:#ffffff;stroke:none;stroke-width:1.15144598;stroke-miterlimit:2;stroke-dashoffset:0" /></g></g></svg>