<?xml version="1.0" encoding="utf-8"?>
<!-- Generator: Adobe Illustrator 20.1.0, SVG Export Plug-In . SVG Version: 6.00 Build 0)  -->
<svg version="1.1" id="Layer_1" xmlns="http://www.w3.org/2000/svg" xmlns:xlink="http://www.w3.org/1999/xlink" x="0px" y="0px"
	 width="580px" height="140px" viewBox="0 0 580 140" style="enable-background:new 0 0 580 140;" xml:space="preserve">
<style type="text/css">
	.st0{fill:#00A4AE;}
	.st1{fill:none;stroke:#BFCBD1;stroke-width:4;stroke-linecap:round;stroke-miterlimit:10;}
</style>
<g>
	<polygon class="st0" points="470.8,10.3 470.8,21.9 478.5,21.9 478.5,18 567.3,18 567.3,60.5 563.4,60.5 563.4,68.2 575,68.2 
		575,10.3 	"/>
	<polygon class="st0" points="451.5,41.2 459.2,41.2 459.2,37.3 548,37.3 548,79.8 544.1,79.8 544.1,87.5 555.7,87.5 555.7,29.6 
		451.5,29.6 	"/>
	<polygon class="st0" points="432.2,60.5 439.9,60.5 439.9,56.6 528.7,56.6 528.7,99 524.8,99 524.8,106.8 536.4,106.8 536.4,48.9 
		432.2,48.9 	"/>
	<path class="st0" d="M412.9,126.1h104.2V68.2H412.9V126.1L412.9,126.1z M420.6,75.9h88.8v42.5h-88.8L420.6,75.9L420.6,75.9z"/>
	<path class="st0" d="M474.8,99.4c-0.5-0.8-1.2-1.5-2.2-2.3c-1-0.7-2.4-1.3-4.2-1.8c-0.3-0.1-0.7-0.2-1-0.3s-0.6-0.1-0.9-0.2v-6.5
		c0.8,0,1.5,0.3,2.1,1s0.9,1.5,0.9,2.5h5.2c-0.1-1.3-0.3-2.4-0.8-3.3c-0.5-0.9-1.1-1.7-1.8-2.3c-0.7-0.6-1.6-1.1-2.5-1.5
		c-1-0.4-2-0.6-3.1-0.7v-2.8h-2.2V84c-1.1,0.1-2.2,0.3-3.2,0.6c-1,0.4-1.9,0.9-2.7,1.5c-0.8,0.6-1.4,1.4-1.9,2.4s-0.7,2.1-0.7,3.3
		s0.2,2.2,0.6,3.1c0.4,0.8,1,1.5,1.7,2.1c0.7,0.5,1.5,1,2.4,1.3s1.8,0.6,2.7,0.9c0.2,0,0.5,0.1,0.7,0.2c0.2,0.1,0.4,0.1,0.5,0.2v7.7
		c-1.1-0.2-2.1-0.7-2.8-1.5c-0.8-0.8-1.1-1.9-1.1-3.3h-5.2c0.2,2.9,1.1,5.1,2.7,6.6c1.5,1.5,3.7,2.3,6.4,2.5v3.1h2.2v-3.1
		c1.8-0.1,3.3-0.5,4.5-1.1s2.1-1.3,2.8-2.1c0.7-0.8,1.2-1.6,1.4-2.4c0.3-0.8,0.4-1.5,0.4-2c0-0.6,0-1.3-0.1-2.1
		C475.6,100.9,475.3,100.2,474.8,99.4z M464.5,94.3c-1.2-0.3-2-0.6-2.5-1.1c-0.5-0.4-0.8-1.1-0.8-1.9c0-0.5,0.1-1,0.3-1.3
		c0.2-0.4,0.4-0.7,0.8-1c0.3-0.3,0.7-0.4,1.1-0.6c0.4-0.1,0.8-0.2,1.2-0.2v6.1H464.5z M470.2,105.1c-0.2,0.4-0.6,0.8-0.9,1.1
		c-0.4,0.3-0.8,0.5-1.3,0.7s-0.9,0.3-1.4,0.3v-7c1.4,0.4,2.5,0.8,3.1,1.3s0.9,1.2,0.9,2.1C470.6,104.2,470.5,104.7,470.2,105.1z"/>
	<rect x="484.3" y="81.7" class="st0" width="19.3" height="5.8"/>
	<rect x="426.4" y="106.8" class="st0" width="19.3" height="5.8"/>
</g>
<path class="st1" d="M215.1,47.8h65.6V30.4c0-0.8,33.6,29.3,33.6,29.8S280.7,90.7,280.7,90V72.6h-65.6"/>
<path class="st1" d="M299.3,29c0,0,34.3,30.6,34.3,31.1s-34.3,31.1-34.3,31.1"/>
<path class="st1" d="M318.6,29c0,0,34.3,30.6,34.3,31.1s-34.3,31.1-34.3,31.1"/>
<path class="st1" d="M337.9,29c0,0,34.3,30.6,34.3,31.1s-34.3,31.1-34.3,31.1"/>
<path class="st0" d="M52.7,31.4c0-1.1-0.1-2.1-0.3-3.2l9.4-5.4L55,11.1l-9.4,5.4c-0.5-0.4-1-0.8-1.5-1.1c-1-0.7-2.1-1.3-3.3-1.8
	c-0.2-0.1-0.5-0.2-0.8-0.3V2.4H26.7v10.9c-0.3,0.1-0.5,0.2-0.8,0.3c-1.2,0.5-2.3,1.1-3.3,1.8c-0.5,0.3-1,0.7-1.5,1.1l0,0l-9.4-5.4
	L5,22.7l9.4,5.4c-0.2,1-0.3,2.1-0.3,3.2s0.1,2.1,0.3,3.2L5,40l6.8,11.7l9.4-5.4l0,0c0.5,0.4,1,0.8,1.5,1.1c1,0.7,2.1,1.3,3.3,1.8
	c0.2,0.1,0.5,0.2,0.8,0.3v10.9h13.5V49.5c0.3-0.1,0.5-0.2,0.8-0.3c1.2-0.5,2.3-1.1,3.3-1.8c0.5-0.3,1-0.7,1.5-1.1l9.4,5.4L62.1,40
	l-9.4-5.4C52.6,33.5,52.7,32.4,52.7,31.4z M33.4,37.2c-3.2,0-5.8-2.6-5.8-5.8s2.6-5.8,5.8-5.8s5.8,2.6,5.8,5.8S36.6,37.2,33.4,37.2z
	"/>
<path class="st0" d="M173.3,58V42.6h-12.4c-0.9-4.4-2.7-8.5-5-12.2l8.8-8.8l-10.9-10.9l-8.8,8.8c-3.7-2.4-7.8-4.1-12.2-5V2h-15.4
	v12.4c-4.4,0.9-8.5,2.7-12.2,5l-8.8-8.8l-10.9,11l8.8,8.8c-2.4,3.7-4.1,7.8-5,12.2H76.9V58h12.4c0.9,4.4,2.7,8.5,5,12.2L85.5,79
	l10.9,10.9l8.8-8.8c3.7,2.4,7.8,4.1,12.2,5v12.4h15.4V86.1c4.4-0.9,8.5-2.7,12.2-5l8.8,8.8L164.7,79l-8.8-8.8
	c2.4-3.7,4.1-7.8,5-12.2L173.3,58z M125.1,71.5c-11.7,0-21.2-9.5-21.2-21.2s9.5-21.2,21.2-21.2s21.2,9.5,21.2,21.2
	S136.8,71.5,125.1,71.5z"/>
<path class="st0" d="M77.9,104.3h12.4V90.8H77.9c-0.6-2.5-1.6-4.8-2.9-7l8.8-8.8l-9.6-9.6l-8.8,8.8c-2.1-1.3-4.5-2.3-7-2.9V58.9H45
	v12.4c-2.5,0.6-4.8,1.6-7,2.9l-8.8-8.8L19.6,75l8.8,8.8c-1.3,2.1-2.3,4.5-2.9,7H13.2v13.5h12.4c0.6,2.2,1.4,4.2,2.4,6.1
	c0.2,0.3,0.3,0.6,0.5,0.8l-8.8,8.8l9.6,9.6l8.8-8.8c2.1,1.3,4.5,2.3,7,2.9v12.4h13.5v-12.4c2.5-0.6,4.8-1.6,7-2.9l8.8,8.8L84,120
	l-8.8-8.8c0.2-0.3,0.3-0.6,0.5-0.8C76.6,108.5,77.4,106.5,77.9,104.3z M51.8,107.2c-5.3,0-9.6-4.3-9.6-9.6s4.3-9.6,9.6-9.6
	s9.6,4.3,9.6,9.6S57.1,107.2,51.8,107.2z"/>
</svg>
