<svg xmlns="http://www.w3.org/2000/svg" width="400" height="200" viewBox="0 0 400 200"><path fill="none" stroke="#C8C8C8" stroke-width="2" stroke-miterlimit="10" d="M105.134 125.417c0 11.612-9.501 21.112-21.112 21.112H31.111c-11.611 0-21.111-9.5-21.111-21.112V72.506c0-11.611 9.5-21.111 21.111-21.111h52.911c11.611 0 21.112 9.5 21.112 21.111v52.911z"/><path fill="#C8C8C8" d="M59.928 145.595c0 .312-.019.623-.022.935l-32.48-.008c-9.553 0-17.317-7.749-17.34-17.296L10 95.67c27.575 0 49.928 22.351 49.928 49.925z"/><path fill="none" stroke="#C8C8C8" stroke-width="2" stroke-miterlimit="10" d="M10 75.775c38.359 0 69.451 31.097 69.451 69.453 0 .438-.023.867-.032 1.301M29.226 50.896c39.016 7.951 69.406 39.626 75.448 79.3m-21.639-79.04a118.662 118.662 0 0 1 21.911 23.219"/><path fill="#C8C8C8" d="M264.129 58.534V69.76s-.799-11.226-28.061-11.226c-27.257 0-34.473 24.052-34.473 24.052V60.139h-25.654l-13.631 46.502-13.629-47.304h-25.654v81.902l17.638-.929V90.605l12.828 49.705h16.835l14.43-52.112v52.913h16.838v-20.843s16.035 22.446 32.066 22.446c16.037 0 21.649-4.008 21.649-4.008s4.006 3.21 7.212 5.612c3.21 2.408 8.016 4.784 8.016 4.784l8.322-12.549c-4.005-1.605-11.528-8.268-11.528-8.268s9.426-11.219 9.426-25.65-7.018-26.457-7.018-26.457h16.033v64.939h20.043V75.373h40.889v66.542h21.646V76.174H390v-17.64H264.129zm-10.857 62.592c-1.208 1.731-12.652-11.212-12.894-10.973l-7.849 10.465c-.632.274 10.731 8.426 10.075 8.617a16.066 16.066 0 0 1-4.533.656c-11.291 0-20.441-11.842-20.441-26.459 0-14.609 9.15-26.455 20.441-26.455 11.289 0 20.45 11.846 20.45 26.455.001 6.802-1.991 13.006-5.249 17.694z"/></svg>