<?xml version="1.0" encoding="UTF-8" standalone="no"?>
<svg
   xmlns:dc="http://purl.org/dc/elements/1.1/"
   xmlns:cc="http://creativecommons.org/ns#"
   xmlns:rdf="http://www.w3.org/1999/02/22-rdf-syntax-ns#"
   xmlns:svg="http://www.w3.org/2000/svg"
   xmlns="http://www.w3.org/2000/svg"
   xmlns:sodipodi="http://sodipodi.sourceforge.net/DTD/sodipodi-0.dtd"
   xmlns:inkscape="http://www.inkscape.org/namespaces/inkscape"
   version="1.1"
   viewBox="0 0 1579.7 1027.3"
   id="svg4801"
   inkscape:version="0.91 r13725"
   sodipodi:docname="network-782707.svg">
  <metadata
     id="metadata5289">
    <rdf:RDF>
      <cc:Work
         rdf:about="">
        <dc:format>image/svg+xml</dc:format>
        <dc:type
           rdf:resource="http://purl.org/dc/dcmitype/StillImage" />
        <dc:title></dc:title>
      </cc:Work>
    </rdf:RDF>
  </metadata>
  <defs
     id="defs5287" />
  <sodipodi:namedview
     pagecolor="#ffffff"
     bordercolor="#666666"
     borderopacity="1"
     objecttolerance="10"
     gridtolerance="10"
     guidetolerance="10"
     inkscape:pageopacity="0"
     inkscape:pageshadow="2"
     inkscape:window-width="1676"
     inkscape:window-height="1027"
     id="namedview5285"
     showgrid="false"
     inkscape:zoom="0.53279766"
     inkscape:cx="980.88027"
     inkscape:cy="483.66782"
     inkscape:window-x="0"
     inkscape:window-y="19"
     inkscape:window-maximized="0"
     inkscape:current-layer="g4805" />
  <g
     transform="translate(302.15 -166.66)"
     id="g4803">
    <g
       transform="matrix(.013468 0 0 -.013468 8.2611 847.65)"
       id="g4805">
      <path
         d="m63708 21140v-6841.2c0-1025.2 831.13-1856.2 1856.2-1856.2h6837.6c1025.3 0 1856.4-790.67 1856.4-1765.9v-2795.5"
         fill="none"
         stroke="#fff"
         stroke-miterlimit="10"
         stroke-width="222.75"
         id="path4809"
         style="stroke:#cccccc" />
      <path
         d="m40411 20265v8974.1c0 1025.2-831.13 1856.2-1856.2 1856.2h-6837.6c-1025.3 0-1856.4 790.67-1856.4 1765.9v2795.5"
         fill="none"
         stroke="#fff"
         stroke-miterlimit="10"
         stroke-width="222.75"
         id="path4811"
         style="stroke:#cccccc" />
      <path
         d="m-2268.8 10533h14418c1025.2 0 1856.2 831.14 1856.2 1856.2v5172c0 1025.3 790.67 1856.4 1765.8 1856.4h10788"
         fill="none"
         stroke="#fff"
         stroke-miterlimit="10"
         stroke-width="222.75"
         id="path4813"
         style="stroke:#cccccc" />
      <path
         d="m38444 13597h16931c1025.2 0 1856.2 1308.5 1856.2 2333.6v3301.7c0 1025.3 790.67 1856.4 1765.9 1856.4h17079"
         fill="none"
         stroke="#fff"
         stroke-miterlimit="10"
         stroke-width="222.75"
         id="path4815"
         style="stroke:#cccccc" />
      <path
         d="m84998-11575v8974.1c0 1025.2-831.14 1856.2-1856.3 1856.2h-6837.6c-1025.3 0-1856.4 790.67-1856.4 1765.9v2795.5"
         fill="none"
         stroke="#fff"
         stroke-miterlimit="10"
         stroke-width="222.75"
         id="path4817"
         style="stroke:#cccccc" />
      <path
         d="m78121 5145c0-1879.4-1523.6-3403.3-3403.2-3403.3s-3403.2 1523.9-3403.2 3403.3c0 1879.6 1523.6 3403.2 3403.2 3403.2s3403.2-1523.6 3403.2-3403.2"
         fill="#fff"
         stroke="#fff"
         stroke-width="9.2812"
         id="path4819"
         style="stroke:#cccccc;fill:#cccccc" />
      <path
         d="m3789.1-5639v9083.6c0 1027.7 554.49 1860.9 1238.5 1860.9h17702c684.11 0 1238.6 792.57 1238.6 1770.3v755.53"
         fill="none"
         stroke="#fff"
         stroke-miterlimit="10"
         stroke-width="222.75"
         id="path4821"
         style="stroke:#cccccc" />
      <path
         d="m43803 10730h18949c1025.2 0 1856.2-1308.5 1856.2-2333.6v-6124.7"
         fill="none"
         stroke="#fff"
         stroke-miterlimit="10"
         stroke-width="222.75"
         id="path4823"
         style="stroke:#cccccc" />
      <path
         d="m51154-3096.7v9568.9c0 1025.2-831.14 1856.2-1856.2 1856.2h-7769c-1025.3 0-1856.4 790.58-1856.4 1765.8v1903.5"
         fill="none"
         stroke="#fff"
         stroke-miterlimit="10"
         stroke-width="222.75"
         id="path4825"
         style="stroke:#cccccc" />
      <path
         d="m33129 37981c0-1879.4-1523.6-3403.3-3403.2-3403.3s-3403.2 1523.9-3403.2 3403.3c0 1879.6 1523.6 3403.2 3403.2 3403.2s3403.2-1523.6 3403.2-3403.2"
         fill="#fff"
         stroke="#fff"
         stroke-width="9.2812"
         id="path4827"
         style="stroke:#cccccc;fill:#cccccc" />
      <path
         d="m7341.5-8007.4c0-1879.5-1523.7-3403.3-3403.3-3403.3s-3403.3 1523.9-3403.3 3403.3c0 1879.6 1523.7 3403.2 3403.3 3403.2s3403.3-1523.6 3403.3-3403.2"
         fill="#fff"
         stroke="#fff"
         stroke-width="9.2812"
         id="path4829"
         style="stroke:#cccccc;fill:#cccccc" />
      <path
         d="m54557-4050.8c0-1879.5-1523.6-3403.3-3403.2-3403.3s-3403.2 1523.9-3403.2 3403.3c0 1879.6 1523.6 3403.2 3403.2 3403.2s3403.2-1523.6 3403.2-3403.2"
         fill="#fff"
         stroke="#fff"
         stroke-width="9.2812"
         id="path4831"
         style="stroke:#cccccc;fill:#cccccc" />
      <path
         d="m-1254.7 10705c0-1879.5-1523.6-3403.3-3403.2-3403.3s-3403.2 1523.9-3403.2 3403.3c0 1879.6 1523.6 3403.2 3403.2 3403.2s3403.2-1523.6 3403.2-3403.2"
         fill="#fff"
         stroke="#fff"
         stroke-width="9.2812"
         id="path4833"
         style="stroke:#cccccc;fill:#cccccc" />
      <path
         d="m32017 26214h-14418c-1025.2 0-1856.2 831.13-1856.2 1856.2v5172c0 1025.3-790.67 1856.4-1765.8 1856.4h-10788"
         fill="none"
         stroke="#fff"
         stroke-miterlimit="10"
         stroke-width="222.75"
         id="path4835"
         style="stroke:#cccccc" />
      <path
         d="m28083 11417v-18949c0-1025.2-1308.5-1856.2-2333.6-1856.2h-6124.7"
         fill="none"
         stroke="#fff"
         stroke-miterlimit="10"
         stroke-width="222.75"
         id="path4837"
         style="stroke:#cccccc" />
      <path
         d="m41163 22082v18949c0 1025.2 1308.5 1856.2 2333.6 1856.2h6124.7"
         fill="none"
         stroke="#fff"
         stroke-miterlimit="10"
         stroke-width="222.75"
         id="path4839"
         style="stroke:#cccccc" />
      <path
         d="m46325-19522v16931c0 1025.2-1308.5 1856.2-2333.6 1856.2h-3301.7c-1025.3 0-1856.4 790.67-1856.4 1765.9v14454"
         fill="none"
         stroke="#fff"
         stroke-miterlimit="10"
         stroke-width="222.75"
         id="path4841"
         style="stroke:#cccccc" />
      <path
         d="m 56437.373,15392.041 c 0,3597.4 -2785.9,6543.8 -6318,6800.3 -422.2,3187.7 -3148.7,5648 -6451.8,5648 -942.51,0 -1837.2,-201.86 -2646,-562.25 -1428.4,1985.2 -3758.5,3278.2 -6390.8,3278.2 -3793.1,0 -6959,-2684 -7702.9,-6256.4 -55.038,1.207 -110.17,2.135 -165.48,2.135 -4345.7,0 -7868.4,-3522.8 -7868.4,-7868.4 0,-4345.8 3522.7,-7868.3003 7868.4,-7868.3003 114.07,0 227.3,2.878 340.16,7.797 l 22608,0 -0.464,1.113 c 3723.7,49.098 6727.3,3082.2003 6727.3,6817.7003"
         id="path4843"
         style="fill:#cccccc;stroke:#cccccc;stroke-width:9.28120041"
         inkscape:connector-curvature="0" />
      <path
         d="m45619 15843v8974.1c0 1025.2 831.14 1856.2 1856.2 1856.2h6837.6c1025.3 0 1856.4 790.67 1856.4 1765.9v2795.5"
         fill="none"
         stroke="#fff"
         stroke-miterlimit="10"
         stroke-width="222.75"
         id="path4845"
         style="stroke:#cccccc" />
      <path
         d="m18909 14235v7727.4c0 882.78-1011.7 1598.4-2259.5 1598.4h-8322.8"
         fill="none"
         stroke="#fff"
         stroke-miterlimit="10"
         stroke-width="228.05"
         id="path4847"
         style="stroke:#cccccc" />
      <path
         d="m37629-5563.3v8999.7c0 1028.1-483.63 1861.5-1080.1 1861.5h-3978.7c-596.61 0-1080.2 792.92-1080.2 1771v2803.5"
         fill="none"
         stroke="#fff"
         stroke-miterlimit="10"
         stroke-width="222.75"
         id="path4849"
         style="stroke:#cccccc" />
      <path
         d="m5623.1 36044c0-1879.4-1523.6-3403.3-3403.2-3403.3s-3403.2 1523.9-3403.2 3403.3c0 1879.6 1523.6 3403.2 3403.2 3403.2s3403.2-1523.6 3403.2-3403.2"
         fill="#fff"
         stroke="#fff"
         stroke-width="9.2812"
         id="path4851"
         style="stroke:#cccccc;fill:#cccccc" />
      <path
         d="m8412.3 24231c0-1879.5-1523.6-3403.3-3403.2-3403.3s-3403.2 1523.9-3403.2 3403.3c0 1879.6 1523.6 3403.2 3403.2 3403.2s3403.2-1523.6 3403.2-3403.2"
         fill="#fff"
         stroke="#fff"
         stroke-width="9.2812"
         id="path4853"
         style="stroke:#cccccc;fill:#cccccc" />
      <path
         d="m31218-1880c0-1879.4-1523.6-3403.3-3403.2-3403.3s-3403.2 1523.9-3403.2 3403.3c0 1879.6 1523.6 3403.2 3403.2 3403.2s3403.2-1523.6 3403.2-3403.2"
         fill="#fff"
         stroke="#fff"
         stroke-width="9.2812"
         id="path4855"
         style="stroke:#cccccc;fill:#cccccc" />
      <path
         d="m40898-8090.8c0-1879.5-1523.6-3403.3-3403.2-3403.3s-3403.2 1523.9-3403.2 3403.3c0 1879.6 1523.6 3403.2 3403.2 3403.2s3403.2-1523.6 3403.2-3403.2"
         fill="#fff"
         stroke="#fff"
         stroke-width="9.2812"
         id="path4857"
         style="stroke:#cccccc;fill:#cccccc" />
      <path
         d="m49750-18787c0-1879.5-1523.6-3403.3-3403.2-3403.3s-3403.2 1523.9-3403.2 3403.3c0 1879.6 1523.6 3403.2 3403.2 3403.2s3403.2-1523.6 3403.2-3403.2"
         fill="#fff"
         stroke="#fff"
         stroke-width="9.2812"
         id="path4859"
         style="stroke:#cccccc;fill:#cccccc" />
      <path
         d="m68195 1535.5c0-1879.4-1523.6-3403.3-3403.2-3403.3s-3403.2 1523.9-3403.2 3403.3c0 1879.6 1523.6 3403.2 3403.2 3403.2s3403.2-1523.6 3403.2-3403.2"
         fill="#fff"
         stroke="#fff"
         stroke-width="9.2812"
         id="path4861"
         style="stroke:#cccccc;fill:#cccccc" />
      <path
         d="m78860 20770c0-1879.5-1523.6-3403.3-3403.2-3403.3s-3403.2 1523.9-3403.2 3403.3c0 1879.6 1523.6 3403.2 3403.2 3403.2s3403.2-1523.6 3403.2-3403.2"
         fill="#fff"
         stroke="#fff"
         stroke-width="9.2812"
         id="path4863"
         style="stroke:#cccccc;fill:#cccccc" />
      <path
         d="m59335 31599c0-1879.4-1523.6-3403.3-3403.2-3403.3s-3403.2 1523.9-3403.2 3403.3c0 1879.6 1523.6 3403.2 3403.2 3403.2s3403.2-1523.6 3403.2-3403.2"
         fill="#fff"
         stroke="#fff"
         stroke-width="9.2812"
         id="path4865"
         style="stroke:#cccccc;fill:#cccccc" />
      <path
         d="m54577 42920c0-1879.4-1523.6-3403.3-3403.2-3403.3s-3403.2 1523.9-3403.2 3403.3c0 1879.6 1523.6 3403.2 3403.2 3403.2s3403.2-1523.6 3403.2-3403.2"
         fill="#fff"
         stroke="#fff"
         stroke-width="9.2812"
         id="path4867"
         style="stroke:#cccccc;fill:#cccccc" />
      <g
         transform="matrix(84.944 0 0 75.54 50640 -5131.8)"
         id="g4869">
        <path
           d="m0 0c0.386-0.413 1.045-0.426 1.445-0.041 0 0 1.515 1.514 3.527 3.553 0.316-0.151 0.674-0.247 1.059-0.247 1.323 0 2.397 1.073 2.397 2.395 0 0.4-0.097 0.772-0.262 1.103 3.498 3.58 7.01 7.285 6.818 7.491-0.193 0.207-4.09-3.14-7.864-6.459-0.331 0.166-0.688 0.263-1.089 0.263-1.321 0-2.395-1.076-2.395-2.398 0-0.289 0.054-0.564 0.151-0.826-2.148-1.928-3.761-3.374-3.761-3.374-0.399-0.399-0.411-1.046-0.026-1.46m15.148 20.217 0.124 0.206-0.302 0.18-0.744 0.426-2.231-3.854 1.046-0.607 2.107 3.649zm6.266-6.376-0.603 1.047-3.858-2.232 0.606-1.046 3.855 2.231zm-2.437-8.786h4.463v1.212h-4.463v-1.212zm2.437-7.562-3.855 2.231-0.606-1.046 3.858-2.232 0.603 1.047zm-9.433-3.332 2.231-3.856 1.047 0.606-2.232 3.857-1.046-0.607zm-6.543-5.894h1.212v4.462h-1.212v-4.462zm-5.328 5.894-1.047 0.607-2.245-3.872 1.046-0.605 2.246 3.87zm-5.578 5.563-3.856-2.231 0.606-1.047 3.857 2.232-0.607 1.046zm-1.419 6.543h-4.463v-1.212h4.463v1.212zm2.038 6.389-3.855 2.232-0.607-1.047 3.856-2.231 0.606 1.046zm3.898 3.912 1.048 0.607-2.233 3.854-0.674-0.385-0.385-0.221 0.124-0.206 2.12-3.649zm7.601 6.487h-1.212v-4.463h1.212v4.463zm22.105-41.551h-45.406c-0.454 0-0.813-0.358-0.813-0.813 0-0.454 0.359-0.812 0.813-0.812h45.406c0.456 0 0.813 0.358 0.813 0.812 0 0.441-0.372 0.813-0.813 0.813m4.642 67.235h-54.703c-0.331 0-0.606-0.275-0.606-0.606 0-0.33 0.275-0.606 0.606-0.606h1.06c0.606-6.142 6.239-11.402 14.256-14.074 1.03-0.345 2.093-0.648 3.194-0.895 2.768-0.634 5.742-0.993 8.841-0.993 3.127 0 6.129 0.359 8.925 1.006 1.101 0.262 2.163 0.55 3.195 0.896 7.987 2.671 13.578 7.918 14.185 14.047h1.062c0.328 0 0.604 0.275 0.604 0.606-0.013 0.344-0.288 0.619-0.619 0.619m-45.958-45.613c1.24-9.157 9.117-16.252 18.606-16.252 9.49 0 17.367 7.08 18.606 16.252 0.111 0.826 0.18 1.681 0.18 2.534 0 2.204-0.387 4.312-1.089 6.279-1.156 3.28-3.208 6.13-5.852 8.291-0.91 0.745-1.901 1.406-2.935 1.971-1.309 0.702-2.698 1.267-4.172 1.653-1.514 0.399-3.113 0.606-4.752 0.606-1.637 0-3.22-0.207-4.75-0.606-1.447-0.374-2.81-0.923-4.105-1.613-1.073-0.577-2.079-1.253-3.016-2.011-2.644-2.148-4.682-5.011-5.852-8.291-0.703-1.967-1.089-4.075-1.089-6.279 0.041-0.853 0.11-1.708 0.22-2.534m-2.133-20.809 1.747 17.091c-0.164 0.51-0.316 1.046-0.453 1.57-0.166 0.702-0.303 1.418-0.387 2.134-0.109 0.84-0.165 1.695-0.165 2.548 0 2.286 0.386 4.49 1.101 6.528 0.236 0.689 0.51 1.35 0.813 2.011 0.235 0.495 0.482 0.964 0.759 1.447l0.633 6.169c0 1.116 0.909 2.025 2.024 2.025h6.335c0.482 0.221 0.965 0.427 1.46 0.605 0.647 0.235 1.308 0.441 1.982 0.607 1.572 0.398 3.21 0.606 4.89 0.606 1.693 0 3.334-0.208 4.89-0.606 0.675-0.166 1.336-0.372 1.982-0.607 0.497-0.178 0.979-0.384 1.461-0.605h6.336c1.114 0 2.023-0.909 2.023-2.025l0.633-6.169c0.276-0.469 0.525-0.952 0.758-1.447 0.304-0.647 0.58-1.322 0.813-2.011 0.715-2.052 1.102-4.242 1.102-6.528 0-0.867-0.056-1.722-0.166-2.548-0.096-0.73-0.221-1.432-0.385-2.134-0.125-0.538-0.276-1.06-0.455-1.57l1.749-17.091h-41.48zm32.859 49.882c-1.032-0.33-2.107-0.62-3.195-0.868v-6.279h3.195v7.147zm-20.961-7.147h-3.194v7.12c1.03-0.331 2.105-0.62 3.194-0.867v-6.253z"
           id="path4871" />
      </g>
      <g
         transform="matrix(2.203 0 0 2.203 -81383 -64692)"
         id="g4873">
        <path
           d="m57612 20468-253.33-630.76 457.18-156.9 107.65 709.37c-110.86 7.055-215.77 34.266-311.51 78.289zm732.96-1.923c-110.86-50.3-233.63-79.114-364.19-79.114-19.239 0-37.564 1.557-55.887 2.702l-27.487-693.88 725.63 141.46-278.07 628.84"
           id="path4875" />
        <path
           d="m58112 20726c-271.2 0-491.54 215.03-491.54 480.36s220.35 480.36 491.54 480.36c272.11 0 492-215.03 492-480.36s-219.89-480.36-492-480.36zm-131.93 1269.4c-429.24 0-777.4-339.91-777.4-759.26 0-419.25 348.16-759.26 777.4-759.26 428.78 0 776.94 340 776.94 759.26 0 419.34-348.16 759.26-776.94 759.26"
           id="path4877" />
        <path
           d="m58241 21007c-112.23 0-203.39 88.917-203.39 198.63 0 109.67 91.161 198.63 203.39 198.63 112.24 0 203.4-88.963 203.4-198.63 0-109.72-91.162-198.63-203.4-198.63zm-92.992 589.35c-217.6 0-394.42-172.66-394.42-385.72 0-213.02 176.83-385.77 394.42-385.77 218.51 0 394.88 172.75 394.88 385.77 0 213.06-176.37 385.72-394.88 385.72"
           id="path4879" />
      </g>
      <path
         d="m5429.5-8326.9-198.82 1018.2-6.273 6.414s1263 1246.2 977.08 1532.1c-285.96 285.82-1571-1017.1-1571-1017.1l-902.07 159.36c230.33 285.68 327.23 569.4 216.38 680.38-132.59 132.17-511.54-31.371-846.02-365.57-57.72-57.86-109.72-116.98-156.57-175.11l-723.47 127.85-494.53-421.06 2015.9-925.35-1206.1-1467.6c-31.231-31.651-60.649-62.741-86.303-94.53l-753.44 306.03-358.32-357.9 805.73-369.05 242.6-242.46 339.08-650.55 332.38 332.38-388.02 766.41c19.938 13.385 39.04 28.722 56.747 46.428l1564.3 1229.7 21.053-21.053 1051.7-2086.2 369.47 442.95-150.86 772.96c76.266 56.187 153.64 122.27 228.79 197.42 334.62 334.76 498.02 713.43 365.43 846.02-119.07 119.49-438.21-1.952-744.8-271.18"
         fill="#131112"
         id="path4881" />
      <g
         transform="matrix(1.5357 0 0 1.5357 -34491 -12590)"
         fill="#131112"
         id="g4883">
        <path
           d="m46058 3644.2h-612.47v204.19h612.47v-204.19zm0-408.37h-612.47v204.19h612.47v-204.19zm-510.47-1225.1c-56.337 0-102 45.682-102 102.09 0 56.346 45.664 102.02 102 102.02 56.43 0 102.09-45.673 102.09-102.02 0-56.411-45.663-102.09-102.09-102.09zm510.47 2041.9h-612.47c-112.95 0-204.28-91.42-204.28-204.19v-2246.1c0-112.93 91.327-204.19 204.28-204.19h612.47c112.77 0 204.19 91.253 204.19 204.19v2246.1c0 112.77-91.42 204.19-204.19 204.19"
           id="path4885" />
        <path
           d="m47386 1806.5v204.19h-612.66v-204.19c-112.95 0-204.19-91.216-204.19-204.19h1020.9c0 112.97-91.327 204.19-204.09 204.19"
           id="path4887" />
        <path
           d="m47079 2317c-56.523 0-102 45.682-102 102.09 0 56.346 45.478 102.09 102 102.09 56.43 0 102.09-45.747 102.09-102.09 0-56.411-45.664-102.09-102.09-102.09zm1225.1 2144h-2450.3c-112.77 0-204.1-91.42-204.1-204.19h2654.4v-1633.5h-1837.6v-408.45h1837.6c112.86 0 204.28 91.327 204.28 204.26v1837.7c0 112.77-91.421 204.19-204.28 204.19"
           id="path4889" />
      </g>
      <path
         d="m-6619.5 12329h1006.5v365.11h-1006.5v-365.11z"
         fill="#131112"
         id="path4891" />
      <g
         fill="#131112"
         id="g4893">
        <path
           d="m-2737.5 11473h-425.93c-127.43 0-229.91 103.03-229.91 229.35 0 127.15 102.48 230.18 229.91 230.18h425.93c126.87 0 230.05-103.03 230.05-230.18 0-126.32-103.17-229.35-230.05-229.35zm-2597.3-2333.9c-732.52 0-1327.3 594.5-1327.3 1327.2 0 733.36 594.78 1327.7 1327.3 1327.7 733.22 0 1328-594.36 1328-1327.7 0-732.66-594.78-1327.2-1328-1327.2zm2780.5 3077.7h-4207.2c-193.24 0-350.37-156.71-350.37-349.95v-2800.3c0-193.52 157.13-350.23 350.37-350.23h4207.5c193.38 0 349.95 156.71 349.95 350.23v2800.3c0 193.24-156.57 349.95-350.23 349.95"
           id="path4895" />
        <path
           d="m-5348.4 11448c541.47 0 980.73-439.05 980.73-981.38 0-541.46-439.27-980.95-980.73-980.95s-980.73 439.48-980.73 980.95c0 542.33 439.27 981.38 980.73 981.38"
           id="path4897" />
      </g>
      <g
         transform="matrix(78.276 0 0 69.61 63501 1643.9)"
         id="g4899">
        <path
           d="m17.922-0.729h4.934c0.474 0 0.864-0.39 0.864-0.864 0-0.475-0.39-0.865-0.864-0.865h-4.934c-0.288-0.476-0.815-0.796-1.409-0.796-0.136 0-0.27 0.017-0.406 0.05-0.711 0.186-1.254 0.83-1.254 1.593 0 0.595 0.323 1.119 0.795 1.408v9.5117c0 0.323 0.189 0.611 0.459 0.763 0.119 0.069 0.255 0.103 0.406 0.103 0.477 0 0.867-0.391 0.867-0.866v-9.5117c0.218-0.119 0.406-0.306 0.542-0.526m-1.798-24.025h9.92v-17.499h-19.144v17.499zm11.445 3.729h4.138l-4.374-3.729v1.338h-21.722v-1.338l-4.374 3.729h26.096zm-0.186 42.662 4.374-3.731h-30.469l4.375 3.731v-1.341h21.737v1.341zm-11.259 0h-9.173v17.499h19.143v-17.499zm13.464-39.22h-26.112v31.979h26.112zm-13.464 34.133h-14.802v-36.304h30.42v36.304h-2.154z"
           id="path4901" />
      </g>
      <g
         transform="matrix(95.646 0 0 85.057 75111 2645.7)"
         id="g4903">
        <path
           d="m0 0h-19.455v-2.873h19.455v2.873zm-29.395 54.053 14.905-14.905 2.063 2.064 1.679 4.862 0.61 1.78 0.706 2.044 0.645 1.881 1.175 3.415-1.406 1.406-2.974 2.975-1.35 1.358-13.991-4.815-2.062-2.065zm44.661-22.7-1.425-1.427-1.047-1.046-1.44-1.439-0.516-0.516 0.686-0.686 1.359-1.358 1.121-1.12 1.35-1.352 0.66-0.659 5.166 5.168-5.166 5.168-0.748-0.733zm-28.643-30.62h2.676c5.806 5.949 17.627 18.057 23.068 23.625l-1.359 1.358-24.385-24.983zm26.856 22.512-22.327-22.512h2.709c5.014 5.053 14.838 14.974 20.97 21.161l-1.352 1.351zm-22.964 24.249-0.667-1.922 20.943-17.649 1.439 1.44c-7.083 5.928-18.524 15.055-21.715 18.131m24.195-15.653c-5.732 5.052-17.947 14.927-22.906 19.401l-0.639-1.853 22.118-18.981 1.427 1.433zm-23.21 25.289l-2.968 2.974 1.534 1.535 2.974-2.974-1.54-1.535z"
           id="path4905" />
      </g>
      <g
         transform="matrix(73.147 0 0 65.049 75555 20813)"
         id="g4907">
        <path
           d="m-15.591-8.642c0-0.525 0.93364-0.964 1.4596-0.964 0.525 0 1.4586 0.439 1.4586 0.964v14.568c0 0.525-0.93364 0.961-1.4586 0.961-0.526 0-1.4596-0.436-1.4596-0.961zm-3.9867-31.954v51.937h36.459v-51.937c0-0.226-0.194-0.42-0.422-0.42h-35.635c-0.209 0.019-0.402 0.194-0.402 0.42m6.905 74.407c0 0.526-0.93364 0.964-1.4586 0.964-0.526 0-1.4596-0.438-1.4596-0.964v-14.565c0-0.527 0.93364-0.964 1.4596-0.964 0.525 0 1.4586 0.437 1.4586 0.964zm29.554-20.946h-36.459v28.134c0 0.228 0.193 0.419 0.42 0.419h35.617c0.228 0 0.422-0.191 0.422-0.419zm-1.789-55.599c0.351 0 0.614 0.281 0.614 0.614v0.49h-2.314v-0.49c0-0.351 0.28-0.614 0.614-0.614zm-31.815 0h-1.068c-0.351 0-0.613 0.281-0.613 0.614v0.49h2.313v-0.49c-0.016-0.333-0.298-0.614-0.632-0.614"
           id="path4909" />
      </g>
      <g
         transform="matrix(75.3 0 0 66.964 55916 33296)"
         id="g4911">
        <path
           d="m-14.12-23.715c0-7.909 6.41-14.319 14.32-14.319 3.274 0 6.302 1.102 8.719 2.953 0.2 0.152 0.414 0.322 0.598 0.489 0.014 0.015 0.03 0.031 0.045 0.045 0.184 0.154 0.367 0.322 0.536 0.489 0.015 0.016 0.031 0.032 0.046 0.048 0.75 0.734 1.438 1.545 2.019 2.432 0.016 0.03 0.046 0.061 0.062 0.091 0.122 0.185 0.228 0.367 0.336 0.552 0.031 0.046 0.062 0.091 0.092 0.153 0.107 0.182 0.198 0.352 0.29 0.535 0.031 0.046 0.061 0.108 0.078 0.154 0.091 0.183 0.182 0.381 0.274 0.58 0.015 0.047 0.046 0.092 0.061 0.122 0.214 0.475 0.382 0.965 0.536 1.47 0.016 0.061 0.031 0.107 0.046 0.168 0.061 0.183 0.107 0.382 0.152 0.581 0.016 0.092 0.046 0.169 0.062 0.26 0.046 0.168 0.076 0.337 0.107 0.504 0.015 0.092 0.031 0.186 0.046 0.291 0.031 0.169 0.046 0.338 0.076 0.506 0.016 0.091 0.031 0.198 0.031 0.291 0.015 0.182 0.031 0.367 0.046 0.55 0 0.092 0.015 0.167 0.015 0.261 0.016 0.259 0.03 0.535 0.03 0.81s-0.014 0.536-0.03 0.81c0 0.093-0.015 0.169-0.015 0.261-0.015 0.183-0.031 0.367-0.046 0.55-0.015 0.091-0.031 0.201-0.031 0.291-0.014 0.167-0.045 0.337-0.076 0.505-0.015 0.092-0.031 0.185-0.046 0.291-0.031 0.168-0.061 0.337-0.107 0.505-0.016 0.091-0.031 0.168-0.062 0.26-0.045 0.199-0.106 0.381-0.152 0.581-0.015 0.062-0.03 0.107-0.046 0.168-0.154 0.504-0.336 0.996-0.536 1.47-0.015 0.046-0.046 0.091-0.061 0.122-0.092 0.197-0.183 0.382-0.274 0.58-0.032 0.061-0.063 0.108-0.078 0.155-0.092 0.182-0.183 0.367-0.29 0.534-0.03 0.046-0.061 0.091-0.077 0.153-0.107 0.184-0.229 0.367-0.336 0.552-0.015 0.031-0.045 0.06-0.061 0.092-0.583 0.886-1.255 1.697-2.02 2.431-0.015 0.014-0.03 0.032-0.046 0.047-0.184 0.168-0.352 0.335-0.536 0.489-0.015 0.015-0.03 0.031-0.046 0.046-0.198 0.167-0.397 0.336-0.596 0.489-2.417 1.851-5.431 2.953-8.72 2.953-7.925-0.016-14.335-6.441-14.335-14.351m-6.012 0c0 8.43 5.155 15.667 12.467 18.757 1.057 0.443 2.158 0.795 3.305 1.056 1.47 0.336 2.999 0.521 4.575 0.521s3.105-0.185 4.574-0.521c1.132-0.261 2.25-0.613 3.304-1.056 7.313-3.09 12.469-10.327 12.469-18.757 0-11.214-9.118-20.347-20.347-20.347s-20.347 9.133-20.347 20.347m40.237 24.004h4.6181v4.835h-4.6181zm-31.088 7.267h37.818v-11.458h-18.543c-2.493 1.024-5.216 1.59-8.077 1.59s-5.584-0.566-8.078-1.59h-18.557v2.28l0.25831 5.1613c0.04383 0.87572 8.1574 3.6368 8.8503 3.6742l6.343 0.3425zm36.761 4.575h-51.143c-0.581 0-1.055-0.474-1.055-1.057v-2.447h53.255v2.447c0 0.583-0.474 1.057-1.057 1.057m-4.16-35.846c0-11.795-9.608-21.402-21.403-21.402s-21.403 9.607-21.403 21.402c0 8.062 4.483 15.117 11.107 18.757h-16.339v-49.95c4.023-1.164 12.377-2.907 26.635-2.907s22.612 1.729 26.635 2.907v49.95h-16.339c6.609-3.64 11.107-10.679 11.107-18.757m-34.01 22.795h-14.028v8.476h14.732v-7.756c0-0.398-0.321-0.72-0.704-0.72m12.607-57.598c14.182 0 22.504 1.665 26.635 2.86v-6.104c0-0.581-0.474-1.057-1.056-1.057h-51.159c-0.581 0-1.055 0.476-1.055 1.057v6.104c4.13-1.195 12.438-2.86 26.635-2.86"
           id="path4913" />
      </g>
      <g
         transform="matrix(2.1746 0 0 2.1746 -85412 5021.9)"
         id="g4915">
        <path
           d="m62373 18445c279.44-93.454 428.78-389.84 333.96-663.33-95.286-273.03-399.46-419.16-678.91-325.71-279.9 92.995-428.78 389.84-333.96 662.87 95.287 273.03 399.47 419.16 678.91 326.17"
           id="path4917" />
        <path
           d="m63705 16896s11.454-60.928 25.195-135.6c3.667-21.074 1.374-45.353-6.413-68.715-12.369-36.19-38.938-67.8-67.341-80.625-22.905-11.911-67.797-12.829-114.07 2.748-32.982 10.995-65.967 29.318-91.621 53.598l-63.218 58.179c-11.451-26.572-37.105-50.392-62.3-57.72l66.882-61.387c35.731-32.983 78.336-56.805 123.23-71.921 60.469-19.7 124.6-24.279 179.12 1.374 53.598 26.111 90.705 74.67 109.94 128.73 12.369 35.274 16.492 72.838 10.079 110.4-13.743 74.67-25.195 135.6-25.195 136.06-3.666 22.447-25.197 37.106-47.643 33.9-22.905-3.207-40.313-26.571-36.649-49.017"
           id="path4919" />
        <path
           d="m62872 17284-110.86 110.4s51.764 49.933 79.708 90.705l101.7-129.64-70.549-71.464zm-94.825 424.2s-101.24-307.39-442.53-362.36l823.66-675.7s196.52 5.041 218.97 220.35l-600.11 817.71zm92.994-387.55 39.854 39.397-65.508 76.503-46.728-49.018 72.382-66.882"
           id="path4921" />
      </g>
      <g
         transform="matrix(2.4682 0 0 2.4682 -1.0856e5 -32966)"
         id="g4923">
        <path
           d="m54888 11991c-165.38 0-300.51 131.47-300.51 293.64 0 161.71 135.14 293.18 300.51 293.18 165.83 0 300.06-131.48 300.06-293.18 0-162.17-134.22-293.64-300.06-293.64zm113.61 1056.4c75.128 0 136.52-59.553 136.52-132.85 0-73.753-61.387-133.31-136.52-133.31-75.129 0-136.06 59.554-136.06 133.31 0 73.298 60.928 132.85 136.06 132.85zm-609.27 441.15v-1788h986.29v1788h-986.29zm609.27-663.79c50.392 0 91.62 40.313 91.62 89.787 0 49.477-41.228 89.331-91.62 89.331-50.39 0-91.621-39.854-91.621-89.331 0-49.474 41.231-89.787 91.621-89.787zm-113.61-411.83c-72.38 0-131.48-57.262-131.48-128.27 0-71.005 59.095-128.73 131.48-128.73 72.838 0 131.93 57.721 131.93 128.73 0 71.006-59.095 128.27-131.93 128.27"
           id="path4925" />
        <path
           d="m54949 12284c0-32.525-27.485-59.095-60.928-59.095-33.441 0-60.47 26.57-60.47 59.095 0 32.983 27.029 59.553 60.47 59.553 33.443 0 60.928-26.57 60.928-59.553"
           id="path4927" />
        <path
           d="m55834 11863c-93.452 0-168.58 73.754-168.58 164.46 0 91.162 75.128 164.92 168.58 164.92 92.538 0 168.12-73.754 168.12-164.92 0-90.704-75.584-164.46-168.12-164.46zm63.217 592.78c42.605 0 76.503-33.441 76.503-74.671 0-41.229-33.898-74.67-76.503-74.67-42.143 0-76.043 33.441-76.043 74.67 0 41.23 33.9 74.671 76.043 74.671zm-341.28 247.37v-1003.2h552.93v1003.2h-552.93zm278.07-603.32c-40.77 0-74.213-32.525-74.213-72.38s33.443-71.922 74.213-71.922c40.312 0 73.297 32.067 73.297 71.922s-32.985 72.38-73.297 72.38zm63.217 230.88c28.403 0 51.308 22.447 51.308 50.391s-22.905 50.391-51.308 50.391c-27.943 0-51.307-22.447-51.307-50.391s23.364-50.391 51.307-50.391"
           id="path4929" />
        <path
           d="m55868 12028c0-18.324-15.118-32.984-33.9-32.984-19.239 0-34.357 14.66-34.357 32.984s15.118 33.441 34.357 33.441c18.782 0 33.9-15.117 33.9-33.441"
           id="path4931" />
      </g>
      <g
         transform="matrix(4.7372 0 0 4.7372 -8479.9 -10227)"
         id="g4933">
        <path
           d="m3364 7140.1c0 122.87-101.94 222.45-227.55 222.45h-640.59c-125.61 0-227.55-99.571-227.55-222.45 0-122.84 101.94-222.46 227.55-222.46h640.59c125.61 0 227.55 99.63 227.55 222.46"
           id="path4935" />
        <path
           d="m2632 7171.3h-73.177v71.377h-66.328v-71.377h-73.373v-64.998h73.373v-71.455h66.328v71.455h73.177v64.998"
           fill="#fff"
           id="path4937" />
        <path
           d="m3171.8 7818.6h-42.066v-110.55c0-20.838-14.284-42.771-43.045-60.576-28.175-17.629-69.46-29.349-115.05-29.251-108.79-0.1761-199.96-79.105-200.36-179.65v-32.636h42.459v32.636c0.195 74.331 69.654 138.17 157.9 138.21 104.29 0.6065 197.42 50.676 200.36 131.27-0.196 60.811-0.196 110.45-0.196 110.55"
           id="path4939" />
        <path
           d="m3084.2 7130.6c0-17.746-14.87-32.147-33.066-32.147-18.001 0-32.871 14.4-32.871 32.147 0 17.785 14.87 32.186 32.871 32.186 18.196 0 33.066-14.4 33.066-32.186"
           fill="#fff"
           id="path4941" />
        <path
           d="m3166 7209c0-17.746-14.87-32.147-32.871-32.147-18.196 0-32.871 14.4-32.871 32.147 0 17.746 14.675 32.147 32.871 32.147 18.001 0 32.871-14.4 32.871-32.147"
           fill="#fff"
           id="path4943" />
        <path
           d="m3243.8 7125.1c0-17.746-14.87-32.147-32.871-32.147-18.196 0-32.87 14.401-32.87 32.147 0 17.785 14.674 32.166 32.87 32.166 18.001 0 32.871-14.381 32.871-32.166"
           fill="#fff"
           id="path4945" />
        <path
           d="m3165.2 7049.8c0-17.746-14.87-32.147-32.871-32.147-18.196 0-33.066 14.4-33.066 32.147 0 17.786 14.87 32.166 33.066 32.166 18.001 0 32.871-14.381 32.871-32.166"
           fill="#fff"
           id="path4947" />
      </g>
      <g
         transform="matrix(2.2188 0 0 2.2188 -1.3462e5 -10303)"
         id="g4949">
        <path
           d="m62567 20654c12.826-30.51-2.289-65.325-33.9-77.923-31.151-12.598-66.882 2.061-79.71 32.571l-218.51 521.82c-12.828 30.647 2.29 65.692 33.441 78.29 31.608 12.506 67.341-2.291 80.166-32.892l218.52-521.87zm-1697.7-67.432c-12.828 30.83 2.29 65.645 33.441 78.152 31.61 12.551 67.8-2.016 80.166-32.801l218.52-521.87c12.826-30.555-2.289-65.645-33.9-78.152-30.692-12.506-66.423 2.245-79.251 32.755l-218.97 521.91zm1749 794.94c-234.09 559.71-888.26 827.74-1460.9 598.92-573.08-229-847.03-868.1-612.94-1427.9 8.247-19.423 17.867-37.701 27.029-56.3 3.207-17.27 8.246-34.449 15.576-51.445l203.85-486.36c55.89-134.41 213.02-198.86 350.9-143.84 137.43 54.972 202.94 208.39 147.05 342.84l-203.85 486.36c-56.348 134.59-213.48 198.95-350.91 144.07-60.01-23.959-104.9-67.112-133.31-118.65-157.58 492.37 93.912 1028.8 591.41 1227.7 498.87 199.46 1064.6-13.101 1304.7-474.82-59.095 19.515-125.06 20.202-187.82-4.764-137.43-54.972-203.4-208.44-147.05-343.03l203.85-486.36c52.225-124.51 190.57-187.59 320.21-152.73-43.977-265.65-222.18-448.25-335.33-539.83-19.7 43.978-57.264 70.685-85.667 59.324l-176.37-70.501c-29.318-11.636-37.105-58.591-17.864-104.9 19.697-46.406 59.095-74.533 87.954-62.943l176.83 70.501c24.738 9.987 32.982 46.223 22.905 85.528 388.01 189.29 486.04 511.79 506.2 719.22 24.736 60.698 26.569 130.28-0.918 195.42l-203.85 486.41c-2.29 5.956-5.956 11.041-8.705 16.858-10.077 30.647-20.156 60.974-32.982 91.163"
           id="path4951" />
      </g>
      <g
         transform="matrix(15.531 0 0 15.531 -53157 40555)"
         id="g4953">
        <path
           d="m5391.2-267.49h-109.43v-13.267h109.43v13.267zm0 26.534h-109.43v-13.267h109.43v13.267zm0 26.534h-109.43v-13.267h109.43v13.267zm32.828 0v-79.602c0-7.329-7.3478-13.267-16.414-13.267h-142.26c-9.0675 0-16.414 5.938-16.414 13.267v106.14h175.08v-26.534zm0 137.09h-175.08v39.801c0 1.831 0.4565 3.577 1.2929 5.165 2.4892 4.76 8.3202 8.102 15.121 8.102h142.26c0.3316 0 0.6409-0.06 0.9601-0.078 0.7918-0.038 1.5824-0.068 2.3309-0.19h0.012c1.8262-0.301 3.5273-0.893 5.085-1.649v-0.01c0.014 0 0.028-0.01 0.039-0.01 1.1111-0.544 2.1577-1.152 3.0671-1.882 0.021-0.01 0.03-0.018 0.048-0.027 0.704-0.565 1.3399-1.191 1.9066-1.857 0.028-0.029 0.066-0.055 0.09-0.086 1.7754-2.094 2.8171-4.608 2.8542-7.329v-0.012h0.016v-39.94zm-213.4-39.79c-9.0675 0-16.415-5.938-16.415-13.267s7.3478-13.267 16.415-13.267c9.0662 0 16.414 5.938 16.414 13.267s-7.3478 13.267-16.414 13.267m284.51-123.83h-54.714v66.335h-207.91v-66.335h-54.713c-9.0662 0-16.414 5.938-16.414 13.267v123.83c0 7.329 7.3478 13.267 16.414 13.267h317.34c9.0675 0 16.414-5.938 16.414-13.267v-123.83c0-7.329-7.3465-13.267-16.414-13.267"
           fill-rule="evenodd"
           id="path4955" />
      </g>
      <path
         d="m20554-8919.5c0-1879.4-1523.6-3403.3-3403.2-3403.3s-3403.2 1523.9-3403.2 3403.3c0 1879.6 1523.6 3403.2 3403.2 3403.2s3403.2-1523.6 3403.2-3403.2"
         fill="#fff"
         stroke="#fff"
         stroke-width="9.2812"
         id="path4957"
         style="stroke:#cccccc;fill:#cccccc" />
      <path
         d="m8740.5 3886.4c0-1879.4-1523.6-3403.3-3403.2-3403.3s-3403.2 1523.9-3403.2 3403.3c0 1879.6 1523.6 3403.2 3403.2 3403.2s3403.2-1523.6 3403.2-3403.2"
         fill="#fff"
         stroke="#fff"
         stroke-width="9.2812"
         id="path4959"
         style="stroke:#cccccc;fill:#cccccc" />
      <path
         d="m63273 23231c0-1879.4-1523.6-3403.3-3403.2-3403.3s-3403.2 1523.9-3403.2 3403.3c0 1879.6 1523.6 3403.2 3403.2 3403.2s3403.2-1523.6 3403.2-3403.2"
         fill="#fff"
         stroke="#fff"
         stroke-width="9.2812"
         id="path4961"
         style="stroke:#cccccc;fill:#cccccc" />
      <path
         d="m9889 13074c0-1879.4-1523.6-3403.3-3403.2-3403.3s-3403.2 1523.9-3403.2 3403.3c0 1879.6 1523.6 3403.2 3403.2 3403.2s3403.2-1523.6 3403.2-3403.2"
         fill="#fff"
         stroke="#fff"
         stroke-width="9.2812"
         id="path4963"
         style="stroke:#cccccc;fill:#cccccc" />
      <path
         d="m5805.5 13882h-5394.4c-1025.2 0-1856.2 831.13-1856.2 1856.2v5172c0 1025.3-790.67 1856.4-1765.8 1856.4h-5866"
         fill="none"
         stroke="#fff"
         stroke-miterlimit="10"
         stroke-width="222.75"
         id="path4965"
         style="stroke:#cccccc" />
      <path
         d="m10232 23526v4070.1c0 1025.2-1308.5 1856.2-2333.6 1856.2h-13545c-1025.3 0-1856.4 790.67-1856.4 1765.9v4774.1"
         fill="none"
         stroke="#fff"
         stroke-miterlimit="10"
         stroke-width="222.75"
         id="path4967"
         style="stroke:#cccccc" />
      <path
         d="m-3883.8 36731c0-1879.4-1523.6-3403.3-3403.2-3403.3s-3403.2 1523.9-3403.2 3403.3c0 1879.6 1523.6 3403.2 3403.2 3403.2s3403.2-1523.6 3403.2-3403.2"
         fill="#fff"
         stroke="#fff"
         stroke-width="9.2812"
         id="path4969"
         style="stroke:#cccccc;fill:#cccccc" />
      <path
         d="m-8486.9 23247c0-1879.4-1523.6-3403.3-3403.2-3403.3s-3403.2 1523.9-3403.2 3403.3c0 1879.6 1523.6 3403.2 3403.2 3403.2s3403.2-1523.6 3403.2-3403.2"
         fill="#fff"
         stroke="#fff"
         stroke-width="9.2812"
         id="path4971"
         style="stroke:#cccccc;fill:#cccccc" />
      <path
         d="m41264 37633h27153c1025.2 0 1856.2-1308.5 1856.2-2333.6v-3663.6"
         fill="none"
         stroke="#fff"
         stroke-miterlimit="10"
         stroke-width="222.75"
         id="path4973"
         style="stroke:#cccccc" />
      <path
         d="m73445 30778c0-1879.4-1523.6-3403.3-3403.2-3403.3s-3403.2 1523.9-3403.2 3403.3c0 1879.6 1523.6 3403.2 3403.2 3403.2s3403.2-1523.6 3403.2-3403.2"
         fill="#fff"
         stroke="#fff"
         stroke-width="9.2812"
         id="path4975"
         style="stroke:#cccccc;fill:#cccccc" />
      <path
         d="m69478 43554h-8448.6c-1025.2 0-1856.2-1308.5-1856.2-2333.6v-3663.6"
         fill="none"
         stroke="#fff"
         stroke-miterlimit="10"
         stroke-width="222.75"
         id="path4977"
         style="stroke:#cccccc" />
      <path
         d="m74455 44001c0-1879.4-1523.6-3403.3-3403.2-3403.3s-3403.2 1523.9-3403.2 3403.3c0 1879.6 1523.6 3403.2 3403.2 3403.2s3403.2-1523.6 3403.2-3403.2"
         fill="#fff"
         stroke="#fff"
         stroke-width="9.2812"
         id="path4979"
         style="stroke:#cccccc;fill:#cccccc" />
      <path
         d="m-16608 5166.2h4449.5c1025.2 0 1856.2-831.13 1856.2-1856.2v-4865.3c0-1025.3 790.67-1856.4 1765.9-1856.4h12309"
         fill="none"
         stroke="#fff"
         stroke-miterlimit="10"
         stroke-width="222.75"
         id="path4981"
         style="stroke:#cccccc" />
      <path
         d="m-12470 4850.7c0-1879.4-1523.6-3403.3-3403.2-3403.3s-3403.2 1523.9-3403.2 3403.3c0 1879.6 1523.6 3403.2 3403.2 3403.2s3403.2-1523.6 3403.2-3403.2"
         fill="#fff"
         stroke="#fff"
         stroke-width="9.2812"
         id="path4983"
         style="stroke:#cccccc;fill:#cccccc" />
      <g
         transform="matrix(1.4292 0 0 1.4292 -53856 -5141.7)"
         fill="#131112"
         id="g4985">
        <path
           d="m41417 8479.4c-766.3 0-1387.6-530.42-1387.6-1184.4 0-592.46 953.36-2068.3 953.36-2068.3l978.58 0.8747s842.84 1466 842.84 2067.5c0 653.83-620.86 1184.2-1387.2 1184.2zm0-119.84c687.39 0 1246.5-477.87 1246.5-1064.5 0-496.17-628.11-1656.3-790.5-1947.5l-806.26-0.471c-283.31 448.06-896.29 1509.2-896.29 1948 0 586.81 559.06 1064.5 1246.5 1064.5"
           id="path4987" />
        <path
           d="m41033 4357.8h859.4c19.155 25.906 34.369 53.358 46.903 82.359h-952.89c12.376-29.001 27.669-56.454 46.588-82.359"
           id="path4989" />
        <path
           d="m41462 4154.4c138.11 0 263.05 47.37 354.81 123.61h-709.46c91.915-76.169 216.39-123.61 354.65-123.61"
           id="path4991" />
        <path
           d="m41972 5113.2h-1018.4v-523.96c0-23.82 3.704-46.63 8.04-69.507h1002c4.178 22.81 8.356 45.688 8.356 69.507v523.96"
           id="path4993" />
        <path
           d="m41462 5457.9-392.65 1469.5 359.38-112.71 427.33 118.22-394.07-1475.1zm523.74 1511.2 0.788 2.4896-14.189 2.6242-120.45 47.437-423.31-133.5-356.62 133.5-134.48-43.736v-9.4201l0.947-0.2692 465.17-1741.7h116.82l465.33 1741.7 0.788 0.2692-0.788 0.6056"
           id="path4995" />
      </g>
      <g
         transform="matrix(1.7031 0 0 1.7031 -95609 -27708)"
         fill="#131112"
         id="g4997"
         style="fill:#000000;stroke:#cccccc">
        <path
           d="m46888 17755v243.63c0 38.332-31.184 69.331-69.238 69.331-38.424 0-69.423-30.999-69.423-69.331v-243.63c-698.6 35.361-1258.1 594.37-1293.2 1293.2h232.77c38.239 0 69.238 31.185 69.238 69.423 0 38.239-31.184 69.146-69.238 69.146h-232.87c35.269 699.16 594.93 1258.5 1293.7 1293.7 0-1.485-0.928-2.228-0.928-3.435v-254.03c0-38.332 31.185-69.238 69.424-69.238 38.238 0 69.238 31.092 69.238 69.238v253.94c0 1.206-0.929 2.042-0.929 3.341 699.06-35.176 1258.6-594.37 1293.8-1293.5h-234.44c-38.424 0-69.424-31-69.424-69.146 0-38.424 31-69.423 69.424-69.423h234.44c-34.99-698.78-594.09-1257.8-1292.9-1293.2zm-69.238 2996c-902.41 0-1633.6-731.27-1633.6-1633.4 0-902.14 731.18-1633.7 1633.6-1633.7 902.04 0 1633.5 731.55 1633.5 1633.7 0 902.14-731.45 1633.4-1633.5 1633.4"
           id="path4999"
           style="fill:#000000;stroke:#cccccc" />
        <path
           d="m46947 19063c4.92 14.015 8.725 28.123 8.725 43.251 0 75.549-60.885 136.71-136.34 136.71-75.363 0-136.53-61.164-136.53-136.71 0-75.364 61.164-136.53 136.53-136.53 7.24 0 13.644 3.063 20.512 4.269 1.207-1.577 1.763-2.877 3.248-4.269l565.23-490.61 152.58-40.188-75.735 157.22-538.22 466.85"
           id="path5001"
           style="fill:#000000;stroke:#cccccc" />
      </g>
      <g
         transform="matrix(74.455 0 0 66.212 19039 -7954.2)"
         id="g5003">
        <path
           d="m0 0c-0.334 0-0.608 0.275-0.608 0.609 0 0.333 0.274 0.611 0.608 0.611h5.337c-0.043 0.302-0.087 0.593-0.16 0.897h-5.177c-0.334 0-0.608 0.277-0.608 0.61 0 0.334 0.274 0.608 0.608 0.608h4.858c-0.32 1.073-0.783 2.191-1.378 3.409-0.418 0.668-1.348 1.277-2.015 1.364-5.961 0.696-11.879 1.043-17.796 1.043-5.541 0-11.065-0.303-16.636-0.913v-17.259c1.581-0.173 3.162-0.319 4.743-0.435 2.552-0.202 5.106-0.348 7.644-0.421l2.161-6.424 0.333-0.972h1.814l4.19-16.985-9.268-2.102c-0.667-0.203-1.203-0.537-1.203-1.204v-2.03h26.991v4.134c0 0.665-0.536 1.202-1.205 1.202h-3.885l-5.933 24.629c2.684 0.173 5.367 0.42 8.064 0.738 0.667 0.087 1.611 0.698 2.017 1.364 0.986 2.002 1.595 3.742 1.841 5.423h-5.322c-0.333 0-0.61 0.277-0.61 0.612 0 0.331 0.277 0.606 0.61 0.606h5.438c0.014 0.306 0.014 0.611 0 0.901h-5.453v-0.015zm-22.568-46.077c0-0.667 0.537-1.203 1.205-1.203h24.582c0.669 0 1.205 0.536 1.205 1.203v5.568h-26.992v-5.568zm1.32 35.302c-2.203 0.072-4.424 0.202-6.627 0.362l1.914-5.062c0.174-0.465 0.725-0.84 1.218-0.84h5.366l-1.871 5.54zm-42.93 10.224 1.392-0.812h11.936v1.624h-11.921l-1.407-0.812zm14.243 2.247v-4.235l3.858-2.74 5.627-0.754v11.24l-5.627-0.754-3.858-2.757zm10.427 3.483 5.613 3.016v-17.231l-5.613 3.016v11.199z"
           id="path5005" />
      </g>
      <g
         transform="matrix(1.5332 0 0 1.5332 -5458.1 -7204.2)"
         id="g5007">
        <g
           transform="matrix(55.608 0 0 49.452 50690 24257)"
           id="g5009">
          <path
             d="m0 0h-57.143v-5.719h62.238v5.719h-5.095zm-57.143 36.838v-36.033h3.19v32.843h55.86v-32.843h3.188v36.033h-62.238zm19.256-52.798h23.741v0.934h-23.741v-0.934zm14.288 9.439v-3.319h6.783l2.657-4.384h-23.728l2.658 4.384h6.781v3.319h4.849z"
             id="path5011" />
        </g>
      </g>
      <g
         transform="matrix(79.718 0 0 70.893 70381 41623)"
         id="g5013">
        <path
           d="m0 0h-4.341c-0.125 0.671-0.702 1.203-1.422 1.203h-0.342v10.682h-2.655v-10.682h-0.327c-0.719 0-1.297-0.516-1.422-1.203h-4.341c-0.984 0-1.781-0.796-1.781-1.78v-0.844h18.412v0.844c-0.015 0.984-0.811 1.78-1.781 1.78m-6.105 12.758v46.835c0 6.418 5.216 11.634 11.634 11.634 6.419 0 11.634-5.216 11.634-11.634v-39.229c0-0.734 0.594-1.343 1.327-1.343 0.735 0 1.328 0.594 1.328 1.343v39.306c-0.031 7.855-6.418 14.227-14.289 14.227-7.886 0-14.304-6.418-14.304-14.304v-46.835h0.875v45.944h0.889v-45.944zm12.993-11.93c0.015-0.173 0.047-0.328 0.077-0.5 0.36-1.577 1.764-2.765 3.468-2.765h16.147c1.858 0 3.39 1.438 3.545 3.265h-23.16zm18.52 20.161-3.5467-8.9222c2.124 0.388 8.5327 0.51263 8.0917 5.3142-0.359 2.14-1.295 4.06-2.654 5.638-4.9477 3.9566-4.6867-2.1407-1.891-2.03m-0.593-5.592c-1.733-0.265-3.826-0.453-6.325-0.453-2.544 0-4.622 0.188-6.324 0.469v-1.89h12.649zm0-4.497h-12.634v-0.624h12.634zm0-4.966h-12.634v-0.607h12.634zm-13.226 15.055s2.0393 5.8308-1.891 2.03c-1.311-1.531-2.249-3.404-2.623-5.466 0.086652-1.9384 2.25-0.984 4.514-1.421zm8.839 0.702c0.249-0.375 0.389-0.812 0.389-1.296 0-1.28-1.046-2.327-2.327-2.327-1.28 0-2.327 1.047-2.327 2.327 0 0.484 0.141 0.921 0.391 1.296v5.216c-2.514-0.421-4.747-1.64-6.434-3.389 2.015-0.671 0.54172-2.4043 0.54385-2.4202l0.66762-4.966c1.687-0.28 4.5995-0.57016 7.1585-0.57784 2.5023-0.0075 5.0312-0.79965 6.325 0.468l2.0029 4.372c5e-3 0.014-1.972 2.453 0.041 3.124-1.685 1.749-3.934 2.968-6.432 3.389zm-8.839-20.27v14.102c-2.249 0.421 11.162 3.236-4.624 1.421-0.062-0.484-0.093-0.983-0.093-1.483v-14.024h4.717zm13.226 5.748h-12.634v-0.61h12.634zm0 1.249h-12.634v-0.609h12.634zm5.232 8.354c-3.779-1.363-22.449 0.454-18.557-1.265l-1.5426-14.152 20.178 0.066v14.024c0 0.453-0.031 0.89-0.078 1.327m-5.232-7.122h-12.634v-0.608h12.634zm-12.633-8.229h12.634v3.28h-12.634zm-6.201 9.886c-0.092 0.015-0.186 0.031-0.281 0.031-0.702 0-1.046-0.564-1.264-1.266 0 0-0.827-2.467-0.827-5.622 0-3.154 0.827-5.621 0.827-5.621 0.203-0.703 0.562-1.266 1.264-1.266 0.564 0 1.032 0.36 1.188 0.875-0.563 0.75-0.907 1.671-0.907 2.687zm26.659-1.219s0.827-2.467 0.827-5.621c0-3.155-0.827-5.622-0.827-5.622-0.204-0.703-0.563-1.266-1.266-1.266-0.593 0-1.077 0.406-1.218 0.953 0.531 0.735 0.843 1.624 0.843 2.593v10.149c0.125 0.033 0.234 0.064 0.375 0.064 0.703 0.016 1.062-0.564 1.266-1.25"
           id="path5015" />
      </g>
      <path
         d="m-6131.1 39186h87.581c29.678 0 54.001 21.55 54.001 47.94 0 26.24-24.323 47.95-54.001 47.95h-106.46c-80.774 216.85-433.82 391.68-889.24 444.38-39.025-63.43-154.92-108.95-291.06-108.95s-250.58 45.52-291.15 107.83c-452.7-52.64-802.93-226.41-885.06-443.26h-106.46c-29.769 0-54.001-21.71-54.001-47.95 0-26.39 24.232-47.94 54.001-47.94h87.58zm-1951.2-2693.7h1509.2c299.22 0 420.57 2547.4 420.57 2547.4h-2350.1c0 1.31 115.9-2547.4 420.3-2547.4m-273.36 384.57c-48.555 213.4-93.026 510.41-131.96 883.29-66.162 631.31-95.748 1271.1-97.02 1277.2l-4.1749 75.3h2520.8l-3.7195-75.3c0-2.58-2.9051-67.15-9.6212-174.98-2.6309-55.21-6.7161-119.78-12.161-194.19-15.973-243.18-41.749-576.27-76.782-908.06-29.587-279.25-61.987-516.62-96.928-708.31-12.161-63.52-22.87-122.36-35.123-174.98-1.18-5.89-2.5411-11.94-3.9023-19.13-72.786-313.94-148.21-438.57-268.19-438.57h-1507.9c-121.07 1.21-200.57 133.1-273.36 457.7m1913.4-1055.6 272-1636.9c0-134.14-122.7-241.97-272-241.97h-1758.4c-150.93 0-272.27 108.95-272.27 241.97l272.27 1636.9zm-276.26-1972.3c0-62.31 56.54-113.88 127.97-113.88 69.973 0 127.97 50.28 127.97 113.88v20.34h-255.93zm-1472.8 0c0-62.31 56.632-113.88 127.88-113.88 71.517 0 128.15 50.28 128.15 113.88v20.34h-256.02zm109 2498.3h-109v-453.02h1727.4v453.02h-109.18zm2769.1 2174.8-1.3611-13.15-198.03-1325.2c-33.672-196.62-185.87-327.12-381.27-327.12h-327.54c0 1.12 1.3612 2.25 1.3612 4.68 13.432 57.55 25.503 121.05 37.755 189.26h289.7c101.01 0 152.29 82.73 164.54 160.78l196.58 1316.7c-2.6309 77.96-75.51 140.19-163.09 140.19h-314.02c5.6274 74.41 9.4383 140.2 12.252 194.19h301.77c210.28 0 381.36-152.22 381.36-340.36"
         id="path5017" />
      <g
         transform="matrix(84.131 0 0 74.817 -11770 25925)"
         id="g5019">
        <path
           d="m0 0h-12.434l-7.362-15.579h36.738l-7.27 15.579h-9.672zm0.114-70.274v48.363h-0.793v1.961h0.793v3.513h-2.989v-3.513h0.742v-1.961h-0.742v-48.363c-4.152-0.172-7.321-1.071-7.321-2.149 0-1.201 3.922-2.181 8.766-2.181s8.765 0.972 8.765 2.181c0 1.078-3.12 1.969-7.221 2.149m-0.319 71.123h-2.46l0.508 2.166h1.445l0.507-2.166z"
           id="path5021" />
      </g>
      <path
         d="m8150 14207-530.7-1086c-118.02-241.61-334.86-377.32-483.92-302.17l-1268.5 632.01c-149.62 75.094-174.98 330.44-56.468 573.21l530.29 1086.6c118.19 241.63 334.86 377.32 483.92 302.17l1268.7-631.98c149.06-75.153 174.49-331.6 56.632-573.19zm-899.47-1937-94.322-192.61c-20.941-43.171-59.793-67.181-86.3-54.46l-225.55 112.52c-26.497 13.827-31.264 58.727-9.838 101.95l94.243 193.71c20.946 43.17 59.477 67.148 86.058 53.328l225.55-112.52c26.507-12.721 30.789-58.779 10.163-101.92zm-326.15-667.64-94.406-193.73c-21.095-42.078-59.637-67.165-85.978-53.319l-225.87 112.49c-26.904 12.678-31.345 58.719-10.001 101.93l94.16 192.59c21.346 43.214 59.636 67.166 86.544 54.488l225.39-112.54c26.665-12.704 30.945-58.762 10.161-101.92zm-326.22-667.64-94.409-193.73c-21.184-43.194-59.635-67.163-86.14-54.442l-225.95 112.48c-26.255 13.853-30.694 59.896-9.749 103.07l93.994 192.58c21.263 43.203 59.637 67.164 86.464 54.479l225.38-113.65c26.906-12.678 30.867-58.77 10.41-100.78zm-511.76 254.12-94.321-192.61c-20.784-43.154-59.398-67.138-86.145-54.445l-225.7 113.62c-26.505 12.721-30.865 58.771-10.249 100.8l94.645 193.76c20.536 42.02 59.558 67.155 85.892 53.309l225.87-112.49c26.511-12.719 30.948-58.762 10.005-101.93zm-511.34 256.38-94.646-193.76c-20.944-43.169-59.635-67.164-86.145-54.443l-225.63 112.52c-26.581 13.821-31.267 58.729-10.084 101.92l94.488 193.74c20.782 43.154 59.635 67.164 86.144 54.443l225.87-112.49c26.259-13.853 30.619-59.905 10.002-101.93zm-511.92 254.1-94.397-192.62c-21.022-43.179-59.236-67.123-86.144-54.445l-225.46 113.64c-26.905 12.678-31.352 57.612-10.33 100.79l94.486 193.74c20.784 43.153 59.558 67.157 86.137 53.336l225.63-112.52c26.748-12.697 31.026-58.755 10.082-101.92zm-90.1 636.12 94.397 192.62c21.104 43.186 59.558 67.155 86.222 54.453l225.71-112.51c26.421-13.836 30.949-58.762 10.082-101.92l-94.564-193.74c-20.699-42.037-59.397-67.14-85.978-53.319l-225.55 112.52c-26.745 12.696-31.188 58.738-10.323 101.9zm326.3 667.65 94.645 193.75c20.785 43.154 59.317 67.132 85.815 53.303l225.79-112.5c26.584-12.712 31.105-58.748 10.161-101.92l-94.397-192.62c-21.024-43.178-59.558-67.155-86.222-54.451l-225.63 112.52c-26.495 13.829-31.186 58.737-10.16 101.92zm601.7-890.25-94.326-193.72c-21.026-43.179-59.641-67.164-85.973-53.319l-226.12 112.47c-26.344 12.738-30.865 58.771-10.011 100.83l94.566 193.74c21.104 43.186 59.56 67.155 86.148 54.445l225.55-112.52c26.658-13.812 31.351-58.722 10.164-101.92zm421.4 379.76 94.882 193.78c20.946 43.17 59.238 67.122 85.897 53.311l225.63-112.52c26.747-12.696 31.027-58.754 10.007-101.94l-94.079-192.59c-21.188-43.194-59.642-67.162-86.548-54.484l-225.55 112.52c-26.338 13.844-31.025 58.753-10.24 101.91zm80.268-533.06c26.494-13.829 31.185-58.738 9.998-101.93l-94.403-193.73c-21.108-43.186-59.559-67.155-86.295-53.351l-225.56 112.52c-26.507 12.719-30.944 58.762-9.999 101.93l94.314 192.61c21.026 43.179 59.24 67.122 86.146 54.444l225.79-112.5zm-591.7 788.32 94.645 193.75c20.784 43.154 59.401 67.138 85.898 53.311l225.55-112.52c26.663-12.702 31.265-58.729 10.161-101.92l-94.156-192.59c-21.184-43.196-59.64-67.164-86.145-54.444l-225.87 112.49c-26.417 13.837-30.777 59.887-10.082 101.92zm2540.5 2391.7-1378.4 688.02c-252.37 126.32-619.25-103.76-819.09-512.31l-1630-3337c-199.77-409.65-156.84-842.54 95.61-968.85l1378.4-688.02c252.53-126.3 619.49 103.79 819.25 512.33l1630.2 3338.1c199.69 409.64 156.77 843.64-96.01 968.81"
         id="path5023" />
      <g
         transform="matrix(2.1885 0 0 2.1885 -84084 -22208)"
         id="g5025">
        <path
           d="m66628 21947c0-31.151-25.654-56.484-57.72-56.484-32.067 0-57.721 25.333-57.721 56.484 0 31.288 25.654 56.575 57.721 56.575 32.066 0 57.72-25.287 57.72-56.575"
           id="path5027" />
        <path
           d="m66528 21864-132.85-515.55 79.251-16.125 100.78 521.41-47.184 10.262zm-268.45-1039.4h116.82l83.833 432.04-84.748 16.95-115.9-448.98"
           id="path5029" />
        <path
           d="m66455 20007c-147.97 0-267.53 116.86-267.53 261.12 0 144.21 119.56 261.12 267.53 261.12 147.51 0 267.07-116.91 267.07-261.12 0-144.26-119.56-261.12-267.07-261.12zm-1487 0c-147.51 0-267.07 116.86-267.07 261.12 0 144.21 119.56 261.12 267.07 261.12s267.53-116.91 267.53-261.12c0-144.26-120.02-261.12-267.53-261.12zm1536.9 767.09h-206.6c-254.24-139.67-262.03-379.03-262.49-404.96l4.121-29.365h-664.25l-2.289 23.73c-30.693 270.14-188.74 372.44-272.11 410.6h-183.24c-276.69 0-501.16-219.2-501.16-489.66 0-270.42 224.47-489.66 501.16-489.66h349.99l81.543 233.54c23.362 62.072 83.831 104.54 151.17 106.28h407.25c67.797-1.741 127.81-45.902 148.42-109.3l66.884-230.52h381.6c276.69 0 501.16 219.25 501.16 489.66 0 270.46-224.47 489.66-501.16 489.66zm-596.9-719.4h-407.25c-26.111 1.604-67.341-26.936-73.754-52.086l-71.921-207.84h683.48l-60.925 208.44c-5.498 25.012-43.98 53.048-69.631 51.49zm-483.76 338.35h557.97c5.041 67.616 38.482 247.88 217.14 381.05h-992.24c87.954-62.943 188.28-177.42 217.14-381.05"
           id="path5031" />
      </g>
      <path
         d="m58533 10720v-28506c0-1025.2 1308.5-1856.2 2333.6-1856.2h6124.7"
         fill="none"
         stroke="#fff"
         stroke-miterlimit="10"
         stroke-width="222.75"
         id="path5033"
         style="stroke:#cccccc" />
      <path
         d="m-945.25-13840v4077.6c0 1028.1-483.63 1861.5-1080.1 1861.5h-3978.7c-596.61 0-1080.2 792.92-1080.2 1771v2803.5"
         fill="none"
         stroke="#fff"
         stroke-miterlimit="10"
         stroke-width="222.75"
         id="path5035"
         style="stroke:#cccccc" />
      <path
         d="m2630.1-15670c0-1879.4-1523.6-3403.3-3403.2-3403.3s-3403.2 1523.9-3403.2 3403.3c0 1879.6 1523.6 3403.3 3403.2 3403.3s3403.2-1523.6 3403.2-3403.3"
         fill="#fff"
         stroke="#fff"
         stroke-width="9.2812"
         id="path5037"
         style="stroke:#cccccc;fill:#cccccc" />
      <path
         d="m1086.8-15574h4872.4c1025.2 0 1856.2-831.14 1856.2-1856.2v-110.68c0-1025.3 790.67-1856.4 1765.9-1856.4h2795.5"
         fill="none"
         stroke="#fff"
         stroke-miterlimit="10"
         stroke-width="222.75"
         id="path5039"
         style="stroke:#cccccc" />
      <path
         d="m17436-19084c0-1879.4-1523.6-3403.3-3403.2-3403.3s-3403.2 1523.9-3403.2 3403.3c0 1879.6 1523.6 3403.3 3403.2 3403.3s3403.2-1523.6 3403.2-3403.3"
         fill="#fff"
         stroke="#fff"
         stroke-width="9.2812"
         id="path5041"
         style="stroke:#cccccc;fill:#cccccc" />
      <path
         d="m72156-9424.9h-5823.5c-1025.2 0-1856.2 1308.5-1856.2 2333.6v6124.7"
         fill="none"
         stroke="#fff"
         stroke-miterlimit="10"
         stroke-width="222.75"
         id="path5043" />
      <path
         d="m76235-8801c0-1879.4-1523.6-3403.3-3403.2-3403.3s-3403.2 1523.9-3403.2 3403.3c0 1879.6 1523.6 3403.2 3403.2 3403.2s3403.2-1523.6 3403.2-3403.2"
         fill="#fff"
         stroke="#fff"
         stroke-width="9.2812"
         id="path5045"
         style="stroke:#cccccc;fill:#cccccc" />
      <path
         d="m88376-9972.3c0-1879.4-1523.6-3403.3-3403.2-3403.3s-3403.2 1523.9-3403.2 3403.3c0 1879.6 1523.6 3403.2 3403.2 3403.2s3403.2-1523.6 3403.2-3403.2"
         fill="#fff"
         stroke="#fff"
         stroke-width="9.2812"
         id="path5047"
         style="stroke:#cccccc;fill:#cccccc" />
      <g
         transform="matrix(1.732 0 0 1.732 -7695.4 -22874)"
         fill="#131112"
         id="g5049">
        <path
           d="m46512 8978.6c550.38-5.2903 895.08 28.958 941.86-581.28h671.31c0 945.2-824.45 1072.5-1630.8 1072.5-806.26 0-1630.7-127.34-1630.7-1072.5h666.21c51.511 621.94 436.12 586.76 982.14 581.28"
           id="path5051" />
        <path
           d="m45196 8093.6c163.54 0 299.51-9.7453 329.76 151.01 4.176 21.996 6.497 46.592 6.497 75.364h-672.52c0-239.27 150.64-226.37 336.26-226.37"
           id="path5053" />
        <path
           d="m47458 8319.9h-6.312c0-28.957 2.506-53.831 7.054-75.364 31.928-148.22 167.9-139.13 330.88-139.13 186.46 0 337.65-12.344 337.65 214.49h-669.27"
           id="path5055" />
        <path
           d="m46841 8003.4c-51.139 0-92.627 41.394-92.627 92.72 0 51.232 41.488 92.72 92.627 92.72 51.233 0 92.627-41.487 92.627-92.72 0-51.325-41.394-92.72-92.627-92.72zm0-317.6c-51.139 0-92.627 41.487-92.627 92.534 0 51.325 41.488 92.72 92.627 92.72 51.233 0 92.627-41.394 92.627-92.72 0-51.047-41.394-92.534-92.627-92.534zm0-317.79c-51.139 0-92.627 41.487-92.627 92.534 0 51.325 41.488 92.72 92.627 92.72 51.233 0 92.627-41.394 92.627-92.72 0-51.047-41.394-92.534-92.627-92.534zm-381.27 635.39c-51.232 0-92.627 41.394-92.627 92.72 0 51.232 41.395 92.72 92.627 92.72 51.14 0 92.627-41.487 92.627-92.72 0-51.325-41.487-92.72-92.627-92.72zm0-317.6c-51.232 0-92.627 41.487-92.627 92.534 0 51.325 41.395 92.72 92.627 92.72 51.14 0 92.627-41.394 92.627-92.72 0-51.047-41.487-92.534-92.627-92.534zm0-317.79c-51.232 0-92.627 41.487-92.627 92.534 0 51.325 41.395 92.72 92.627 92.72 51.14 0 92.627-41.394 92.627-92.72 0-51.047-41.487-92.534-92.627-92.534zm-381.18 635.39c-51.325 0-92.812 41.394-92.812 92.72 0 51.232 41.487 92.72 92.812 92.72 51.14 0 92.627-41.487 92.627-92.72 0-51.325-41.487-92.72-92.627-92.72zm0-317.6c-51.325 0-92.812 41.487-92.812 92.534 0 51.325 41.487 92.72 92.812 92.72 51.14 0 92.627-41.394 92.627-92.72 0-51.047-41.487-92.534-92.627-92.534zm0-317.79c-51.325 0-92.812 41.487-92.812 92.534 0 51.325 41.487 92.72 92.812 92.72 51.14 0 92.627-41.394 92.627-92.72 0-51.047-41.487-92.534-92.627-92.534zm1051.2 1114.8v95.04c0 42.601-49.098 45.107-109.7 45.107h-98.566c-60.514 0-109.52-2.506-109.52-45.107v-145.44h-699.16v145.44c0 42.601-48.912 45.107-109.33 45.107h-98.752c-60.607 0-109.52-2.506-109.52-45.107v-178.01c-159.36-165.48-680.32-869.93-699.16-955.23l0.185-569.22c0-52.439 42.787-95.226 95.133-95.226h2542c52.347 0 95.133 42.786 95.133 95.226v572c-18.655 82.696-539.61 786.96-698.78 952.44v82.974"
           id="path5057" />
      </g>
      <path
         d="m1353-15129c1.426 11.162 2.853 21.055 1.426 27.227 0 4.988-1.426 9.977-1.426 12.513-2.757-1.267-6.941-3.719-12.55-6.173-7.036-3.804-13.882-9.976-23.864-18.77-29.286-26.042-68.268-74.575-108.96-149.07-40.504-74.575-58.568-131.73-64.273-169.1-1.331-11.246-2.852-21.053-1.331-27.395 0-4.82 1.331-9.893 1.331-12.345 2.852 1.099 7.035 3.635 12.55 6.172 7.131 3.805 14.071 9.977 23.865 18.602 29.284 26.127 68.552 74.575 108.87 149.24 40.693 74.575 58.853 131.73 64.368 169.1m-102.02 26.043h-2.662c-75.683 0-146.9-39.654-178.94-99.518-23.864-42.277-26.718-90.641-8.556-135.37 8.556-19.955 19.68-38.64 34.988-54.791 13.978 52.254 39.268 109.33 61.516 151.69 25.291 47.35 58.663 98.337 93.653 137.99m89.47-216.2c-25.007-47.266-60.09-98.335-95.08-138.08h2.948c75.398 0 146.61 39.741 178.94 99.434 23.674 42.277 26.528 90.726 8.176 135.46-8.176 19.87-19.396 38.556-34.988 54.789-11.03-52.337-37.462-110.68-59.995-151.6m-100.69 441.28c2.854-4.988 5.61-8.708 8.558-11.16 2.662 2.452 5.42 6.172 8.176 11.16 4.374 6.172 8.654 14.882 11.22 26.042 12.646 34.752 25.292 93.178 25.292 176.55 0 82.016-12.646 141.71-25.292 176.46-4.088 11.329-8.366 20.039-11.22 26.21-2.756 4.989-5.514 8.709-8.176 11.247-2.948-2.538-5.704-6.258-8.558-11.247-4.088-6.171-8.366-14.881-11.124-26.21-12.646-34.752-25.196-93.178-25.196-176.46 0-82.017 12.55-141.8 25.196-176.55 4.184-11.16 8.462-19.87 11.124-26.042m-75.397 40.924c-13.977 52.254-18.16 114.4-18.16 160.48 0 45.828 4.183 108.06 18.16 160.31-68.552-28.58-116-89.542-116-160.31 0-70.941 48.87-131.9 116-160.48m283.72 161.66c0 70.94-47.634 133.09-116 160.4 13.976-52.253 18.16-114.4 18.16-160.4 0-45.996-4.184-108.06-18.16-160.4 68.362 27.309 116 88.272 116 160.4m116-1136.3c0 18.686-16.734 33.567-37.652 33.567h-556.4c-20.918 0-37.746-14.881-37.746-33.567 0-18.601 16.828-33.567 37.746-33.567h556.4c20.918 0 37.652 14.966 37.652 33.567m-37.652-84.469h-556.4m594.05-151.69c0 18.602-16.734 33.568-37.652 33.568h-556.4c-20.918 0-37.746-14.966-37.746-33.568 0-18.686 16.828-33.483 37.746-33.483h556.4c20.918 0 37.652 14.797 37.652 33.483m0-236.24c0 18.686-16.734 33.567-37.652 33.567h-556.4c-20.918 0-37.746-14.881-37.746-33.567 0-18.601 16.828-33.567 37.746-33.567h556.4c20.918 0 37.652 14.966 37.652 33.567m-73.972 1079.1c-15.308 39.74-43.451 74.576-79.677 100.79 0 29.763-9.982 52.086-33.562 62.063-7.036 2.452-13.882 4.988-22.439 4.988-16.734 0-34.988-7.525-53.054-19.87-18.254 3.72-34.894 4.905-53.054 4.905-97.932 0-188.92-50.986-230.66-127.93-29.476-54.789-33.659-116.94-11.316-174.18 15.498-39.739 43.356-74.491 79.868-100.62 0-29.932 9.602-52.339 33.372-62.231 6.942-2.453 14.072-4.989 22.439-4.989 16.734 0 34.894 7.525 53.054 19.954 18.254-3.719 35.084-5.073 53.244-5.073 97.741 0 188.64 51.07 230.57 128.1 29.284 54.708 33.468 115.67 11.219 174.1m-497.64 529.56c0-106.88 83.764-196.42 195.67-221.28 15.308-26.042 34.894-43.544 60.186-43.544 25.006 0 46.114 17.502 60.09 43.544 111.72 24.859 195.67 114.4 195.67 221.28s-83.955 196.5-195.67 221.28c-15.402 26.126-35.084 43.544-60.09 43.544-25.292 0-46.114-17.418-60.186-43.544-111.91-24.773-195.67-114.4-195.67-221.28m691.98 354.28v-2181.7c0-32.298-29.379-59.609-67.125-59.609h-739.52c-36.322 0-67.127 26.042-67.127 59.609v2181.7c0 32.384 29.379 59.609 67.127 59.609h739.52c37.746-1.183 67.125-27.225 67.125-59.609m57.142 0c0 60.963-55.81 109.41-122.84 109.41h-739.52c-68.553 0-123.03-49.802-123.03-109.41v-2181.7c0-60.961 55.907-109.33 123.03-109.33h739.52c68.362 0 122.84 49.718 122.84 109.33zm-1371.2-125.56c-26.622 93.261-137.1 181.53-241.88 193.96-1016.3 119.3-2019.9 119.3-3036.3 0-104.78-13.612-215.26-101.97-241.88-193.96-163.44-645.22-163.44-1254.3 0-1899.5 26.622-93.262 137.1-181.54 241.88-193.96 1016.5-119.3 2020-119.3 3036.3 0 104.78 13.613 215.26 101.97 241.88 193.96 163.54 645.14 163.54 1254.3 0 1899.5m1621.6 324.43v-2716.3h-5531.6v2716.3c0 93.262 85.286 169.19 190.16 169.19h5152.7c104.87 0 188.73-75.93 188.73-169.19m-5531.6-2859.2c0-93.178 85.286-169.02 190.16-169.02h5152.7c104.87 0 190.16 75.844 190.16 169.02v93.262h-5533zm4759.8-338.04c0-37.373 33.564-67.22 75.588-67.22h233.42c42.024 0 75.588 29.847 75.588 67.22v118.12h-385.83v-118.12zm-4374 118.12h385.93v-118.12c0-37.373-33.562-67.22-75.683-67.22h-234.75c-41.93 0-75.493 29.847-75.493 67.22z"
         id="path5059" />
      <g
         transform="matrix(77.935 0 0 69.307 12234 -17633)"
         id="g5061">
        <path
           d="m0 0c0.127-0.297 0.255-0.453 0.341-0.481 0.085 0.028 0.213 0.184 0.34 0.481 0.055 0.142 0.128 0.297 0.184 0.496 0.198 0.65 0.383 1.643 0.383 2.96 0 1.318-0.171 2.311-0.383 2.961-0.056 0.198-0.129 0.368-0.184 0.496-0.127 0.296-0.269 0.466-0.34 0.481-0.086-0.028-0.198-0.185-0.341-0.481-0.057-0.142-0.127-0.298-0.183-0.496-0.199-0.65-0.37-1.643-0.37-2.961 0-1.317 0.171-2.31 0.383-2.96 0.043-0.185 0.113-0.354 0.17-0.496m3.358 3.456c0 1.078-0.566 2.011-1.417 2.55 0.17-0.778 0.241-1.673 0.241-2.55 0-0.879-0.084-1.771-0.241-2.55 0.851 0.538 1.417 1.473 1.417 2.55m-4.605-2.55c-0.169 0.779-0.24 1.671-0.24 2.55 0 0.877 0.085 1.772 0.24 2.55-0.85-0.539-1.416-1.472-1.416-2.55 0-1.077 0.566-2.012 1.416-2.55m25.528-18.585c-0.269 0.184-0.595 0.297-0.948 0.297-0.298 0-0.568-0.085-0.808-0.213-0.098-0.056-0.185-0.113-0.27-0.185-0.367-0.297-0.595-0.751-0.609-1.259v-0.03c0-0.211 0.042-0.41 0.113-0.593 0.156-0.412 0.468-0.751 0.879-0.936 0.156-0.07 0.31-0.112 0.481-0.127 0.072-0.014 0.142-0.029 0.214-0.029 0.551 0 1.034 0.269 1.344 0.68 0.072 0.1 0.142 0.199 0.185 0.313 0.098 0.212 0.157 0.438 0.157 0.692 0 0.454-0.186 0.851-0.47 1.163-0.083 0.085-0.168 0.155-0.268 0.227m1.701-2.636c0.183 0.384 0.282 0.794 0.282 1.246 0 0.851-0.368 1.631-0.95 2.153-0.055 0.057-0.113 0.101-0.169 0.144-0.496 0.395-1.12 0.623-1.799 0.623-0.552 0-1.076-0.157-1.516-0.426-0.057-0.043-0.127-0.071-0.184-0.112-0.751-0.539-1.232-1.403-1.232-2.382 0-0.198 0.014-0.382 0.057-0.579 0-0.014 0.013-0.029 0.013-0.057 0.257-1.133 1.162-2.041 2.31-2.253h0.028c0.17-0.028 0.34-0.042 0.524-0.042 1.105 0 2.068 0.608 2.565 1.515 0.012 0.057 0.04 0.113 0.071 0.17m18.414 1.035c-0.155-1.374-1.188-2.338-2.35-2.268-4.492 0.143-8.926 0.284-13.346 0.838-0.126-0.44-0.325-0.851-0.552-1.233 3.783-2.267 7.693-3.797 12.282-4.817 1.19-0.185 1.784-1.218 1.374-2.38-1.997-5.907-6.147-8.797-11.9-10.525-1.459-0.269-2.846 0.496-3.2 1.685-1.346 4.405-2.635 8.797-3.457 13.302-0.369 0-0.737 0.043-1.09 0.115-0.892-4.421-1.035-8.684-0.497-13.43 0.228-1.176-0.624-2.013-1.913-1.913-5.199 0.453-10.708 2.635-13.811 6.998-0.778 1.104-0.552 2.72 0.453 3.528 3.754 3.031 7.523 5.963 11.658 8.401-0.127 0.353-0.211 0.707-0.269 1.089-4.661-0.495-8.909-1.799-13.343-3.938-1.119-0.666-2.239-0.156-2.494 1.218-0.963 5.356 0.269 11.22 3.315 15.725 0.708 1.034 2.139 1.275 3.202 0.566 3.924-2.634 7.749-5.34 11.22-8.484 0.338 0.282 0.708 0.538 1.103 0.75-1.995 4.293-4.702 7.877-8.286 11.375-1.034 0.85-1.077 2.125 0.099 2.861 5.014 3.061 11.559 3.105 16.957 1.077 1.202-0.452 1.813-1.672 1.416-2.777-1.403-4.348-2.804-8.626-4.645-12.763 0.395-0.255 0.764-0.538 1.09-0.877 3.371 3.017 5.977 6.444 8.287 10.666 0.524 1.161 1.685 1.616 2.706 0.879 4.858-3.584 6.672-9.847 5.991-15.668m3.075 0.326c0 13.471-10.922 24.393-24.395 24.393-13.472 0-24.393-10.922-24.393-24.393 0-13.473 10.921-24.395 24.393-24.395 13.473 0 24.395 10.922 24.395 24.395m-48.363 18.67c0.299-0.695 0.709-1.133 1.233-1.133s0.933 0.453 1.232 1.133c1.573 0.523 2.719 1.997 2.719 3.754 0 1.742-1.146 3.23-2.719 3.755-0.299 0.693-0.708 1.133-1.232 1.133s-0.934-0.453-1.233-1.133c-1.573-0.525-2.72-2.013-2.72-3.769 0-1.743 1.147-3.23 2.72-3.74m53.363 9.165v-55.673c0-0.864-0.694-1.557-1.556-1.557h-55.673c-0.866 0-1.558 0.693-1.558 1.557v55.673c0 0.865 0.692 1.559 1.558 1.559h55.673c0.848 0.014 1.556-0.694 1.556-1.559m-3.399-58.166h-3.4c-0.50494-4.0019 3.4-4.0019 3.4 0zm-52.004 0h3.399c0.50483-4.0017-3.399-4.0017-3.399 0z"
           id="path5063" />
      </g>
      <g
         transform="matrix(2.1207 0 0 2.1207 -56639 -46788)"
         id="g5065">
        <path
           d="m67452 17484h-1363.8v797.09h1363.8v-797.09zm-1465.9 894.67v-992.25h1568.1v992.25h-1568.1"
           id="path5067" />
        <path
           d="m68044 16669c0 26.57-22.446 48.1-49.016 48.1h-2437.1c-27.028 0-49.015-21.53-49.015-48.1 0-26.11 21.987-47.641 49.015-47.641h2437.1c26.57 0 49.016 21.531 49.016 47.641"
           id="path5069" />
        <path
           d="m66906 16874h-248.75c-49.933 0-76.505 38.938-59.554 87.497 16.949 48.559 59.095 87.956 94.369 87.956h176.37c34.816 0 77.418-39.397 95.285-87.956 17.407-48.559-7.788-87.497-57.721-87.497zm659.21 416.87h-1591l-446.65-504.82h2502.1l-464.51 504.82"
           id="path5071" />
      </g>
      <path
         d="m81106 26992h-8448.6c-1025.2 0-1856.2-1308.5-1856.2-2333.6v-3663.6"
         fill="none"
         stroke="#fff"
         stroke-miterlimit="10"
         stroke-width="222.75"
         id="path5073"
         style="stroke:#cccccc" />
      <path
         d="m87710 27242c0-1879.4-1523.6-3403.3-3403.2-3403.3s-3403.2 1523.9-3403.2 3403.3c0 1879.6 1523.6 3403.2 3403.2 3403.2s3403.2-1523.6 3403.2-3403.2"
         fill="#fff"
         stroke="#fff"
         stroke-width="9.2812"
         id="path5075"
         style="stroke:#cccccc;fill:#cccccc" />
      <path
         d="m17761 43085h-5896.3c-1025.2 0-1856.2-1308.5-1856.2-2333.6v-5519.8"
         fill="none"
         stroke="#fff"
         stroke-miterlimit="10"
         stroke-width="222.75"
         id="path5077"
         style="stroke:#cccccc" />
      <path
         d="m23437 43567c0-1879.4-1523.6-3403.3-3403.2-3403.3s-3403.2 1523.9-3403.2 3403.3c0 1879.6 1523.6 3403.2 3403.2 3403.2s3403.2-1523.6 3403.2-3403.2"
         fill="#fff"
         stroke="#fff"
         stroke-width="9.2812"
         id="path5079"
         style="stroke:#cccccc;fill:#cccccc" />
      <g
         transform="matrix(1.5143 0 0 1.5143 -5876 33243)"
         id="g5081">
        <path
           d="m60804-4415.3h-378.49c-68.124 0-123.35 55.316-123.35 123.35 0 68.217 55.224 123.44 123.35 123.44h378.49c68.124 0 123.44-55.223 123.44-123.44 0-68.031-55.316-123.35-123.44-123.35zm-793.82 24.688h-880.33c-42.972 0-78.055 34.99-78.055 78.241 0 43.065 35.083 77.962 78.055 77.962h880.33c43.157 0 78.148-34.897 78.148-77.962 0-43.251-34.991-78.241-78.148-78.241zm-1336.9-24.688h-378.4c-68.032 0-123.35 55.316-123.35 123.35 0 68.217 55.316 123.44 123.35 123.44h378.4c68.217 0 123.53-55.223 123.53-123.44 0-68.031-55.316-123.35-123.53-123.35zm-177.83 1167.4c113.05 318.72 204 416.08 387.68 416.08h1369.5c182.56 0 284.01-108.5 387.31-414.78l207.06-419.6c-67.568 25.059-142 38.888-220.34 38.888h-2145.2c-70.352 0-137.55-11.323-199.64-31.835l213.56 411.25zm2692.1-865.48c0 64.226-14.386 125.67-40.559 181.73-2.692 14.386-5.848 28.586-9.746 42.972l-283.63 703.42-1.949 6.2185c-99.31 295.7-240.57 569.31-598.83 569.31h-1369.7c-367.07 0-496.82-280.39-598.27-567.55l-296.81-705.1c-42.972-68.867-67.382-147.39-67.382-231.01v-218.85c0-33.877 4.084-66.918 11.602-98.845-7.332-19.212-11.602-40.002-11.602-61.906v-650.71c0-95.597 77.499-173 172.82-173h358.81c95.225 0 172.63 77.406 172.63 173v325.31h1879.1v-325.31c0-95.597 77.313-173 172.82-173h338.12c95.318 0 172.82 77.406 172.82 173v650.89c0 21.718-4.269 42.601-11.509 61.72 7.518 31.927 11.509 64.969 11.509 99.031v218.67"
           fill="#131112"
           id="path5083" />
      </g>
      <g
         transform="matrix(2.2468 0 0 2.2468 -1.2999e5 27839)"
         id="g5085">
        <path
           d="m66917 7849.1c-146.14 0-264.32-115.9-264.78-258.83 0.459-143.39 118.65-258.83 264.78-259.28 146.59 0.4582 265.24 115.9 265.24 259.28 0 142.93-118.65 258.83-265.24 258.83zm-336.7-258.83c0 181.87 151.17 329.37 336.7 329.37 186.45 0 337.62-147.51 337.62-329.37 0-182.32-151.17-329.83-337.62-329.83-185.53 0-336.7 147.51-336.7 329.83zm-239.59-414.58c71.92 47.642 124.6 120.02 143.84 205.23 44.436-87.497 116.36-158.5 203.4-205.23h-347.24zm816.33 0h-7.787c149.8 80.168 251.5 235.92 251.5 414.58 0 260.66-216.68 472.3-483.3 472.3-251.04 0-458.1-187.82-481.46-427.41-60.928 90.704-165.83 151.17-285.4 151.17-189.2 0-342.2-149.8-342.2-334.41 0-114.98 59.551-215.77 149.8-276.23h-8.246c-105.36 0-191.03-83.374-191.03-186.45v-601.17c0-103.03 85.666-186.49 191.03-186.49h1207.1c105.36 0 191.03 83.466 191.03 186.49v601.17c0 103.07-85.664 186.45-191.03 186.45"
           id="path5087" />
        <path
           d="m67434 6796.9v-255.62l481.01-246.37v769.98l-481.01-267.99"
           id="path5089" />
      </g>
      <path
         d="m71468-19629c0-1879.4-1523.6-3403.3-3403.2-3403.3s-3403.2 1523.9-3403.2 3403.3c0 1879.6 1523.6 3403.2 3403.2 3403.2s3403.2-1523.6 3403.2-3403.2"
         fill="#fff"
         stroke="#fff"
         stroke-width="9.2812"
         id="path5091"
         style="stroke:#cccccc;fill:#cccccc" />
      <path
         d="m87865 8756.3v5957.7c0 1025.2-831.13 1856.2-1856.2 1856.2h-15771c-1025.3 0-1856.4 790.67-1856.4 1765.9v2795.5"
         fill="none"
         stroke="#fff"
         stroke-miterlimit="10"
         stroke-width="222.75"
         id="path5093"
         style="stroke:#cccccc" />
      <path
         d="m91190 7635.1c0-1879.4-1523.6-3403.3-3403.2-3403.3s-3403.2 1523.9-3403.2 3403.3c0 1879.6 1523.6 3403.2 3403.2 3403.2s3403.2-1523.6 3403.2-3403.2"
         fill="#fff"
         stroke="#fff"
         stroke-width="9.2812"
         id="path5095"
         style="stroke:#cccccc;fill:#cccccc" />
      <g
         transform="matrix(2.3593 0 0 2.3593 -73778 -83669)"
         id="g5097">
        <g
           transform="matrix(8.7564 0 0 8.7564 53411 11810)"
           id="g5099">
          <path
             d="m847.55 1849.6h-162.56v-188.23h162.56v188.23zm-81.282-213.9c4.727 0 8.556 3.827 8.556 8.557 0 4.72-3.829 8.555-8.556 8.555s-8.556-3.835-8.556-8.555c0-4.73 3.829-8.557 8.556-8.557m94.116-8.556h-188.23c-7.089 0-12.834 5.744-12.834 12.834v222.46c0 7.09 5.745 12.834 12.834 12.834h188.23c7.09 0 12.834-5.744 12.834-12.834v-222.46c0-7.09-5.744-12.834-12.834-12.834"
             fill-rule="evenodd"
             id="path5101" />
        </g>
      </g>
      <g
         transform="matrix(1.9164 0 0 1.9164 -1.0986e5 2009.4)"
         id="g5103">
        <g
           transform="matrix(5.6699 0 0 5.6699 37563 -25695)"
           id="g5105">
          <path
             d="m11406 5055.6c59.1 107.7 196.5-46.05 272 2.97-37.4-117.91-201.6 34.45-272-2.97"
             id="path5107" />
          <path
             d="m11458 5115c59 107.6 196.5-45.96 272 2.97-37.4-118-201.6 34.44-272-2.97"
             id="path5109" />
          <path
             d="m11510 5174.5c59 107.7 196.4-46.05 272 2.88-37.4-117.91-201.7 34.53-272-2.88"
             id="path5111" />
          <path
             d="m11570 5233.5s11.6 17.45 71.6-3.9c59.8-21.17 63.5-11.7 69.6 3.25 10.4 25.99-120 75.01-141.2 0.65"
             id="path5113" />
          <path
             d="m11556 4992.6c-14-72.32-85.8-17.73-121.6-59.7l36.5-36.48s7.8 16.61 47.7 13.92c52.2-3.62 82 40.85 81.3 66.94l-43.9 15.32"
             id="path5115" />
          <path
             d="m11474 5031.1-51.4 18.57c-26.3-3.34-13-35.28-9.1-51.81 9.3-38.06 0.4-44.19 0.4-44.19l8.2-8.45c11.4 13.83 23.5 17.83 37.2 19.59-3.6 25.53-13.4 50.79 14.7 66.29"
             id="path5117" />
          <path
             d="m11444 4840.4c-3.4-3.25-8.9-3.15-12.3 0.28l-72.3 73.16c-3.3 3.34-3.2 8.73 0.2 11.98 3.4 3.34 8.9 3.15 12.3-0.19l72.3-73.25c3.3-3.34 3.2-8.73-0.2-11.98"
             id="path5119" />
          <path
             d="m11434 4828.7c-3.4-3.24-8.9-3.15-12.3 0.19l-72.3 73.25c-3.3 3.34-3.2 8.73 0.3 11.98 3.4 3.25 8.9 3.16 12.3-0.19l72.3-73.25c3.2-3.34 3.1-8.73-0.3-11.98"
             id="path5121" />
          <path
             d="m11455 4851.8c-3.4-3.25-8.9-3.16-12.3 0.19l-72.3 73.25c-3.3 3.34-3.2 8.73 0.3 11.98 3.4 3.25 8.9 3.15 12.3-0.19l72.2-73.25c3.3-3.34 3.2-8.73-0.2-11.98"
             id="path5123" />
          <path
             d="m11465 4863.7c-3.5-3.25-9-3.16-12.4 0.27l-72.3 73.26c-3.2 3.34-3.1 8.72 0.3 11.97s8.9 3.07 12.2-0.18l72.4-73.25c3.3-3.35 3.2-8.73-0.2-12.07"
             id="path5125" />
          <path
             d="m11384 4837.2c-0.9-1.02-2.5-1.11-3.5-0.28l-21.7 18.02c-1.1 0.93-1.2 2.5-0.2 3.52l20.5 23.49c0.9 1.03 2.5 1.12 3.6 0.28l21.6-18.01c1.1-0.93 1.1-2.41 0.2-3.44l-20.5-23.58"
             id="path5127" />
        </g>
      </g>
      <text
         xml:space="preserve"
         style="font-style:normal;font-variant:normal;font-weight:normal;font-stretch:normal;font-size:2970.00292969px;line-height:125%;font-family:'Droid Serif';-inkscape-font-specification:'Droid Serif, Normal';text-align:center;letter-spacing:0px;word-spacing:0px;writing-mode:lr-tb;text-anchor:middle;fill:#000000;fill-opacity:1;stroke:none;stroke-width:1px;stroke-linecap:butt;stroke-linejoin:miter;stroke-opacity:1"
         x="32529.414"
         y="-20206.832"
         id="text5291"
         sodipodi:linespacing="125%"
         transform="scale(1,-1)"><tspan
           sodipodi:role="line"
           id="tspan5293"
           x="32963.383"
           y="-20206.832"
           style="font-size:3341.25341797px">Internet of </tspan></text>
      <text
         xml:space="preserve"
         style="font-style:normal;font-variant:normal;font-weight:normal;font-stretch:normal;font-size:2970.00292969px;line-height:125%;font-family:'Droid Serif';-inkscape-font-specification:'Droid Serif, Normal';text-align:center;letter-spacing:0px;word-spacing:0px;writing-mode:lr-tb;text-anchor:middle;fill:#000000;fill-opacity:1;stroke:none;stroke-width:1px;stroke-linecap:butt;stroke-linejoin:miter;stroke-opacity:1"
         x="36963.781"
         y="-13407.467"
         id="text5295"
         sodipodi:linespacing="125%"
         transform="scale(1,-1)"><tspan
           sodipodi:role="line"
           id="tspan5297"
           x="36963.781"
           y="-13407.467"
           style="font-style:normal;font-variant:normal;font-weight:normal;font-stretch:normal;font-size:6682.50683594px;font-family:'Droid Sans Arabic';-inkscape-font-specification:'Droid Sans Arabic';fill:#2a7fff">Things</tspan></text>
    </g>
  </g>
</svg>
