<?xml version="1.0" encoding="utf-8"?>
<!-- Generator: Adobe Illustrator 20.0.0, SVG Export Plug-In . SVG Version: 6.00 Build 0)  -->
<svg version="1.1" id="Layer_1" xmlns="http://www.w3.org/2000/svg" xmlns:xlink="http://www.w3.org/1999/xlink" x="0px" y="0px"
	 viewBox="0 0 66 54" style="enable-background:new 0 0 66 54;" xml:space="preserve">
<style type="text/css">
	.st0{fill:#FF4833;}
</style>
<g>
	<g>
		<path d="M-9195.5,67.4c-2.3,0-4.8-1.7-5.4-4.3c-0.9-2.8,0.9-6.3,3.7-7.4l52.1-16.2c3.1-0.9,6.3,0.9,7.4,3.7
			c0.9,2.8-0.9,6.3-3.7,7.4l-52.1,16.2C-9194.4,67.4-9194.9,67.4-9195.5,67.4z"/>
	</g>
	<g>
		<path d="M-9259.2,67.4c-0.6,0-1.1,0-1.7-0.3l-52.1-16.2c-3.1-0.9-4.8-4-3.7-7.4c0.9-3.1,4-4.8,7.4-3.7l52.1,16.2
			c3.1,0.9,4.8,4,3.7,7.4C-9254.4,66-9256.7,67.4-9259.2,67.4z"/>
	</g>
</g>
<g>
	<g>
		<path d="M-9195.5,34.7c-2.3,0-4.8-1.7-5.4-4.3c-0.9-2.8,0.9-6.3,3.7-7.4l52.1-16.2c3.1-0.9,6.3,0.9,7.4,3.7
			c1.1,2.8-0.9,6.3-3.7,7.4l-52.1,16.2C-9194.4,34.7-9194.9,34.7-9195.5,34.7z"/>
	</g>
	<g>
		<path d="M-9259.2,34.7c-0.6,0-1.1,0-1.7-0.3l-52.1-16.2c-2.8-0.9-4.8-4.3-3.7-7.4s4-4.8,7.4-3.7l52.1,16.2c2.8,0.9,4.8,4,3.7,7.4
			C-9254.4,33-9256.7,34.7-9259.2,34.7z"/>
	</g>
</g>
<g>
	<g>
		<path d="M-9195.5,2c-2.3,0-4.8-1.7-5.4-4.3c-0.9-2.8,0.9-6.3,3.7-7.4l52.1-16.2c3.1-0.9,6.3,0.9,7.4,3.7c1.1,2.8-0.9,6.3-3.7,7.4
			l-52.1,16.2C-9194.4,2-9194.9,2-9195.5,2z"/>
	</g>
	<g>
		<path d="M-9259.2,2c-0.6,0-1.1,0-1.7-0.3l-52.1-16.2c-2.8-0.9-4.8-4.3-3.7-7.4c0.9-3.1,4-4.8,7.4-3.7l52.1,16.2
			c2.8,0.9,4.8,4.3,3.7,7.4C-9254.4,0.3-9256.7,2-9259.2,2z"/>
	</g>
</g>
<g>
	<g>
		<path d="M-9195.5-31c-2.3,0-4.8-1.7-5.4-4.3c-0.9-2.8,0.9-6.3,3.7-7.4l52.1-16.2c3.1-0.9,6.3,0.9,7.4,3.7c1.1,2.8-0.9,6.3-3.7,7.4
			l-52.1,16.2C-9194.4-31-9194.9-31-9195.5-31z"/>
	</g>
	<g>
		<path d="M-9259.2-31c-0.6,0-1.1,0-1.7-0.3l-52.1-16.2c-3.1-0.9-4.8-4.3-3.7-7.4c0.9-2.8,4-4.8,7.4-3.7l52.1,16.2
			c3.1,0.9,4.8,4.3,3.7,7.4C-9254.4-32.4-9256.7-31-9259.2-31z"/>
	</g>
</g>
<g>
	<path d="M-9105.3-123.2c-2.3-1.7-5.1-2-7.7-1.4l-113.2,35.3l-113.2-35.3c-2.6-0.9-5.4-0.3-7.7,1.4s-3.4,4-3.4,6.8V83.3
		c0,3.7,2.3,7.1,6,8.2l115.8,36.1c0.3,0,0.3,0,0.6,0.3c0.3,0,0.3,0,0.6,0.3c0.3,0,0.3,0,0.6,0s0.6,0,0.9,0c0.3,0,0.6,0,0.9,0
		c0.3,0,0.3,0,0.6,0s0.3,0,0.3,0s0.3,0,0.6-0.3l115.8-36.1c3.4-1.1,6-4.3,6-8.2v-200C-9101.9-119.2-9103.4-121.8-9105.3-123.2z
		 M-9333.5-104.7l98.7,30.7v181.8l-98.7-30.7V-104.7z M-9119.3,77.1l-98.7,30.7V-74l98.7-30.7V77.1z"/>
</g>
<g>
	<path class="st0" d="M56.9,20.2c-0.1-5.5-3.7-10.1-8.7-11.7c3.5-2.1,6.5-3.3,8.2-3.3c0.5,0,0.9,0.1,1.1,0.3s0.3,0.6,0.3,1.1
		c0,0.1,0,0.1,0,0.2c-0.1,0.3-0.1,0.6-0.2,1c0,0.1-0.1,0.3-0.1,0.4c-0.3,1.1-0.8,2.4-1.6,3.9c-0.3,0.4-0.1,1.1,0.4,1.3
		c0.2,0.1,0.3,0.1,0.5,0.1c0.4,0,0.7-0.2,1-0.6c0.8-1.6,1.4-3,1.7-4.2c0-0.2,0.1-0.3,0.1-0.5c0.1-0.5,0.2-1,0.2-1.4
		c0-0.1,0-0.2,0-0.3c0-1-0.3-1.9-0.9-2.5c-0.6-0.6-1.4-0.9-2.5-0.9C54,3.1,50,4.9,45.3,7.9c-0.3,0-0.6,0-0.9,0
		c-1.6,0-3.2,0.3-4.7,0.9C36.9,4,31.8,1.1,26.2,1.1c-8.7,0-15.8,7.1-15.8,15.8c0,0.6,0,1.3,0.1,1.9c0.1,0.6,0.6,1,1.1,0.9
		c0.6-0.1,1-0.6,0.9-1.1c-0.1-0.5-0.1-1.1-0.1-1.6c0-7.6,6.2-13.8,13.8-13.8c5.1,0,9.8,2.8,12.2,7.4l0.5,0.9l0.9-0.4
		c1.5-0.7,3.1-1.1,4.7-1.1c4,0,7.6,2.3,9.3,5.6L52.3,18c-2.2,2.9-4.7,6-7.5,9.1c-0.1,0.2-0.2,0.4-0.2,0.6c-0.1,0-0.1,0-0.2,0.1
		l-0.1-2.6c0-0.6-0.4-1-1-1s-1,0.4-1,1l0.3,5.9l0.9,0c0,0,0.1,0,0.1,0c0.1,0,0.2,0,0.2,0l4.6-0.2c0.6,0,1-0.4,1-1c0-0.6-0.4-1-1-1
		l-2.6,0.1c0-0.1,0-0.1,0-0.2c0.2,0,0.4-0.1,0.4-0.3c2.9-3.1,5.4-6.3,7.6-9.3l0.8-1.2c0.2,0.8,0.3,1.6,0.3,2.5c0,0.1,0,0.3,0,0.4
		v0.8l0.8,0.2c4.3,1.1,7.3,5,7.3,9.4c0,2.7-1.1,5.4-3.2,7.2c-0.4,0.4-0.5,1-0.1,1.4c0.1,0.2,0.4,0.3,0.7,0.3S61,40.1,61,40
		c2.5-2.2,3.9-5.4,3.9-8.7C64.9,26.2,61.7,21.7,56.9,20.2z"/>
	<path class="st0" d="M55.9,40.5c-0.7,0.2-1.6,0.3-2.4,0.3H16.3c0-0.1,0.1-0.1,0.1-0.2l1.4-2.2l0.3-0.4c2.2-3.1,4.8-6.3,7.8-9.5
		L26,31c0,0.6,0.5,1,1,1c0.6,0,1-0.5,1.1-1.1L27.8,25l-5.9,0.3c-0.6,0-1,0.4-1,1c0,0.6,0.5,1,1,1l2.6-0.1c-3.1,3.3-5.7,6.6-8,9.7
		l-1.8,2.7c-0.2,0.4-0.5,0.8-0.8,1.2h-0.2c-4.6,0-8.7-2.9-10.1-7.3c-0.2-0.5-0.8-0.8-1.3-0.6c-0.5,0.2-0.8,0.8-0.6,1.3
		c1.6,4.9,6,8.3,11.1,8.7C12,44.5,11.3,46,11,47.3c0,0.2-0.1,0.3-0.1,0.5c-0.1,0.5-0.2,1-0.2,1.4c0,0.1,0,0.2,0,0.3
		c0,1,0.3,1.9,0.9,2.5c0.6,0.6,1.4,0.9,2.5,0.9c2.5,0,6.3-1.9,8.9-3.5c0.5-0.3,0.7-0.9,0.4-1.4s-0.9-0.7-1.4-0.4
		c-3.4,2-6.3,3.2-7.9,3.2c-0.5,0-0.9-0.1-1.1-0.3s-0.3-0.6-0.3-1.1c0-0.1,0-0.1,0-0.2c0.1-0.3,0.1-0.6,0.2-1c0-0.1,0.1-0.3,0.1-0.4
		c0.4-1.3,1.1-3,2.1-4.9h14.2c-0.9,0.7-1.9,1.3-2.9,2l-1,0.7c-0.5,0.3-0.6,0.9-0.3,1.4c0.2,0.2,0.5,0.4,0.8,0.4c0.2,0,0.4,0,0.6-0.2
		l1-0.7c1.8-1.2,3.5-2.4,5.2-3.6h20.8c1,0,1.9-0.2,2.9-0.5c0.5-0.1,0.8-0.7,0.7-1.2C57,40.7,56.4,40.4,55.9,40.5z"/>
	<path class="st0" d="M3.1,30c0.1-3.7,2.2-7.1,5.5-8.9c0.5-0.3,0.7-0.9,0.4-1.4S8.1,19,7.6,19.3c-3.8,2.1-6.4,6.2-6.5,10.6
		c0,0.5,0.4,1,1,1C2.6,30.9,3.1,30.5,3.1,30z"/>
</g>
</svg>
