<?xml version="1.0" encoding="UTF-8" standalone="no"?>
<svg
   xmlns:dc="http://purl.org/dc/elements/1.1/"
   xmlns:cc="http://creativecommons.org/ns#"
   xmlns:rdf="http://www.w3.org/1999/02/22-rdf-syntax-ns#"
   xmlns:svg="http://www.w3.org/2000/svg"
   xmlns="http://www.w3.org/2000/svg"
   xmlns:sodipodi="http://sodipodi.sourceforge.net/DTD/sodipodi-0.dtd"
   xmlns:inkscape="http://www.inkscape.org/namespaces/inkscape"
   version="1.1"
   x="0px"
   y="0px"
   viewBox="0 0 100 100"
   enable-background="new 0 0 100 100"
   xml:space="preserve"
   id="svg2"
   inkscape:version="0.91 r13725"
   sodipodi:docname="Q315_noun_36122_ccLucianDinu_speak.svg"><metadata
     id="metadata16"><rdf:RDF><cc:Work
         rdf:about=""><dc:format>image/svg+xml</dc:format><dc:type
           rdf:resource="http://purl.org/dc/dcmitype/StillImage" /><dc:title></dc:title></cc:Work></rdf:RDF></metadata><defs
     id="defs14" /><sodipodi:namedview
     pagecolor="#ffffff"
     bordercolor="#666666"
     borderopacity="1"
     objecttolerance="10"
     gridtolerance="10"
     guidetolerance="10"
     inkscape:pageopacity="0"
     inkscape:pageshadow="2"
     inkscape:window-width="1680"
     inkscape:window-height="988"
     id="namedview12"
     showgrid="false"
     inkscape:zoom="4.72"
     inkscape:cx="57.598411"
     inkscape:cy="37.629977"
     inkscape:window-x="-8"
     inkscape:window-y="-8"
     inkscape:window-maximized="1"
     inkscape:current-layer="svg2" /><g
     id="g4"><path
       d="M65.864,41.877c1.444-3.13-0.843-14.685-2.648-17.333c1.685-0.602,5.176-4.333-10.593-12.519   C36.854,3.84,17.715,7.21,6.762,21.896c-10.954,14.685,5.898,34.908,8.486,40.806c2.588,5.898,2.468,8.611,2.468,8.611L13.045,92   h37.471c0.362-1,1.194-7.616,1.746-10.928c2.528,0.361,6.938,0.605,11.632,0.845c4.694,0.241,3.053-5.535,4.016-8.861   c-7.959-0.34-10.7-2.324-13.126-6.205c2.528,2.419,11.125,1.106,12.208,0.985c1.083-0.12,0.918-1.769-0.045-3.457   c-0.963-1.688,3.009-4.81,5.537-6.134C75.012,56.921,64.901,45.729,65.864,41.877z"
       id="path6" /><path
       d="M85.493,37.253l-3.946,3.946c6.303,6.303,9.775,14.683,9.775,23.595s-3.472,17.292-9.775,23.593l3.946,3.948   c7.357-7.356,11.409-17.14,11.409-27.541C96.902,54.389,92.851,44.608,85.493,37.253z"
       id="path8" /><path
       d="M78.967,43.3l-3.78,3.782c9.767,9.767,9.767,25.657,0,35.425l3.782,3.781c5.741-5.742,8.902-13.373,8.902-21.494   S84.707,49.04,78.967,43.3z"
       id="path10" /></g></svg>