<?xml version="1.0" encoding="UTF-8" standalone="no"?>
<!-- Created with Inkscape (http://www.inkscape.org/) -->

<svg
   xmlns:dc="http://purl.org/dc/elements/1.1/"
   xmlns:cc="http://creativecommons.org/ns#"
   xmlns:rdf="http://www.w3.org/1999/02/22-rdf-syntax-ns#"
   xmlns:svg="http://www.w3.org/2000/svg"
   xmlns="http://www.w3.org/2000/svg"
   xmlns:sodipodi="http://sodipodi.sourceforge.net/DTD/sodipodi-0.dtd"
   xmlns:inkscape="http://www.inkscape.org/namespaces/inkscape"
   id="svg4385"
   version="1.1"
   inkscape:version="0.91 r13725"
   width="11cm"
   height="7cm"
   viewBox="0 0 389.76379 248.03149"
   sodipodi:docname="spread_spectrum_temp.svg">
  <metadata
     id="metadata4391">
    <rdf:RDF>
      <cc:Work
         rdf:about="">
        <dc:format>image/svg+xml</dc:format>
        <dc:type
           rdf:resource="http://purl.org/dc/dcmitype/StillImage" />
        <dc:title></dc:title>
      </cc:Work>
    </rdf:RDF>
  </metadata>
  <defs
     id="defs4389">
    <marker
       inkscape:stockid="Arrow1Mend"
       orient="auto"
       refY="0"
       refX="0"
       id="Arrow1Mend"
       style="overflow:visible"
       inkscape:isstock="true">
      <path
         id="path6299"
         d="M 0,0 5,-5 -12.5,0 5,5 0,0 Z"
         style="fill:#000000;fill-opacity:1;fill-rule:evenodd;stroke:#000000;stroke-width:1pt;stroke-opacity:1"
         transform="matrix(-0.4,0,0,-0.4,-4,0)"
         inkscape:connector-curvature="0" />
    </marker>
    <marker
       inkscape:stockid="Arrow1Mstart"
       orient="auto"
       refY="0"
       refX="0"
       id="Arrow1Mstart"
       style="overflow:visible"
       inkscape:isstock="true">
      <path
         id="path6296"
         d="M 0,0 5,-5 -12.5,0 5,5 0,0 Z"
         style="fill:#000000;fill-opacity:1;fill-rule:evenodd;stroke:#000000;stroke-width:1pt;stroke-opacity:1"
         transform="matrix(0.4,0,0,0.4,4,0)"
         inkscape:connector-curvature="0" />
    </marker>
  </defs>
  <sodipodi:namedview
     pagecolor="#ffffff"
     bordercolor="#666666"
     borderopacity="1"
     objecttolerance="10"
     gridtolerance="10"
     guidetolerance="10"
     inkscape:pageopacity="0"
     inkscape:pageshadow="2"
     inkscape:window-width="1676"
     inkscape:window-height="1027"
     id="namedview4387"
     showgrid="false"
     showguides="true"
     inkscape:guide-bbox="true"
     inkscape:zoom="2.5185185"
     inkscape:cx="203.88502"
     inkscape:cy="57.585512"
     inkscape:window-x="1920"
     inkscape:window-y="19"
     inkscape:window-maximized="0"
     inkscape:current-layer="svg4385"
     units="cm" />
  <path
     style="fill:none;fill-rule:evenodd;stroke:#000000;stroke-width:1.17465723;stroke-linecap:butt;stroke-linejoin:miter;stroke-miterlimit:4;stroke-dasharray:none;stroke-opacity:1;marker-start:url(#Arrow1Mstart);marker-end:url(#Arrow1Mend)"
     d="m 23.493676,19.622703 0,204.908877 341.899744,0"
     id="path4941"
     inkscape:connector-curvature="0" />
  <path
     style="fill:#d7eef4;fill-rule:evenodd;stroke:#000000;stroke-width:1.17465723;stroke-linecap:butt;stroke-linejoin:miter;stroke-miterlimit:4;stroke-dasharray:none;stroke-opacity:1"
     d="m 48.663402,220.89891 c 2.00725,-0.50693 3.990981,-1.12604 5.96021,-1.78804 2.501159,-0.8408 4.973285,-1.78551 7.429833,-2.77147 2.306164,-0.92558 4.588399,-1.92289 6.858314,-2.95029 2.810506,-1.27208 5.6107,-2.57546 8.368787,-3.97842 1.584003,-0.80571 3.134591,-1.68811 4.694686,-2.54797 2.457074,-1.35427 4.918376,-2.70051 7.348182,-4.11252 2.485978,-1.44463 4.950361,-2.93439 7.396036,-4.45928 2.453685,-1.52988 4.88698,-3.09956 7.30036,-4.70448 2.38807,-1.58807 4.72776,-3.26188 7.10325,-4.87243 1.81759,-1.2323 3.63661,-2.46228 5.47034,-3.66551 2.02994,-1.33196 4.05669,-2.67156 6.12349,-3.93371 2.28604,-1.39601 4.61257,-2.71161 6.93997,-4.02312 3.35489,-1.89047 6.70246,-3.80202 10.12418,-5.54295 2.3107,-1.17567 4.6566,-2.26976 7.02162,-3.30789 2.318,-1.01749 4.66887,-1.94396 7.02159,-2.86087 2.74871,-1.07124 5.50583,-2.11941 8.28713,-3.0844 2.06882,-0.71779 4.15497,-1.37559 6.24598,-2.01156 1.76182,-0.53584 3.51424,-1.12602 5.30701,-1.51984 1.90053,-0.4175 3.83033,-0.66824 5.75815,-0.88952 2.15326,-0.24717 4.31704,-0.37952 6.4798,-0.48854 1.85222,-0.0934 3.70698,-0.11821 5.56104,-0.14178 4.4086,-0.0562 8.82345,-0.24376 13.22674,0 2.9416,0.16281 5.88042,0.48178 8.79105,0.97575 2.37211,0.40257 4.73317,0.9226 7.0484,1.61692 2.60645,0.78165 5.13116,1.86141 7.67478,2.86087 2.06723,0.8123 4.12297,1.66071 6.16432,2.54798 2.46632,1.07199 4.93419,2.14624 7.34819,3.3526 2.58545,1.29203 5.10844,2.73013 7.63396,4.1572 2.15321,1.21669 4.27491,2.49907 6.40927,3.75492 1.71624,1.00984 3.44626,1.99252 5.14374,3.03969 2.12568,1.31129 4.21469,2.69275 6.31069,4.06013 2.42307,1.58077 4.81672,3.21527 7.24265,4.79071 1.9773,1.28409 3.97415,2.53179 5.9602,3.79962 2.5183,1.6076 5.00571,3.27447 7.55231,4.82774 2.18038,1.32989 4.39212,2.59811 6.61338,3.8443 2.29644,1.28835 4.6236,2.51005 6.93995,3.75492 2.17441,1.16859 4.33305,2.37389 6.53174,3.48668 2.97394,1.50519 5.9901,2.90905 9.00505,4.31302 2.17063,1.01081 4.34937,2.0014 6.53992,2.95927 2.4689,1.0796 4.92172,2.21365 7.44144,3.14181 2.18719,0.80566 4.43664,1.39231 6.65131,2.10227 1.74373,0.55899 3.49396,1.09551 5.22538,1.69864 1.45167,0.50567 4.32728,1.60925 4.32728,1.60925 l -315.074325,0.35762 c 0,0 11.041756,-2.02068 16.492617,-3.39732 z"
     id="path6280"
     inkscape:connector-curvature="0"
     sodipodi:nodetypes="aaaaaaaaaaaaaaaaaaaaaaaaaaaaaaaaaaaaaaaaaaacca" />
  <path
     style="fill:#fff6d5;fill-rule:evenodd;stroke:#000000;stroke-width:0.95370418;stroke-linecap:butt;stroke-linejoin:miter;stroke-miterlimit:4;stroke-dasharray:none;stroke-opacity:1"
     d="m 183.22308,224.6095 c 0,0 4.33688,-14.37553 5.67437,-21.74682 1.96946,-10.85427 2.71387,-21.90815 3.42735,-32.91656 2.53072,-39.04675 3.01597,-117.347278 3.01597,-117.347278 0,0 -1.11008,78.708498 1.76012,117.911918 0.78891,10.77553 2.36406,21.49439 4.24166,32.13436 1.30113,7.37321 4.86005,21.92929 4.86005,21.92929 z"
     id="path6284"
     inkscape:connector-curvature="0"
     sodipodi:nodetypes="caacaacc" />
  <flowRoot
     xml:space="preserve"
     id="flowRoot6598"
     style="font-style:normal;font-weight:normal;font-size:40px;line-height:125%;font-family:sans-serif;text-align:center;letter-spacing:0px;word-spacing:0px;text-anchor:middle;fill:#000000;fill-opacity:1;stroke:none;stroke-width:1px;stroke-linecap:butt;stroke-linejoin:miter;stroke-opacity:1"
     transform="translate(0,-101.96852)"><flowRegion
       id="flowRegion6600"><rect
         id="rect6602"
         width="199.32353"
         height="40.5"
         x="289.05884"
         y="38.705883" /></flowRegion><flowPara
       id="flowPara6604">Na</flowPara></flowRoot>  <text
     xml:space="preserve"
     style="font-style:normal;font-weight:normal;font-size:26.10349464px;line-height:125%;font-family:sans-serif;text-align:center;letter-spacing:0px;word-spacing:0px;text-anchor:middle;fill:#000000;fill-opacity:1;stroke:none;stroke-width:1px;stroke-linecap:butt;stroke-linejoin:miter;stroke-opacity:1"
     x="240.36916"
     y="58.302921"
     id="text6606"
     sodipodi:linespacing="125%"
     transform="scale(1.0432832,0.95851252)"><tspan
       sodipodi:role="line"
       id="tspan6608"
       x="240.36916"
       y="58.302921"
       style="font-size:8.97307682px">Narrowband Waveform</tspan></text>
  <text
     xml:space="preserve"
     style="font-style:normal;font-weight:normal;font-size:26.10349464px;line-height:125%;font-family:sans-serif;text-align:center;letter-spacing:0px;word-spacing:0px;text-anchor:middle;fill:#000000;fill-opacity:1;stroke:none;stroke-width:1px;stroke-linecap:butt;stroke-linejoin:miter;stroke-opacity:1"
     x="324.84082"
     y="210.66287"
     id="text6610"
     sodipodi:linespacing="125%"
     transform="scale(1.0432832,0.95851252)"><tspan
       sodipodi:role="line"
       id="tspan6612"
       x="324.84082"
       y="210.66287"
       style="font-size:8.97307682px">Spread Waveform</tspan></text>
  <path
     style="fill:none;fill-rule:evenodd;stroke:#000000;stroke-width:0.65258735;stroke-linecap:butt;stroke-linejoin:miter;stroke-miterlimit:4;stroke-dasharray:1.95776218, 1.95776218;stroke-dashoffset:0;stroke-opacity:1"
     d="m 22.613794,146.78586 332.507046,0"
     id="path6614"
     inkscape:connector-curvature="0" />
  <text
     xml:space="preserve"
     style="font-style:normal;font-weight:normal;font-size:26.10349464px;line-height:125%;font-family:sans-serif;text-align:center;letter-spacing:0px;word-spacing:0px;text-anchor:middle;fill:#000000;fill-opacity:1;stroke:none;stroke-width:1px;stroke-linecap:butt;stroke-linejoin:miter;stroke-opacity:1"
     x="308.77567"
     y="148.99336"
     id="text6616"
     sodipodi:linespacing="125%"
     transform="scale(1.0432832,0.95851252)"><tspan
       sodipodi:role="line"
       id="tspan6618"
       x="308.77567"
       y="148.99336"
       style="font-size:8.97307682px">Noise Level</tspan></text>
  <text
     xml:space="preserve"
     style="font-style:normal;font-weight:normal;font-size:26.10349464px;line-height:125%;font-family:sans-serif;text-align:center;letter-spacing:0px;word-spacing:0px;text-anchor:middle;fill:#000000;fill-opacity:1;stroke:none;stroke-width:1px;stroke-linecap:butt;stroke-linejoin:miter;stroke-opacity:1"
     x="-142.81062"
     y="14.485245"
     id="text6620"
     sodipodi:linespacing="125%"
     transform="matrix(0,-0.95851252,1.0432832,0,0,0)"><tspan
       sodipodi:role="line"
       id="tspan6622"
       x="-142.81062"
       y="14.485245"
       style="font-size:12.49999994px">Power Spectral Density</tspan></text>
  <text
     xml:space="preserve"
     style="font-style:normal;font-weight:normal;font-size:26.10349464px;line-height:125%;font-family:sans-serif;text-align:center;letter-spacing:0px;word-spacing:0px;text-anchor:middle;fill:#000000;fill-opacity:1;stroke:none;stroke-width:1px;stroke-linecap:butt;stroke-linejoin:miter;stroke-opacity:1"
     x="193.21011"
     y="252.12138"
     id="text6624"
     sodipodi:linespacing="125%"
     transform="scale(1.0432832,0.95851252)"><tspan
       sodipodi:role="line"
       id="tspan6626"
       x="193.21011"
       y="252.12138"
       style="font-size:12.49999994px">Frequency</tspan></text>
</svg>
