<?xml version="1.0" encoding="UTF-8" standalone="no"?>
<svg
   xmlns:dc="http://purl.org/dc/elements/1.1/"
   xmlns:cc="http://creativecommons.org/ns#"
   xmlns:rdf="http://www.w3.org/1999/02/22-rdf-syntax-ns#"
   xmlns:svg="http://www.w3.org/2000/svg"
   xmlns="http://www.w3.org/2000/svg"
   xmlns:xlink="http://www.w3.org/1999/xlink"
   xmlns:sodipodi="http://sodipodi.sourceforge.net/DTD/sodipodi-0.dtd"
   xmlns:inkscape="http://www.inkscape.org/namespaces/inkscape"
   version="1.1"
   viewBox="-50 -175 566.92915 265.74804"
   id="svg2"
   inkscape:version="0.91 r13725"
   sodipodi:docname="Time_Chirp.svg"
   width="16cm"
   height="7.5cm">
  <metadata
     id="metadata90">
    <rdf:RDF>
      <cc:Work
         rdf:about="">
        <dc:format>image/svg+xml</dc:format>
        <dc:type
           rdf:resource="http://purl.org/dc/dcmitype/StillImage" />
        <dc:title>Linear Chirp</dc:title>
      </cc:Work>
    </rdf:RDF>
  </metadata>
  <sodipodi:namedview
     pagecolor="#ffffff"
     bordercolor="#666666"
     borderopacity="1"
     objecttolerance="10"
     gridtolerance="10"
     guidetolerance="10"
     inkscape:pageopacity="0"
     inkscape:pageshadow="2"
     inkscape:window-width="1676"
     inkscape:window-height="1027"
     id="namedview88"
     showgrid="false"
     units="cm"
     inkscape:zoom="1.6970563"
     inkscape:cx="285.34051"
     inkscape:cy="-18.930736"
     inkscape:window-x="1920"
     inkscape:window-y="19"
     inkscape:window-maximized="0"
     inkscape:current-layer="svg2" />
  <title
     id="title4">Linear Chirp</title>
  <desc
     id="desc6">

Linear Chirp

  y(x) = 2*sin (2*pi*(0.1+x)*x)
  x in [0, 25]

</desc>
  <defs
     id="defs8">
    <!-- TeX cmr -->
    <path
       id="minus"
       d="m 6.59375,-2.296875 c 0.140625,0 0.328125,0 0.328125,-0.203125 0,-0.1875 -0.1875,-0.1875 -0.328125,-0.1875 l -5.4375,0 c -0.140625,0 -0.328125,0 -0.328125,0.1875 0,0.203125 0.1875,0.203125 0.328125,0.203125 l 5.4375,0 z m 0,0"
       inkscape:connector-curvature="0" />
    <path
       id="d0"
       d="m 4.578125,-3.1875 c 0,-0.796875 -0.046875,-1.59375 -0.390625,-2.328125 -0.453125,-0.96875 -1.28125,-1.125 -1.6875,-1.125 -0.609375,0 -1.328125,0.265625 -1.75,1.1875 -0.3125,0.6875 -0.359375,1.46875 -0.359375,2.265625 0,0.75 0.03125,1.640625 0.453125,2.40625 0.421875,0.796875 1.15625,1 1.640625,1 0.53125,0 1.296875,-0.203125 1.734375,-1.15625 0.3125,-0.6875 0.359375,-1.46875 0.359375,-2.25 z M 2.484375,0 C 2.09375,0 1.5,-0.25 1.328125,-1.203125 1.21875,-1.796875 1.21875,-2.71875 1.21875,-3.3125 c 0,-0.640625 0,-1.296875 0.078125,-1.828125 0.1875,-1.1875 0.9375,-1.28125 1.1875,-1.28125 0.328125,0 0.984375,0.1875 1.171875,1.171875 0.109375,0.5625 0.109375,1.3125 0.109375,1.9375 0,0.75 0,1.421875 -0.109375,2.0625 C 3.5,-0.296875 2.9375,0 2.484375,0 Z m 0,0"
       inkscape:connector-curvature="0" />
    <path
       id="d1"
       d="m 2.9375,-6.375 c 0,-0.25 0,-0.265625 -0.234375,-0.265625 C 2.078125,-6 1.203125,-6 0.890625,-6 l 0,0.3125 c 0.203125,0 0.78125,0 1.296875,-0.265625 l 0,5.171875 c 0,0.359375 -0.03125,0.46875 -0.921875,0.46875 l -0.3125,0 0,0.3125 c 0.34375,-0.03125 1.203125,-0.03125 1.609375,-0.03125 0.390625,0 1.265625,0 1.609375,0.03125 l 0,-0.3125 -0.3125,0 c -0.90625,0 -0.921875,-0.109375 -0.921875,-0.46875 l 0,-5.59375 z m 0,0"
       inkscape:connector-curvature="0" />
    <path
       id="d2"
       d="m 4.46875,-1.734375 -0.234375,0 C 4.171875,-1.4375 4.109375,-1 4,-0.84375 3.9375,-0.765625 3.28125,-0.765625 3.0625,-0.765625 l -1.796875,0 1.0625,-1.03125 c 1.546875,-1.375 2.140625,-1.90625 2.140625,-2.90625 0,-1.140625 -0.890625,-1.9375 -2.109375,-1.9375 -1.125,0 -1.859375,0.921875 -1.859375,1.8125 0,0.546875 0.5,0.546875 0.53125,0.546875 0.171875,0 0.515625,-0.109375 0.515625,-0.53125 0,-0.25 -0.1875,-0.515625 -0.53125,-0.515625 -0.078125,0 -0.09375,0 -0.125,0.015625 0.21875,-0.65625 0.765625,-1.015625 1.34375,-1.015625 0.90625,0 1.328125,0.8125 1.328125,1.625 C 3.5625,-3.90625 3.078125,-3.125 2.515625,-2.5 l -1.90625,2.125 C 0.5,-0.265625 0.5,-0.234375 0.5,0 L 4.203125,0 4.46875,-1.734375 Z m 0,0"
       inkscape:connector-curvature="0" />
    <path
       id="d3"
       d="m 2.890625,-3.515625 c 0.8125,-0.265625 1.390625,-0.953125 1.390625,-1.75 0,-0.8125 -0.875,-1.375 -1.828125,-1.375 -1,0 -1.765625,0.59375 -1.765625,1.359375 0,0.328125 0.21875,0.515625 0.515625,0.515625 0.296875,0 0.5,-0.21875 0.5,-0.515625 0,-0.484375 -0.46875,-0.484375 -0.609375,-0.484375 0.296875,-0.5 0.953125,-0.625 1.3125,-0.625 0.421875,0 0.96875,0.21875 0.96875,1.109375 0,0.125 -0.03125,0.703125 -0.28125,1.140625 C 2.796875,-3.65625 2.453125,-3.625 2.203125,-3.625 2.125,-3.609375 1.890625,-3.59375 1.8125,-3.59375 c -0.078125,0.015625 -0.140625,0.03125 -0.140625,0.125 0,0.109375 0.0625,0.109375 0.234375,0.109375 l 0.4375,0 c 0.8125,0 1.1875,0.671875 1.1875,1.65625 0,1.359375 -0.6875,1.640625 -1.125,1.640625 -0.4375,0 -1.1875,-0.171875 -1.53125,-0.75 0.34375,0.046875 0.65625,-0.171875 0.65625,-0.546875 0,-0.359375 -0.265625,-0.5625 -0.546875,-0.5625 -0.25,0 -0.5625,0.140625 -0.5625,0.578125 0,0.90625 0.921875,1.5625 2.015625,1.5625 1.21875,0 2.125,-0.90625 2.125,-1.921875 0,-0.8125 -0.640625,-1.59375 -1.671875,-1.8125 z m 0,0"
       inkscape:connector-curvature="0" />
    <path
       id="d4"
       d="m 0.28125,-1.640625 2.65625,0 0,0.859375 c 0,0.359375 -0.03125,0.46875 -0.765625,0.46875 l -0.203125,0 0,0.3125 C 2.375,-0.03125 2.890625,-0.03125 3.3125,-0.03125 c 0.421875,0 0.9375,0 1.359375,0.03125 l 0,-0.3125 -0.21875,0 c -0.734375,0 -0.75,-0.109375 -0.75,-0.46875 l 0,-0.859375 0.984375,0 0,-0.3125 -0.984375,0 0,-4.53125 c 0,-0.203125 0,-0.265625 -0.171875,-0.265625 -0.078125,0 -0.109375,0 -0.1875,0.125 l -3.0625,4.671875 0,0.3125 z m 2.703125,-0.3125 -2.421875,0 2.421875,-3.71875 0,3.71875 z m 0,0"
       inkscape:connector-curvature="0" />
    <path
       id="d5"
       d="m 4.46875,-2 c 0,-1.1875 -0.8125,-2.1875 -1.890625,-2.1875 -0.46875,0 -0.90625,0.15625 -1.265625,0.515625 l 0,-1.953125 c 0.203125,0.0625 0.53125,0.125 0.84375,0.125 1.234375,0 1.9375,-0.90625 1.9375,-1.03125 0,-0.0625 -0.03125,-0.109375 -0.109375,-0.109375 0,0 -0.03125,0 -0.078125,0.03125 C 3.703125,-6.515625 3.21875,-6.3125 2.546875,-6.3125 2.15625,-6.3125 1.6875,-6.390625 1.21875,-6.59375 1.140625,-6.625 1.125,-6.625 1.109375,-6.625 1,-6.625 1,-6.546875 1,-6.390625 L 1,-3.4375 c 0,0.171875 0,0.25 0.140625,0.25 0.078125,0 0.09375,-0.015625 0.140625,-0.078125 C 1.390625,-3.421875 1.75,-3.96875 2.5625,-3.96875 c 0.515625,0 0.765625,0.453125 0.84375,0.640625 0.15625,0.375 0.1875,0.75 0.1875,1.25 0,0.359375 0,0.953125 -0.25,1.375 C 3.109375,-0.3125 2.734375,-0.0625 2.28125,-0.0625 c -0.71875,0 -1.296875,-0.53125 -1.46875,-1.109375 0.03125,0 0.0625,0.015625 0.171875,0.015625 0.328125,0 0.5,-0.25 0.5,-0.484375 0,-0.25 -0.171875,-0.5 -0.5,-0.5 C 0.84375,-2.140625 0.5,-2.0625 0.5,-1.609375 0.5,-0.75 1.1875,0.21875 2.296875,0.21875 3.453125,0.21875 4.46875,-0.734375 4.46875,-2 Z m 0,0"
       inkscape:connector-curvature="0" />
    <path
       id="dots"
       d="M 0,0 5,0"
       inkscape:connector-curvature="0" />
    <path
       id="tick-x"
       d="M 0,0 6,0"
       inkscape:connector-curvature="0" />
    <path
       id="tick-y"
       d="M 0,0 0,-6"
       inkscape:connector-curvature="0" />
    <g
       id="ticks-x">
      <use
         xlink:href="#tick-x"
         id="use21"
         x="0"
         y="0"
         width="100%"
         height="100%" />
      <use
         xlink:href="#tick-x"
         y="110"
         id="use23"
         x="0"
         width="100%"
         height="100%" />
      <use
         xlink:href="#tick-x"
         y="-110"
         id="use25"
         x="0"
         width="100%"
         height="100%" />
    </g>
    <g
       id="ticks-y">
      <use
         xlink:href="#tick-y"
         x="100"
         id="use28"
         y="0"
         width="100%"
         height="100%" />
      <use
         xlink:href="#tick-y"
         x="200"
         id="use30"
         y="0"
         width="100%"
         height="100%" />
      <use
         xlink:href="#tick-y"
         x="300"
         id="use32"
         y="0"
         width="100%"
         height="100%" />
      <use
         xlink:href="#tick-y"
         x="400"
         id="use34"
         y="0"
         width="100%"
         height="100%" />
    </g>
    <style
       type="text/css"
       id="style36">
.graph { stroke-linejoin:round; stroke-width:0.01; stroke:blue; fill:none }
.dots { stroke:black; stroke-width:0.006; stroke-dasharray:0.01 0.01 }
.text { stroke:none; fill:black;}
.tick { stroke:black; stroke-width:2; }
.frame{ stroke:black; stroke-width:0.01; fill:none }
</style>
  </defs>
  <!-- Background -->
  <!-- Scales for x-Axis -->
  <!-- Scales for y-Axis -->
  <use
     height="100%"
     width="100%"
     y="0"
     x="0"
     style="stroke:#000000;stroke-width:2"
     id="use66"
     xlink:href="#ticks-x"
     transform="matrix(1.0004276,0,0,0.63336633,-16.606145,-58.575951)" />
  <use
     height="100%"
     width="100%"
     y="0"
     x="0"
     style="stroke:#000000;stroke-width:2"
     id="use68"
     transform="matrix(-1.0004276,0,0,-0.63336633,483.60769,-58.575951)"
     xlink:href="#ticks-x" />
  <use
     height="100%"
     width="100%"
     y="0"
     x="0"
     style="stroke:#000000;stroke-width:2"
     id="use70"
     transform="matrix(1.0004276,0,0,0.63336633,-16.606145,38.962467)"
     xlink:href="#ticks-y" />
  <use
     height="100%"
     width="100%"
     y="0"
     x="0"
     style="stroke:#000000;stroke-width:2"
     id="use72"
     transform="matrix(1.0004276,0,0,-0.63336633,-16.606145,-156.11436)"
     xlink:href="#ticks-y" />
  <g
     style="stroke:#000000;stroke-width:0.006;stroke-dasharray:0.01, 0.01"
     id="g76"
     class="dots"
     transform="matrix(100.04276,0,0,-69.6703,-16.606145,-58.575951)">
    <use
       height="100%"
       width="100%"
       x="0"
       id="use78"
       y="-1"
       xlink:href="#dots" />
    <use
       height="100%"
       width="100%"
       y="0"
       x="0"
       id="use80"
       xlink:href="#dots" />
    <use
       height="100%"
       width="100%"
       x="0"
       id="use82"
       y="1"
       xlink:href="#dots" />
  </g>
  <path
     style="fill:none;stroke:#000000;stroke-width:0.83486575"
     inkscape:connector-curvature="0"
     id="path84"
     d="m -16.606145,38.962467 500.213835,0 0,-195.076827 -500.213835,0 z"
     class="frame" />
  <path
     style="fill:none;stroke:#ff0000;stroke-width:0.83501798;stroke-linejoin:round;stroke-miterlimit:4;stroke-dasharray:none"
     inkscape:connector-curvature="0"
     id="path86"
     d="m -16.606145,-58.575951 c 0.960405,-0.418023 10.2443739,-4.486765 31.263363,-50.455229 5.802482,-12.69392 9.564087,-18.10034 12.945526,-19.06178 3.721591,-1.05899 6.952973,3.5671 9.944254,12.41523 3.011291,8.94567 5.772469,22.196964 8.373581,36.8765 2.611109,14.742226 5.052158,30.891806 7.383157,45.11848 2.340997,14.331182 4.551937,26.6001102 6.672844,34.50769563 2.130915,7.94938237 4.161788,11.44682937 6.132632,9.90711737 1.970834,-1.5466793 3.871651,-8.1444527 5.712438,-18.4138604 1.840777,-10.2903006 3.631554,-24.2104266 5.362291,-38.9805366 1.740745,-14.791002 3.421462,-30.376242 5.072174,-43.690234 1.650701,-13.341862 3.26138,-24.321902 4.822058,-30.856972 1.580675,-6.54902 3.111328,-8.59731 4.611967,-5.7896 1.510647,2.80771 2.981281,10.45751 4.421901,21.43755 1.450608,11.000932 2.871221,25.276381 4.261809,40.046479 1.3906,14.777077 2.7612,30.000028 4.10176,42.735765 1.35058,12.735727 2.67114,22.90062567 3.9717,28.5717916 1.30055,5.6711544 2.58111,6.8067794 3.85165,3.2187601 1.26053,-3.5949857 2.51107,-11.8996909 3.7316,-23.3116797 1.23052,-11.425937 2.44102,-25.896446 3.64155,-40.638683 1.1905,-14.742236 2.37101,-29.707415 3.53151,-42.02512 1.1705,-12.324683 2.32098,-21.932213 3.46147,-27.011173 1.13049,-5.08593 2.26098,-5.61543 3.37144,-1.50489 1.11047,4.11753 2.20095,12.85418 3.29142,24.53788 1.09046,11.697646 2.16092,26.286609 3.22137,40.987038 1.07045,14.693473 2.1209,29.470539 3.16136,41.495633 1.04044,12.0320501 2.07088,21.2424688 3.09132,25.9243156 1.03043,4.6818464 2.04087,4.8002904 3.04129,0.3413867 1.00043,-4.4589052 2.00086,-13.481211 2.98127,-25.3390943 0.98042,-11.87181 1.96085,-26.537411 2.93126,-41.182108 0.96041,-14.644696 1.92082,-29.282424 2.87122,-41.112447 0.95042,-11.823044 1.90082,-20.775674 2.83122,-25.185804 0.9404,-4.41709 1.8708,-4.25685 2.79119,0.42498 0.92039,4.68185 1.83078,13.87136 2.74117,25.833748 0.9104,11.997231 1.81078,26.711596 2.70115,41.286625 0.89038,14.561091 1.77077,29.129141 2.66114,40.847689 0.88038,11.6837057 1.75075,20.4691336 2.62112,24.7120538 0.87038,4.2498872 1.73074,3.9363722 2.59111,-0.877843 0.85038,-4.8142159 1.70072,-14.1012719 2.55109,-26.1124288 0.84036,-11.941489 1.67072,-26.523485 2.52108,-41.321455 0.84035,-14.846735 1.67071,-29.163981 2.48106,-40.673509 0.83036,-11.60707 1.6407,-20.30193 2.46105,-24.46125 0.81035,-4.16629 1.6207,-3.77613 2.42103,1.09382 0.81036,4.86996 1.61069,14.18488 2.40104,26.209974 0.79034,12.011157 1.58067,26.655854 2.37101,41.30055 0.79034,14.651664 1.57067,29.03858 2.341,40.58295 0.78034,11.5791978 1.55067,20.2461825 2.32099,24.3915717 0.77033,4.1453793 1.53065,3.7482593 2.29098,-1.1147307 0.76033,-4.8629816 1.51065,-14.163963 2.27097,-26.168162 0.75033,-11.983296 1.49063,-26.60708 2.24096,-41.223915 0.75032,-14.63076 1.49064,-29.017675 2.22095,-40.569008 0.74031,-11.58617 1.47063,-20.27406 2.20094,-24.46125 0.73031,-4.18021 1.45062,-3.83882 2.18094,0.96145 0.7203,4.80028 1.44061,14.04553 2.15091,25.993986 0.72031,11.927564 1.43061,26.488656 2.14092,41.126384 0.71029,14.658633 1.4206,29.031612 2.12091,40.610812 0.70029,11.6210048 1.40058,20.3785719 2.09089,24.6493529 0.70029,4.2707911 1.39059,4.0339131 2.08088,-0.6688361 0.69031,-4.7027408 1.3806,-13.8365229 2.06089,-25.7153108 0.6903,-11.920584 1.37058,-26.544378 2.05088,-40.987036 0.67028,-14.43568 1.35057,-28.954974 2.02086,-40.694412 0.67028,-11.69068 1.34057,-20.55273 2.01085,-24.94893 0.67029,-4.3962 1.33057,-4.30563 1.99086,0.25081 0.66027,4.55643 1.32055,13.5648 1.98084,25.346051 0.66028,11.788215 1.31057,26.300542 1.96084,40.812858 0.65028,14.512327 1.30056,29.024644 1.95083,40.81286 0.64028,11.7742787 1.29055,20.7756917 1.93083,25.3390833 0.64027,4.5564447 1.28055,4.6539847 1.91081,0.2717178 0.64029,-4.3822568 1.27055,-13.2234188 1.90082,-24.8792641 0.64028,-11.669771 1.27054,-26.098494 1.89081,-40.610811 0.63027,-14.512327 1.25053,-29.066451 1.88081,-40.959164 0.62026,-11.885751 1.24052,-21.047401 1.86078,-25.805881 0.62027,-4.75151 1.23053,-5.072 1.8508,-0.89875 0.61027,4.17325 1.22052,12.8263 1.83078,24.3428 0.61026,11.523465 1.22052,25.868583 1.82078,40.366973 0.61026,14.50536 1.21052,29.115217 1.81077,41.126375 0.60026,12.0111567 1.20052,21.3678814 1.80078,26.3423381 0.60025,4.9744669 1.1905,5.5457539 1.79076,1.6093914 0.59025,-3.9433405 1.18049,-12.3664795 1.77076,-23.7297135 0.59028,-11.363226 1.18046,-25.603835 1.77074,-40.08828 0.58029,-14.491423 1.17047,-29.163992 1.75077,-41.307519 0.5802,-12.150505 1.16049,-21.716235 1.74078,-26.934535 0.5802,-5.21831 1.16049,-6.06829 1.73071,-2.3897 0.5802,3.67163 1.15051,11.85789 1.72073,23.03997 0.57021,11.182076 1.14052,25.31122 1.71074,39.774771 0.57022,14.463552 1.14044,29.205789 1.70067,41.495632 0.57031,12.2968102 1.13055,22.08548339 1.69079,27.5685364 0.56022,5.4900196 1.12046,6.6395806 1.68069,3.2536002 0.56024,-3.3929381 1.12048,-11.3074915 1.67073,-22.2944896 0.56023,-10.987009 1.11048,-24.983773 1.66073,-39.419454 0.55017,-14.435689 1.10042,-29.240628 1.65067,-41.690711 0.55025,-12.450075 1.1005,-22.475635 1.65066,-28.244325 0.54028,-5.76871 1.09053,-7.24572 1.6307,-4.1663 0.54027,3.07944 1.08053,10.70833 1.62072,21.47936 0.54027,10.771024 1.08044,24.628449 1.62071,39.022333 0.54027,14.40085 1.07046,29.268488 1.61064,41.878814 0.53029,12.603358 1.06048,22.8866903 1.60075,28.9549747 0.5302,6.0682853 1.06039,7.8936403 1.59068,5.141666 0.53019,-2.7519727 1.05041,-10.07432586 1.58069,-20.6084717 0.53019,-10.534147 1.0504,-24.2383 1.57062,-38.583408 0.53028,-14.352085 1.0505,-29.282435 1.5707,-42.052992 0.52022,-12.770566 1.04042,-23.311676 1.56064,-29.693476 0.52021,-6.3818 1.03043,-8.56946 1.55065,-6.16583 0.52022,2.40363 1.03044,9.3846 1.54067,19.66792 0.52021,10.283343 1.03044,23.813319 1.54066,38.109661 0.51023,14.296343 1.02046,29.282425 1.53069,42.213233 0.51022,12.930808 1.01038,23.7366723 1.52061,30.4459227 0.50025,6.7092391 1.01048,9.2800773 1.51063,7.2387373 0.51023,-2.0343704 1.01048,-8.6669838 1.51072,-18.678609 0.50016,-10.011626 1.0004,-23.353479 1.50065,-37.580153 0.50015,-14.226683 1.00039,-29.261531 1.49057,-42.35257 0.50025,-13.098022 0.99042,-24.175602 1.49066,-31.219262 0.49017,-7.04367 0.99042,-10.01162 1.48059,-8.36043 0.49026,1.65815 0.98043,7.9215 1.47069,17.64051 0.49017,9.72598 0.98044,22.865791 1.47061,37.00887 0.49017,14.143058 0.97045,29.219713 1.46062,42.471004 0.48019,13.258258 0.97045,24.6145149 1.45064,31.9995691 0.49017,7.3850439 0.97036,10.7570889 1.45064,9.5030309 0.48018,-1.247102 0.96038,-7.1272731 1.44056,-16.539731 0.48019,-9.419425 0.96047,-22.336298 1.44066,-36.381827 0.4702,-14.052496 0.95039,-29.163991 1.43058,-42.568554 0.47021,-13.404564 0.9504,-25.039502 1.4206,-32.779872 0.47021,-7.7334 0.95039,-11.52346 1.4206,-10.68742 0.4702,0.83604 0.94041,6.30516 1.41061,15.39713 0.47021,9.09894 0.94041,21.771967 1.41062,35.712997 0.46022,13.941021 0.93043,29.066441 1.40063,42.624288 0.46013,13.557838 0.93034,25.4644867 1.39056,33.55321708 0.46022,8.08871962 0.93042,12.31770392 1.39056,11.90664992 0.46022,-0.411056 0.92045,-5.4551925 1.38066,-14.2057707 0.46014,-8.7575673 0.92036,-21.1728113 1.38058,-34.9884313 0.46013,-13.815618 0.92036,-28.954974 1.3706,-42.652149 0.46012,-13.697184 0.92035,-25.882521 1.37059,-34.326561 0.46012,-8.44403 0.91036,-13.11194 1.37058,-13.13981 0.45016,-0.0278 0.90031,4.57037 1.35055,12.96563 0.45014,8.39528 0.91036,20.538817 1.35053,34.215089 0.45023,13.669312 0.90039,28.808669 1.35062,42.631255 0.45016,13.836523 0.90038,26.286596 1.34056,35.0929286 0.45023,8.8063223 0.90038,13.9131594 1.34054,14.3938824 0.45024,0.487692 0.89041,-3.6646554 1.33057,-11.67673858 0.45024,-8.01906102 0.89041,-19.86996742 1.33057,-33.38600742 0.44026,-13.51604 0.88042,-28.634492 1.32059,-42.58248 0.45024,-13.954968 0.88042,-26.669789 1.32059,-35.831439 0.44017,-9.1686 0.88033,-14.72829 1.32058,-15.67581 0.43018,-0.94054 0.87035,2.73107 1.31051,10.35996 0.43018,7.62193 0.87035,19.159335 1.30053,32.501197 0.43019,13.341863 0.87044,28.418518 1.30062,42.484951 0.43018,14.059455 0.86036,27.039037 1.30053,36.5560033 0.43019,9.523924 0.86037,15.5364751 1.29055,16.9577537 0.43018,1.414299 0.85038,-1.7766002 1.28056,-8.9944455 0.43018,-7.210867 0.86036,-18.4208175 1.28056,-31.5676005 0.43018,-13.146792 0.86036,-28.174672 1.28057,-42.331676 0.43018,-14.163973 0.85028,-27.387392 1.28047,-37.259673 0.4202,-9.87228 0.84039,-16.35163 1.27058,-18.24665 0.42019,-1.90201 0.84039,0.79424 1.2605,7.58709 0.4202,6.78589 0.8404,17.64052 1.2606,30.578295 0.4202,12.937777 0.84031,27.889019 1.2605,42.136597 0.42021,14.24061 0.8404,27.707875 1.25053,37.9285063 0.42019,10.22759943 0.8404,17.1667588 1.25052,19.5494837 0.4202,2.382727 0.83041,0.202049 1.25053,-6.1518886 0.41021,-6.3469595 0.82042,-16.8323414 1.24062,-29.5332284 0.41013,-12.707866 0.82025,-27.575515 1.23047,-41.885793 0.42019,-14.317247 0.83032,-28.007453 1.24053,-38.576442 0.41022,-10.56898 0.82035,-17.96099 1.23047,-20.83838 0.41022,-2.87738 0.82043,-1.21923 1.22057,4.67488 0.41013,5.88714 0.82034,15.98236 1.23056,28.43941 0.40015,12.457052 0.81027,27.213214 1.2105,41.579236 0.41022,14.366011 0.81035,28.272202 1.22048,39.175606 0.40024,10.9103628 0.81045,18.7691836 1.21059,22.1412176 0.40015,3.3720444 0.80029,2.2433874 1.2105,-3.1769632 0.40014,-5.41338448 0.80029,-15.1045275 1.20052,-27.2898514 0.40014,-12.185345 0.80028,-26.816106 1.20051,-41.216957 0.40015,-14.40084 0.80037,-28.50908 1.20052,-39.739938 0.40014,-11.23781 0.7903,-19.54948 1.19054,-23.42316 0.40013,-3.88062 0.79029,-3.29538 1.19043,1.63726 0.40024,4.93266 0.7904,14.19881 1.19054,26.091524 0.39016,11.899691 0.78032,26.370211 1.18046,40.798933 0.39015,14.421744 0.79039,28.71113 1.18055,40.262457 0.39016,11.5583046 0.78032,20.3228291 1.17048,24.6981293 0.40023,4.3752887 0.79039,4.3474167 1.18055,-0.083642 0.39015,-4.4380011 0.78031,-13.2513009 1.17047,-24.8374683 0.39015,-11.593134 0.77033,-25.903412 1.16049,-40.318199 0.39016,-14.414776 0.78032,-28.87137 1.17048,-40.736222 0.38017,-11.864852 0.77033,-21.082232 1.16049,-25.959162 0.38017,-4.88388 0.77033,-5.41337 1.15052,-1.49093 0.39015,3.92244 0.77033,12.2759 1.16049,23.53462 0.38017,11.258729 0.76035,25.373926 1.15051,39.767809 0.38017,14.393883 0.76034,29.003751 1.14052,41.168181 0.39007,12.1574638 0.77024,21.81376695 1.15042,27.1992791 0.38018,5.3855129 0.76035,6.4793389 1.14053,3.0794234 0.38017,-3.3929381 0.76035,-11.2656839 1.14043,-22.1760565 0.38018,-10.910362 0.75037,-24.809585 1.13055,-39.161661 0.38017,-14.359053 0.76026,-29.101291 1.13045,-41.544406 0.38017,-12.443119 0.76035,-22.524399 1.13045,-28.411539 0.38018,-5.89412 0.75037,-7.55922 1.13054,-4.69578 0.37011,2.85648 0.75028,10.23457 1.12047,20.77568 0.38018,10.541113 0.75029,24.203458 1.12047,38.492833 0.38018,14.296352 0.75037,29.150055 1.12048,41.857911 0.37018,12.707866 0.74028,23.2141513 1.11048,29.6098867 0.38018,6.3887563 0.75028,8.6251763 1.12047,6.3121293 0.37019,-2.313056 0.74029,-9.1686212 1.11048,-19.3265421 0.36013,-10.1509629 0.73031,-23.5555269 1.1005,-37.7612979 0.37011,-14.20578 0.7403,-29.150055 1.1104,-42.108724 0.36021,-12.965646 0.7304,-23.882986 1.10051,-30.766416 0.36012,-6.89038 0.73031,-9.71203 1.09052,-7.94938 0.3701,1.7557 0.73022,8.08176 1.10041,17.82863 0.3602,9.74689 0.73031,22.858826 1.09043,36.960098 0.3702,14.101272 0.7304,29.115215 1.09053,42.310763 0.36011,13.202526 0.7303,24.5169854 1.09042,31.8950718 0.36021,7.3780764 0.72033,10.7779922 1.08044,9.5866342 0.3702,-1.198335 0.73041,-6.9739983 1.09053,-16.2958839 0.36011,-9.3149181 0.72033,-22.1272921 1.08044,-36.0961841 0.35014,-13.968902 0.71034,-29.031611 1.07047,-42.443142 0.36011,-13.4185 0.72033,-25.116137 1.08044,-32.981917 0.35014,-7.85882 0.71034,-11.84395 1.07047,-11.22389 0.3602,0.62007 0.71034,5.84535 1.07046,14.71437 0.35013,8.86903 0.71035,21.353941 1.06047,35.162591 0.36013,13.815629 0.71027,28.90621 1.07047,42.51978 0.35014,13.613581 0.71025,25.680482 1.06039,34.0200053 0.35023,8.3395443 0.71035,12.9029457 1.06048,12.8611487 0.35013,-0.04187 0.71035,-4.6888132 1.06049,-13.0980165 0.35012,-8.4022455 0.70026,-20.5248785 1.0504,-34.1663205 0.35013,-13.634475 0.70036,-28.725055 1.0505,-42.512813 0.36011,-13.794714 0.70027,-26.216935 1.05041,-35.023255 0.35021,-8.80633 0.70035,-13.948 1.05049,-14.49142 0.35013,-0.54342 0.70027,3.51835 1.05041,11.43987 0.35013,7.92151 0.69028,19.674881 1.04042,33.107316 0.35023,13.439394 0.69037,28.495144 1.04051,42.443144 0.35014,13.947989 0.69029,26.711586 1.04042,35.9777394 0.34016,9.259184 0.69029,14.9791144 1.03045,16.1077706 0.35013,1.128657 0.69028,-2.3269818 1.04042,-9.7538327 0.34015,-7.4198937 0.69028,-18.7691823 1.03044,-31.9786753 0.34015,-13.209484 0.69029,-28.223438 1.03044,-42.303796 0.34015,-14.080368 0.6803,-27.164456 1.03044,-36.869526 0.34015,-9.71204 0.68031,-15.9963 1.02046,-17.71715 0.34014,-1.72085 0.6803,1.12865 1.02036,8.03298 0.34024,6.90432 0.6804,17.82863 1.02055,30.7873 0.34007,12.965647 0.68021,27.895987 1.02036,42.087831 0.34016,14.191845 0.68031,27.575505 1.02046,37.7194909 0.34016,10.1370269 0.67032,16.9856241 1.01048,19.3056481 0.34014,2.313047 0.68021,0.08363 1.01038,-6.2842585 0.34015,-6.3748412 0.6803,-16.8532545 1.01047,-29.5402165 0.34007,-12.686953 0.67023,-27.519762 1.01039,-41.79521 0.34015,-14.282407 0.67032,-27.944753 1.01046,-38.499805 0.33009,-10.56202 0.67032,-17.96797 1.0004,-20.88019 0.33017,-2.90523 0.67024,-1.30283 1.00041,4.51464 0.33016,5.82444 0.67032,15.83605 1.0004,28.223436 0.33016,12.387373 0.67032,27.087813 1.00049,41.432931 0.33016,14.345107 0.66024,28.258266 0.99041,39.217403 0.33017,10.9661061 0.66034,18.9224568 1.0004,22.4199027 0.33017,3.5044143 0.66034,2.5429663 0.99051,-2.7171427 0.33008,-5.2601112 0.66025,-14.7840349 0.99032,-26.850926 0.33017,-12.059932 0.65037,-26.607089 0.98045,-40.987036 0.33016,-14.379957 0.66024,-28.529984 0.99041,-39.879278 0.33017,-11.34232 0.65035,-19.83514 0.98043,-23.93175 0.33017,-4.0966 0.66034,-3.76917 0.98043,0.91269 0.33017,4.68183 0.66025,13.69717 0.98044,25.415717 0.33017,11.718546 0.65026,26.091525 0.98043,40.464504"
     class="graph" />
  <text
     xml:space="preserve"
     style="font-style:normal;font-weight:normal;font-size:40px;line-height:125%;font-family:sans-serif;text-align:center;letter-spacing:0px;word-spacing:0px;text-anchor:middle;fill:#000000;fill-opacity:1;stroke:none;stroke-width:1px;stroke-linecap:butt;stroke-linejoin:miter;stroke-opacity:1"
     x="237.01604"
     y="63.874981"
     id="text4238"
     sodipodi:linespacing="125%"><tspan
       sodipodi:role="line"
       id="tspan4240"
       x="237.01604"
       y="63.874981"
       style="font-style:normal;font-variant:normal;font-weight:500;font-stretch:normal;font-size:17.50000209px;font-family:'CMU Serif';-inkscape-font-specification:'CMU Serif Medium'">Tempo</tspan></text>
  <text
     xml:space="preserve"
     style="font-style:normal;font-weight:normal;font-size:40px;line-height:125%;font-family:sans-serif;text-align:center;letter-spacing:0px;word-spacing:0px;text-anchor:middle;fill:#000000;fill-opacity:1;stroke:none;stroke-width:1px;stroke-linecap:butt;stroke-linejoin:miter;stroke-opacity:1"
     x="46.019917"
     y="-25.098408"
     id="text4242"
     sodipodi:linespacing="125%"
     transform="matrix(0,-1,1,0,0,0)"><tspan
       sodipodi:role="line"
       id="tspan4244"
       x="46.019913"
       y="-25.098408"
       style="font-size:17.50000209px;-inkscape-font-specification:'CMU Serif Medium';font-family:'CMU Serif';font-weight:500;font-style:normal;font-stretch:normal;font-variant:normal">Simbolo Chirp</tspan></text>
  <flowRoot
     xml:space="preserve"
     id="flowRoot4246"
     style="fill:black;stroke:none;stroke-opacity:1;stroke-width:1px;stroke-linejoin:miter;stroke-linecap:butt;fill-opacity:1;font-family:sans-serif;font-style:normal;font-weight:normal;font-size:40px;line-height:125%;letter-spacing:0px;word-spacing:0px;text-anchor:middle;text-align:center"><flowRegion
       id="flowRegion4248"><rect
         id="rect4250"
         width="1372.9657"
         height="459.61942"
         x="-8.2495794"
         y="-271.65314" /></flowRegion><flowPara
       id="flowPara4252" /></flowRoot></svg>
