<?xml version="1.0" encoding="UTF-8" standalone="no"?>
<!-- Generator: Adobe Illustrator 16.0.4, SVG Export Plug-In . SVG Version: 6.00 Build 0)  -->

<svg
   xmlns:dc="http://purl.org/dc/elements/1.1/"
   xmlns:cc="http://creativecommons.org/ns#"
   xmlns:rdf="http://www.w3.org/1999/02/22-rdf-syntax-ns#"
   xmlns:svg="http://www.w3.org/2000/svg"
   xmlns="http://www.w3.org/2000/svg"
   xmlns:sodipodi="http://sodipodi.sourceforge.net/DTD/sodipodi-0.dtd"
   xmlns:inkscape="http://www.inkscape.org/namespaces/inkscape"
   version="1.1"
   x="0px"
   y="0px"
   width="400px"
   height="200px"
   viewBox="0 0 400 200"
   enable-background="new 0 0 400 200"
   xml:space="preserve"
   id="svg4400"
   inkscape:version="0.91 r13725"
   sodipodi:docname="zig-bee.svg"><metadata
     id="metadata4452"><rdf:RDF><cc:Work
         rdf:about=""><dc:format>image/svg+xml</dc:format><dc:type
           rdf:resource="http://purl.org/dc/dcmitype/StillImage" /><dc:title></dc:title></cc:Work></rdf:RDF></metadata><defs
     id="defs4450" /><sodipodi:namedview
     pagecolor="#ffffff"
     bordercolor="#666666"
     borderopacity="1"
     objecttolerance="10"
     gridtolerance="10"
     guidetolerance="10"
     inkscape:pageopacity="0"
     inkscape:pageshadow="2"
     inkscape:window-width="1676"
     inkscape:window-height="1027"
     id="namedview4448"
     showgrid="false"
     inkscape:zoom="2.5125"
     inkscape:cx="200"
     inkscape:cy="100"
     inkscape:window-x="0"
     inkscape:window-y="19"
     inkscape:window-maximized="0"
     inkscape:current-layer="g4404" /><g
     id="bluetooth" /><g
     id="Layer_1"><g
       id="g4404"><g
         id="g4406"
         style="fill:#000000"><path
           fill="#C8C8C8"
           d="M31.544,121.778c-10.408,0-8.274-8.273-8.274-8.273l31.996-31.996H15.24     c-0.938,1.52-1.768,3.111-2.47,4.771C10.986,90.497,10,95.133,10,100.001c0,4.866,0.986,9.503,2.77,13.72     c1.784,4.218,4.365,8.016,7.554,11.206c3.189,3.188,6.987,5.77,11.204,7.552c4.218,1.785,8.854,2.771,13.722,2.771     c4.866,0,9.502-0.985,13.719-2.771c4.218-1.782,8.016-4.364,11.204-7.552c0.991-0.991,1.914-2.047,2.781-3.148     C62.701,121.778,39.552,121.778,31.544,121.778z"
           id="path4408"
           style="fill:#000000" /><path
           fill="#C8C8C8"
           d="M58.238,78.343c10.279,0,8.34,8.34,8.34,8.34l-31.868,31.93h40.471c0.969-1.555,1.826-3.186,2.547-4.892     c1.784-4.217,2.77-8.854,2.77-13.72c0-4.868-0.986-9.504-2.77-13.721c-1.783-4.218-4.365-8.016-7.555-11.204     c-3.188-3.189-6.986-5.771-11.204-7.555c-4.217-1.783-8.853-2.771-13.719-2.771c-4.868,0-9.504,0.987-13.722,2.771     c-4.216,1.783-8.014,4.365-11.204,7.555c-1.026,1.025-1.982,2.121-2.876,3.267C28.056,78.343,50.498,78.343,58.238,78.343z"
           id="path4410"
           style="fill:#000000" /></g><g
         id="g4412"
         style="fill:#000000"><path
           fill="#C8C8C8"
           d="M96.62,83.681h19.678v5.926l-13.752,21.714h14.068v5.021H95.987v-5.971l13.707-21.669H96.62V83.681z"
           id="path4414"
           style="fill:#000000" /><path
           fill="#C8C8C8"
           d="M127.968,83.681v5.021h-6.378v-5.021H127.968z M127.968,116.341h-6.378V93.496h6.378V116.341z"
           id="path4416"
           style="fill:#000000" /><path
           fill="#C8C8C8"
           d="M150.179,93.496v23.795c0,1.584,0.092,7.825-8.687,7.825c-4.749,0-8.82-1.221-8.956-6.785h6.244     c0,0.95,0.134,1.765,0.542,2.308c0.407,0.588,1.132,0.904,2.125,0.904c1.585,0,2.354-1.493,2.354-3.799v-4.39h-0.091     c-0.949,1.766-2.759,2.67-4.841,2.67c-7.011,0-6.694-6.424-6.694-11.58c0-5.021,0.09-11.4,6.739-11.4     c2.262,0,4.207,0.996,5.112,3.122h0.091v-2.67H150.179z M141.176,112.089c2.309,0,2.625-2.397,2.625-7.238     c0-5.021-0.228-7.87-2.578-7.87c-2.397,0-2.806,1.673-2.806,8.64C138.417,107.746,138.101,112.089,141.176,112.089z"
           id="path4418"
           style="fill:#000000" /><path
           fill="#C8C8C8"
           d="M154.838,116.341v-32.66h12.123c5.201,0,9.5,1.492,9.5,8.459c0,3.755-1.854,6.469-5.564,7.192v0.091     c4.84,0.678,6.105,3.799,6.105,8.278c0,8.277-7.19,8.64-10.086,8.64H154.838z M161.668,97.025h4.568     c1.493,0,3.575-0.996,3.575-4.162c0-2.397-1.63-4.162-3.936-4.162h-4.208V97.025z M161.668,111.32h3.8     c1.448,0,4.704-0.046,4.704-4.615c0-2.895-1.085-4.658-4.523-4.658h-3.98V111.32z"
           id="path4420"
           style="fill:#000000" /><path
           fill="#C8C8C8"
           d="M187.046,105.937c0,2.714,0.089,6.785,2.895,6.785c2.262,0,2.714-2.172,2.714-4.071h6.47     c-0.092,2.488-0.905,4.523-2.445,5.927c-1.49,1.401-3.752,2.216-6.738,2.216c-8.234,0-9.319-5.021-9.319-12.168     c0-6.242,0.904-11.581,9.319-11.581c8.595,0,9.544,5.564,9.319,12.893H187.046z M192.88,102.363c0-2.217,0.091-5.383-2.939-5.383     c-2.941,0-2.895,3.437-2.895,5.383H192.88z"
           id="path4422"
           style="fill:#000000" /><path
           fill="#C8C8C8"
           d="M209.662,105.937c0,2.714,0.091,6.785,2.896,6.785c2.263,0,2.715-2.172,2.715-4.071h6.467     c-0.089,2.488-0.905,4.523-2.442,5.927c-1.493,1.401-3.755,2.216-6.739,2.216c-8.233,0-9.319-5.021-9.319-12.168     c0-6.242,0.905-11.581,9.319-11.581c8.593,0,9.545,5.564,9.317,12.893H209.662z M215.498,102.363     c0-2.217,0.092-5.383-2.939-5.383c-2.941,0-2.896,3.437-2.896,5.383H215.498z"
           id="path4424"
           style="fill:#000000" /><path
           fill="#C8C8C8"
           d="M234.271,116.341l9.047-32.66h9.001l8.867,32.66h-7.193l-1.81-7.238h-9.317l-1.856,7.238H234.271z      M247.434,89.969h-0.091l-3.12,14.113h6.514L247.434,89.969z"
           id="path4426"
           style="fill:#000000" /><path
           fill="#C8C8C8"
           d="M271.002,83.681v32.66h-6.378v-32.66H271.002z"
           id="path4428"
           style="fill:#000000" /><path
           fill="#C8C8C8"
           d="M283.576,83.681v32.66h-6.377v-32.66H283.576z"
           id="path4430"
           style="fill:#000000" /><path
           fill="#C8C8C8"
           d="M296.151,83.681v5.021h-6.378v-5.021H296.151z M296.151,116.341h-6.378V93.496h6.378V116.341z"
           id="path4432"
           style="fill:#000000" /><path
           fill="#C8C8C8"
           d="M319.131,112.089c0,1.401,0.181,2.85,0.316,4.252h-5.925l-0.272-3.03h-0.089     c-1.357,2.352-3.214,3.482-5.973,3.482c-4.432,0-6.061-3.303-6.061-7.282c0-7.555,5.836-7.872,11.761-7.78v-1.765     c0-1.945-0.271-3.348-2.578-3.348c-2.217,0-2.397,1.673-2.397,3.482h-6.242c0-2.759,0.858-4.523,2.352-5.563     c1.448-1.086,3.527-1.493,5.972-1.493c8.096,0,9.137,3.483,9.137,7.646V112.089z M307.369,109.239     c0,1.629,0.272,3.618,2.354,3.618c3.755,0,3.166-5.065,3.166-7.554C309.723,105.439,307.369,105.167,307.369,109.239z"
           id="path4434"
           style="fill:#000000" /><path
           fill="#C8C8C8"
           d="M330.801,95.804h0.092c1.266-2.035,2.986-2.76,5.384-2.76c3.031,0,5.698,1.81,5.698,4.977v18.32h-6.378     v-15.742c0-2.036-0.361-3.618-2.397-3.618c-2.035,0-2.398,1.582-2.398,3.618v15.742h-6.377V93.496h6.377V95.804z"
           id="path4436"
           style="fill:#000000" /><path
           fill="#C8C8C8"
           d="M358.668,101.639c0-3.393-0.86-4.523-2.851-4.523c-2.714,0-2.941,2.398-2.941,7.147     c0,6.966,0.588,8.459,2.941,8.459c1.99,0,2.939-1.81,2.939-4.794h6.378c0,6.197-3.348,8.865-9.317,8.865     c-8.234,0-9.319-5.021-9.319-12.168c0-6.242,0.905-11.581,9.319-11.581c5.881,0,9.228,2.624,9.228,8.595H358.668z"
           id="path4438"
           style="fill:#000000" /><path
           fill="#C8C8C8"
           d="M375.539,105.937c0,2.714,0.092,6.785,2.895,6.785c2.262,0,2.715-2.172,2.715-4.071h6.469     c-0.089,2.488-0.905,4.523-2.442,5.927c-1.493,1.401-3.755,2.216-6.741,2.216c-8.231,0-9.316-5.021-9.316-12.168     c0-6.242,0.904-11.581,9.316-11.581c8.595,0,9.547,5.564,9.319,12.893H375.539z M381.375,102.363c0-2.217,0.09-5.383-2.941-5.383     c-2.939,0-2.895,3.437-2.895,5.383H381.375z"
           id="path4440"
           style="fill:#000000" /></g><g
         id="g4442"
         style="fill:#000000"><path
           fill="#C8C8C8"
           d="M222.544,86.428h-2.342v-0.845h5.698v0.845h-2.351v6.854h-1.006V86.428z"
           id="path4444"
           style="fill:#000000" /><path
           fill="#C8C8C8"
           d="M233.223,89.9c-0.057-1.074-0.127-2.376-0.127-3.323h-0.021c-0.274,0.891-0.584,1.861-0.971,2.923     l-1.359,3.735h-0.755l-1.256-3.667c-0.366-1.096-0.663-2.078-0.879-2.991h-0.023c-0.023,0.959-0.08,2.238-0.147,3.403     l-0.207,3.301h-0.946l0.536-7.698h1.269l1.312,3.724c0.318,0.947,0.571,1.793,0.775,2.593h0.023     c0.207-0.777,0.48-1.622,0.823-2.593l1.371-3.724h1.266l0.48,7.698h-0.982L233.223,89.9z"
           id="path4446"
           style="fill:#000000" /></g></g></g></svg>