<?xml version="1.0" encoding="UTF-8" standalone="no"?>
<svg
   xmlns:dc="http://purl.org/dc/elements/1.1/"
   xmlns:cc="http://creativecommons.org/ns#"
   xmlns:rdf="http://www.w3.org/1999/02/22-rdf-syntax-ns#"
   xmlns:svg="http://www.w3.org/2000/svg"
   xmlns="http://www.w3.org/2000/svg"
   version="1.1"
   id="svg8787"
   viewBox="0 0 177.16538 166.5354"
   height="4.6999998cm"
   width="5cm">
  <defs
     id="defs8789" />
  <metadata
     id="metadata8792">
    <rdf:RDF>
      <cc:Work
         rdf:about="">
        <dc:format>image/svg+xml</dc:format>
        <dc:type
           rdf:resource="http://purl.org/dc/dcmitype/StillImage" />
        <dc:title></dc:title>
      </cc:Work>
    </rdf:RDF>
  </metadata>
  <g
     transform="translate(0,-885.8283)"
     id="layer1">
    <g
       id="g6429"
       transform="translate(-5,916.2622)">
      <path
         style="fill:#512508;fill-opacity:1"
         class="st0"
         d="m 52.7,31.4 c 0,-1.1 -0.1,-2.1 -0.3,-3.2 L 61.8,22.8 55,11.1 45.6,16.5 c -0.5,-0.4 -1,-0.8 -1.5,-1.1 -1,-0.7 -2.1,-1.3 -3.3,-1.8 -0.2,-0.1 -0.5,-0.2 -0.8,-0.3 l 0,-10.9 -13.3,0 0,10.9 c -0.3,0.1 -0.5,0.2 -0.8,0.3 -1.2,0.5 -2.3,1.1 -3.3,1.8 -0.5,0.3 -1,0.7 -1.5,1.1 l 0,0 -9.4,-5.4 -6.7,11.6 9.4,5.4 c -0.2,1 -0.3,2.1 -0.3,3.2 0,1.1 0.1,2.1 0.3,3.2 L 5,40 l 6.8,11.7 9.4,-5.4 0,0 c 0.5,0.4 1,0.8 1.5,1.1 1,0.7 2.1,1.3 3.3,1.8 0.2,0.1 0.5,0.2 0.8,0.3 l 0,10.9 13.5,0 0,-10.9 c 0.3,-0.1 0.5,-0.2 0.8,-0.3 1.2,-0.5 2.3,-1.1 3.3,-1.8 0.5,-0.3 1,-0.7 1.5,-1.1 l 9.4,5.4 6.8,-11.7 -9.4,-5.4 c -0.1,-1.1 0,-2.2 0,-3.2 z m -19.3,5.8 c -3.2,0 -5.8,-2.6 -5.8,-5.8 0,-3.2 2.6,-5.8 5.8,-5.8 3.2,0 5.8,2.6 5.8,5.8 0,3.2 -2.6,5.8 -5.8,5.8 z"
         id="path79742" />
      <path
         style="fill:#512508;fill-opacity:1"
         class="st0"
         d="m 173.3,58 0,-15.4 -12.4,0 c -0.9,-4.4 -2.7,-8.5 -5,-12.2 l 8.8,-8.8 -10.9,-10.9 -8.8,8.8 c -3.7,-2.4 -7.8,-4.1 -12.2,-5 l 0,-12.5 -15.4,0 0,12.4 c -4.4,0.9 -8.5,2.7 -12.2,5 l -8.8,-8.8 -10.9,11 8.8,8.8 c -2.4,3.7 -4.1,7.8 -5,12.2 l -12.4,0 0,15.4 12.4,0 c 0.9,4.4 2.7,8.5 5,12.2 l -8.8,8.8 10.9,10.9 8.8,-8.8 c 3.7,2.4 7.8,4.1 12.2,5 l 0,12.4 15.4,0 0,-12.4 c 4.4,-0.9 8.5,-2.7 12.2,-5 l 8.8,8.8 10.9,-10.9 -8.8,-8.8 c 2.4,-3.7 4.1,-7.8 5,-12.2 l 12.4,0 z m -48.2,13.5 c -11.7,0 -21.2,-9.5 -21.2,-21.2 0,-11.7 9.5,-21.2 21.2,-21.2 11.7,0 21.2,9.5 21.2,21.2 0,11.7 -9.5,21.2 -21.2,21.2 z"
         id="path79744" />
      <path
         style="fill:#512508;fill-opacity:1"
         class="st0"
         d="m 77.9,104.3 12.4,0 0,-13.5 -12.4,0 C 77.3,88.3 76.3,86 75,83.8 l 8.8,-8.8 -9.6,-9.6 -8.8,8.8 c -2.1,-1.3 -4.5,-2.3 -7,-2.9 l 0,-12.4 -13.4,0 0,12.4 c -2.5,0.6 -4.8,1.6 -7,2.9 l -8.8,-8.8 -9.6,9.6 8.8,8.8 c -1.3,2.1 -2.3,4.5 -2.9,7 l -12.3,0 0,13.5 12.4,0 c 0.6,2.2 1.4,4.2 2.4,6.1 0.2,0.3 0.3,0.6 0.5,0.8 l -8.8,8.8 9.6,9.6 8.8,-8.8 c 2.1,1.3 4.5,2.3 7,2.9 l 0,12.4 13.5,0 0,-12.4 c 2.5,-0.6 4.8,-1.6 7,-2.9 l 8.8,8.8 9.6,-9.6 -8.8,-8.8 c 0.2,-0.3 0.3,-0.6 0.5,-0.8 0.9,-1.9 1.7,-3.9 2.2,-6.1 z m -26.1,2.9 c -5.3,0 -9.6,-4.3 -9.6,-9.6 0,-5.3 4.3,-9.6 9.6,-9.6 5.3,0 9.6,4.3 9.6,9.6 0,5.3 -4.3,9.6 -9.6,9.6 z"
         id="path79746" />
    </g>
  </g>
</svg>
