<?xml version="1.0" encoding="UTF-8" standalone="no"?>
<!-- Created with Inkscape (http://www.inkscape.org/) -->

<svg
   xmlns:dc="http://purl.org/dc/elements/1.1/"
   xmlns:cc="http://creativecommons.org/ns#"
   xmlns:rdf="http://www.w3.org/1999/02/22-rdf-syntax-ns#"
   xmlns:svg="http://www.w3.org/2000/svg"
   xmlns="http://www.w3.org/2000/svg"
   xmlns:sodipodi="http://sodipodi.sourceforge.net/DTD/sodipodi-0.dtd"
   xmlns:inkscape="http://www.inkscape.org/namespaces/inkscape"
   width="5cm"
   height="3.7cm"
   viewBox="0 0 177.16538 131.10234"
   id="svg4303"
   version="1.1"
   inkscape:version="0.91 r13725"
   sodipodi:docname="money.svg">
  <defs
     id="defs4305" />
  <sodipodi:namedview
     id="base"
     pagecolor="#ffffff"
     bordercolor="#666666"
     borderopacity="1.0"
     inkscape:pageopacity="0.0"
     inkscape:pageshadow="2"
     inkscape:zoom="0.41183446"
     inkscape:cx="180.15262"
     inkscape:cy="137.12968"
     inkscape:document-units="px"
     inkscape:current-layer="layer1"
     showgrid="false"
     inkscape:window-width="1052"
     inkscape:window-height="1057"
     inkscape:window-x="0"
     inkscape:window-y="19"
     inkscape:window-maximized="0"
     units="cm" />
  <metadata
     id="metadata4308">
    <rdf:RDF>
      <cc:Work
         rdf:about="">
        <dc:format>image/svg+xml</dc:format>
        <dc:type
           rdf:resource="http://purl.org/dc/dcmitype/StillImage" />
        <dc:title></dc:title>
      </cc:Work>
    </rdf:RDF>
  </metadata>
  <g
     inkscape:label="Layer 1"
     inkscape:groupmode="layer"
     id="layer1"
     transform="translate(0,-921.26132)">
    <g
       id="g4249"
       transform="translate(4.90258,2.6741447)">
      <g
         transform="translate(-417.80258,923.58806)"
         id="g6464">
        <g
           style="font-style:normal;font-variant:normal;font-weight:500;font-stretch:normal;font-size:20.68249893px;line-height:125%;font-family:'Galano Grotesque';-inkscape-font-specification:'Galano Grotesque, Medium';text-align:start;letter-spacing:0px;word-spacing:0px;writing-mode:lr-tb;text-anchor:start;fill:#ffffff;fill-opacity:1;stroke:none;stroke-width:1px;stroke-linecap:butt;stroke-linejoin:miter;stroke-opacity:1"
           id="text154167"
           transform="translate(167.55789,-190.9229)">
          <path
             inkscape:connector-curvature="0"
             d="m 278.02636,264.74316 0,-13.85727 -2.21303,0 0,13.85727 2.21303,0 z"
             id="path5431" />
          <path
             inkscape:connector-curvature="0"
             d="m 286.97509,254.19509 c -1.5305,0 -2.73009,0.55843 -3.55739,1.55119 l 0,-1.26164 -2.15098,0 0,10.25852 2.15098,0 0,-4.73629 c 0,-2.58531 1.22027,-3.82626 3.06101,-3.82626 1.46846,0 2.44054,1.11685 2.44054,2.79214 l 0,5.77041 2.17166,0 0,-6.20475 c 0,-2.56463 -1.6546,-4.34332 -4.11582,-4.34332 z"
             id="path5433" />
          <path
             inkscape:connector-curvature="0"
             d="m 293.20343,261.99239 c 0.26888,2.06825 2.23371,3.04033 4.52947,3.04033 2.56463,0 4.32264,-1.15822 4.32264,-3.3092 0,-1.44778 -1.01344,-2.41985 -2.66804,-2.77146 l -2.44053,-0.53774 c -0.91003,-0.20683 -1.24095,-0.57911 -1.24095,-1.15822 0,-0.72389 0.55842,-1.34436 1.82006,-1.34436 1.32368,0 2.17166,0.68252 2.33712,1.67528 l 2.04757,-0.43433 c -0.37229,-1.71665 -1.96484,-2.9576 -4.32265,-2.9576 -2.46121,0 -4.05377,1.34436 -4.05377,3.24715 0,1.44778 1.01345,2.39917 2.79214,2.79214 l 2.23371,0.45501 c 0.9514,0.20683 1.38573,0.5998 1.38573,1.22027 0,0.80662 -0.78594,1.36505 -2.02689,1.36505 -1.34436,0 -2.41985,-0.51707 -2.56463,-1.73733 l -2.15098,0.45501 z"
             id="path5435" />
          <path
             inkscape:connector-curvature="0"
             d="m 305.73509,250.05859 c -0.80662,0 -1.38573,0.62047 -1.38573,1.34436 0,0.76525 0.57911,1.32368 1.38573,1.32368 0.78593,0 1.36504,-0.55843 1.36504,-1.32368 0,-0.72389 -0.57911,-1.34436 -1.36504,-1.34436 z m 1.07549,14.68457 0,-10.25852 -2.15098,0 0,10.25852 2.15098,0 z"
             id="path5437" />
          <path
             inkscape:connector-curvature="0"
             d="m 319.99244,254.48464 -2.08893,0 0,1.01345 c -0.78594,-0.8273 -1.96484,-1.28232 -3.53671,-1.28232 -2.62668,0 -5.02585,2.08893 -5.02585,4.94312 0,2.85418 2.39917,4.98448 5.02585,4.98448 1.57187,0 2.75077,-0.45501 3.53671,-1.28231 l 0,0.66184 c 0,1.98552 -1.28232,3.20578 -3.22647,3.20578 -1.63392,0 -2.4819,-0.62047 -3.24716,-1.82006 l -1.75801,1.303 c 0.8273,1.53051 2.54395,2.46122 5.00517,2.46122 3.20578,0 5.3154,-1.7787 5.3154,-4.83971 l 0,-9.34849 z m -5.27404,7.79731 c -1.84074,0 -3.28852,-1.24095 -3.28852,-3.12306 0,-1.90279 1.44778,-3.12306 3.28852,-3.12306 1.67528,0 3.18511,1.22027 3.18511,3.12306 0,1.88211 -1.50983,3.12306 -3.18511,3.12306 z"
             id="path5439" />
          <path
             inkscape:connector-curvature="0"
             d="m 328.94602,254.19509 c -1.5305,0 -2.73009,0.55843 -3.55739,1.55119 l 0,-5.89452 -2.15098,0 0,14.8914 2.15098,0 0,-4.73629 c 0,-2.58531 1.22027,-3.82626 3.06101,-3.82626 1.46846,0 2.44054,1.11685 2.44054,2.79214 l 0,5.77041 2.17166,0 0,-6.20475 c 0,-2.56463 -1.6546,-4.34332 -4.11582,-4.34332 z"
             id="path5441" />
          <path
             inkscape:connector-curvature="0"
             d="m 342.20641,262.44741 c -0.53774,0.3516 -1.19958,0.55842 -1.73733,0.55842 -1.01344,0 -1.69596,-0.62047 -1.69596,-1.90279 l 0,-4.8397 3.51602,0 0,-1.7787 -3.51602,0 0,-3.1851 -2.15098,0 0,3.1851 -2.21303,0 0,1.7787 2.21303,0 0,4.98448 c 0,2.54395 1.48914,3.7849 3.70217,3.7849 0.86866,0 1.57187,-0.20683 2.54394,-0.78594 l -0.66184,-1.79937 z"
             id="path5443" />
          <path
             inkscape:connector-curvature="0"
             d="m 343.73821,261.99239 c 0.26888,2.06825 2.23371,3.04033 4.52947,3.04033 2.56463,0 4.32264,-1.15822 4.32264,-3.3092 0,-1.44778 -1.01344,-2.41985 -2.66804,-2.77146 l -2.44053,-0.53774 c -0.91003,-0.20683 -1.24095,-0.57911 -1.24095,-1.15822 0,-0.72389 0.55842,-1.34436 1.82006,-1.34436 1.32368,0 2.17166,0.68252 2.33712,1.67528 l 2.04757,-0.43433 c -0.37229,-1.71665 -1.96484,-2.9576 -4.32265,-2.9576 -2.46121,0 -4.05377,1.34436 -4.05377,3.24715 0,1.44778 1.01345,2.39917 2.79214,2.79214 l 2.23371,0.45501 c 0.9514,0.20683 1.38573,0.5998 1.38573,1.22027 0,0.80662 -0.78594,1.36505 -2.02689,1.36505 -1.34436,0 -2.41985,-0.51707 -2.56463,-1.73733 l -2.15098,0.45501 z"
             id="path5445" />
          <path
             inkscape:connector-curvature="0"
             d="m 278.02636,290.59629 0,-13.85728 -2.21303,0 0,13.85728 2.21303,0 z"
             id="path5447" />
          <path
             inkscape:connector-curvature="0"
             d="m 291.35978,275.70489 -2.17166,0 0,5.81178 c -0.91003,-0.93071 -2.17166,-1.46846 -3.72285,-1.46846 -2.66804,0 -5.08789,2.19235 -5.08789,5.41882 0,3.24715 2.41985,5.41881 5.08789,5.41881 1.55119,0 2.81282,-0.53774 3.72285,-1.44777 l 0,1.15822 2.17166,0 0,-14.8914 z m -5.54291,13.27816 c -1.86142,0 -3.32988,-1.34436 -3.32988,-3.51602 0,-2.15098 1.46846,-3.51603 3.32988,-3.51603 1.71665,0 3.37125,1.36505 3.37125,3.51603 0,2.17166 -1.6546,3.51602 -3.37125,3.51602 z"
             id="path5449" />
          <path
             inkscape:connector-curvature="0"
             d="m 304.15256,285.23952 c -0.10342,-3.08169 -2.37849,-5.19131 -5.12926,-5.19131 -2.89555,0 -5.31541,2.17167 -5.31541,5.4395 0,3.24715 2.44054,5.39813 5.23268,5.39813 2.27507,0 4.09513,-1.07549 4.94311,-3.22647 l -1.92347,-0.41365 c -0.72389,1.44778 -1.88211,1.7787 -3.01964,1.7787 -1.50983,0 -2.89555,-1.13754 -3.10238,-3.04033 l 8.31437,0 0,-0.74457 z M 299.0233,281.951 c 1.40641,0 2.58531,0.8273 2.91623,2.50259 l -6.03929,0 c 0.33092,-1.6546 1.77869,-2.50259 3.12306,-2.50259 z"
             id="path5451" />
          <path
             inkscape:connector-curvature="0"
             d="m 316.54493,280.33777 -2.15098,0 0,1.1789 c -0.88935,-0.93071 -2.17167,-1.46846 -3.72285,-1.46846 -2.68873,0 -5.0879,2.19235 -5.0879,5.41882 0,3.24715 2.39917,5.41881 5.0879,5.41881 1.55118,0 2.8335,-0.53774 3.72285,-1.46845 l 0,1.1789 2.15098,0 0,-10.25852 z m -5.52223,8.64528 c -1.88211,0 -3.35057,-1.34436 -3.35057,-3.51602 0,-2.15098 1.46846,-3.51603 3.35057,-3.51603 1.69596,0 3.37125,1.36505 3.37125,3.51603 0,2.17166 -1.67529,3.51602 -3.37125,3.51602 z"
             id="path5453" />
          <path
             inkscape:connector-curvature="0"
             d="m 318.89498,287.84552 c 0.26887,2.06825 2.2337,3.04032 4.52946,3.04032 2.56463,0 4.32264,-1.15822 4.32264,-3.3092 0,-1.44777 -1.01344,-2.41985 -2.66804,-2.77145 l -2.44053,-0.53775 c -0.91003,-0.20682 -1.24095,-0.57911 -1.24095,-1.15822 0,-0.72388 0.55842,-1.34436 1.82006,-1.34436 1.32368,0 2.17166,0.68252 2.33712,1.67528 l 2.04757,-0.43433 c -0.37229,-1.71665 -1.96484,-2.9576 -4.32265,-2.9576 -2.46121,0 -4.05376,1.34437 -4.05376,3.24716 0,1.44777 1.01344,2.39917 2.79213,2.79213 l 2.23371,0.45502 c 0.9514,0.20682 1.38573,0.59979 1.38573,1.22027 0,0.80661 -0.78594,1.36504 -2.02689,1.36504 -1.34436,0 -2.41985,-0.51706 -2.56463,-1.73733 l -2.15097,0.45502 z"
             id="path5455" />
          <path
             inkscape:connector-curvature="0"
             d="m 278.02636,316.44941 0,-13.85727 -2.21303,0 0,13.85727 2.21303,0 z"
             id="path5457" />
          <path
             inkscape:connector-curvature="0"
             d="m 286.97509,305.90134 c -1.5305,0 -2.73009,0.55842 -3.55739,1.55118 l 0,-1.26163 -2.15098,0 0,10.25852 2.15098,0 0,-4.73629 c 0,-2.58531 1.22027,-3.82626 3.06101,-3.82626 1.46846,0 2.44054,1.11685 2.44054,2.79213 l 0,5.77042 2.17166,0 0,-6.20475 c 0,-2.56463 -1.6546,-4.34332 -4.11582,-4.34332 z"
             id="path5459" />
          <path
             inkscape:connector-curvature="0"
             d="m 299.78047,305.90134 c -1.53051,0 -2.73009,0.55842 -3.55739,1.55118 l 0,-1.26163 -2.15098,0 0,10.25852 2.15098,0 0,-4.73629 c 0,-2.58531 1.22027,-3.82626 3.06101,-3.82626 1.46846,0 2.44053,1.11685 2.44053,2.79213 l 0,5.77042 2.17167,0 0,-6.20475 c 0,-2.56463 -1.6546,-4.34332 -4.11582,-4.34332 z"
             id="path5461" />
          <path
             inkscape:connector-curvature="0"
             d="m 311.51035,305.96338 c -3.04032,0 -5.52222,2.17167 -5.52222,5.35677 0,3.18511 2.4819,5.37745 5.52222,5.37745 3.01965,0 5.48087,-2.19234 5.48087,-5.37745 0,-3.1851 -2.46122,-5.35677 -5.48087,-5.35677 z m 0,8.8728 c -1.79937,0 -3.41261,-1.38573 -3.41261,-3.51603 0,-2.1303 1.61324,-3.51602 3.41261,-3.51602 1.75802,0 3.39193,1.38572 3.39193,3.51602 0,2.1303 -1.63391,3.51603 -3.39193,3.51603 z"
             id="path5463" />
          <path
             inkscape:connector-curvature="0"
             d="m 328.85974,306.17021 -2.33712,0 -3.22647,7.71457 -3.22647,-7.71457 -2.33712,0 4.40537,10.2792 2.29576,0 4.42605,-10.2792 z"
             id="path5465" />
          <path
             inkscape:connector-curvature="0"
             d="m 340.45907,306.19089 -2.15098,0 0,1.1789 c -0.88935,-0.93071 -2.17167,-1.46845 -3.72285,-1.46845 -2.68873,0 -5.0879,2.19234 -5.0879,5.41881 0,3.24715 2.39917,5.41882 5.0879,5.41882 1.55118,0 2.8335,-0.53775 3.72285,-1.46846 l 0,1.1789 2.15098,0 0,-10.25852 z m -5.52223,8.64529 c -1.88211,0 -3.35057,-1.34437 -3.35057,-3.51603 0,-2.15098 1.46846,-3.51602 3.35057,-3.51602 1.69596,0 3.37125,1.36504 3.37125,3.51602 0,2.17166 -1.67529,3.51603 -3.37125,3.51603 z"
             id="path5467" />
          <path
             inkscape:connector-curvature="0"
             d="m 349.84116,314.15365 c -0.53774,0.35161 -1.19958,0.55843 -1.73733,0.55843 -1.01344,0 -1.69596,-0.62047 -1.69596,-1.90279 l 0,-4.8397 3.51602,0 0,-1.7787 -3.51602,0 0,-3.1851 -2.15098,0 0,3.1851 -2.21303,0 0,1.7787 2.21303,0 0,4.98448 c 0,2.54395 1.48914,3.7849 3.70217,3.7849 0.86866,0 1.57187,-0.20683 2.54394,-0.78594 l -0.66184,-1.79938 z"
             id="path5469" />
          <path
             inkscape:connector-curvature="0"
             d="m 353.48258,301.76484 c -0.80662,0 -1.38573,0.62047 -1.38573,1.34436 0,0.76525 0.57911,1.32368 1.38573,1.32368 0.78593,0 1.36504,-0.55843 1.36504,-1.32368 0,-0.72389 -0.57911,-1.34436 -1.36504,-1.34436 z m 1.07549,14.68457 0,-10.25852 -2.15098,0 0,10.25852 2.15098,0 z"
             id="path5471" />
          <path
             inkscape:connector-curvature="0"
             d="m 362.61067,305.96338 c -3.04033,0 -5.52223,2.17167 -5.52223,5.35677 0,3.18511 2.4819,5.37745 5.52223,5.37745 3.01964,0 5.48086,-2.19234 5.48086,-5.37745 0,-3.1851 -2.46122,-5.35677 -5.48086,-5.35677 z m 0,8.8728 c -1.79938,0 -3.41261,-1.38573 -3.41261,-3.51603 0,-2.1303 1.61323,-3.51602 3.41261,-3.51602 1.75801,0 3.39193,1.38572 3.39193,3.51602 0,2.1303 -1.63392,3.51603 -3.39193,3.51603 z"
             id="path5473" />
          <path
             inkscape:connector-curvature="0"
             d="m 376.20877,305.90134 c -1.53051,0 -2.73009,0.55842 -3.55739,1.55118 l 0,-1.26163 -2.15098,0 0,10.25852 2.15098,0 0,-4.73629 c 0,-2.58531 1.22026,-3.82626 3.06101,-3.82626 1.46845,0 2.44053,1.11685 2.44053,2.79213 l 0,5.77042 2.17166,0 0,-6.20475 c 0,-2.56463 -1.6546,-4.34332 -4.11581,-4.34332 z"
             id="path5475" />
        </g>
        <g
           id="g79718">
          <path
             inkscape:connector-curvature="0"
             id="polygon79720"
             d="m 563.4,60.5 0,7.7 11.6,0 0,-57.9 -104.2,0 0,11.6 7.7,0 0,-3.9 88.8,0 0,42.5 z"
             style="fill:#ed7d31;fill-opacity:1" />
          <path
             inkscape:connector-curvature="0"
             id="polygon79722"
             d="m 544.1,87.5 11.6,0 0,-57.9 -104.2,0 0,11.6 7.7,0 0,-3.9 88.8,0 0,42.5 -3.9,0 z"
             style="fill:#ed7d31;fill-opacity:1" />
          <path
             inkscape:connector-curvature="0"
             id="polygon79724"
             d="m 524.8,106.8 11.6,0 0,-57.9 -104.2,0 0,11.6 7.7,0 0,-3.9 88.8,0 0,42.4 -3.9,0 z"
             style="fill:#ed7d31;fill-opacity:1" />
          <path
             inkscape:connector-curvature="0"
             id="path79726"
             d="m 412.9,126.1 104.2,0 0,-57.9 -104.2,0 0,57.9 0,0 z m 7.7,-50.2 88.8,0 0,42.5 -88.8,0 0,-42.5 0,0 z"
             class="st0"
             style="fill:#ed7d31;fill-opacity:1" />
          <path
             inkscape:connector-curvature="0"
             id="path79728"
             d="m 474.8,99.4 c -0.5,-0.8 -1.2,-1.5 -2.2,-2.3 -1,-0.7 -2.4,-1.3 -4.2,-1.8 -0.3,-0.1 -0.7,-0.2 -1,-0.3 -0.3,-0.1 -0.6,-0.1 -0.9,-0.2 l 0,-6.5 c 0.8,0 1.5,0.3 2.1,1 0.6,0.7 0.9,1.5 0.9,2.5 l 5.2,0 c -0.1,-1.3 -0.3,-2.4 -0.8,-3.3 -0.5,-0.9 -1.1,-1.7 -1.8,-2.3 -0.7,-0.6 -1.6,-1.1 -2.5,-1.5 -1,-0.4 -2,-0.6 -3.1,-0.7 l 0,-2.8 -2.2,0 0,2.8 c -1.1,0.1 -2.2,0.3 -3.2,0.6 -1,0.4 -1.9,0.9 -2.7,1.5 -0.8,0.6 -1.4,1.4 -1.9,2.4 -0.5,1 -0.7,2.1 -0.7,3.3 0,1.2 0.2,2.2 0.6,3.1 0.4,0.8 1,1.5 1.7,2.1 0.7,0.5 1.5,1 2.4,1.3 0.9,0.3 1.8,0.6 2.7,0.9 0.2,0 0.5,0.1 0.7,0.2 0.2,0.1 0.4,0.1 0.5,0.2 l 0,7.7 c -1.1,-0.2 -2.1,-0.7 -2.8,-1.5 -0.8,-0.8 -1.1,-1.9 -1.1,-3.3 l -5.2,0 c 0.2,2.9 1.1,5.1 2.7,6.6 1.5,1.5 3.7,2.3 6.4,2.5 l 0,3.1 2.2,0 0,-3.1 c 1.8,-0.1 3.3,-0.5 4.5,-1.1 1.2,-0.6 2.1,-1.3 2.8,-2.1 0.7,-0.8 1.2,-1.6 1.4,-2.4 0.3,-0.8 0.4,-1.5 0.4,-2 0,-0.6 0,-1.3 -0.1,-2.1 0,-1 -0.3,-1.7 -0.8,-2.5 z m -10.3,-5.1 c -1.2,-0.3 -2,-0.6 -2.5,-1.1 -0.5,-0.4 -0.8,-1.1 -0.8,-1.9 0,-0.5 0.1,-1 0.3,-1.3 0.2,-0.4 0.4,-0.7 0.8,-1 0.3,-0.3 0.7,-0.4 1.1,-0.6 0.4,-0.1 0.8,-0.2 1.2,-0.2 l 0,6.1 -0.1,0 z m 5.7,10.8 c -0.2,0.4 -0.6,0.8 -0.9,1.1 -0.4,0.3 -0.8,0.5 -1.3,0.7 -0.5,0.2 -0.9,0.3 -1.4,0.3 l 0,-7 c 1.4,0.4 2.5,0.8 3.1,1.3 0.6,0.5 0.9,1.2 0.9,2.1 0,0.6 -0.1,1.1 -0.4,1.5 z"
             class="st0"
             style="fill:#ed7d31;fill-opacity:1" />
          <path
             inkscape:connector-curvature="0"
             id="rect79730"
             d="m 484.29999,81.699997 19.3,0 0,5.8 -19.3,0 z"
             style="fill:#ed7d31;fill-opacity:1" />
          <path
             inkscape:connector-curvature="0"
             id="rect79732"
             d="m 426.39999,106.8 19.3,0 0,5.8 -19.3,0 z"
             style="fill:#ed7d31;fill-opacity:1" />
        </g>
      </g>
    </g>
  </g>
</svg>
